<?xml version="1.0" encoding="utf-8"?>
<!-- Generator: Adobe Illustrator 23.0.5, SVG Export Plug-In . SVG Version: 6.00 Build 0)  -->
<svg version="1.1" id="Layer_1" xmlns="http://www.w3.org/2000/svg" xmlns:xlink="http://www.w3.org/1999/xlink" x="0px" y="0px"
	 viewBox="0 0 474 474" style="enable-background:new 0 0 474 474;" xml:space="preserve">
<style type="text/css">
	.st0{fill:#FBB040;}
</style>
<path class="st0" d="M17.8,415.9l95.8,55.1c7.2,4,16.8,4,24,0l99.8-56.7l99.8,56.7c7.2,4,16.8,4,24,0l95.8-55.1c7.2-4,12-12,12-20.8
	V278.5c0-8.8-4.8-16.8-12-20.8l-99.8-57.5V78.9c0-8.8-4.8-16.8-12-20.8L249.4,3c-7.2-4-16.8-4-24,0l-95.8,55.1c-7.2,4-12,12-12,20.8
	v122.2l-99.8,56.7c-7.2,4-12,12-12,20.8v117.4C5.8,403.9,10.6,411.9,17.8,415.9z M125.6,377.6l-10.4-10.4c1.6-3.2,2.4-7.2,2.4-11.2
	v-13.6l-7.2-14.4c-0.8-1.6-0.8-2.4-0.8-4v-15.2c0-8.8,7.2-16,16-16c8.8,0,16,7.2,16,16v15.2c0,1.6,0,2.4-0.8,3.2l-7.2,15.2V356
	c0,4,0.8,7.2,2.4,11.2L125.6,377.6z M149.5,356v-10.4l5.6-11.2c1.6-3.2,2.4-7.2,2.4-10.4v-15.2c0-17.6-14.4-31.9-31.9-31.9
	c-17.6,0-31.9,14.4-31.9,31.9v15.2c0,4,0.8,7.2,2.4,10.4l5.6,11.2V356c0,3.2-2.4,6.4-5.6,8l-25.6,7.2l4.8-62.3
	c2.4-28,26.4-48.7,54.3-46.3c24.8,1.6,44.7,21.6,46.3,46.3l4.8,62.3l-25.6-7.2C151.9,362.4,149.5,359.2,149.5,356z M61.7,395.9
	c0-3.2,2.4-6.4,5.6-8l32.7-9.6c0.8,0,2.4-0.8,3.2-0.8l11.2,11.2l-20.8,20.8v31.9l-31.9-18.4V395.9z M129.6,457.4
	c-2.4,1.6-5.6,1.6-8,0l-12-7.2v-34.3l38.3-38.3c0.8,0.8,2.4,0.8,3.2,0.8l32.7,9.6c3.2,0.8,5.6,4,5.6,8v27.2L129.6,457.4z
	 M269.3,93.2c-8-3.2-16.8-3.2-23.2,1.6l-8.8,4.8l-8.8-4.8c-7.2-4-16-4.8-23.2-1.6v-16c0-4.8,3.2-8,8-8h47.9c4.8,0,8,3.2,8,8V93.2z
	 M205.5,117.2c0-5.6,4.8-10.4,10.4-10.4c1.6,0,4,0.8,5.6,1.6l16.8,10.4l16.8-10.4c4.8-3.2,11.2-1.6,13.6,3.2
	c0.8,1.6,1.6,3.2,1.6,5.6v17.6c0,2.4-0.8,4-2.4,5.6l-20,20l-10.4,9.6l-8.8-8.8l-8.8-8.8l-11.2-11.2c-1.6-1.6-2.4-3.2-2.4-5.6v-18.4
	H205.5z M301.3,223.4l-48.7,28l12.8-33.5c3.2-8.8,0.8-18.4-5.6-25.6l-11.2-11.2l15.2-15.2l31.9,10.4c3.2,0.8,5.6,4,5.6,7.2V223.4z
	 M237.4,192.3l11.2,11.2c2.4,2.4,3.2,5.6,1.6,8.8l-12.8,34.3l-12.8-34.3c-0.8-3.2,0-6.4,1.6-8.8L237.4,192.3z M211,165.9l15.2,15.2
	L215,192.3c-6.4,6.4-8.8,16.8-5.6,25.6l12.8,33.5l-48.7-28v-38.3c0-3.2,2.4-6.4,5.6-7.2L211,165.9z M353.2,457.4
	c-2.4,1.6-5.6,1.6-8,0l-59.9-34.3v-38.3c0-3.2,2.4-6.4,5.6-7.2l31.9-10.4c14.4,14.4,38.3,14.4,52.7,0l31.9,10.4
	c3.2,0.8,5.6,4,5.6,7.2v38.3L353.2,457.4z M317.3,308.9v-1.6l31.9-6.4l31.9,6.4V328c0,1.6-0.8,3.2-1.6,4.8l-12.8,20
	c-7.2,9.6-20.8,12-30.3,4c-1.6-1.6-3.2-2.4-4-4l-12.8-20c-0.8-1.6-1.6-3.2-1.6-4.8v-19.2H317.3z M381.2,291.3l-31.9-6.4l-31.9,6.4
	v-14.4c0-4.8,3.2-8,8-8h55.9V291.3z M449,271.3c2.4,1.6,4,4,4,7.2v117.4c0,3.2-1.6,5.6-4,7.2l-20,10.4V384
	c0-10.4-6.4-19.2-16.8-22.4l-27.2-8.8l7.2-11.2c2.4-4,4-8.8,4-13.6V253h-71.9c-13.6,0-24,10.4-24,24V328c0,4.8,1.6,9.6,4,13.6
	l7.2,11.2l-27.2,8.8c-8.8,3.2-15.2,12-15.2,22.4v29.5l-24-13.6v-127c1.6-0.8,2.4-0.8,4-1.6l99.8-56.7L449,271.3z M137.6,71.7
	l95.8-55.1c2.4-1.6,5.6-1.6,8,0l95.8,55.1c2.4,1.6,4,4,4,7.2v122.2l-24,13.6v-29.6c0-10.4-6.4-19.2-16.8-22.4l-24.8-8l2.4-2.4
	c4.8-4.8,7.2-10.4,7.2-16.8V77.3c0-13.6-10.4-24-24-24h-47.9c-13.6,0-24,10.4-24,24v57.5c0,6.4,2.4,12.8,7.2,16.8l2.4,2.4l-24.8,8
	c-10.4,3.2-16.8,12-16.8,22.4v29.5l-24-13.6V78.9C133.6,75.7,135.2,73.3,137.6,71.7z M21.8,278.5c0-3.2,1.6-5.6,4-7.2l99.8-56.7
	l99.8,56.7c1.6,0.8,2.4,0.8,4,1.6v127l-24,13.6v-17.6c0-7.2-3.2-13.6-8-17.6l-5.6-71.1c-3.2-36.7-35.1-63.9-71.1-61.5
	c-32.7,2.4-58.3,28.8-61.5,61.5l-5.6,71.1c-4.8,4.8-8,11.2-8,17.6v17.6l-20-11.2c-2.4-1.6-4-4-4-7.2V278.5z"/>
<path class="st0" d="M149.5,396.7h24v16h-24V396.7z"/>
<path class="st0" d="M341.2,388.7h16v16h-16V388.7z"/>
<path class="st0" d="M341.2,420.7h16v16h-16V420.7z"/>
<path class="st0" d="M373.2,388.7h24v16h-24V388.7z"/>
<path class="st0" d="M277.3,189.1h16v16h-16V189.1z"/>
</svg>
