<?xml version="1.0" encoding="utf-8"?>
<!-- Generator: Adobe Illustrator 23.0.5, SVG Export Plug-In . SVG Version: 6.00 Build 0)  -->
<svg version="1.1" id="Capa_1" xmlns="http://www.w3.org/2000/svg" xmlns:xlink="http://www.w3.org/1999/xlink" x="0px" y="0px"
	 viewBox="0 0 480 480" style="enable-background:new 0 0 480 480;" xml:space="preserve">
<style type="text/css">
	.st0{fill:#FBB040;}
</style>
<g>
	<g>
		<path class="st0" d="M316.2,123.9l-69.3-120c-2.5-3.8-7.7-4.9-11.5-2.3c-0.9,0.6-1.7,1.4-2.3,2.3l-69.3,120
			c-2.2,3.8-0.9,8.7,2.9,10.9c1.2,0.7,2.6,1.1,4,1.1h138.6c4.4,0,8-3.6,8-8C317.3,126.5,316.9,125.1,316.2,123.9z M184.6,119.9
			l55.4-96l55.4,96H184.6z"/>
	</g>
</g>
<g>
	<g>
		<path class="st0" d="M472,335.9C472,335.9,472,335.9,472,335.9H344c-4.4,0-8,3.6-8,8c0,0,0,0,0,0v128c0,4.4,3.6,8,8,8c0,0,0,0,0,0
			h128c4.4,0,8-3.6,8-8c0,0,0,0,0,0v-128C480,339.4,476.4,335.9,472,335.9z M464,463.9H352v-112h112V463.9z"/>
	</g>
</g>
<g>
	<g>
		<path class="st0" d="M72,335.9c-39.8,0-72,32.2-72,72c0,39.8,32.2,72,72,72s72-32.2,72-72C144,368.1,111.7,335.9,72,335.9z
			 M72,463.9c-30.9,0-56-25.1-56-56s25.1-56,56-56s56,25.1,56,56C128,438.8,102.9,463.8,72,463.9z"/>
	</g>
</g>
<g>
	<g>
		<path class="st0" d="M163.3,88.5L156.7,74C62.6,117.2,17,224.9,51.4,322.5l15.1-5.3C34.8,227.4,76.8,128.3,163.3,88.5z"/>
	</g>
</g>
<g>
	<g>
		<path class="st0" d="M309,426.5c-21.9,8.9-45.4,13.4-69,13.4c-25.3,0.1-50.4-5.2-73.6-15.3l-6.4,14.7
			c49.3,21.5,105.2,22.2,155.1,2.1L309,426.5z"/>
	</g>
</g>
<g>
	<g>
		<path class="st0" d="M336.9,80.9L336.9,80.9c-1.7-1-3.5-1.9-5.3-2.8l-7.3,14.2c1.6,0.8,3.2,1.7,4.8,2.6l3.9-7l-3.9,7
			c58.5,32.5,94.8,94.1,94.9,161c0,18.2-2.7,36.3-7.9,53.7l15.3,4.7C458.8,223.9,419.4,126.7,336.9,80.9z"/>
	</g>
</g>
</svg>
