<?xml version="1.0" encoding="utf-8"?>
<!-- Generator: Adobe Illustrator 23.0.5, SVG Export Plug-In . SVG Version: 6.00 Build 0)  -->
<svg version="1.1" id="Layer_1" xmlns="http://www.w3.org/2000/svg" xmlns:xlink="http://www.w3.org/1999/xlink" x="0px" y="0px"
	 viewBox="0 0 496 496" style="enable-background:new 0 0 496 496;" xml:space="preserve">
<style type="text/css">
	.st0{fill:#FBB040;}
</style>
<path class="st0" d="M440,328h-28.2c5.1-6.7,8.2-15,8.2-24c0-8.8-7.2-16-16-16h-12v-20c59.6-14.4,104-68.1,104-132
	C496,61,435,0,360,0S224,61,224,136c0,64,44.4,117.6,104,132v20h-8.4c-6.2,0-12.4,1.5-17.9,4.2l-50.5,25.3c-3.3,1.7-7,2.5-10.7,2.5
	H200v-16H96v16h56v56h16v-56h16v128h-16v-56h-16v56H96v16h104v-16h40.4c3.7,0,7.4,0.9,10.7,2.5l34.5,17.3c5.5,2.8,11.7,4.2,17.9,4.2
	H328v24h64v-24h48c13.2,0,24-10.8,24-24c0-6.2-2.4-11.7-6.2-16c3.8-4.3,6.2-9.8,6.2-16s-2.4-11.7-6.2-16c3.8-4.3,6.2-9.8,6.2-16
	s-2.4-11.7-6.2-16c3.8-4.3,6.2-9.8,6.2-16C464,338.8,453.2,328,440,328z M448,352c0,4.4-3.6,8-8,8h-56c-4.4,0-8-3.6-8-8s3.6-8,8-8
	h56C444.4,344,448,347.6,448,352z M448,384c0,4.4-3.6,8-8,8h-56c-4.4,0-8-3.6-8-8s3.6-8,8-8h56C444.4,376,448,379.6,448,384z
	 M448,416c0,4.4-3.6,8-8,8h-56c-4.4,0-8-3.6-8-8s3.6-8,8-8h56C444.4,408,448,411.6,448,416z M240,136c0-66.2,53.8-120,120-120
	s120,53.8,120,120s-53.8,120-120,120S240,202.2,240,136z M344,271c5.3,0.6,10.6,1,16,1s10.7-0.4,16-1v17h-32V271z M303.6,456
	c-3.7,0-7.4-0.9-10.7-2.5l-34.5-17.3c-5.5-2.8-11.7-4.2-17.9-4.2H200v-96h40.4c6.2,0,12.4-1.5,17.9-4.2l50.5-25.3
	c3.3-1.7,7-2.5,10.7-2.5H404c0,13.2-10.8,24-24,24h-48.3l-23.9,35.8c-6.1,9.2-14.5,16.6-24.4,21.5c-8.8,4.4-18.5,6.7-28.3,6.7H240
	v16h15.2c12.2,0,24.5-2.9,35.5-8.4c12.3-6.2,22.9-15.5,30.5-26.9l6.8-10.3V456H303.6z M344,480V344h17.5c-0.9,2.5-1.5,5.2-1.5,8
	c0,6.2,2.4,11.7,6.2,16c-3.8,4.3-6.2,9.8-6.2,16s2.4,11.7,6.2,16c-3.8,4.3-6.2,9.8-6.2,16s2.4,11.7,6.2,16c-3.8,4.3-6.2,9.8-6.2,16
	c0,10.4,6.7,19.2,16,22.5v9.5H344z M440,456h-56c-4.4,0-8-3.6-8-8s3.6-8,8-8h56c4.4,0,8,3.6,8,8S444.4,456,440,456z"/>
<path class="st0" d="M394.9,73l-7.8,14c17.8,9.9,28.9,28.7,28.9,49h16C432,109.8,417.8,85.7,394.9,73z"/>
<path class="st0" d="M360,80c4.7,0,9.4,0.6,14,1.8l4-15.5c-5.9-1.5-11.9-2.3-18-2.3V80z"/>
<path class="st0" d="M360,48c48.5,0,88,39.5,88,88c0,20.8-7.4,40.9-20.8,56.8l12.2,10.3c15.9-18.8,24.6-42.6,24.6-67.1
	c0-57.3-46.7-104-104-104c-24.5,0-48.4,8.8-67.1,24.6l10.3,12.2C319.1,55.4,339.2,48,360,48z"/>
<path class="st0" d="M427.1,215.4l-10.3-12.2c-15.9,13.4-36,20.8-56.8,20.8c-48.5,0-88-39.5-88-88c0-20.8,7.4-40.9,20.8-56.8
	l-12.2-10.3C264.7,87.6,256,111.5,256,136c0,57.3,46.7,104,104,104C384.5,240,408.4,231.2,427.1,215.4z"/>
<path class="st0" d="M121.2,165.6c5-1.4,9.7-3.3,14.2-5.9l9.8,4.9l19.5-19.5l-4.9-9.8c2.5-4.5,4.5-9.2,5.9-14.2l10.4-3.4V90.2
	l-10.4-3.5c-1.4-5-3.3-9.7-5.9-14.2l4.9-9.8l-19.5-19.5l-9.8,4.9c-4.5-2.5-9.2-4.5-14.2-5.9L117.8,32H90.2l-3.4,10.4
	c-5,1.4-9.7,3.3-14.2,5.9l-9.8-4.9L43.4,62.8l4.9,9.8c-2.5,4.5-4.5,9.2-5.9,14.2L32,90.2v27.5l10.4,3.5c1.4,5,3.3,9.7,5.9,14.2
	l-4.9,9.8l19.5,19.5l9.8-4.9c4.5,2.5,9.2,4.5,14.2,5.9l3.5,10.4h27.5L121.2,165.6z M108.9,152l-2.7,8h-4.5l-2.7-8l-4.6-0.9
	c-6.1-1.2-11.9-3.6-17.1-7.1l-3.9-2.6l-7.6,3.8l-3.2-3.2l3.8-7.6l-2.6-3.9c-3.5-5.2-5.9-11-7.1-17.1l-0.9-4.6l-8-2.7v-4.5l8-2.7
	l0.9-4.6c1.2-6.1,3.6-11.9,7.1-17.1l2.6-3.9L62.8,66l3.2-3.2l7.6,3.8l3.9-2.6c5.2-3.5,11-5.9,17.1-7.1l4.6-0.9l2.7-8h4.5l2.7,8
	l4.6,0.9c6.1,1.2,11.9,3.6,17.1,7.1l3.9,2.6l7.6-3.8l3.2,3.2l-3.8,7.6l2.6,3.9c3.5,5.2,5.9,11,7.1,17.1l0.9,4.6l8,2.7v4.5l-8,2.7
	l-0.9,4.6c-1.2,6.1-3.6,11.9-7.1,17.1l-2.6,3.9l3.8,7.6l-3.2,3.2l-7.6-3.8l-3.9,2.6c-5.2,3.5-11,5.9-17.1,7.1L108.9,152z"/>
<path class="st0" d="M104,72c-17.6,0-32,14.4-32,32s14.4,32,32,32s32-14.4,32-32S121.6,72,104,72z M104,120c-8.8,0-16-7.2-16-16
	s7.2-16,16-16s16,7.2,16,16S112.8,120,104,120z"/>
<path class="st0" d="M160,248v-40h48V0H0v208h106.7L160,248z M16,16h176v176h-48v24l-32-24H16V16z"/>
<path class="st0" d="M0,272h16v16H0V272z"/>
<path class="st0" d="M32,272h16v16H32V272z"/>
<path class="st0" d="M64,272h16v16H64V272z"/>
<path class="st0" d="M32,304h16v16H32V304z"/>
<path class="st0" d="M64,304h16v16H64V304z"/>
<path class="st0" d="M0,480h16v16H0V480z"/>
<path class="st0" d="M32,480h16v16H32V480z"/>
<path class="st0" d="M64,480h16v16H64V480z"/>
<path class="st0" d="M32,448h16v16H32V448z"/>
<path class="st0" d="M64,448h16v16H64V448z"/>
</svg>
