<?xml version="1.0" encoding="utf-8"?>
<!-- Generator: Adobe Illustrator 23.0.5, SVG Export Plug-In . SVG Version: 6.00 Build 0)  -->
<svg version="1.1" id="Layer_1" xmlns="http://www.w3.org/2000/svg" xmlns:xlink="http://www.w3.org/1999/xlink" x="0px" y="0px"
	 viewBox="0 0 511 511" style="enable-background:new 0 0 511 511;" xml:space="preserve">
<style type="text/css">
	.st0{fill:#FBB040;}
</style>
<path class="st0" d="M470,198.1c-1.7-0.7-42.3-16.2-69.5,2.4c-15.1,10.3-22.8,28.6-22.8,54.2c0,11.1-1.8,25.1-10.3,28.9
	c-14,6.4-43.8-12.1-61.5-26.7L285.4,46.4c0,0,0,0,0-0.1c0-0.1,0-0.2-0.1-0.3c0-0.1,0-0.2-0.1-0.4c0-0.1-0.1-0.2-0.1-0.3
	c0-0.1-0.1-0.2-0.1-0.4c0-0.1-0.1-0.2-0.1-0.3c0-0.1-0.1-0.2-0.1-0.4c0-0.1-0.1-0.2-0.1-0.3c-0.1-0.1-0.1-0.2-0.2-0.3
	c-0.1-0.1-0.1-0.2-0.2-0.3c-0.1-0.1-0.1-0.2-0.2-0.3c-0.1-0.1-0.1-0.2-0.2-0.3c-0.1-0.1-0.2-0.2-0.2-0.3c-0.1-0.1-0.1-0.2-0.2-0.2
	c-0.1-0.1-0.2-0.2-0.3-0.3c0,0-0.1-0.1-0.1-0.1c0,0-0.1-0.1-0.1-0.1c-0.1-0.1-0.2-0.2-0.3-0.3c-0.1-0.1-0.2-0.1-0.2-0.2
	c-0.1-0.1-0.2-0.2-0.3-0.2c-0.1-0.1-0.2-0.1-0.3-0.2c-0.1-0.1-0.2-0.1-0.3-0.2c-0.1-0.1-0.2-0.1-0.3-0.2c-0.2-0.1-0.4-0.2-0.6-0.3
	c-0.1,0-0.2-0.1-0.3-0.1c-0.1-0.1-0.3-0.1-0.4-0.1c-0.1,0-0.2,0-0.3-0.1c-0.1,0-0.3-0.1-0.4-0.1c-0.1,0-0.2,0-0.3,0
	c-0.1,0-0.3,0-0.4-0.1c-0.1,0-0.2,0-0.4,0c-0.1,0-0.2,0-0.3,0h-44.4V6.5c0-4.2-3.4-7.5-7.5-7.5h-89c-4.2,0-7.5,3.4-7.5,7.5v33.1H85
	c-0.5,0-1,0-1.4,0.1c0,0-0.1,0-0.1,0c-0.2,0-0.4,0.1-0.6,0.1c-0.1,0-0.2,0.1-0.2,0.1c-0.1,0-0.3,0.1-0.4,0.1c-0.1,0-0.2,0.1-0.3,0.1
	c-0.1,0.1-0.2,0.1-0.3,0.2c-0.1,0.1-0.2,0.1-0.3,0.2c-0.1,0.1-0.2,0.1-0.3,0.2c-0.1,0.1-0.2,0.1-0.3,0.2c-0.1,0.1-0.2,0.1-0.3,0.2
	c-0.1,0.1-0.2,0.1-0.2,0.2c-0.1,0.1-0.2,0.2-0.3,0.3c0,0-0.1,0.1-0.1,0.1c0,0-0.1,0.1-0.1,0.1c-0.1,0.1-0.2,0.2-0.3,0.3
	c-0.1,0.1-0.1,0.2-0.2,0.2c-0.1,0.1-0.2,0.2-0.2,0.3c-0.1,0.1-0.1,0.2-0.2,0.3c-0.1,0.1-0.1,0.2-0.2,0.3c-0.1,0.1-0.1,0.2-0.2,0.3
	c-0.1,0.1-0.1,0.2-0.2,0.3c0,0.1-0.1,0.2-0.1,0.3c-0.1,0.1-0.1,0.3-0.1,0.4c0,0.1-0.1,0.2-0.1,0.3c-0.1,0.2-0.1,0.3-0.1,0.5
	c0,0.2-0.1,0.4-0.1,0.6c0,0.1,0,0.2,0,0.3v0v0L37,461.7c-0.2,2.1,0.5,4.2,1.9,5.8c1.4,1.6,3.5,2.5,5.6,2.5h85v32.6
	c0,4.2,3.4,7.5,7.5,7.5h89c4.2,0,7.5-3.4,7.5-7.5v-32.6h85c2.1,0,4.1-0.9,5.6-2.5c1.4-1.6,2.1-3.7,1.9-5.8l-18-184.2
	c14,10,35.1,22.5,53,22.5c4.5,0,8.7-0.8,12.7-2.6c12.7-5.7,19.1-20.1,19.1-42.6c0-20.4,5.4-34.4,16.2-41.8
	c20.5-14.1,55-1.1,55.6-0.8c3.9,1.5,8.2-0.4,9.7-4.3C475.7,204,473.8,199.6,470,198.1z M191.2,54.6l-44,44l-44-44H191.2z
	 M212.5,54.6h47.6l-77.3,79.6l-24.9-24.9L212.5,54.6z M272,64l4.6,47.6l-58.3,58.3l-25-25L272,64z M278.5,130.9l5.6,56.9l-23.9,23.9
	L229,180.4L278.5,130.9z M286,207.2l3.3,33.5l-18.4-18.4L286,207.2z M144.5,14h73.9v25h-8.6c0,0,0,0,0,0h-65.4V14z M62.4,356.1
	l34.8-34.8l28.8,28.8l-70.1,72.2L62.4,356.1z M64.7,332.5l3.9-39.9l18,18L64.7,332.5z M53.7,445.4c0.8-0.4,1.6-0.9,2.3-1.6
	l80.8-83.1l31.4,31.4l-62.7,62.7H52.7L53.7,445.4z M226,454.9h-99.3l52.1-52.1l52.1,52.1H226z M218.4,495h-73.9v-25h73.9V495z
	 M252.1,454.9L70.5,273.2l5.2-52.9l136.2,130.7c1.5,1.4,3.3,2.1,5.2,2.1c2,0,3.9-0.8,5.4-2.3c2.9-3,2.8-7.8-0.2-10.6L77.5,201.3
	l6-61.3l45.3,45.3c1.5,1.5,3.4,2.2,5.3,2.2c1.9,0,3.8-0.7,5.3-2.2c2.9-2.9,2.9-7.7,0-10.6l-54-54L91,63.7l200.6,200.6l6.8,69.3
	L160.7,195.9c-2.9-2.9-7.7-2.9-10.6,0c-2.9,2.9-2.9,7.7,0,10.6l150.6,150.6l6.3,64.3l-64.1-61.6c-3-2.9-7.8-2.8-10.6,0.2
	c-2.9,3-2.8,7.8,0.2,10.6l75.2,72.2c0.5,0.5,1,0.8,1.6,1.2l1.1,10.8L252.1,454.9L252.1,454.9z"/>
</svg>
