<?xml version="1.0" encoding="utf-8"?>
<!-- Generator: Adobe Illustrator 23.0.5, SVG Export Plug-In . SVG Version: 6.00 Build 0)  -->
<svg version="1.1" id="Capa_1" xmlns="http://www.w3.org/2000/svg" xmlns:xlink="http://www.w3.org/1999/xlink" x="0px" y="0px"
	 viewBox="0 0 512 512" style="enable-background:new 0 0 512 512;" xml:space="preserve">
<style type="text/css">
	.st0{fill:#FBB040;}
</style>
<path class="st0" d="M484.1,282.1c0-15.7-7.7-30.4-20.7-39.2L290,124.6V94.5c0-9.6-7.9-17.5-17.5-17.5H263V42c0-23.2-18.8-42-42-42
	s-42,18.8-42,42v6c0,4.1,3.4,7.5,7.5,7.5s7.5-3.4,7.5-7.5v-6c0-14.9,12.1-27,27-27s27,12.1,27,27v35h-8.5c-9.6,0-17.5,7.9-17.5,17.5
	v30.1L48.6,242.9c-13,8.9-20.7,23.5-20.7,39.2l0.2,33.4c0,9.6,7.9,17.5,17.5,17.5h87.9c4.1,0,7.5-3.4,7.5-7.5v-16
	c0-1.4,1.1-2.5,2.5-2.5h225c1.4,0,2.5,1.1,2.5,2.5v84c0,9.6,7.9,17.5,17.5,17.5H418v86H311v-6c0-30.3-24.7-55-55-55s-55,24.7-55,55
	v6H94v-86h29.5c9.6,0,17.5-7.9,17.5-17.5v-33c0-4.1-3.4-7.5-7.5-7.5s-7.5,3.4-7.5,7.5v33c0,1.4-1.1,2.5-2.5,2.5h-57
	c-9.6,0-17.5,7.9-17.5,17.5v81c0,9.6,7.9,17.5,17.5,17.5h142c0.4,0,0.7,0,1-0.1c0.1,0,0.1,0,0.2,0c0.3-0.1,0.7-0.1,1-0.2
	c0,0,0,0,0,0c0.3-0.1,0.7-0.2,1-0.4c0.1,0,0.1,0,0.2-0.1c0.3-0.2,0.6-0.3,0.9-0.5c0,0,0,0,0.1,0c10.3-7.4,26-11.6,43.1-11.6
	s32.9,4.2,43.1,11.6c0,0,0,0,0.1,0c0.3,0.2,0.5,0.3,0.8,0.5c0,0,0.1,0,0.1,0.1c0.2,0.1,0.5,0.2,0.8,0.3c0.1,0,0.1,0,0.2,0.1
	c0.3,0.1,0.6,0.2,0.8,0.2c0,0,0,0,0,0c0.3,0.1,0.6,0.1,0.9,0.1c0.1,0,0.2,0,0.2,0c0.1,0,0.3,0,0.4,0h142c9.6,0,17.5-7.9,17.5-17.5
	v-81c0-9.6-7.9-17.5-17.5-17.5h-57c-1.4,0-2.5-1.1-2.5-2.5v-84c0-9.6-7.9-17.5-17.5-17.5h-225c-9.6,0-17.5,7.9-17.5,17.5v8.5H45.6
	c-1.4,0-2.5-1.1-2.5-2.5v-12.3h2c9.6,0,18.9-2.9,26.8-8.3l151.3-103.3c5.4-3.7,11.7-5.7,18.3-5.7l29.1,0h0c6.6,0,12.9,2,18.3,5.7
	l151.3,103.2c7.8,5.4,17.1,8.2,26.8,8.2h2.1v12.5c0,1.3-1.2,2.5-2.7,2.5h-52.9c-4.1,0-7.5,3.4-7.5,7.5s3.4,7.5,7.5,7.5h52.9
	c9.7,0,17.7-7.9,17.7-17.5L484.1,282.1z M448,463h-15v-18h15V463z M64,445h15v18H64V445z M66.5,411H79v19H64v-16.5
	C64,412.1,65.1,411,66.5,411z M64,494.5V478h15v19H66.5C65.1,497,64,495.9,64,494.5z M296,491.8c-11.8-5.1-25.9-7.7-40-7.7
	s-28.2,2.6-40,7.7V491c0-22.1,17.9-40,40-40s40,17.9,40,40V491.8z M445.5,497H433v-19h15v16.5C448,495.9,446.9,497,445.5,497z
	 M448,413.5V430h-15v-19h12.5C446.9,411,448,412.1,448,413.5z M237,94.5c0-1.4,1.1-2.5,2.5-2.5h33c1.4,0,2.5,1.1,2.5,2.5V121h-38
	V94.5z M448.6,282.4L297.4,179.2c-7.9-5.4-17.2-8.3-26.8-8.3c0,0,0,0,0,0l-29.1,0c-9.6,0-18.8,2.9-26.7,8.3L63.4,282.5
	c-5.4,3.7-11.8,5.7-18.3,5.7h-2.2v-6c0-10.8,5.3-20.8,14.2-26.8L231.9,136h48.2l174.8,119.3c8.9,6.1,14.2,16.1,14.2,26.8v5.9h-2.1
	C460.3,288,454,286.1,448.6,282.4L448.6,282.4z"/>
</svg>
