<?xml version="1.0" encoding="utf-8"?>
<!-- Generator: Adobe Illustrator 23.0.5, SVG Export Plug-In . SVG Version: 6.00 Build 0)  -->
<svg version="1.1" id="Layer_5" xmlns="http://www.w3.org/2000/svg" xmlns:xlink="http://www.w3.org/1999/xlink" x="0px" y="0px"
	 viewBox="0 0 512 512" style="enable-background:new 0 0 512 512;" xml:space="preserve">
<style type="text/css">
	.st0{fill:#FBB040;}
</style>
<path class="st0" d="M136,88c0-26.5-21.5-48-48-48S40,61.5,40,88s21.5,48,48,48S136,114.5,136,88z M56,88c0-17.6,14.4-32,32-32
	s32,14.4,32,32s-14.4,32-32,32S56,105.6,56,88z"/>
<path class="st0" d="M439,61.7l11.3-11.3l11.3,11.3L450.3,73L439,61.7z"/>
<path class="st0" d="M416.3,84.3L427.7,73L439,84.3l-11.3,11.3L416.3,84.3z"/>
<path class="st0" d="M394.3,106.4L405,95.6l11.3,11.3l-10.7,10.7L394.3,106.4z"/>
<path class="st0" d="M480,344h-44.4c13.4-27.3,20.4-57.4,20.4-88c0-40.6-12.1-79.4-34.9-112.6c6-4.2,11.9-8.6,17.7-13.3l49.2,49.2
	l17.2-17.2l-24-72l2.6-2.6c7.9-7.9,12.3-18.4,12.3-29.7c0-23.1-18.8-41.9-41.9-41.9c-11.2,0-21.7,4.4-29.7,12.3l-2.6,2.6l-72-24
	L332.7,24l49.2,49.2c-4.7,5.7-9.1,11.6-13.3,17.7C335.4,68.1,296.6,56,256,56c-30.9,0-61.4,7.2-88.9,20.8C161.7,38,128.3,8,88,8
	C43.9,8,8,43.9,8,88v2.2c0,15.8,4.6,31.2,13.4,44.4L64.4,199c-5.5,18.4-8.4,37.6-8.4,57c0,24.9,4.5,49.1,13.4,72H64
	c-13.2,0-24,10.8-24,24c0,10.4,6.7,19.2,16,22.5V392H8v26.8c0,47,38.2,85.2,85.2,85.2h88.6c32.9,0,62.6-19.2,76.6-48.1
	c24.1-0.3,47.4-4.7,69.6-13.3V480c0,13.2,10.8,24,24,24h128c13.2,0,24-10.8,24-24V368C504,354.8,493.2,344,480,344z M392,360h48v16
	h-48V360z M352,344h-23.9c4.6-24.2,7.4-51.2,7.8-80h103.8c-1.2,28.1-8.8,55.5-22.2,80H352z M263.8,438.4L264,424h-35.1l-25.5-51
	c5.1-2.8,9.1-7.4,11.1-13h93.7C297.4,403.1,280.6,431.6,263.8,438.4z M214.5,344c-2.7-7.6-9.1-13.4-17-15.3
	c-3.2-20.6-5-42.3-5.4-64.7h127.8c-0.5,29.6-3.4,56.5-8.1,80H214.5z M72.3,248c0.5-11.8,2-23.4,4.7-34.8c3.3,1.8,7.1,2.8,11,2.8
	c7.7,0,14.8-3.8,19.1-10.2l25.2-37.8h51.6c-4.6,24.2-7.4,51.2-7.8,80L72.3,248z M200.2,168h111.6c4.8,24.5,7.6,51.7,8,80H192.2
	C192.6,218.4,195.5,191.4,200.2,168L200.2,168z M256,72c14.2,0,28.8,16.1,40.6,44.1l-6.1,6.1l10.4,5.2c2.7,7.7,5.2,15.9,7.4,24.6
	H203.8C216.3,102.3,236.8,72,256,72z M344.6,131.4l-27.1-13.6l5-4.9l28.1,7C348.5,123.7,346.6,127.5,344.6,131.4z M337.9,145.9
	c-0.1,0.1-0.1,0.3-0.2,0.4c-0.8,1.8-1.2,3.7-1.4,5.7h-11.6c-1.2-5-2.5-9.9-3.8-14.6L337.9,145.9z M439.7,248H335.9
	c-0.4-28.1-3.1-55.3-7.7-80h12.7c3.9,4.8,9.8,8,16.5,8c2.9,0,5.7-0.6,8.4-1.7c0.2-0.1,0.3-0.1,0.4-0.2l23.7,47.4l27-27.1L406.5,153
	c0.4-0.3,0.8-0.6,1.3-0.8C427.3,180.7,438.2,213.5,439.7,248L439.7,248z M392.1,161.4l7,28.1l-5,4.9l-13.6-27.1
	C384.5,165.4,388.3,163.5,392.1,161.4z M485.7,154.4L451,119.7c4-3.6,8-7.3,11.8-11.2l5.7-5.7L485.7,154.4z M454.1,32
	c14.3,0,25.9,11.6,25.9,25.9c0,6.9-2.7,13.4-7.6,18.3l-20.9,20.9c-26.6,26.6-57.6,47.6-92.1,62.4c-3.4,1.4-7.4-1.2-7.4-4.8
	c0-0.7,0.1-1.4,0.4-2.1c14.8-34.6,35.8-65.6,62.4-92.1l20.9-20.9v0C440.6,34.7,447.1,32,454.1,32z M357.6,26.3l51.6,17.2l-5.7,5.7
	c-3.8,3.8-7.6,7.8-11.2,11.8L357.6,26.3z M359,105.5l-41.4-10.4l-8.8,8.8c-5.3-11.4-11.1-21-17.3-28.4c24.4,4.7,47.6,14.4,68.4,28.7
	C359.5,104.6,359.2,105.1,359,105.5L359,105.5z M167.7,94.6c16.7-9.2,34.7-15.7,53.4-19.3c-14.1,16.7-25.8,43.4-33.8,76.6h-44.4
	l11.6-17.4C162.5,122.6,166.9,108.9,167.7,94.6z M24,90.2V88c0-35.3,28.7-64,64-64s64,28.7,64,64v2.2c0,12.7-3.7,25-10.8,35.5
	l-47.5,71.2c-2.6,3.9-9,3.9-11.6,0l-47.5-71.2C27.7,115.2,24,102.9,24,90.2z M72.2,264h104c0.3,22.1,2,43.6,5.1,64H86.7
	C78,307.7,73.2,286.2,72.2,264z M64,344h128c4.4,0,8,3.6,8,8s-3.6,8-8,8H64c-4.4,0-8-3.6-8-8S59.6,344,64,344z M72,376h115.1l24,48
	H100.9l-16-32H72V376z M181.8,488H93.2C55,488,24,457,24,418.8V408h51.1l16,32h156.6C238.5,468.4,211.7,488,181.8,488z M290.9,436.6
	c14.1-16.7,25.8-43.4,33.8-76.6h4.8c-0.9,2.5-1.5,5.2-1.5,8v57.3C316,430.4,303.6,434.2,290.9,436.6z M488,480c0,4.4-3.6,8-8,8H352
	c-4.4,0-8-3.6-8-8V368c0-4.4,3.6-8,8-8h24v32h80v-32h24c4.4,0,8,3.6,8,8V480z"/>
<path class="st0" d="M456,456h16v16h-16V456z"/>
<path class="st0" d="M424,456h16v16h-16V456z"/>
<path class="st0" d="M136,392h16v16h-16V392z"/>
<path class="st0" d="M168,392h16v16h-16V392z"/>
<path class="st0" d="M104,392h16v16h-16V392z"/>
<path class="st0" d="M216,280h16v16h-16V280z"/>
<path class="st0" d="M280,280h16v16h-16V280z"/>
<path class="st0" d="M248,280h16v16h-16V280z"/>
<path class="st0" d="M280,216h16v16h-16V216z"/>
<path class="st0" d="M248,216h16v16h-16V216z"/>
<path class="st0" d="M216,216h16v16h-16V216z"/>
</svg>
