<?xml version="1.0" encoding="utf-8"?>
<!-- Generator: Adobe Illustrator 23.0.5, SVG Export Plug-In . SVG Version: 6.00 Build 0)  -->
<svg version="1.1" id="Layer_1" xmlns="http://www.w3.org/2000/svg" xmlns:xlink="http://www.w3.org/1999/xlink" x="0px" y="0px"
	 viewBox="0 0 512 512" style="enable-background:new 0 0 512 512;" xml:space="preserve">
<style type="text/css">
	.st0{fill:#FBB040;}
</style>
<path class="st0" d="M316,452h-50v-32.3c0-5.5-4.5-10-10-10c-5.5,0-10,4.5-10,10V452h-50c-27.6,0-50,22.4-50,50c0,5.5,4.5,10,10,10
	h200c5.5,0,10-4.5,10-10C366,474.4,343.6,452,316,452z M167.7,492c4.1-11.6,15.3-20,28.3-20h120c13,0,24.2,8.4,28.3,20H167.7z"/>
<path class="st0" d="M256,394.7c2.6,0,5.2-1.1,7.1-2.9c1.9-1.9,2.9-4.4,2.9-7.1c0-2.6-1.1-5.2-2.9-7.1c-1.9-1.9-4.4-2.9-7.1-2.9
	c-2.6,0-5.2,1.1-7.1,2.9c-1.9,1.9-2.9,4.4-2.9,7.1c0,2.6,1.1,5.2,2.9,7.1C250.8,393.6,253.4,394.7,256,394.7z"/>
<path class="st0" d="M360.4,66.4l-53.8-25.5c-3.7-1.7-6.1-5.5-6.1-9.6V10c0-5.5-4.5-10-10-10h-68.8c-5.5,0-10,4.5-10,10v21.3
	c0,4.1-2.4,7.9-6.1,9.6l-53.8,25.5c-3.5,1.7-5.7,5.2-5.7,9v50.1c0,1.9,0.5,3.7,1.5,5.3l23.2,37.6c5.3,8.6,8.1,18.4,8.1,28.5
	c0,7.9-1.8,15.8-5.1,22.9c-12,25.8-18.4,54.5-18.4,82.9v46.2c0,5.5,4.5,10,10,10H256h0.1h90.6c5.5,0,10-4.5,10-10v-46.2
	c0-28.5-6.3-57.1-18.4-82.9c-3.3-7.1-5.1-15-5.1-22.9c0-10.1,2.8-19.9,8.1-28.5l23.2-37.6c1-1.6,1.5-3.4,1.5-5.3V75.4
	C366.1,71.6,363.9,68,360.4,66.4z M346.1,122.7l-21.7,35.2c-7.2,11.7-11.1,25.2-11.1,39c0,10.8,2.4,21.6,6.9,31.3
	c9.1,19.5,14.6,40.9,16.1,62.5h-63.9c-5.5,0-10,4.5-10,10s4.5,10,10,10h64.4v28.2h-80.6c0,0-0.1,0-0.1,0h-80.6v-36.2
	c0-25.6,5.7-51.3,16.5-74.5c4.5-9.7,6.9-20.6,6.9-31.3c0-13.8-3.8-27.3-11.1-39l-21.7-35.2v-41L214.1,59c10.6-5,17.5-15.9,17.5-27.7
	V20h48.8v11.3c0,11.8,6.9,22.6,17.5,27.7l48.1,22.8V122.7z"/>
<path class="st0" d="M240.3,290.7c-2.6,0-5.2,1.1-7.1,2.9c-1.9,1.9-2.9,4.4-2.9,7.1c0,2.6,1.1,5.2,2.9,7.1c1.9,1.9,4.4,2.9,7.1,2.9
	c2.6,0,5.2-1.1,7.1-2.9c1.9-1.9,2.9-4.4,2.9-7.1c0-2.6-1.1-5.2-2.9-7.1C245.6,291.8,243,290.7,240.3,290.7z"/>
</svg>
