<?xml version="1.0" encoding="utf-8"?>
<!-- Generator: Adobe Illustrator 23.0.5, SVG Export Plug-In . SVG Version: 6.00 Build 0)  -->
<svg version="1.1" id="Layer_1" xmlns="http://www.w3.org/2000/svg" xmlns:xlink="http://www.w3.org/1999/xlink" x="0px" y="0px"
	 viewBox="0 0 512 512" style="enable-background:new 0 0 512 512;" xml:space="preserve">
<style type="text/css">
	.st0{fill:#FBB040;}
</style>
<path class="st0" d="M463.9,180.7V37c0-5.5-4.5-10-10-10H352.3c-5.5,0-10,4.5-10,10s4.5,10,10,10h91.6v126h-37v-29.4
	c0-5.5-4.5-10-10-10s-10,4.5-10,10V173h-35.5v-55.1c0-5.5-4.5-10-10-10s-10,4.5-10,10V173H296v-29.4c0-5.5-4.5-10-10-10
	c-5.5,0-10,4.5-10,10V173h-35.5v-55.1c0-5.5-4.5-10-10-10s-10,4.5-10,10V173H185v-29.4c0-5.5-4.5-10-10-10s-10,4.5-10,10V173h-35.5
	v-55.1c0-5.5-4.5-10-10-10c-5.5,0-10,4.5-10,10V173H83c-3.1,0-6.1-0.2-9-0.7v-28.8c0-5.5-4.5-10-10-10s-10,4.5-10,10v22.3
	c-20.2-10.5-34-31.6-34-55.9c0-34.7,28.3-63,63-63h182c5.5,0,10-4.5,10-10s-4.5-10-10-10H83C37.2,27,0,64.2,0,110v146
	c0,33.3,19.7,62.1,48.1,75.3V475c0,5.5,4.5,10,10,10H429c45.8,0,83-37.2,83-83V256C512,222.7,492.3,193.9,463.9,180.7z M20,256
	v-92.1C35.2,181.7,57.8,193,83,193h346c34.7,0,63,28.3,63,63s-28.3,63-63,63H83C48.3,319,20,290.7,20,256z M492,402
	c0,24.9-14.5,46.4-35.5,56.7v-22.9c0-5.5-4.5-10-10-10s-10,4.5-10,10v28.7c-2.5,0.3-5,0.5-7.5,0.5h-28v-54.9c0-5.5-4.5-10-10-10
	c-5.5,0-10,4.5-10,10V465h-35.5v-29.2c0-5.5-4.5-10-10-10s-10,4.5-10,10V465H290v-54.9c0-5.5-4.5-10-10-10s-10,4.5-10,10V465h-35.5
	v-29.2c0-5.5-4.5-10-10-10c-5.5,0-10,4.5-10,10V465h-35.5v-54.9c0-5.5-4.5-10-10-10s-10,4.5-10,10V465h-35.5v-29.2
	c0-5.5-4.5-10-10-10s-10,4.5-10,10V465H68.1V339H429c25.2,0,47.8-11.3,63-29.1V402z"/>
<path class="st0" d="M314.3,47c2.6,0,5.2-1.1,7.1-2.9c1.9-1.9,2.9-4.4,2.9-7.1c0-2.6-1.1-5.2-2.9-7.1c-1.9-1.9-4.4-2.9-7.1-2.9
	c-2.6,0-5.2,1.1-7.1,2.9c-1.9,1.9-2.9,4.4-2.9,7.1c0,2.6,1.1,5.2,2.9,7.1C309.1,45.9,311.7,47,314.3,47z"/>
<path class="st0" d="M169.1,364.8c-2.6,0-5.2,1.1-7.1,2.9c-1.9,1.9-2.9,4.4-2.9,7.1c0,2.6,1.1,5.2,2.9,7.1c1.9,1.9,4.4,2.9,7.1,2.9
	c2.6,0,5.2-1.1,7.1-2.9c1.9-1.9,2.9-4.4,2.9-7.1c0-2.6-1.1-5.2-2.9-7.1C174.3,365.8,171.7,364.8,169.1,364.8z"/>
</svg>
