<?xml version="1.0" encoding="utf-8"?>
<!-- Generator: Adobe Illustrator 23.0.5, SVG Export Plug-In . SVG Version: 6.00 Build 0)  -->
<svg version="1.1" id="Layer_1" xmlns="http://www.w3.org/2000/svg" xmlns:xlink="http://www.w3.org/1999/xlink" x="0px" y="0px"
	 viewBox="0 0 436 436" style="enable-background:new 0 0 436 436;" xml:space="preserve">
<style type="text/css">
	.st0{fill:#FBB040;}
</style>
<path class="st0" d="M392.2,34.1V10c0-5.5-4.5-10-10-10h-98.4c-5.5,0-10,4.5-10,10v24.1c-17.9,2.2-31.8,17.5-31.8,36V324H126.8l5-58
	h6.2c16,0,31.1-6.2,42.4-17.6C191.7,237.1,198,222,198,206c0-31.7-24.7-57.7-55.8-59.8l6.2-72.2C179.3,72.7,204,47.2,204,16
	c0-5.5-4.5-10-10-10s-10,4.5-10,10c0,19.5-14.8,35.7-33.8,37.8l0.3-3.5c1-11.9-3-23.7-11.1-32.5S119.9,4,108,4
	C96.1,4,84.6,9,76.6,17.8c-8,8.8-12.1,20.6-11.1,32.5l0.3,3.8C36,55.2,12,79.8,12,110c0,14.9,5.8,29,16.4,39.6
	C39,160.2,53,166,68,166h7.5l6.9,80H77c-27,0-49,22-49,49c0,13.1,5.1,25.4,14.3,34.7S63.9,344,77,344h13.9l7.1,82.9
	c0.4,5.2,4.8,9.1,10,9.1s9.5-4,10-9.1l7.1-82.9h116.8v9.8c0,18.5,13.9,33.8,31.8,36V414c0,5.5,4.5,10,10,10h98.4c5.5,0,10-4.5,10-10
	v-24.1c17.9-2.2,31.8-17.5,31.8-36V70.2C424,51.7,410.1,36.4,392.2,34.1L392.2,34.1z M108,309.7l-3.8-43.7h7.5L108,309.7z M178,206
	c0,10.7-4.2,20.7-11.7,28.3c-7.6,7.6-17.6,11.7-28.3,11.7h-4.4l6.9-79.9C161.4,167.4,178,184.8,178,206L178,206z M68,146
	c-9.6,0-18.7-3.7-25.5-10.5C35.7,128.7,32,119.6,32,110c0-19.7,15.9-35.8,35.6-36l6.2,72H68z M87.6,74H98v14c0,5.5,4.5,10,10,10
	s10-4.5,10-10V46c0-5.5-4.5-10-10-10s-10,4.5-10,10v8H85.9l-0.5-5.4C84.9,42.2,87,36,91.3,31.3S101.6,24,108,24
	c6.4,0,12.3,2.6,16.7,7.3s6.4,10.8,5.9,17.2l-17,197.4h-11C102.5,246,87.6,74,87.6,74z M77,324c-7.8,0-15-3-20.5-8.5
	C51,310,48,302.8,48,295c0-16,13-29,29-29h7.2l5,58C89.1,324,77,324,77,324z M404,324.3l-142,31.3c-0.1-0.6-0.1-1.1-0.1-1.7v-16.4
	L404,306.1V324.3L404,324.3z M404,285.7l-142.1,31.3v-18.1L404,267.5V285.7z M404,247l-142.1,31.3v-18.1L404,228.9V247L404,247z
	 M404,208.4l-142.1,31.3v-18.1L404,190.3V208.4z M404,169.8l-142.1,31.3V183L404,151.7V169.8z M404,131.2l-142.1,31.3v-18.1
	L404,113.1V131.2L404,131.2z M404,92.6l-142.1,31.3v-18.1L404,74.4V92.6z M372.2,20v13.9h-78.4V20H372.2z M278.3,53.9h109.5
	c2.8,0,5.5,0.7,7.8,2L261.9,85.3V70.2C261.9,61.2,269.2,53.9,278.3,53.9L278.3,53.9z M293.8,404v-13.9h78.4V404H293.8z M387.7,370.1
	h-99L404,344.7v9.1C404,362.8,396.7,370.1,387.7,370.1z"/>
</svg>
