<?xml version="1.0" encoding="utf-8"?>
<!-- Generator: Adobe Illustrator 23.0.5, SVG Export Plug-In . SVG Version: 6.00 Build 0)  -->
<svg version="1.1" id="Layer_5" xmlns="http://www.w3.org/2000/svg" xmlns:xlink="http://www.w3.org/1999/xlink" x="0px" y="0px"
	 viewBox="0 0 512 512" style="enable-background:new 0 0 512 512;" xml:space="preserve">
<style type="text/css">
	.st0{fill:#FBB040;}
</style>
<path class="st0" d="M488,264V104h-93.2l-120-96h-37.6l-120,96H24v160H8v240h496V264H488z M472,264H360v-56h-16v-88h128V264z
	 M328,208H184v-92.2l72-57.6l72,57.6V208z M344,224v16H168v-16H344z M242.8,24h26.4l100,80h-30.4L256,37.8L173.2,104h-30.4L242.8,24
	z M40,120h128v88h-16v56H40V120z M168,280v-24h176v24h144v112H344v-59.8l-88-70.4l-88,70.4V392H24V280H168z M280,488h-48v-80h48V488
	z M216,392v96h-32V339.8l72-57.6l72,57.6V488h-32v-96H216z M24,408h144v80h-16v-64h-48v64H88v-64H40v64H24V408z M136,488h-16v-48h16
	V488z M72,488H56v-48h16V488z M392,488h-16v-48h16V488z M456,488h-16v-48h16V488z M472,488v-64h-48v64h-16v-64h-48v64h-16v-80h144
	v80H472z"/>
<path class="st0" d="M296,328h-80v48h80V328z M280,360h-48v-16h48V360z"/>
<path class="st0" d="M408,296h-48v80h48V296z M392,360h-16v-48h16V360z"/>
<path class="st0" d="M472,296h-48v80h48V296z M456,360h-16v-48h16V360z"/>
<path class="st0" d="M88,296H40v80h48V296z M72,360H56v-48h16V360z"/>
<path class="st0" d="M152,296h-48v80h48V296z M136,360h-16v-48h16V360z"/>
<path class="st0" d="M200,192h48v-80h-48V192z M216,128h16v48h-16V128z"/>
<path class="st0" d="M312,112h-48v80h48V112z M296,176h-16v-48h16V176z"/>
<path class="st0" d="M440,136h16v16h-16V136z"/>
<path class="st0" d="M408,136h16v16h-16V136z"/>
<path class="st0" d="M376,136h16v16h-16V136z"/>
<path class="st0" d="M440,168h16v16h-16V168z"/>
<path class="st0" d="M408,168h16v16h-16V168z"/>
<path class="st0" d="M376,168h16v16h-16V168z"/>
<path class="st0" d="M440,200h16v16h-16V200z"/>
<path class="st0" d="M408,200h16v16h-16V200z"/>
<path class="st0" d="M376,200h16v16h-16V200z"/>
<path class="st0" d="M440,232h16v16h-16V232z"/>
<path class="st0" d="M408,232h16v16h-16V232z"/>
<path class="st0" d="M376,232h16v16h-16V232z"/>
<path class="st0" d="M120,136h16v16h-16V136z"/>
<path class="st0" d="M88,136h16v16H88V136z"/>
<path class="st0" d="M56,136h16v16H56V136z"/>
<path class="st0" d="M120,168h16v16h-16V168z"/>
<path class="st0" d="M88,168h16v16H88V168z"/>
<path class="st0" d="M56,168h16v16H56V168z"/>
<path class="st0" d="M120,200h16v16h-16V200z"/>
<path class="st0" d="M88,200h16v16H88V200z"/>
<path class="st0" d="M56,200h16v16H56V200z"/>
<path class="st0" d="M120,232h16v16h-16V232z"/>
<path class="st0" d="M88,232h16v16H88V232z"/>
<path class="st0" d="M56,232h16v16H56V232z"/>
</svg>
