<?xml version="1.0" encoding="utf-8"?>
<!-- Generator: Adobe Illustrator 23.0.5, SVG Export Plug-In . SVG Version: 6.00 Build 0)  -->
<svg version="1.1" id="Layer_5" xmlns="http://www.w3.org/2000/svg" xmlns:xlink="http://www.w3.org/1999/xlink" x="0px" y="0px"
	 viewBox="0 0 512 512" style="enable-background:new 0 0 512 512;" xml:space="preserve">
<style type="text/css">
	.st0{fill:#FBB040;}
</style>
<path class="st0" d="M435.1,290c-4.4-6.3-11.5-10-19.1-10s-14.8,3.8-19.1,10l-53.4,77.1c-10.1,14.6-15.5,31.8-15.5,49.7
	c0,29.4,14.7,55.4,37.1,71.2H312V264h-64v224h-32V312h-64v176h-32V328H56v160H24V339.2l88-87.9l48,48l136-136l48,48l104-104
	l37.7,37.7L505.4,6.6L367,26.4L404.7,64L344,124.7l-48-48l-136,136l-48-48l-88,88V200h48v-16H24v-16h32v-16H24v-16h48v-16H24v-16h32
	V88H24V72h48V56H24V40h32V24H24V8H8v496h407.2h0.8h0.8c48.1,0,87.2-39.1,87.2-87.2c0-17.8-5.4-35-15.5-49.7L435.1,290z M112,187.3
	l48,48l136-136l48,48L427.3,64L401,37.7l85.6-12.2L474.3,111L448,84.7l-104,104l-48-48l-136,136l-48-48l-88,87.9v-41.3L112,187.3z
	 M264,280h32v208h-32V280z M168,328h32v160h-32V328z M72,344h32v144H72V344z M416.8,488H416h-0.8c-39.3,0-71.2-32-71.2-71.2
	c0-14.6,4.4-28.6,12.7-40.6l53.4-77.1c2.7-3.9,9.2-3.9,12,0l53.4,77.1c8.3,12,12.7,26,12.7,40.6C488,456,456,488,416.8,488
	L416.8,488z"/>
<path class="st0" d="M424,392c4.4,0,8,3.6,8,8h16c0-13.2-10.8-24-24-24v-16h-16v16h-24v24c0,13.2,10.8,24,24,24h16c4.4,0,8,3.6,8,8
	v8h-24c-4.4,0-8-3.6-8-8h-16c0,13.2,10.8,24,24,24v16h16v-16h24v-24c0-13.2-10.8-24-24-24h-16c-4.4,0-8-3.6-8-8v-8H424z"/>
</svg>
