<?xml version="1.0" encoding="utf-8"?>
<!-- Generator: Adobe Illustrator 23.0.5, SVG Export Plug-In . SVG Version: 6.00 Build 0)  -->
<svg version="1.1" id="Layer_1" xmlns="http://www.w3.org/2000/svg" xmlns:xlink="http://www.w3.org/1999/xlink" x="0px" y="0px"
	 viewBox="0 0 496 496" style="enable-background:new 0 0 496 496;" xml:space="preserve">
<style type="text/css">
	.st0{fill:#FBB040;}
</style>
<path class="st0" d="M496,414.2v-60.4l-23.1-5.9c-0.2-0.4-0.3-0.8-0.5-1.2l12.2-20.5l-42.7-42.7l-20.5,12.2
	c-0.4-0.2-0.8-0.3-1.2-0.5l-5.9-23.1h-60.4l-5.9,23.1c-0.4,0.2-0.8,0.3-1.2,0.5l-20.5-12.2l-42.7,42.7l12.2,20.5
	c-0.2,0.4-0.3,0.8-0.5,1.2l-23.1,5.9v60.4l23.1,5.9c0.2,0.4,0.3,0.8,0.5,1.2l-12.2,20.5l42.7,42.7l20.5-12.2
	c0.4,0.2,0.8,0.3,1.2,0.5l5.9,23.1h60.4l5.9-23.1c0.4-0.2,0.8-0.3,1.2-0.5l20.5,12.2l42.7-42.7l-12.2-20.5c0.2-0.4,0.3-0.8,0.5-1.2
	L496,414.2z M464.5,439.3l-25.2,25.2l-17.1-10.1l-3.8,1.8c-2.5,1.2-5,2.2-7.6,3.2l-4,1.4l-4.9,19.3h-35.6l-4.9-19.3l-4-1.4
	c-2.6-0.9-5.2-2-7.6-3.2l-3.8-1.8l-17.1,10.1l-25.2-25.2l10.1-17.1l-1.8-3.8c-1.2-2.5-2.2-5-3.2-7.6l-1.4-4l-19.3-4.9v-35.6
	l19.3-4.9l1.4-4c0.9-2.6,2-5.2,3.2-7.6l1.8-3.8l-10.1-17.1l25.2-25.2l17.1,10.1l3.8-1.8c2.5-1.2,5-2.2,7.6-3.2l4-1.4l4.9-19.3h35.6
	l4.9,19.3l4,1.4c2.6,0.9,5.2,2,7.6,3.2l3.8,1.8l17.1-10.1l25.2,25.2l-10.1,17.1l1.8,3.8c1.2,2.5,2.2,5,3.2,7.6l1.4,4l19.3,4.9v35.6
	l-19.3,4.9l-1.4,4c-0.9,2.6-2,5.2-3.2,7.6l-1.8,3.8L464.5,439.3z"/>
<path class="st0" d="M384,320c-35.3,0-64,28.7-64,64s28.7,64,64,64s64-28.7,64-64S419.3,320,384,320z M384,432
	c-26.5,0-48-21.5-48-48s21.5-48,48-48s48,21.5,48,48S410.5,432,384,432z"/>
<path class="st0" d="M384,352c-17.6,0-32,14.4-32,32s14.4,32,32,32s32-14.4,32-32S401.6,352,384,352z M384,400c-8.8,0-16-7.2-16-16
	s7.2-16,16-16s16,7.2,16,16S392.8,400,384,400z"/>
<path class="st0" d="M202.6,135.5c2.7,7.9,7.3,14.8,13.4,20.2v6.8l-38,14.3c-15.5,5.8-26,20.9-26,37.4V256h192v-41.8
	c0-16.6-10.4-31.6-26-37.5l-38-14.3v-6.8c6.1-5.4,10.7-12.4,13.4-20.2c15.1-2.6,26.6-15.7,26.6-31.5V72c0-39.7-32.3-72-72-72
	s-72,32.3-72,72v32C176,119.8,187.5,132.9,202.6,135.5z M264,165.8l-16,26.7l-16-26.7v-0.6c5,1.8,10.4,2.8,16,2.8s11-1,16-2.8V165.8
	z M220.6,177.8l16.1,26.9l-16,8l-10.4-31L220.6,177.8z M328,214.2V240H168v-25.8c0-10,6.3-19,15.6-22.5l11.8-4.4l16,48l36.7-18.3
	l36.7,18.3l16-48l11.8,4.4C321.7,195.2,328,204.2,328,214.2z M285.7,181.7l-10.4,31l-16-8l16.1-26.9L285.7,181.7z M248,152
	c-17.6,0-32-14.4-32-32V87.5c11.7-1.2,22.8-5.5,32-12.8c9.2,7.3,20.3,11.5,32,12.8V120C280,137.6,265.6,152,248,152z M296,117.8
	V90.2c4.8,2.8,8,7.9,8,13.8S300.8,115,296,117.8z M248,16c30.9,0,56,25.1,56,56v4.4c-4.7-2.8-10.1-4.4-16-4.4h-1.4
	c-12.5,0-24.2-4.8-33-13.7l-5.7-5.7l-5.7,5.7c-8.8,8.8-20.5,13.7-33,13.7H208c-5.9,0-11.3,1.7-16,4.4V72C192,41.1,217.1,16,248,16z
	 M200,90.2v27.5c-4.8-2.8-8-7.9-8-13.8S195.2,93,200,90.2z"/>
<path class="st0" d="M0,496h160V288H0V496z M16,304h128v176H16V304z"/>
<path class="st0" d="M32,320h96v16H32V320z"/>
<path class="st0" d="M32,352h16v16H32V352z"/>
<path class="st0" d="M64,352h64v16H64V352z"/>
<path class="st0" d="M32,384h96v16H32V384z"/>
<path class="st0" d="M32,416h96v16H32V416z"/>
<path class="st0" d="M112,448h16v16h-16V448z"/>
<path class="st0" d="M32,448h64v16H32V448z"/>
<path class="st0" d="M213.7,357.7l-11.3-11.3L164.7,384l37.7,37.7l11.3-11.3L195.3,392H256v-16h-60.7L213.7,357.7z"/>
<path class="st0" d="M88,128c0-4.4,3.6-8,8-8h36.7l-18.3,18.3l11.3,11.3l37.7-37.7l-37.7-37.7l-11.3,11.3l18.3,18.3H96
	c-13.2,0-24,10.8-24,24v144h16V128z"/>
<path class="st0" d="M384,128v100.7l-18.3-18.3l-11.3,11.3l37.7,37.7l37.7-37.7l-11.3-11.3L400,228.7V128c0-13.2-10.8-24-24-24h-40
	v16h40C380.4,120,384,123.6,384,128z"/>
</svg>
