<?xml version="1.0" encoding="utf-8"?>
<!-- Generator: Adobe Illustrator 23.0.5, SVG Export Plug-In . SVG Version: 6.00 Build 0)  -->
<svg version="1.1" id="Layer_1" xmlns="http://www.w3.org/2000/svg" xmlns:xlink="http://www.w3.org/1999/xlink" x="0px" y="0px"
	 viewBox="0 0 512 512" style="enable-background:new 0 0 512 512;" xml:space="preserve">
<style type="text/css">
	.st0{fill:#FBB040;}
</style>
<g id="Product">
	<path class="st0" d="M136,432h-9.1c5.9-9.1,9.1-19.7,9.1-30.5v-20.1c0-4.4-0.7-8.8-2.2-13l-24.7-71.9c-2.2-8-8.3-14.4-16.3-16.8
		l15.1-56.3c2.7-9.8-1.1-20.2-9.5-25.9c-2.2-1.6-4.6-2.7-7.2-3.4c-2.1-0.6-4.2-0.9-6.4-0.9c-10.7-0.1-20.2,7-23.1,17.4L19,341.6
		c-2.1,6.7-2.5,13.8-1.1,20.6l12.3,47.9c1.2,4.5,1.8,9.2,1.8,13.9v7.9h-8c-4.4,0-8,3.6-8,8v48c0,4.4,3.6,8,8,8h112c4.4,0,8-3.6,8-8
		v-48C144,435.6,140.4,432,136,432z M45.7,406.2l-12.2-47.5c-0.8-4-0.6-8.2,0.7-12.1L77,214.9c1.1-4.2,5.5-6.7,9.7-5.6
		c0,0,0.1,0,0.1,0c0.9,0.2,1.7,0.6,2.4,1.2c2.8,1.9,4.1,5.4,3.2,8.6l-16.5,61.7c-8.6,3.9-14,12.4-14,21.8c0,2.1,0.2,4.2,0.8,6.2
		l14.5,54.1c1.1,4.3,5.5,6.8,9.8,5.7c4.3-1.1,6.8-5.5,5.7-9.8l-14.5-54.3c-0.2-0.6-0.2-1.3-0.2-1.9c0-3.4,2.1-6.4,5.3-7.4
		c0.2-0.1,0.9-0.3,1.1-0.3c4.4-0.9,8.6,2,9.5,6.3l24.9,72.5c0.9,2.5,1.3,5.1,1.3,7.8v20.1c0,7.9-2.3,15.6-6.7,22.2l-5.6,8.3H48v-7.9
		C48,418.1,47.2,412,45.7,406.2z M128,480H32v-32h96V480z"/>
	<path class="st0" d="M368,440v48c0,4.4,3.6,8,8,8h112c4.4,0,8-3.6,8-8v-48c0-4.4-3.6-8-8-8h-8v-7.9c0-4.7,0.6-9.4,1.8-14l12.3-47.9
		c1.4-6.9,1.1-14-1.1-20.6l-42.7-131.2c-2.9-10.3-12.3-17.4-23-17.4c-2.2,0-4.3,0.3-6.4,0.9c-2.6,0.7-5,1.9-7.2,3.4
		c-8.4,5.7-12.2,16.1-9.5,25.9l15,56.3c-8,2.4-14.1,8.8-16.3,16.8l-24.7,71.9c-1.4,4.2-2.2,8.6-2.2,13v20.1
		c0,10.8,3.2,21.5,9.1,30.5H376C371.6,432,368,435.6,368,440z M464,424.1v7.9h-59.7l-5.6-8.3c-4.4-6.6-6.7-14.3-6.7-22.2v-20.1
		c0-2.7,0.4-5.3,1.3-7.8l24.9-72.5c0.9-4.4,5.1-7.2,9.5-6.3c0.1,0,0.9,0.3,1.1,0.3c3.2,1.1,5.3,4.1,5.3,7.4c0,0.6-0.1,1.3-0.2,1.9
		l-14.5,54.3c-1.1,4.3,1.4,8.7,5.7,9.8c4.3,1.1,8.7-1.4,9.8-5.7l14.5-54.1c0.6-2,0.8-4.1,0.8-6.2c0-9.4-5.4-17.9-14-21.8l-16.5-61.7
		c-0.9-3.3,0.4-6.7,3.2-8.6c0.7-0.5,1.6-0.9,2.4-1.2c4.2-1.2,8.6,1.3,9.7,5.5c0,0,0,0.1,0,0.1l42.8,131.6c1.3,3.9,1.5,8.1,0.7,12.1
		l-12.2,47.5C464.8,412,464,418,464,424.1z M384,448h96v32h-96V448z"/>
	<path class="st0" d="M387.2,72.7l-128-56c-2-0.9-4.4-0.9-6.4,0l-128,56c-2.9,1.3-4.8,4.1-4.8,7.3v160c0,3,1.7,5.8,4.4,7.1l128,65.1
		c1.1,0.6,2.4,0.9,3.6,0.9c1.2,0,2.5-0.3,3.6-0.8l128-64.3c2.7-1.4,4.4-4.1,4.4-7.2V80C392,76.8,390.1,73.9,387.2,72.7z M256,32.7
		L364,80l-108,47.3L227.9,115l42.7-18.7c4-1.8,5.9-6.5,4.1-10.5c-0.8-1.8-2.3-3.3-4.1-4.1l-34.3-15c-2-0.9-4.4-0.9-6.4,0l-56.2,24.6
		L148,80L256,32.7z M184,113.2l16,7v34.8l-16-8V113.2z M193.6,100l39.5-17.3l14.3,6.2L208,106.2L193.6,100z M136,92.2l32,14V152
		c0,3,1.7,5.8,4.4,7.2l32,16c4,2,8.8,0.4,10.7-3.6c0.6-1.1,0.8-2.3,0.8-3.6v-40.8l32,14v150.9l-112-57V92.2z M264,292.1V141.2
		l112-49v143.6L264,292.1z"/>
	<path class="st0" d="M308.5,233.9L276.4,250c-3.9,2-5.5,6.8-3.5,10.7c2,3.9,6.8,5.5,10.7,3.5l32.1-16.1c3.9-2,5.5-6.8,3.5-10.7
		C317.2,233.5,312.4,231.9,308.5,233.9L308.5,233.9z"/>
	<path class="st0" d="M280,233.1c1.2,0,2.5-0.3,3.6-0.8l31.6-15.9c3.9-2,5.5-6.8,3.5-10.7c-2-3.9-6.8-5.5-10.7-3.5l0,0L276.4,218
		c-3.9,2-5.5,6.8-3.5,10.7C274.2,231.4,277,233.1,280,233.1z"/>
</g>
</svg>
