<?xml version="1.0" encoding="utf-8"?>
<!-- Generator: Adobe Illustrator 23.0.5, SVG Export Plug-In . SVG Version: 6.00 Build 0)  -->
<svg version="1.1" id="Layer_1" xmlns="http://www.w3.org/2000/svg" xmlns:xlink="http://www.w3.org/1999/xlink" x="0px" y="0px"
	 viewBox="0 0 512 512" style="enable-background:new 0 0 512 512;" xml:space="preserve">
<style type="text/css">
	.st0{fill:#FBB040;}
</style>
<path class="st0" d="M464.9,414.5V290h20v5.9c0,5.5,4.5,10,10,10c5.5,0,10-4.5,10-10V145.1c0-5.5-4.5-10-10-10c-5.5,0-10,4.5-10,10
	v14.6h-20.6C459.1,114.9,421,80,374.9,80h-48V36c0-5.5-4.5-10-10-10h-17V10c0-5.5-4.5-10-10-10c-5.5,0-10,4.5-10,10v16h-17
	c-5.5,0-10,4.5-10,10v44h-45.3V36c0-5.5-4.5-10-10-10h-17V10c0-5.5-4.5-10-10-10c-5.5,0-10,4.5-10,10v16h-17c-5.5,0-10,4.5-10,10v44
	H97c-0.3,0-0.6,0-0.9,0c-0.1,0-0.1,0-0.2,0c-0.1,0-0.2,0-0.4,0c-16.1,0.3-31.1,4.7-44.1,12.4c-0.4,0.2-0.9,0.5-1.3,0.8
	C24.3,109,7,137.5,7,170v139c0,5.5,4.5,10,10,10h20v30c0,5.5,4.5,10,10,10h22v25c0,5.5,4.5,10,10,10c5.5,0,10-4.5,10-10v-25h22
	c5.5,0,10-4.5,10-10v-30h13.9c5.5,0,10-4.5,10-10V280c0-37,30.1-67.1,67.1-67.1h38.8c37,0,67.1,30.1,67.1,67.1v132h-55
	c-5.5,0-10,4.5-10,10s4.5,10,10,10h186.6c16.3,0,29.5,13.2,29.5,29.5V492H27v-30.5c0-16.3,13.2-29.5,29.5-29.5h120.4
	c5.5,0,10-4.5,10-10s-4.5-10-10-10H56.5C29.2,412,7,434.2,7,461.5V502c0,5.5,4.5,10,10,10h471.9c5.5,0,10-4.5,10-10v-40.5
	C498.9,439.6,484.6,421,464.9,414.5z M484.8,270h-20v-90.4h20V270z M272.9,46h34v34h-34V46z M153.6,46h34v34h-34V46z M65.9,107.3
	c6.2-3.1,12.9-5.3,20-6.4v96.5c0,5.5-4.5,10-10,10s-10-4.5-10-10V107.3z M101,339H57v-20h44V339z M337.9,412V280
	c0-48-39.1-87.1-87.1-87.1H212c-48,0-87.1,39.1-87.1,87.1V299H27V170c0-18.5,7.2-35.3,18.9-47.8v75.2c0,16.5,13.5,30,30,30
	s30-13.5,30-30V100h269c38.6,0,70,31.4,70,70v242H337.9z"/>
<path class="st0" d="M230,429.1c1.9-1.9,2.9-4.4,2.9-7.1c0-2.6-1.1-5.2-2.9-7.1c-1.9-1.9-4.4-2.9-7.1-2.9c-2.6,0-5.2,1.1-7.1,2.9
	c-1.9,1.9-2.9,4.4-2.9,7.1c0,2.6,1.1,5.2,2.9,7.1s4.4,2.9,7.1,2.9C225.6,432,228.1,430.9,230,429.1z"/>
<path class="st0" d="M501.9,323.5c-1.9-1.9-4.4-2.9-7.1-2.9c-2.6,0-5.2,1.1-7.1,2.9c-1.9,1.9-2.9,4.4-2.9,7.1c0,2.6,1.1,5.2,2.9,7.1
	s4.4,2.9,7.1,2.9c2.6,0,5.2-1.1,7.1-2.9c1.9-1.9,2.9-4.4,2.9-7.1C504.9,327.9,503.8,325.3,501.9,323.5z"/>
<path class="st0" d="M381.6,131c-20.9,0-38,17-38,38c0,21,17,38,38,38c21,0,38-17,38-38C419.6,148,402.5,131,381.6,131z M381.6,187
	c-9.9,0-18-8.1-18-18c0-9.9,8.1-18,18-18c9.9,0,18,8.1,18,18C399.6,178.9,391.5,187,381.6,187z"/>
<path class="st0" d="M409.6,270h-28c-5.5,0-10,4.5-10,10c0,5.5,4.5,10,10,10h28c5.5,0,10-4.5,10-10C419.6,274.5,415.1,270,409.6,270
	z"/>
<path class="st0" d="M409.6,313h-28c-5.5,0-10,4.5-10,10c0,5.5,4.5,10,10,10h28c5.5,0,10-4.5,10-10C419.6,317.4,415.1,313,409.6,313
	z"/>
<path class="st0" d="M289.9,159.6c-2.6,0-5.2,1.1-7.1,2.9c-1.9,1.9-2.9,4.4-2.9,7.1s1.1,5.2,2.9,7.1c1.9,1.9,4.4,2.9,7.1,2.9
	c2.6,0,5.2-1.1,7.1-2.9s2.9-4.4,2.9-7.1c0-2.6-1.1-5.2-2.9-7.1C295.1,160.7,292.5,159.6,289.9,159.6z"/>
<path class="st0" d="M289.9,125c-2.6,0-5.2,1.1-7.1,2.9c-1.9,1.9-2.9,4.4-2.9,7.1c0,2.6,1.1,5.2,2.9,7.1c1.9,1.9,4.4,2.9,7.1,2.9
	c2.6,0,5.2-1.1,7.1-2.9c1.9-1.9,2.9-4.4,2.9-7.1c0-2.6-1.1-5.2-2.9-7.1C295.1,126.1,292.5,125,289.9,125z"/>
</svg>
