<?xml version="1.0" encoding="utf-8"?>
<!-- Generator: Adobe Illustrator 23.0.5, SVG Export Plug-In . SVG Version: 6.00 Build 0)  -->
<svg version="1.1" id="Layer_1" xmlns="http://www.w3.org/2000/svg" xmlns:xlink="http://www.w3.org/1999/xlink" x="0px" y="0px"
	 viewBox="0 0 512 512" style="enable-background:new 0 0 512 512;" xml:space="preserve">
<style type="text/css">
	.st0{fill:#FBB040;}
</style>
<g>
	<path class="st0" d="M413.3,142.7l-59.8-21.1L266,86.9V72.8c15.6-4.4,27.1-18.7,27.1-35.7C293.1,16.6,276.4,0,256,0
		s-37.1,16.6-37.1,37.1c0,5.5,4.5,10,10,10s10-4.5,10-10c0-9.4,7.7-17.1,17.1-17.1s17.1,7.7,17.1,17.1s-7.7,17.1-17.1,17.1
		c-5.5,0-10,4.5-10,10v22.8l-87.5,34.7l-59.8,21.1C72,152.1,54,177.5,54,205.8v50.3c0,5.5,4.5,10,10,10h54v66.2c0,5.5,4.5,10,10,10
		s10-4.5,10-10v-76.2c0-5.5-4.5-10-10-10H74v-40.3c0-19.9,12.6-37.7,31.3-44.3l47.9-16.9c6.4,33.8,36.2,59.4,71.8,59.4h6.8L218,218
		c-3.9,3.9-3.9,10.2,0,14.1c2,1.9,4.5,2.9,7.1,2.9s5.1-1,7.1-2.9l23.9-23.9l28,28c2,2,4.5,2.9,7.1,2.9c2.6,0,5.1-1,7.1-2.9
		c3.9-3.9,3.9-10.2,0-14.1l-18-18h6.8c35.6,0,65.4-25.6,71.8-59.4l47.9,16.9c18.7,6.6,31.3,24.4,31.3,44.3v40.3h-54
		c-5.5,0-10,4.5-10,10V492H138v-82.3c0-5.5-4.5-10-10-10s-10,4.5-10,10V502c0,5.5,4.5,10,10,10h256c5.5,0,10-4.5,10-10V266.1h54
		c5.5,0,10-4.5,10-10v-50.3C458,177.5,440,152.1,413.3,142.7z M286.9,184.1h-61.8c-27,0-49.4-20.3-52.6-46.5l83.6-33.2l83.6,33.2
		C336.3,163.8,313.9,184.1,286.9,184.1z"/>
	<path class="st0" d="M128,383c2.6,0,5.2-1.1,7.1-2.9s2.9-4.4,2.9-7.1s-1.1-5.2-2.9-7.1s-4.4-2.9-7.1-2.9s-5.2,1.1-7.1,2.9
		s-2.9,4.4-2.9,7.1s1.1,5.2,2.9,7.1S125.4,383,128,383z"/>
	<path class="st0" d="M256.1,266c2.6,0,5.2-1.1,7.1-2.9s2.9-4.4,2.9-7.1c0-2.6-1.1-5.2-2.9-7.1s-4.4-2.9-7.1-2.9
		c-2.6,0-5.2,1.1-7.1,2.9c-1.9,1.9-2.9,4.4-2.9,7.1s1.1,5.2,2.9,7.1C250.9,264.9,253.5,266,256.1,266z"/>
	<path class="st0" d="M249.1,331.7c1.9,1.9,4.4,2.9,7.1,2.9c2.6,0,5.2-1.1,7.1-2.9c1.9-1.9,2.9-4.4,2.9-7.1c0-2.6-1.1-5.2-2.9-7.1
		c-1.9-1.9-4.4-2.9-7.1-2.9c-2.6,0-5.2,1.1-7.1,2.9c-1.9,1.9-2.9,4.4-2.9,7.1C246.1,327.3,247.2,329.9,249.1,331.7z"/>
	<path class="st0" d="M249.1,400.4c1.9,1.9,4.4,2.9,7.1,2.9c2.6,0,5.2-1.1,7.1-2.9c1.9-1.9,2.9-4.4,2.9-7.1c0-2.6-1.1-5.2-2.9-7.1
		s-4.4-2.9-7.1-2.9c-2.6,0-5.2,1.1-7.1,2.9c-1.9,1.9-2.9,4.4-2.9,7.1C246.1,395.9,247.2,398.5,249.1,400.4z"/>
	<path class="st0" d="M249.1,469c1.9,1.9,4.4,2.9,7.1,2.9c2.6,0,5.2-1.1,7.1-2.9c1.9-1.9,2.9-4.4,2.9-7.1c0-2.6-1.1-5.2-2.9-7.1
		c-1.9-1.9-4.4-2.9-7.1-2.9c-2.6,0-5.2,1.1-7.1,2.9c-1.9,1.9-2.9,4.4-2.9,7.1C246.1,464.6,247.2,467.1,249.1,469z"/>
	<path class="st0" d="M353,398v-59.5c0-5.5-4.5-10-10-10s-10,4.5-10,10V398c0,5.5,4.5,10,10,10S353,403.5,353,398z"/>
	<path class="st0" d="M335.9,439.6c1.9,1.9,4.4,2.9,7.1,2.9s5.2-1.1,7.1-2.9s2.9-4.4,2.9-7.1s-1.1-5.2-2.9-7.1s-4.4-2.9-7.1-2.9
		s-5.2,1.1-7.1,2.9s-2.9,4.4-2.9,7.1S334.1,437.7,335.9,439.6z"/>
</g>
</svg>
