<?xml version="1.0" encoding="utf-8"?>
<!-- Generator: Adobe Illustrator 23.0.5, SVG Export Plug-In . SVG Version: 6.00 Build 0)  -->
<svg version="1.1" id="Capa_1" xmlns="http://www.w3.org/2000/svg" xmlns:xlink="http://www.w3.org/1999/xlink" x="0px" y="0px"
	 viewBox="0 0 512 512" style="enable-background:new 0 0 512 512;" xml:space="preserve">
<style type="text/css">
	.st0{fill:#FBB040;}
</style>
<g>
	<g>
		<path class="st0" d="M109.8,496.2L94.8,475c-3.2-4.5-9.4-5.6-13.9-2.4c-4.5,3.2-5.6,9.4-2.4,13.9l15.1,21.2c1.9,2.7,5,4.2,8.2,4.2
			c2,0,4-0.6,5.8-1.8C112,507,113,500.7,109.8,496.2z"/>
	</g>
</g>
<g>
	<g>
		<path class="st0" d="M225.2,499.9l-16.4-78.1c-8-38-30.1-70.8-62.3-92.5l-35-23.5c-14-9.4-32.9-7.4-44.6,4.6V189.9
			c0-15.8-10.8-29.3-26.2-32.7c-10-2.2-20.2,0.2-28.2,6.6C4.6,170.2,0,179.7,0,189.9V345c0,20.3,6.2,39.8,18,56.4l17.8,25.1
			c2,2.7,5,4.2,8.2,4.2c2,0,4-0.6,5.8-1.8c4.5-3.2,5.6-9.4,2.4-13.9l-17.8-25.1C24.9,376.6,20,361.1,20,345V189.9
			c0-4.1,1.8-7.9,5-10.5c3.2-2.6,7.3-3.5,11.4-2.6c6.2,1.4,10.6,6.8,10.6,13.2v123c0,17.4,6.4,34,18,46.9c0.5,0.6,1,1.2,1.6,1.8
			c6.6,7,14.4,15.3,21.8,23.1l10.3,11c0,0,0.1,0.1,0.1,0.1c8.8,9.4,15.3,16.3,15.4,16.4c3.8,4,10.1,4.2,14.1,0.4
			c4-3.8,4.2-10.1,0.4-14.1c-0.2-0.2-11.9-12.7-25.3-26.9l-22.9-24.4c-0.1-0.1-0.1-0.1-0.2-0.2c-5.4-6.4-5.3-15.8,0.3-22.1
			c5-5.6,13.4-6.7,19.7-2.5l35,23.5c27.8,18.7,47,47.1,53.9,80l16.4,78.1c1,4.7,5.1,7.9,9.8,7.9c0.7,0,1.4-0.1,2.1-0.2
			C222.9,510.7,226.3,505.4,225.2,499.9z"/>
	</g>
</g>
<g>
	<g>
		<path class="st0" d="M74.1,445.9L74.1,445.9c-3.3-4.6-9.5-5.6-14-2.4s-5.5,9.5-2.3,13.9l0.1,0.1c2,2.7,5,4.2,8.1,4.2
			c2,0,4-0.6,5.8-1.9C76.3,456.6,77.3,450.4,74.1,445.9z"/>
	</g>
</g>
<g>
	<g>
		<path class="st0" d="M499.5,163.8c-8-6.4-18.2-8.8-28.2-6.6c-15.4,3.4-26.2,16.9-26.2,32.7v120.5c-11.7-12-30.6-14-44.6-4.6
			l-35,23.5c-32.2,21.6-54.3,54.5-62.3,92.5l-16.4,78.1c-1.1,5.4,2.3,10.7,7.7,11.8c0.7,0.1,1.4,0.2,2.1,0.2c4.6,0,8.8-3.2,9.8-7.9
			l16.4-78.1c6.9-32.8,26-61.2,53.9-80l35-23.5c6.2-4.2,14.7-3.1,19.7,2.5c5.6,6.4,5.7,15.7,0.3,22.1c-0.1,0.1-0.1,0.1-0.2,0.2
			c0,0-48,51.1-48.2,51.3c-3.8,4-3.6,10.4,0.4,14.1c4,3.8,10.4,3.6,14.1-0.4c0.1-0.1,41-43.6,47.6-50.6c0.5-0.6,1.1-1.2,1.6-1.8
			c11.6-12.9,18-29.5,18-46.9v-123c0-6.4,4.3-11.8,10.6-13.2c4-0.9,8.1,0.1,11.4,2.6c3.2,2.6,5,6.4,5,10.5V345
			c0,16.1-4.9,31.6-14.3,44.8l-75.6,106.4c-3.2,4.5-2.1,10.7,2.4,13.9c1.8,1.2,3.8,1.8,5.8,1.8c3.1,0,6.2-1.5,8.2-4.2L494,401.4
			c11.8-16.6,18-36.1,18-56.4V189.9C512,179.7,507.4,170.2,499.5,163.8z"/>
	</g>
</g>
<g>
	<g>
		<path class="st0" d="M382.7,191.7l-17.8-4.3v-3.2c11.6-8.1,19.1-21.5,19.1-36.7v-23.1c0-24.7-20.1-44.8-44.8-44.8
			c-11.1,0-21.2,4.1-29,10.7C301.5,69.1,280.5,54,256.1,54c-24.5,0-45.4,15.1-54.1,36.5c-7.8-6.7-18-10.8-29.1-10.8
			c-24.7,0-44.8,20.1-44.8,44.8v1.5v21.6c0,15.2,7.6,28.6,19.1,36.7v3.2l-17.8,4.3c-21.2,5.1-36.1,23.9-36.1,45.7V256
			c0,5.5,4.5,10,10,10h46c-0.1,1.2-0.1,2.4-0.1,3.7v36c0,5.5,4.5,10,10,10h60.1c5.5,0,10-4.5,10-10s-4.5-10-10-10H209V275
			c0-5.5-4.5-10-10-10s-10,4.5-10,10v20.7h-19.8v-26c0-19.3,13.1-35.9,31.9-40.4l27.4-6.6l18.4,41.8c1.6,3.6,5.2,6,9.2,6h0
			c4,0,7.6-2.3,9.2-6l18.3-41.7l27.4,6.5c18.8,4.5,31.9,21.1,31.9,40.4v25.9H323V275c0-5.5-4.5-10-10-10s-10,4.5-10,10v20.7h-11.3
			c-5.5,0-10,4.5-10,10s4.5,10,10,10h61.1c5.5,0,10-4.5,10-10v-35.9c0-1.2,0-2.5-0.1-3.7h46.1c5.5,0,10-4.5,10-10v-18.7
			C418.7,215.5,403.9,196.7,382.7,191.7z M339.3,99.7c13.1,0,23.9,10.2,24.7,23.1h-13.9c-11.7,0-23.2-2.8-33.5-8.2
			C320.3,105.8,329.1,99.7,339.3,99.7z M314.5,146.1c0-0.5,0-1,0-1.5v-8.9c11.2,4.6,23.3,7.1,35.5,7.1h14v4.8
			c0,13.6-11.1,24.8-24.8,24.8s-24.8-11.1-24.8-24.8V146.1z M217.7,112.4L217.7,112.4c0-21.2,17.2-38.4,38.4-38.4
			c19.1,0,35,14,37.9,32.3l-16.8-9.9c-4.2-2.5-9.6-1.5-12.7,2.2c-8.2,9.8-20.3,15.4-33.1,15.4h-13.7L217.7,112.4L217.7,112.4z
			 M172.9,99.7c10.2,0,18.9,6.2,22.7,14.9c-10.3,5.4-21.8,8.2-33.5,8.2h-13.9C149,109.9,159.8,99.7,172.9,99.7z M148.1,142.8h14
			c12.2,0,24.3-2.4,35.6-7.1v11.8c0,13.6-11.1,24.8-24.8,24.8s-24.8-11.1-24.8-24.8L148.1,142.8L148.1,142.8z M196.4,209.9
			c-19.7,4.7-35.1,18.4-42.5,36.2h-40.5v-8.7c0-12.5,8.5-23.3,20.7-26.3l25.5-6.1c4.5-1.1,7.7-5.1,7.7-9.7v-3.4
			c1.8,0.2,3.7,0.4,5.6,0.4c1.9,0,3.7-0.1,5.6-0.4v2.9c0,0.1,0,0.3,0,0.4c0,3.3,1.6,6.5,4.6,8.4c1.1,0.7,2.3,1.2,3.6,1.4l14.9,3.6
			L196.4,209.9z M224.3,194.3c-2.6-1.1-5.2-2-8-2.7l-17.9-4.3v-3.1c3.2-2.3,6.1-4.9,8.7-7.9c4.5,6.9,10.3,12.8,17.2,17.2
			L224.3,194.3L224.3,194.3z M267.7,209L256,235.7L244.3,209v-7.1c3.8,0.8,7.8,1.2,11.8,1.2c4,0,7.9-0.4,11.6-1.2V209z M256.1,183
			c-21.2,0-38.4-17.2-38.4-38.4v-10.6h13.7c15.9,0,30.9-5.9,42.5-16.4l20.6,12.1v16.3C293.7,166.6,276.8,183,256.1,183z
			 M287.7,194.4v-0.7c6.9-4.5,12.8-10.4,17.3-17.3c2.5,3,5.4,5.6,8.6,7.8v3.1l-17.9,4.3C293,192.3,290.3,193.2,287.7,194.4z
			 M398.7,246h-40.7c-7.4-17.7-22.8-31.5-42.5-36.2l-5-1.2l15-3.6c1.2-0.2,2.5-0.7,3.6-1.4c3-1.9,4.6-5.1,4.6-8.4c0-0.1,0-0.2,0-0.2
			v-3.1c1.8,0.2,3.7,0.4,5.6,0.4c1.9,0,3.8-0.1,5.6-0.4v3.4c0,4.6,3.2,8.7,7.7,9.7l25.5,6.1c12.2,2.9,20.7,13.7,20.7,26.3L398.7,246
			L398.7,246z"/>
	</g>
</g>
<g>
	<g>
		<path class="st0" d="M263.1,298.6c-1.9-1.9-4.4-2.9-7.1-2.9c-2.6,0-5.2,1.1-7.1,2.9c-1.9,1.9-2.9,4.4-2.9,7.1
			c0,2.6,1.1,5.2,2.9,7.1c1.9,1.9,4.4,2.9,7.1,2.9c2.6,0,5.2-1.1,7.1-2.9c1.9-1.9,2.9-4.4,2.9-7.1C266,303,264.9,300.5,263.1,298.6z
			"/>
	</g>
</g>
<g>
	<g>
		<path class="st0" d="M256,0c-5.5,0-10,4.5-10,10v15c0,5.5,4.5,10,10,10c5.5,0,10-4.5,10-10V10C266,4.5,261.5,0,256,0z"/>
	</g>
</g>
<g>
	<g>
		<path class="st0" d="M219.2,32.6l-10.5-10.5c-3.9-3.9-10.2-3.9-14.1,0c-3.9,3.9-3.9,10.2,0,14.1L205,46.8c2,2,4.5,2.9,7.1,2.9
			c2.6,0,5.1-1,7.1-2.9C223.1,42.9,223.1,36.5,219.2,32.6z"/>
	</g>
</g>
<g>
	<g>
		<path class="st0" d="M317.2,22.4c-3.9-3.9-10.2-3.9-14.1,0l-10.4,10.4c-3.9,3.9-3.9,10.2,0,14.1c2,2,4.5,2.9,7.1,2.9
			c2.6,0,5.1-1,7.1-2.9l10.4-10.4C321.1,32.6,321.1,26.3,317.2,22.4z"/>
	</g>
</g>
</svg>
