<?xml version="1.0" encoding="utf-8"?>
<!-- Generator: Adobe Illustrator 23.0.5, SVG Export Plug-In . SVG Version: 6.00 Build 0)  -->
<svg version="1.1" id="Layer_1" xmlns="http://www.w3.org/2000/svg" xmlns:xlink="http://www.w3.org/1999/xlink" x="0px" y="0px"
	 viewBox="0 0 512 512" style="enable-background:new 0 0 512 512;" xml:space="preserve">
<style type="text/css">
	.st0{fill:#FBB040;}
</style>
<g transform="translate(1 1)">
	<g>
		<g>
			<path class="st0" d="M148.3,220l17.1,13.7l-3.4,16.2c0,3.4,0.9,6.8,4.3,8.5c2.6,1.7,6.8,1.7,9.4-0.9c0,0,21.3-16.2,53.8-18.8
				c-2.6,32.4-18.8,53.8-18.8,53.8c-2.6,2.6-2.6,6-0.9,9.4s5.1,5.1,8.5,4.3l16.2-3.4l13.7,17.1c1.7,2.6,4.3,3.4,6.8,3.4
				c2.6,0,5.1-0.9,6-4.3l13.7-17.1l16.2,3.4c3.4,0,6.8-0.9,8.5-4.3c1.7-2.6,1.7-6.8-0.9-9.4c0,0-16.2-21.3-18.8-53.8
				c32.4,2.6,53.8,18.8,53.8,18.8c2.6,2.6,6,2.6,9.4,0.9s5.1-5.1,4.3-8.5l-3.4-16.2l17.1-13.7c2.6-1.7,3.4-4.3,3.4-6.8
				s-1.7-5.1-3.4-6.8l-17.1-13.7l3.4-16.2c0-3.4-0.9-6.8-4.3-8.5c-2.6-1.7-6.8-1.7-9.4,0.9c0,0-21.3,16.2-53.8,18.8
				c2.6-32.4,18.8-53.8,18.8-53.8c2.6-2.6,2.6-6,0.9-9.4s-5.1-5.1-8.5-4.3l-16.2,3.4L261,105.7c-3.4-4.3-10.2-4.3-13.7,0l-13.7,17.1
				l-16.2-3.4c-3.4,0-6.8,1.7-8.5,4.3s-1.7,6.8,0.9,9.4c0,0,16.2,21.3,18.8,53.8c-32.4-2.6-53.8-18.8-53.8-18.8
				c-2.6-2.6-6-2.6-9.4-0.9s-5.1,5.1-4.3,8.5l3.4,16.2l-17.1,13.7c-2.6,1.7-3.4,4.3-3.4,6.8C144.1,214.9,144.9,217.5,148.3,220z
				 M179.1,202.1c2.6-2.6,4.3-5.1,3.4-8.5l-0.9-2.6c12.8,6,32.4,12.8,56.3,12.8c5.1,0,8.5-3.4,8.5-8.5c0-23.9-6.8-43.5-12.8-56.3
				l2.6,0.9c3.4,0,6.8-0.9,8.5-3.4l10.2-12.8l10.2,12.8c2.6,2.6,5.1,4.3,8.5,3.4l2.6-0.9c-6,12.8-12.8,32.4-12.8,56.3
				c0,5.1,3.4,8.5,8.5,8.5c23.9,0,43.5-6.8,56.3-12.8l-0.9,2.6c0,3.4,0.9,6.8,3.4,8.5l12.8,10.2l-12.8,10.2
				c-2.6,2.6-4.3,5.1-3.4,8.5l0.9,2.6c-12.8-6-32.4-12.8-56.3-12.8c-5.1,0-8.5,3.4-8.5,8.5c0,23.9,6.8,43.5,12.8,56.3l-2.6-0.9
				c-3.4,0-6.8,0.9-8.5,3.4L255,301.1l-10.2-12.8c-1.7-2.6-4.3-3.4-6.8-3.4c-0.9,0-0.9,0-1.7,0l-2.6,0.9c6-12.8,12.8-32.4,12.8-56.3
				c0-5.1-3.4-8.5-8.5-8.5c-23.9,0-43.5,6.8-56.3,12.8l0.9-2.6c0-3.4-0.9-6.8-3.4-8.5l-12.8-10.2L179.1,202.1z"/>
			<path class="st0" d="M415.4,33.1H289.1V18.6c0-11.1-8.5-19.6-18.8-19.6h-29.9c-11.1,0-19.6,8.5-19.6,19.6v14.5H95.4
				c-11.1,0-19.6,8.5-19.6,19.6v11.9c0,11.1,8.5,19.6,19.6,19.6h14.5v332.8v76.8c0,5.1,3.4,8.5,8.5,8.5s8.5-3.4,8.5-8.5v-71.7
				l17.1-8.5v63.1c0,5.1,3.4,8.5,8.5,8.5s8.5-3.4,8.5-8.5v-71.7l17.1-8.5v63.1c0,5.1,3.4,8.5,8.5,8.5s8.5-3.4,8.5-8.5v-71.7
				l25.6-12.8v127.1c0,5.1,3.4,8.5,8.5,8.5h51.2c5.1,0,8.5-3.4,9.4-8.5V375.7l24.7,12.4v71.7c0,5.1,3.4,8.5,8.5,8.5s8.5-3.4,8.5-8.5
				v-63.1l17.1,8.5v71.7c0,5.1,3.4,8.5,8.5,8.5s8.5-3.4,8.5-8.5v-63.1l17.1,8.5v71.7c0,5.1,3.4,8.5,8.5,8.5s8.5-3.4,8.5-8.5v-76.8
				V84.3h14.5c11.1,0,19.6-8.5,19.6-18.8V52.8C434.2,41.7,425.7,33.1,415.4,33.1z M237.9,18.6c0-1.7,0.9-2.6,1.7-2.6h29.9
				c1.7,0,2.6,0.9,2.6,2.6v14.5h-34.1L237.9,18.6L237.9,18.6z M272.1,493.9h-34.1V366.8l17.1-8.5l17.1,8.5V493.9z M383,403.5
				l-19.7-9.8c-1-0.9-2.3-1.6-3.7-1.9l-30.4-15.2c-1-0.9-2.3-1.6-3.7-1.9l-38.9-19.4c-0.5-0.5-1.1-0.9-1.7-1.3l-25.6-12.8
				c-0.4-0.1-0.9-0.3-1.3-0.3c-0.7-0.5-1.6-0.5-3-0.5c-1.7,0-2.6,0-3.4,0.9l0,0L226,354l-41.4,20.7c-1.5,0.3-2.7,1-3.7,1.9
				l-30.4,15.2c-1.5,0.3-2.7,1-3.7,1.9l-19.7,9.8V84.3h256V403.5z M417.1,64.7c0,1.7-0.9,2.6-1.7,2.6h-23.9H118.5h-23
				c-1.7,0-2.6-0.9-2.6-1.7V52.8c0-1.7,0.9-2.6,2.6-2.6h125.4h68.3h125.4c1.7,0,2.6,0.9,2.6,2.6L417.1,64.7L417.1,64.7z"/>
		</g>
	</g>
</g>
</svg>
