<?xml version="1.0" encoding="utf-8"?>
<!-- Generator: Adobe Illustrator 23.0.5, SVG Export Plug-In . SVG Version: 6.00 Build 0)  -->
<svg version="1.1" id="Layer_1" xmlns="http://www.w3.org/2000/svg" xmlns:xlink="http://www.w3.org/1999/xlink" x="0px" y="0px"
	 viewBox="0 0 684 413" style="enable-background:new 0 0 684 413;" xml:space="preserve">
<style type="text/css">
	.st0{fill:none;}
	.st1{fill:#FBB040;}
	.st2{fill:#2C3E4F;}
	.st3{opacity:0.2;}
	.st4{fill:#FFFFFF;}
	.st5{fill:#F2F2F2;}
	.st6{fill:#FDD08D;}
	.st7{fill:#5C6A77;}
	.st8{fill:#374D63;}
	.st9{fill:none;stroke:#5C6A77;stroke-width:0.75;stroke-miterlimit:10;}
</style>
<rect x="236.1" y="6.6" class="st0" width="211.8" height="88.7"/>
<path class="st1" d="M264.3,24.3h-3.5V10.6h-4.5V7.7h12.5v2.9h-4.5L264.3,24.3L264.3,24.3z"/>
<path class="st1" d="M281.2,19.7c0,1.5-0.5,2.7-1.6,3.5s-2.6,1.3-4.5,1.3c-1.8,0-3.3-0.3-4.7-1v-3.3c1.1,0.5,2.1,0.9,2.9,1.1
	c0.8,0.2,1.5,0.3,2.1,0.3c0.8,0,1.4-0.1,1.8-0.4c0.4-0.3,0.6-0.7,0.6-1.3c0-0.3-0.1-0.6-0.3-0.9s-0.5-0.5-0.8-0.7
	c-0.4-0.2-1.1-0.6-2.1-1.1c-1-0.5-1.8-0.9-2.3-1.4c-0.5-0.4-0.9-0.9-1.2-1.5c-0.3-0.6-0.5-1.3-0.5-2.1c0-1.5,0.5-2.6,1.5-3.5
	s2.4-1.3,4.1-1.3c0.9,0,1.7,0.1,2.5,0.3c0.8,0.2,1.6,0.5,2.5,0.9l-1.1,2.7c-0.9-0.4-1.6-0.6-2.2-0.8s-1.1-0.2-1.7-0.2
	c-0.7,0-1.2,0.2-1.5,0.5c-0.4,0.3-0.5,0.7-0.5,1.2c0,0.3,0.1,0.6,0.2,0.8c0.1,0.2,0.4,0.4,0.7,0.7c0.3,0.2,1.1,0.6,2.2,1.2
	c1.5,0.7,2.6,1.5,3.2,2.2C280.9,17.7,281.2,18.6,281.2,19.7z"/>
<path class="st1" d="M284.2,7.7h5.2c2.4,0,4.1,0.3,5.1,1s1.6,1.7,1.6,3.2c0,1-0.2,1.8-0.7,2.4c-0.5,0.6-1.1,1-1.9,1.1v0.1
	c1,0.2,1.8,0.7,2.3,1.3c0.5,0.6,0.7,1.5,0.7,2.6c0,1.5-0.5,2.7-1.6,3.5c-1.1,0.9-2.6,1.3-4.5,1.3h-6.2L284.2,7.7L284.2,7.7z
	 M287.7,14.3h2c1,0,1.6-0.1,2.1-0.4c0.4-0.3,0.6-0.8,0.6-1.5c0-0.6-0.2-1.1-0.7-1.4s-1.2-0.4-2.2-0.4h-1.9V14.3z M287.7,17.1v4.3
	h2.3c1,0,1.7-0.2,2.1-0.6c0.5-0.4,0.7-0.9,0.7-1.7c0-1.4-1-2.1-3-2.1H287.7z"/>
<path class="st1" d="M317.3,12.9c0,1.8-0.6,3.2-1.7,4.1c-1.1,1-2.7,1.4-4.8,1.4h-1.5v5.9h-3.5V7.7h5.3c2,0,3.5,0.4,4.6,1.3
	C316.8,9.9,317.3,11.2,317.3,12.9z M309.4,15.5h1.2c1.1,0,1.9-0.2,2.4-0.6c0.5-0.4,0.8-1.1,0.8-1.9c0-0.8-0.2-1.4-0.7-1.8
	c-0.5-0.4-1.2-0.6-2.1-0.6h-1.6V15.5z"/>
<path class="st1" d="M324,17.9v6.4h-3.5V7.7h4.8c2.3,0,3.9,0.4,5,1.2c1.1,0.8,1.6,2.1,1.6,3.7c0,1-0.3,1.9-0.8,2.6s-1.3,1.4-2.3,1.8
	c2.5,3.7,4.1,6.1,4.9,7.2h-3.9l-4-6.4L324,17.9L324,17.9L324,17.9z M324,15.1h1.1c1.1,0,1.9-0.2,2.5-0.6c0.5-0.4,0.8-0.9,0.8-1.8
	c0-0.8-0.3-1.4-0.8-1.7s-1.4-0.5-2.5-0.5H324L324,15.1C324,15.1,324,15.1,324,15.1z"/>
<path class="st1" d="M350.9,16c0,2.8-0.7,4.9-2,6.3c-1.4,1.5-3.3,2.2-5.9,2.2c-2.5,0-4.5-0.7-5.9-2.2s-2-3.6-2-6.4s0.7-4.9,2-6.3
	c1.4-1.5,3.3-2.2,5.9-2.2c2.5,0,4.5,0.7,5.9,2.2S350.9,13.2,350.9,16z M338.8,16c0,1.9,0.4,3.3,1.1,4.2s1.8,1.4,3.2,1.4
	c2.8,0,4.2-1.9,4.2-5.6c0-3.7-1.4-5.6-4.2-5.6c-1.4,0-2.5,0.5-3.2,1.4C339.1,12.7,338.8,14.1,338.8,16z"/>
<path class="st1" d="M368.1,15.9c0,2.7-0.8,4.8-2.3,6.3s-3.8,2.2-6.7,2.2h-4.7V7.7h5.2c2.7,0,4.8,0.7,6.3,2.2
	C367.4,11.3,368.1,13.3,368.1,15.9z M364.5,15.9c0-3.6-1.6-5.3-4.7-5.3h-1.9v10.8h1.5C362.8,21.4,364.5,19.6,364.5,15.9z"/>
<path class="st1" d="M385.1,7.7v10.8c0,1.2-0.3,2.3-0.8,3.2c-0.5,0.9-1.3,1.6-2.4,2.1c-1,0.5-2.3,0.7-3.7,0.7c-2.1,0-3.8-0.5-5-1.6
	s-1.8-2.6-1.8-4.5V7.7h3.5v10.2c0,1.3,0.3,2.2,0.8,2.8c0.5,0.6,1.4,0.9,2.6,0.9c1.1,0,2-0.3,2.5-0.9c0.5-0.6,0.8-1.5,0.8-2.8V7.7
	H385.1z"/>
<path class="st1" d="M396.2,10.4c-1.3,0-2.4,0.5-3.1,1.5c-0.7,1-1.1,2.4-1.1,4.2c0,3.7,1.4,5.6,4.2,5.6c1.2,0,2.6-0.3,4.2-0.9v3
	c-1.4,0.6-2.9,0.9-4.6,0.9c-2.4,0-4.3-0.7-5.5-2.2s-1.9-3.6-1.9-6.3c0-1.7,0.3-3.2,0.9-4.5s1.5-2.3,2.7-3s2.6-1,4.1-1
	c1.6,0,3.2,0.4,4.9,1.2l-1.1,2.9c-0.6-0.3-1.3-0.6-1.9-0.8S396.8,10.4,396.2,10.4z"/>
<path class="st1" d="M410.4,24.3h-3.5V10.6h-4.5V7.7h12.5v2.9h-4.5V24.3z"/>
<path class="st1" d="M427.3,19.7c0,1.5-0.5,2.7-1.6,3.5s-2.6,1.3-4.5,1.3c-1.8,0-3.3-0.3-4.7-1v-3.3c1.1,0.5,2.1,0.9,2.9,1.1
	c0.8,0.2,1.5,0.3,2.1,0.3c0.8,0,1.4-0.1,1.8-0.4c0.4-0.3,0.6-0.7,0.6-1.3c0-0.3-0.1-0.6-0.3-0.9s-0.5-0.5-0.8-0.7
	c-0.4-0.2-1.1-0.6-2.1-1.1c-1-0.5-1.8-0.9-2.3-1.4c-0.5-0.4-0.9-0.9-1.2-1.5s-0.5-1.3-0.5-2.1c0-1.5,0.5-2.6,1.5-3.5
	s2.4-1.3,4.1-1.3c0.9,0,1.7,0.1,2.5,0.3s1.6,0.5,2.5,0.9l-1.1,2.7c-0.9-0.4-1.6-0.6-2.2-0.8c-0.6-0.1-1.1-0.2-1.7-0.2
	c-0.7,0-1.2,0.2-1.5,0.5c-0.4,0.3-0.5,0.7-0.5,1.2c0,0.3,0.1,0.6,0.2,0.8c0.1,0.2,0.4,0.4,0.7,0.7s1.1,0.6,2.2,1.2
	c1.5,0.7,2.6,1.5,3.2,2.2C427,17.7,427.3,18.6,427.3,19.7z"/>
<path class="st2" d="M254.3,41.1h-1.2v-8.9h-3.2v-1h7.5v1h-3.2L254.3,41.1L254.3,41.1z"/>
<path class="st2" d="M258.1,37.8v-1h3.4v1H258.1z"/>
<path class="st2" d="M269,38.4c0,0.9-0.3,1.6-1,2c-0.6,0.5-1.5,0.7-2.6,0.7c-1.2,0-2.1-0.2-2.7-0.5v-1.1c0.4,0.2,0.9,0.3,1.3,0.4
	c0.5,0.1,1,0.2,1.4,0.2c0.8,0,1.4-0.2,1.8-0.4c0.4-0.3,0.6-0.7,0.6-1.2c0-0.3-0.1-0.6-0.2-0.8c-0.1-0.2-0.4-0.4-0.7-0.6
	c-0.3-0.2-0.8-0.4-1.5-0.6c-0.9-0.3-1.6-0.7-2-1.2s-0.6-1-0.6-1.8c0-0.8,0.3-1.4,0.9-1.8c0.6-0.5,1.3-0.7,2.3-0.7
	c1,0,1.9,0.2,2.7,0.5l-0.4,1c-0.8-0.3-1.6-0.5-2.4-0.5c-0.6,0-1.1,0.1-1.4,0.4c-0.4,0.3-0.5,0.6-0.5,1.1c0,0.3,0.1,0.6,0.2,0.8
	c0.1,0.2,0.3,0.4,0.6,0.6c0.3,0.2,0.8,0.4,1.4,0.6c1,0.4,1.8,0.8,2.2,1.2C268.8,37.2,269,37.7,269,38.4z"/>
<path class="st2" d="M276,41.1v-4.8c0-0.6-0.1-1.1-0.4-1.4s-0.7-0.5-1.3-0.5c-0.8,0-1.4,0.2-1.7,0.6c-0.4,0.4-0.5,1.1-0.5,2.1v3.9
	h-1.1V30.5h1.1v3.2c0,0.4,0,0.7,0,1h0.1c0.2-0.4,0.5-0.6,1-0.8s0.9-0.3,1.4-0.3c0.9,0,1.6,0.2,2.1,0.7s0.7,1.1,0.7,2.1v4.9H276z"/>
<path class="st2" d="M279.4,31.6c0-0.3,0.1-0.5,0.2-0.6c0.1-0.1,0.3-0.2,0.5-0.2c0.2,0,0.3,0.1,0.5,0.2s0.2,0.3,0.2,0.6
	c0,0.3-0.1,0.4-0.2,0.6s-0.3,0.2-0.5,0.2c-0.2,0-0.4-0.1-0.5-0.2S279.4,31.8,279.4,31.6z M280.6,41.1h-1.1v-7.5h1.1V41.1z"/>
<path class="st2" d="M286.4,33.5c0.3,0,0.6,0,0.9,0.1l-0.2,1c-0.3-0.1-0.6-0.1-0.8-0.1c-0.6,0-1.1,0.3-1.5,0.7s-0.6,1.1-0.6,1.8v4
	H283v-7.5h0.9l0.1,1.4h0c0.3-0.5,0.6-0.9,1-1.1S285.9,33.5,286.4,33.5z"/>
<path class="st2" d="M291.1,40.3c0.2,0,0.4,0,0.6,0c0.2,0,0.3-0.1,0.4-0.1V41c-0.1,0.1-0.3,0.1-0.5,0.2c-0.2,0-0.5,0.1-0.6,0.1
	c-1.5,0-2.2-0.8-2.2-2.3v-4.5h-1.1v-0.5l1.1-0.5l0.5-1.6h0.6v1.7h2.2v0.9h-2.2v4.4c0,0.5,0.1,0.8,0.3,1
	C290.5,40.2,290.7,40.3,291.1,40.3z"/>
<path class="st2" d="M298.5,39c0,0.7-0.3,1.2-0.8,1.6s-1.3,0.6-2.2,0.6c-1,0-1.8-0.2-2.3-0.5v-1c0.4,0.2,0.7,0.3,1.2,0.4
	c0.4,0.1,0.8,0.2,1.2,0.2c0.6,0,1-0.1,1.4-0.3c0.3-0.2,0.5-0.5,0.5-0.9c0-0.3-0.1-0.5-0.4-0.8s-0.7-0.5-1.5-0.7
	c-0.7-0.3-1.2-0.5-1.5-0.7c-0.3-0.2-0.5-0.4-0.6-0.7c-0.1-0.3-0.2-0.5-0.2-0.9c0-0.6,0.3-1.1,0.7-1.4c0.5-0.3,1.2-0.5,2-0.5
	c0.8,0,1.6,0.2,2.4,0.5l-0.4,0.9c-0.8-0.3-1.4-0.5-2-0.5c-0.5,0-0.9,0.1-1.2,0.3s-0.4,0.4-0.4,0.7c0,0.2,0,0.4,0.1,0.5
	s0.3,0.3,0.5,0.4c0.2,0.1,0.7,0.3,1.3,0.5c0.9,0.3,1.5,0.7,1.8,1C298.3,38.1,298.5,38.5,298.5,39z"/>
<path class="st2" d="M301.5,39.5l0.1,0.2c-0.1,0.5-0.3,1-0.5,1.6c-0.2,0.6-0.5,1.2-0.7,1.7h-0.9c0.1-0.5,0.3-1.1,0.4-1.8
	c0.1-0.7,0.3-1.3,0.3-1.7C300.2,39.5,301.5,39.5,301.5,39.5z"/>
<path class="st2" d="M313.8,34c0,1-0.3,1.8-1,2.3c-0.7,0.5-1.7,0.8-3,0.8h-1.2v3.9h-1.2v-10h2.6C312.6,31.1,313.8,32.1,313.8,34z
	 M308.7,36.2h1c1,0,1.8-0.2,2.2-0.5c0.5-0.3,0.7-0.9,0.7-1.6c0-0.7-0.2-1.2-0.6-1.5s-1.1-0.5-2-0.5h-1.3L308.7,36.2L308.7,36.2z"/>
<path class="st2" d="M322.2,37.3c0,1.2-0.3,2.2-0.9,2.8c-0.6,0.7-1.5,1-2.5,1c-0.7,0-1.3-0.2-1.8-0.5s-0.9-0.8-1.2-1.3
	s-0.4-1.3-0.4-2.1c0-1.2,0.3-2.2,0.9-2.8c0.6-0.7,1.5-1,2.5-1c1,0,1.9,0.3,2.5,1C321.9,35.2,322.2,36.1,322.2,37.3z M316.5,37.3
	c0,1,0.2,1.7,0.6,2.2s0.9,0.8,1.7,0.8s1.3-0.3,1.7-0.8c0.4-0.5,0.6-1.2,0.6-2.2c0-1-0.2-1.7-0.6-2.2s-1-0.7-1.7-0.7
	c-0.7,0-1.3,0.2-1.7,0.7C316.7,35.6,316.5,36.4,316.5,37.3z"/>
<path class="st2" d="M325.3,41.1h-1.1V30.5h1.1V41.1z"/>
<path class="st2" d="M334.2,37.3c0,1.2-0.3,2.2-0.9,2.8c-0.6,0.7-1.5,1-2.5,1c-0.7,0-1.3-0.2-1.8-0.5s-0.9-0.8-1.2-1.3
	s-0.4-1.3-0.4-2.1c0-1.2,0.3-2.2,0.9-2.8c0.6-0.7,1.5-1,2.5-1c1,0,1.9,0.3,2.5,1C333.9,35.2,334.2,36.1,334.2,37.3z M328.5,37.3
	c0,1,0.2,1.7,0.6,2.2s0.9,0.8,1.7,0.8s1.3-0.3,1.7-0.8c0.4-0.5,0.6-1.2,0.6-2.2c0-1-0.2-1.7-0.6-2.2s-1-0.7-1.7-0.7
	c-0.7,0-1.3,0.2-1.7,0.7C328.7,35.6,328.5,36.4,328.5,37.3z"/>
<path class="st2" d="M345.6,38.4c0,0.9-0.3,1.6-1,2c-0.6,0.5-1.5,0.7-2.6,0.7c-1.2,0-2.1-0.2-2.7-0.5v-1.1c0.4,0.2,0.9,0.3,1.3,0.4
	c0.5,0.1,1,0.2,1.4,0.2c0.8,0,1.4-0.2,1.8-0.4c0.4-0.3,0.6-0.7,0.6-1.2c0-0.3-0.1-0.6-0.2-0.8c-0.1-0.2-0.4-0.4-0.7-0.6
	c-0.3-0.2-0.8-0.4-1.5-0.6c-0.9-0.3-1.6-0.7-2-1.2s-0.6-1-0.6-1.8c0-0.8,0.3-1.4,0.9-1.8c0.6-0.5,1.3-0.7,2.3-0.7
	c1,0,1.9,0.2,2.7,0.5l-0.4,1c-0.8-0.3-1.6-0.5-2.4-0.5c-0.6,0-1.1,0.1-1.4,0.4c-0.4,0.3-0.5,0.6-0.5,1.1c0,0.3,0.1,0.6,0.2,0.8
	c0.1,0.2,0.3,0.4,0.6,0.6c0.3,0.2,0.8,0.4,1.4,0.6c1,0.4,1.8,0.8,2.2,1.2S345.6,37.7,345.6,38.4z"/>
<path class="st2" d="M352.5,41.1v-4.8c0-0.6-0.1-1.1-0.4-1.4s-0.7-0.5-1.3-0.5c-0.8,0-1.4,0.2-1.7,0.6c-0.4,0.4-0.5,1.1-0.5,2.1v3.9
	h-1.1V30.5h1.1v3.2c0,0.4,0,0.7,0,1h0.1c0.2-0.4,0.5-0.6,1-0.8s0.9-0.3,1.4-0.3c0.9,0,1.6,0.2,2,0.7c0.5,0.4,0.7,1.1,0.7,2.1v4.9
	H352.5z"/>
<path class="st2" d="M355.9,31.6c0-0.3,0.1-0.5,0.2-0.6c0.1-0.1,0.3-0.2,0.5-0.2c0.2,0,0.3,0.1,0.5,0.2s0.2,0.3,0.2,0.6
	c0,0.3-0.1,0.4-0.2,0.6s-0.3,0.2-0.5,0.2c-0.2,0-0.4-0.1-0.5-0.2C356,32,355.9,31.8,355.9,31.6z M357.1,41.1H356v-7.5h1.1V41.1z"/>
<path class="st2" d="M363,33.5c0.3,0,0.6,0,0.9,0.1l-0.2,1c-0.3-0.1-0.6-0.1-0.8-0.1c-0.6,0-1.1,0.3-1.5,0.7s-0.6,1.1-0.6,1.8v4
	h-1.1v-7.5h0.9l0.1,1.4h0c0.3-0.5,0.6-0.9,1-1.1S362.5,33.5,363,33.5z"/>
<path class="st2" d="M367.6,40.3c0.2,0,0.4,0,0.6,0c0.2,0,0.3-0.1,0.4-0.1V41c-0.1,0.1-0.3,0.1-0.5,0.2c-0.2,0-0.5,0.1-0.6,0.1
	c-1.5,0-2.2-0.8-2.2-2.3v-4.5h-1.1v-0.5l1.1-0.5l0.5-1.6h0.6v1.7h2.2v0.9h-2.2v4.4c0,0.5,0.1,0.8,0.3,1
	C367,40.2,367.3,40.3,367.6,40.3z"/>
<path class="st2" d="M375,39c0,0.7-0.3,1.2-0.8,1.6s-1.3,0.6-2.2,0.6c-1,0-1.8-0.2-2.3-0.5v-1c0.4,0.2,0.7,0.3,1.2,0.4
	c0.4,0.1,0.8,0.2,1.2,0.2c0.6,0,1-0.1,1.4-0.3s0.5-0.5,0.5-0.9c0-0.3-0.1-0.5-0.4-0.8s-0.7-0.5-1.5-0.7c-0.7-0.3-1.2-0.5-1.5-0.7
	c-0.3-0.2-0.5-0.4-0.6-0.7c-0.1-0.3-0.2-0.5-0.2-0.9c0-0.6,0.3-1.1,0.7-1.4c0.5-0.3,1.2-0.5,2-0.5c0.8,0,1.6,0.2,2.4,0.5l-0.4,0.9
	c-0.8-0.3-1.4-0.5-2-0.5c-0.5,0-0.9,0.1-1.2,0.3s-0.4,0.4-0.4,0.7c0,0.2,0,0.4,0.1,0.5s0.3,0.3,0.5,0.4c0.2,0.1,0.7,0.3,1.3,0.5
	c0.9,0.3,1.5,0.7,1.8,1C374.8,38.1,375,38.5,375,39z"/>
<path class="st2" d="M383.8,34.5h-1.9v6.6h-1.1v-6.6h-1.3V34l1.3-0.4v-0.4c0-1.8,0.8-2.8,2.4-2.8c0.4,0,0.9,0.1,1.4,0.2l-0.3,0.9
	c-0.4-0.1-0.8-0.2-1.1-0.2c-0.4,0-0.7,0.1-1,0.4c-0.2,0.3-0.3,0.7-0.3,1.4v0.5h1.9V34.5z"/>
<path class="st2" d="M391.6,37.3c0,1.2-0.3,2.2-0.9,2.8s-1.5,1-2.5,1c-0.7,0-1.3-0.2-1.8-0.5s-0.9-0.8-1.2-1.3s-0.4-1.3-0.4-2.1
	c0-1.2,0.3-2.2,0.9-2.8c0.6-0.7,1.5-1,2.5-1c1,0,1.9,0.3,2.5,1C391.3,35.2,391.6,36.1,391.6,37.3z M386,37.3c0,1,0.2,1.7,0.6,2.2
	s0.9,0.8,1.7,0.8s1.3-0.3,1.7-0.8c0.4-0.5,0.6-1.2,0.6-2.2c0-1-0.2-1.7-0.6-2.2c-0.4-0.5-1-0.7-1.7-0.7c-0.7,0-1.3,0.2-1.7,0.7
	S386,36.4,386,37.3z"/>
<path class="st2" d="M397,33.5c0.3,0,0.6,0,0.9,0.1l-0.2,1c-0.3-0.1-0.6-0.1-0.8-0.1c-0.6,0-1.1,0.3-1.5,0.7s-0.6,1.1-0.6,1.8v4
	h-1.1v-7.5h0.9l0.1,1.4h0c0.3-0.5,0.6-0.9,1-1.1S396.6,33.5,397,33.5z"/>
<path class="st2" d="M407.5,41.1l-3.4-8.8h0c0.1,0.7,0.1,1.5,0.1,2.5v6.3h-1.1v-10h1.8l3.2,8.2h0l3.2-8.2h1.7v10h-1.2v-6.4
	c0-0.7,0-1.5,0.1-2.4h0l-3.4,8.8H407.5z"/>
<path class="st2" d="M418.7,41.2c-1.1,0-2-0.3-2.6-1c-0.6-0.7-1-1.6-1-2.8c0-1.2,0.3-2.2,0.9-2.9s1.4-1.1,2.4-1.1
	c0.9,0,1.7,0.3,2.2,0.9c0.5,0.6,0.8,1.4,0.8,2.4v0.7h-5.1c0,0.9,0.2,1.5,0.7,2c0.4,0.5,1,0.7,1.8,0.7c0.8,0,1.6-0.2,2.4-0.5v1
	c-0.4,0.2-0.8,0.3-1.1,0.4C419.6,41.2,419.2,41.2,418.7,41.2z M418.4,34.4c-0.6,0-1.1,0.2-1.4,0.6c-0.4,0.4-0.6,0.9-0.6,1.6h3.9
	c0-0.7-0.2-1.3-0.5-1.6C419.5,34.6,419,34.4,418.4,34.4z"/>
<path class="st2" d="M428.5,41.1v-4.8c0-0.6-0.1-1.1-0.4-1.4s-0.7-0.5-1.3-0.5c-0.8,0-1.4,0.2-1.7,0.6c-0.4,0.4-0.5,1.1-0.5,2.1v3.9
	h-1.1v-7.5h0.9l0.2,1h0c0.2-0.4,0.6-0.7,1-0.9c0.4-0.2,0.9-0.3,1.4-0.3c0.9,0,1.6,0.2,2,0.7s0.7,1.1,0.7,2.1v4.9
	C429.6,41.1,428.5,41.1,428.5,41.1z"/>
<path class="st2" d="M433.1,39.5l0.1,0.2c-0.1,0.5-0.3,1-0.5,1.6c-0.2,0.6-0.5,1.2-0.7,1.7h-0.9c0.1-0.5,0.3-1.1,0.4-1.8
	c0.1-0.7,0.3-1.3,0.3-1.7C431.9,39.5,433.1,39.5,433.1,39.5z"/>
<path class="st2" d="M281.2,57.8h-1.1l-2-6.7c-0.1-0.3-0.2-0.7-0.3-1.1s-0.2-0.7-0.2-0.8c-0.1,0.6-0.3,1.3-0.5,2l-2,6.6H274l-2.6-10
	h1.2l1.6,6.2c0.2,0.9,0.4,1.7,0.5,2.3c0.1-0.8,0.3-1.7,0.5-2.4l1.8-6.1h1.2l1.9,6.1c0.2,0.7,0.4,1.5,0.5,2.4
	c0.1-0.7,0.3-1.4,0.5-2.4l1.6-6.1h1.2L281.2,57.8z"/>
<path class="st2" d="M291.7,54.1c0,1.2-0.3,2.2-0.9,2.8c-0.6,0.7-1.5,1-2.5,1c-0.7,0-1.3-0.2-1.8-0.5s-0.9-0.8-1.2-1.3
	s-0.4-1.3-0.4-2.1c0-1.2,0.3-2.2,0.9-2.8c0.6-0.7,1.5-1,2.5-1c1,0,1.9,0.3,2.5,1C291.4,52,291.7,52.9,291.7,54.1z M286,54.1
	c0,1,0.2,1.7,0.6,2.2s0.9,0.8,1.7,0.8s1.3-0.3,1.7-0.8c0.4-0.5,0.6-1.2,0.6-2.2c0-1-0.2-1.7-0.6-2.2s-1-0.7-1.7-0.7
	c-0.7,0-1.3,0.2-1.7,0.7C286.2,52.4,286,53.1,286,54.1z"/>
<path class="st2" d="M303.2,57.8V53c0-0.6-0.1-1-0.4-1.3s-0.6-0.5-1.2-0.5c-0.7,0-1.2,0.2-1.6,0.6c-0.3,0.4-0.5,1-0.5,1.9v4.2h-1.1
	V53c0-0.6-0.1-1-0.4-1.3s-0.6-0.5-1.2-0.5c-0.7,0-1.2,0.2-1.6,0.6s-0.5,1.1-0.5,2.1v3.9h-1.1v-7.5h0.9l0.2,1h0
	c0.2-0.4,0.5-0.7,0.9-0.8c0.4-0.2,0.8-0.3,1.3-0.3c1.2,0,1.9,0.4,2.3,1.3h0c0.2-0.4,0.5-0.7,1-0.9s0.9-0.3,1.5-0.3
	c0.9,0,1.5,0.2,1.9,0.7c0.4,0.4,0.6,1.1,0.6,2.1v4.9C304.4,57.8,303.2,57.8,303.2,57.8z"/>
<path class="st2" d="M309.9,58c-1.1,0-2-0.3-2.6-1c-0.6-0.7-1-1.6-1-2.8c0-1.2,0.3-2.2,0.9-2.9s1.4-1.1,2.4-1.1
	c0.9,0,1.7,0.3,2.2,0.9c0.5,0.6,0.8,1.4,0.8,2.4v0.7h-5.1c0,0.9,0.2,1.5,0.7,2c0.4,0.5,1,0.7,1.8,0.7c0.8,0,1.6-0.2,2.4-0.5v1
	c-0.4,0.2-0.8,0.3-1.1,0.4C310.8,57.9,310.4,58,309.9,58z M309.5,51.2c-0.6,0-1.1,0.2-1.4,0.6c-0.4,0.4-0.6,0.9-0.6,1.6h3.9
	c0-0.7-0.2-1.3-0.5-1.6C310.6,51.4,310.1,51.2,309.5,51.2z"/>
<path class="st2" d="M319.6,57.8V53c0-0.6-0.1-1.1-0.4-1.4s-0.7-0.5-1.3-0.5c-0.8,0-1.4,0.2-1.7,0.6c-0.4,0.4-0.5,1.1-0.5,2.1v3.9
	h-1.1v-7.5h0.9l0.2,1h0c0.2-0.4,0.6-0.7,1-0.9c0.4-0.2,0.9-0.3,1.4-0.3c0.9,0,1.6,0.2,2,0.7s0.7,1.1,0.7,2.1v4.9
	C320.8,57.8,319.6,57.8,319.6,57.8z"/>
<path class="st2" d="M331.3,57.8l-0.2-1.1h0c-0.4,0.5-0.7,0.8-1.1,1c-0.4,0.2-0.8,0.3-1.4,0.3c-0.7,0-1.3-0.2-1.7-0.6
	s-0.6-0.9-0.6-1.6c0-1.5,1.2-2.3,3.6-2.4l1.3,0v-0.5c0-0.6-0.1-1-0.4-1.3s-0.7-0.4-1.2-0.4c-0.6,0-1.3,0.2-2.1,0.6l-0.4-0.9
	c0.4-0.2,0.8-0.4,1.2-0.5s0.9-0.2,1.3-0.2c0.9,0,1.5,0.2,2,0.6c0.4,0.4,0.6,1,0.6,1.9v5.1H331.3z M328.8,57c0.7,0,1.3-0.2,1.7-0.6
	c0.4-0.4,0.6-0.9,0.6-1.6v-0.7l-1.1,0c-0.9,0-1.5,0.2-2,0.4c-0.4,0.3-0.6,0.6-0.6,1.2c0,0.4,0.1,0.7,0.4,0.9
	C328,56.9,328.3,57,328.8,57z"/>
<path class="st2" d="M339.6,57.8V53c0-0.6-0.1-1.1-0.4-1.4s-0.7-0.5-1.3-0.5c-0.8,0-1.4,0.2-1.7,0.6c-0.4,0.4-0.5,1.1-0.5,2.1v3.9
	h-1.1v-7.5h0.9l0.2,1h0c0.2-0.4,0.6-0.7,1-0.9c0.4-0.2,0.9-0.3,1.4-0.3c0.9,0,1.6,0.2,2,0.7s0.7,1.1,0.7,2.1v4.9
	C340.7,57.8,339.6,57.8,339.6,57.8z"/>
<path class="st2" d="M348.1,56.8L348.1,56.8c-0.6,0.8-1.4,1.1-2.4,1.1c-1,0-1.7-0.3-2.3-1s-0.8-1.6-0.8-2.8s0.3-2.2,0.8-2.9
	c0.5-0.7,1.3-1,2.3-1c1,0,1.8,0.4,2.3,1.1h0.1l0-0.5l0-0.5v-3h1.1v10.6h-0.9L348.1,56.8z M345.9,57c0.8,0,1.3-0.2,1.7-0.6
	s0.5-1.1,0.5-2v-0.2c0-1.1-0.2-1.8-0.5-2.3c-0.4-0.5-0.9-0.7-1.7-0.7c-0.7,0-1.2,0.3-1.5,0.8c-0.4,0.5-0.5,1.2-0.5,2.2
	c0,1,0.2,1.7,0.5,2.2C344.7,56.8,345.2,57,345.9,57z"/>
<path class="st2" d="M359.7,48.8c-1.1,0-2,0.4-2.6,1.1s-1,1.7-1,3c0,1.3,0.3,2.3,0.9,3s1.5,1.1,2.6,1.1c0.7,0,1.5-0.1,2.4-0.4v1
	c-0.7,0.3-1.5,0.4-2.6,0.4c-1.5,0-2.6-0.5-3.4-1.3s-1.2-2.2-1.2-3.8c0-1,0.2-1.9,0.6-2.7c0.4-0.8,0.9-1.4,1.7-1.8
	c0.7-0.4,1.6-0.6,2.6-0.6c1,0,2,0.2,2.7,0.6l-0.5,1C361.2,48.9,360.4,48.8,359.7,48.8z"/>
<path class="st2" d="M369.2,57.8V53c0-0.6-0.1-1.1-0.4-1.4s-0.7-0.5-1.3-0.5c-0.8,0-1.4,0.2-1.7,0.6s-0.5,1.1-0.5,2.1v3.9H364V47.2
	h1.1v3.2c0,0.4,0,0.7,0,1h0.1c0.2-0.4,0.5-0.6,1-0.8s0.9-0.3,1.4-0.3c0.9,0,1.6,0.2,2.1,0.7s0.7,1.1,0.7,2.1v4.9H369.2z"/>
<path class="st2" d="M372.5,48.3c0-0.3,0.1-0.5,0.2-0.6s0.3-0.2,0.5-0.2c0.2,0,0.3,0.1,0.5,0.2s0.2,0.3,0.2,0.6
	c0,0.3-0.1,0.4-0.2,0.6s-0.3,0.2-0.5,0.2c-0.2,0-0.4-0.1-0.5-0.2C372.6,48.8,372.5,48.6,372.5,48.3z M373.8,57.8h-1.1v-7.5h1.1V57.8
	z"/>
<path class="st2" d="M377.3,57.8h-1.1V47.2h1.1V57.8z"/>
<path class="st2" d="M384.8,56.8L384.8,56.8c-0.6,0.8-1.4,1.1-2.4,1.1c-1,0-1.7-0.3-2.3-1s-0.8-1.6-0.8-2.8s0.3-2.2,0.8-2.9
	c0.5-0.7,1.3-1,2.3-1c1,0,1.8,0.4,2.3,1.1h0.1l0-0.5l0-0.5v-3h1.1v10.6h-0.9L384.8,56.8z M382.5,57c0.8,0,1.3-0.2,1.7-0.6
	s0.5-1.1,0.5-2v-0.2c0-1.1-0.2-1.8-0.5-2.3c-0.4-0.5-0.9-0.7-1.7-0.7c-0.7,0-1.2,0.3-1.5,0.8c-0.4,0.5-0.5,1.2-0.5,2.2
	c0,1,0.2,1.7,0.5,2.2C381.3,56.8,381.8,57,382.5,57z"/>
<path class="st2" d="M391.6,50.2c0.3,0,0.6,0,0.9,0.1l-0.2,1c-0.3-0.1-0.6-0.1-0.8-0.1c-0.6,0-1.1,0.3-1.5,0.7s-0.6,1.1-0.6,1.8v4
	h-1.1v-7.5h0.9l0.1,1.4h0c0.3-0.5,0.6-0.9,1-1.1S391.2,50.2,391.6,50.2z"/>
<path class="st2" d="M397.1,58c-1.1,0-2-0.3-2.6-1c-0.6-0.7-1-1.6-1-2.8c0-1.2,0.3-2.2,0.9-2.9s1.4-1.1,2.4-1.1
	c0.9,0,1.7,0.3,2.2,0.9c0.5,0.6,0.8,1.4,0.8,2.4v0.7h-5.1c0,0.9,0.2,1.5,0.7,2c0.4,0.5,1,0.7,1.8,0.7c0.8,0,1.6-0.2,2.4-0.5v1
	c-0.4,0.2-0.8,0.3-1.1,0.4C398,57.9,397.6,58,397.1,58z M396.8,51.2c-0.6,0-1.1,0.2-1.4,0.6c-0.4,0.4-0.6,0.9-0.6,1.6h3.9
	c0-0.7-0.2-1.3-0.5-1.6C397.8,51.4,397.4,51.2,396.8,51.2z"/>
<path class="st2" d="M406.9,57.8V53c0-0.6-0.1-1.1-0.4-1.4s-0.7-0.5-1.3-0.5c-0.8,0-1.4,0.2-1.7,0.6c-0.4,0.4-0.5,1.1-0.5,2.1v3.9
	h-1.1v-7.5h0.9l0.2,1h0c0.2-0.4,0.6-0.7,1-0.9c0.4-0.2,0.9-0.3,1.4-0.3c0.9,0,1.6,0.2,2,0.7S408,52,408,53v4.9
	C408,57.8,406.9,57.8,406.9,57.8z"/>
<path class="st2" d="M410.2,57.1c0-0.3,0.1-0.5,0.2-0.7c0.1-0.2,0.3-0.2,0.6-0.2s0.5,0.1,0.6,0.2s0.2,0.4,0.2,0.7s-0.1,0.5-0.2,0.7
	c-0.1,0.2-0.4,0.2-0.6,0.2c-0.2,0-0.4-0.1-0.6-0.2S410.2,57.4,410.2,57.1z"/>
<g class="st3">
	
		<image style="overflow:visible;enable-background:new    ;" width="1529" height="1588" xlink:href="C0D1C66B.png"  transform="matrix(0.2391 0 0 0.2391 172.7733 52.8)">
	</image>
</g>
<path class="st4" d="M502.4,369.7c0,13.8-11.2,25-25,25H233.6c-13.8,0-25-11.2-25-25V112.4c0-13.8,11.2-25,25-25h243.7
	c13.8,0,25,11.2,25,25L502.4,369.7L502.4,369.7z"/>
<rect x="208.6" y="164.2" class="st5" width="293.8" height="76.8"/>
<path class="st5" d="M208.6,369.7c0,13.8,11.2,25,25,25h243.7c13.8,0,25-11.2,25-25v-51.8H208.6V369.7z"/>
<g class="st3">
	
		<image style="overflow:visible;enable-background:new    ;" width="683" height="1692" xlink:href="C0D1C66E.png"  transform="matrix(0.2386 0 0 0.2386 147.12 38.2691)">
	</image>
</g>
<ellipse class="st6" cx="226.9" cy="117.6" rx="45.3" ry="45.3"/>
<path class="st1" d="M254.2,94.7l-59.3,37.7l18.2,28.3c4.4,1.4,9,2.2,13.9,2.2c23.4,0,42.6-17.7,45-40.4L254.2,94.7z"/>
<ellipse transform="matrix(0.1602 -0.9871 0.9871 0.1602 74.5462 322.7386)" class="st4" cx="226.9" cy="117.6" rx="35.3" ry="35.3"/>
<circle class="st7" cx="226.9" cy="198.2" r="45.3"/>
<path class="st2" d="M254.2,175.4L194.9,213l18.2,28.3c4.4,1.4,9,2.2,13.9,2.2c23.4,0,42.6-17.7,45-40.4L254.2,175.4z"/>
<ellipse transform="matrix(0.3162 -0.9487 0.9487 0.3162 -32.8143 350.7931)" class="st4" cx="226.9" cy="198.2" rx="35.3" ry="35.3"/>
<ellipse class="st6" cx="226.9" cy="278.8" rx="45.3" ry="45.3"/>
<path class="st1" d="M254.2,256l-59.3,37.7l18.2,28.3c4.4,1.4,9,2.2,13.9,2.2c23.4,0,42.6-17.7,45-40.4L254.2,256z"/>
<ellipse class="st4" cx="226.9" cy="278.8" rx="35.3" ry="35.3"/>
<ellipse class="st7" cx="226.9" cy="359.4" rx="45.3" ry="45.3"/>
<path class="st2" d="M254.2,336.6l-59.3,37.7l18.2,28.3c4.4,1.4,9,2.2,13.9,2.2c23.4,0,42.6-17.7,45-40.4L254.2,336.6z"/>
<ellipse class="st4" cx="226.9" cy="359.4" rx="35.3" ry="35.3"/>
<g>
	<rect x="285.3" y="95.3" class="st0" width="165.1" height="52.6"/>
	<path class="st2" d="M298.4,108.5h-2.2l-2.1-7.4c-0.1-0.3-0.2-0.8-0.3-1.4c-0.1-0.6-0.2-1-0.3-1.3c-0.1,0.4-0.1,0.8-0.3,1.4
		c-0.1,0.6-0.2,1-0.3,1.3l-2,7.3h-2.2l-1.6-6.2l-1.6-6.2h2.1l1.8,7.2c0.3,1.2,0.5,2.2,0.6,3.1c0.1-0.5,0.2-1,0.3-1.6
		c0.1-0.6,0.2-1.1,0.3-1.4l2-7.2h2l2.1,7.3c0.2,0.7,0.4,1.7,0.6,3c0.1-0.8,0.3-1.8,0.6-3.1l1.8-7.2h2L298.4,108.5z"/>
	<path class="st2" d="M311.4,103.8c0,1.5-0.4,2.7-1.2,3.6s-1.9,1.3-3.3,1.3c-0.9,0-1.6-0.2-2.3-0.6s-1.2-1-1.5-1.7s-0.5-1.6-0.5-2.6
		c0-1.5,0.4-2.7,1.2-3.6c0.8-0.8,1.9-1.3,3.3-1.3c1.4,0,2.4,0.4,3.2,1.3C311,101.1,311.4,102.3,311.4,103.8z M304.6,103.8
		c0,2.2,0.8,3.2,2.4,3.2c1.6,0,2.4-1.1,2.4-3.2c0-2.1-0.8-3.2-2.4-3.2c-0.8,0-1.4,0.3-1.8,0.8C304.8,101.9,304.6,102.8,304.6,103.8z
		"/>
	<path class="st2" d="M321.6,108.5h-2v-5.8c0-0.7-0.1-1.3-0.4-1.6s-0.7-0.5-1.3-0.5c-0.8,0-1.3,0.3-1.7,0.8
		c-0.4,0.5-0.5,1.3-0.5,2.5v4.7h-2v-9.3h1.6l0.3,1.2h0.1c0.3-0.4,0.6-0.8,1.1-1s1-0.4,1.6-0.4c1.4,0,2.4,0.5,2.9,1.5h0.1
		c0.3-0.5,0.7-0.8,1.2-1.1s1.1-0.4,1.7-0.4c1.1,0,1.9,0.3,2.4,0.8c0.5,0.6,0.8,1.4,0.8,2.6v6.1h-2v-5.8c0-0.7-0.1-1.3-0.4-1.6
		s-0.7-0.5-1.3-0.5c-0.8,0-1.3,0.2-1.7,0.7c-0.4,0.5-0.5,1.2-0.5,2.2L321.6,108.5L321.6,108.5z"/>
	<path class="st2" d="M334.4,108.6c-1.5,0-2.6-0.4-3.4-1.3s-1.2-2-1.2-3.5c0-1.5,0.4-2.7,1.1-3.6s1.8-1.3,3.1-1.3
		c1.2,0,2.2,0.4,2.9,1.1s1.1,1.8,1.1,3.1v1.1h-6.2c0,0.9,0.3,1.6,0.7,2.1c0.5,0.5,1.1,0.7,2,0.7c0.5,0,1.1-0.1,1.5-0.2
		c0.5-0.1,1-0.3,1.5-0.5v1.6c-0.5,0.2-1,0.4-1.5,0.5S335,108.6,334.4,108.6z M334,100.4c-0.6,0-1.1,0.2-1.5,0.6
		c-0.4,0.4-0.6,1-0.7,1.8h4.3c0-0.8-0.2-1.4-0.6-1.8S334.6,100.4,334,100.4z"/>
	<path class="st2" d="M348.5,108.5h-2v-5.8c0-0.7-0.1-1.3-0.4-1.6c-0.3-0.4-0.8-0.5-1.4-0.5c-0.8,0-1.5,0.3-1.8,0.7
		c-0.4,0.5-0.6,1.3-0.6,2.5v4.7h-2v-9.3h1.6l0.3,1.2h0.1c0.3-0.4,0.7-0.8,1.2-1c0.5-0.2,1.1-0.4,1.7-0.4c2.2,0,3.4,1.1,3.4,3.4
		L348.5,108.5L348.5,108.5z"/>
	<path class="st2" d="M352.9,96.1l0.1,0.2c-0.3,1.2-0.8,2.5-1.5,4.1h-1.4c0.4-1.6,0.7-3,0.9-4.2C350.9,96.1,352.9,96.1,352.9,96.1z"
		/>
	<path class="st2" d="M360.9,105.8c0,0.9-0.3,1.6-1,2.1s-1.6,0.7-2.9,0.7c-1.3,0-2.3-0.2-3-0.6v-1.7c1.1,0.5,2.1,0.8,3.1,0.8
		c1.2,0,1.8-0.4,1.8-1.1c0-0.2-0.1-0.4-0.2-0.6c-0.1-0.2-0.4-0.3-0.7-0.5c-0.3-0.2-0.7-0.4-1.3-0.6c-1.1-0.4-1.8-0.8-2.2-1.3
		s-0.6-1-0.6-1.6c0-0.8,0.3-1.4,1-1.9s1.5-0.7,2.6-0.7c1.1,0,2.1,0.2,3.1,0.7l-0.6,1.5c-1-0.4-1.9-0.6-2.5-0.6c-1,0-1.6,0.3-1.6,0.9
		c0,0.3,0.1,0.5,0.4,0.7s0.9,0.5,1.8,0.8c0.8,0.3,1.3,0.6,1.7,0.8s0.6,0.5,0.8,0.9C360.8,105,360.9,105.4,360.9,105.8z"/>
	<path class="st8" d="M289.9,125.8h-1.2v-9.2h-3.3v-1.1h7.7v1.1h-3.3L289.9,125.8L289.9,125.8z"/>
	<path class="st8" d="M293.9,122.5v-1.1h3.5v1.1H293.9z"/>
	<path class="st8" d="M305.2,123.1c0,0.9-0.3,1.6-1,2.1s-1.5,0.8-2.7,0.8c-1.2,0-2.2-0.2-2.8-0.5v-1.2c0.4,0.2,0.9,0.3,1.4,0.4
		s1,0.2,1.5,0.2c0.8,0,1.4-0.2,1.8-0.4s0.6-0.7,0.6-1.3c0-0.4-0.1-0.7-0.2-0.9c-0.1-0.2-0.4-0.4-0.7-0.6s-0.9-0.4-1.5-0.7
		c-1-0.3-1.6-0.8-2-1.2s-0.6-1.1-0.6-1.8c0-0.8,0.3-1.4,0.9-1.9s1.4-0.7,2.4-0.7c1,0,2,0.2,2.8,0.6l-0.4,1c-0.9-0.4-1.7-0.5-2.5-0.5
		c-0.6,0-1.1,0.1-1.5,0.4c-0.4,0.3-0.5,0.7-0.5,1.1c0,0.4,0.1,0.7,0.2,0.9c0.1,0.2,0.4,0.4,0.7,0.6c0.3,0.2,0.8,0.4,1.4,0.6
		c1.1,0.4,1.8,0.8,2.2,1.2C305,121.8,305.2,122.3,305.2,123.1z"/>
	<path class="st8" d="M312.4,125.8v-5c0-0.6-0.1-1.1-0.4-1.4s-0.7-0.5-1.4-0.5c-0.8,0-1.4,0.2-1.8,0.7s-0.6,1.2-0.6,2.2v4h-1.2v-11
		h1.2v3.3c0,0.4,0,0.7-0.1,1h0.1c0.2-0.4,0.6-0.7,1-0.9c0.4-0.2,0.9-0.3,1.5-0.3c0.9,0,1.6,0.2,2.1,0.7s0.7,1.2,0.7,2.1v5
		L312.4,125.8L312.4,125.8z"/>
	<path class="st8" d="M315.9,116c0-0.3,0.1-0.5,0.2-0.6c0.1-0.1,0.3-0.2,0.5-0.2s0.4,0.1,0.5,0.2s0.2,0.3,0.2,0.6s-0.1,0.5-0.2,0.6
		s-0.3,0.2-0.5,0.2c-0.2,0-0.4-0.1-0.5-0.2C316,116.4,315.9,116.2,315.9,116z M317.2,125.8H316v-7.7h1.2V125.8z"/>
	<path class="st8" d="M323.2,117.9c0.3,0,0.6,0,0.9,0.1l-0.2,1.1c-0.3-0.1-0.6-0.1-0.9-0.1c-0.6,0-1.2,0.3-1.6,0.8s-0.7,1.1-0.7,1.9
		v4.1h-1.2v-7.7h1l0.1,1.4h0.1c0.3-0.5,0.6-0.9,1-1.2C322.2,118.1,322.7,117.9,323.2,117.9z"/>
	<path class="st8" d="M328,125c0.2,0,0.4,0,0.6-0.1s0.4-0.1,0.5-0.1v0.9c-0.1,0.1-0.3,0.1-0.6,0.2s-0.5,0.1-0.7,0.1
		c-1.5,0-2.2-0.8-2.2-2.4V119h-1.1v-0.6l1.1-0.5l0.5-1.7h0.7v1.8h2.2v0.9h-2.2v4.6c0,0.5,0.1,0.8,0.3,1.1S327.6,125,328,125z"/>
	<path class="st8" d="M335.6,123.7c0,0.7-0.3,1.3-0.8,1.7c-0.5,0.4-1.3,0.6-2.3,0.6c-1,0-1.8-0.2-2.4-0.5v-1.1
		c0.4,0.2,0.8,0.3,1.2,0.4c0.4,0.1,0.8,0.2,1.2,0.2c0.6,0,1.1-0.1,1.4-0.3c0.3-0.2,0.5-0.5,0.5-0.9c0-0.3-0.1-0.6-0.4-0.8
		s-0.8-0.5-1.5-0.8c-0.7-0.3-1.2-0.5-1.5-0.7s-0.5-0.4-0.7-0.7s-0.2-0.6-0.2-0.9c0-0.6,0.3-1.1,0.8-1.5c0.5-0.4,1.2-0.6,2.1-0.6
		c0.8,0,1.6,0.2,2.4,0.5l-0.4,0.9c-0.8-0.3-1.5-0.5-2.1-0.5c-0.5,0-1,0.1-1.3,0.3c-0.3,0.2-0.4,0.4-0.4,0.7c0,0.2,0,0.4,0.2,0.5
		c0.1,0.2,0.3,0.3,0.5,0.4c0.2,0.1,0.7,0.3,1.4,0.6c0.9,0.3,1.5,0.7,1.9,1S335.6,123.2,335.6,123.7z"/>
	<path class="st8" d="M340.8,123.1c0-0.6,0.2-1.2,0.5-1.6s0.9-0.9,1.8-1.4c-0.4-0.4-0.7-0.8-0.8-1c-0.1-0.2-0.3-0.5-0.3-0.7
		s-0.1-0.5-0.1-0.8c0-0.7,0.2-1.3,0.7-1.7c0.5-0.4,1.1-0.6,1.9-0.6c0.8,0,1.4,0.2,1.8,0.6s0.7,0.9,0.7,1.6c0,0.5-0.2,1-0.5,1.4
		c-0.3,0.4-0.9,0.9-1.6,1.3l2.9,2.8c0.3-0.3,0.5-0.6,0.6-1c0.2-0.4,0.3-0.8,0.4-1.3h1.2c-0.3,1.3-0.8,2.4-1.4,3.1l2.1,2.1h-1.6
		l-1.3-1.3c-0.5,0.5-1.1,0.8-1.7,1.1s-1.2,0.3-1.9,0.3c-1,0-1.8-0.3-2.4-0.8C341.1,124.7,340.8,124,340.8,123.1z M344,124.9
		c1.1,0,2.1-0.4,2.8-1.1l-3.1-3c-0.5,0.3-0.9,0.6-1.1,0.8c-0.2,0.2-0.4,0.4-0.5,0.7s-0.1,0.5-0.1,0.8c0,0.6,0.2,1,0.5,1.3
		C343,124.7,343.4,124.9,344,124.9z M342.9,117.5c0,0.3,0.1,0.6,0.3,0.9c0.2,0.3,0.5,0.7,0.9,1.1c0.6-0.3,1-0.7,1.3-1
		c0.2-0.3,0.4-0.6,0.4-1c0-0.4-0.1-0.7-0.4-0.9c-0.2-0.2-0.6-0.3-1-0.3c-0.4,0-0.8,0.1-1,0.3S342.9,117.2,342.9,117.5z"/>
	<path class="st8" d="M362.3,118.5c0,1-0.4,1.8-1.1,2.4s-1.7,0.8-3,0.8h-1.2v4.1h-1.2v-10.3h2.7C361,115.5,362.3,116.5,362.3,118.5z
		 M356.9,120.7h1.1c1.1,0,1.8-0.2,2.3-0.5s0.7-0.9,0.7-1.7c0-0.7-0.2-1.2-0.7-1.5c-0.5-0.3-1.1-0.5-2.1-0.5h-1.3L356.9,120.7
		L356.9,120.7z"/>
	<path class="st8" d="M370.9,121.9c0,1.3-0.3,2.2-1,2.9s-1.5,1.1-2.6,1.1c-0.7,0-1.3-0.2-1.8-0.5c-0.5-0.3-1-0.8-1.2-1.4
		c-0.3-0.6-0.4-1.3-0.4-2.1c0-1.3,0.3-2.2,0.9-2.9s1.5-1.1,2.6-1.1c1.1,0,1.9,0.4,2.6,1.1C370.6,119.7,370.9,120.7,370.9,121.9z
		 M365,121.9c0,1,0.2,1.7,0.6,2.3c0.4,0.5,1,0.8,1.7,0.8s1.4-0.3,1.7-0.8c0.4-0.5,0.6-1.3,0.6-2.3c0-1-0.2-1.7-0.6-2.2
		c-0.4-0.5-1-0.8-1.8-0.8c-0.8,0-1.3,0.3-1.7,0.8C365.2,120.2,365,120.9,365,121.9z"/>
	<path class="st8" d="M374.1,125.8H373v-11h1.2V125.8z"/>
	<path class="st8" d="M383.3,121.9c0,1.3-0.3,2.2-1,2.9s-1.5,1.1-2.6,1.1c-0.7,0-1.3-0.2-1.8-0.5c-0.5-0.3-1-0.8-1.2-1.4
		c-0.3-0.6-0.4-1.3-0.4-2.1c0-1.3,0.3-2.2,0.9-2.9s1.5-1.1,2.6-1.1c1.1,0,1.9,0.4,2.6,1.1C383,119.7,383.3,120.7,383.3,121.9z
		 M377.4,121.9c0,1,0.2,1.7,0.6,2.3c0.4,0.5,1,0.8,1.7,0.8s1.4-0.3,1.7-0.8c0.4-0.5,0.6-1.3,0.6-2.3c0-1-0.2-1.7-0.6-2.2
		c-0.4-0.5-1-0.8-1.8-0.8c-0.8,0-1.3,0.3-1.7,0.8C377.6,120.2,377.4,120.9,377.4,121.9z"/>
	<path class="st8" d="M395.1,123.1c0,0.9-0.3,1.6-1,2.1s-1.5,0.8-2.7,0.8c-1.2,0-2.2-0.2-2.8-0.5v-1.2c0.4,0.2,0.9,0.3,1.4,0.4
		s1,0.2,1.5,0.2c0.8,0,1.4-0.2,1.8-0.4s0.6-0.7,0.6-1.3c0-0.4-0.1-0.7-0.2-0.9c-0.1-0.2-0.4-0.4-0.7-0.6s-0.9-0.4-1.5-0.7
		c-1-0.3-1.6-0.8-2-1.2s-0.6-1.1-0.6-1.8c0-0.8,0.3-1.4,0.9-1.9s1.4-0.7,2.4-0.7c1,0,2,0.2,2.8,0.6l-0.4,1c-0.9-0.4-1.7-0.5-2.5-0.5
		c-0.6,0-1.1,0.1-1.5,0.4c-0.4,0.3-0.5,0.7-0.5,1.1c0,0.4,0.1,0.7,0.2,0.9c0.1,0.2,0.4,0.4,0.7,0.6c0.3,0.2,0.8,0.4,1.4,0.6
		c1.1,0.4,1.8,0.8,2.2,1.2C394.9,121.8,395.1,122.3,395.1,123.1z"/>
	<path class="st8" d="M402.3,125.8v-5c0-0.6-0.1-1.1-0.4-1.4c-0.3-0.3-0.7-0.5-1.4-0.5c-0.8,0-1.4,0.2-1.8,0.7s-0.6,1.2-0.6,2.2v4
		H397v-11h1.2v3.3c0,0.4,0,0.7-0.1,1h0.1c0.2-0.4,0.6-0.7,1-0.9c0.4-0.2,0.9-0.3,1.5-0.3c0.9,0,1.6,0.2,2.1,0.7
		c0.5,0.4,0.7,1.2,0.7,2.1v5L402.3,125.8L402.3,125.8z"/>
	<path class="st8" d="M405.8,116c0-0.3,0.1-0.5,0.2-0.6s0.3-0.2,0.5-0.2s0.4,0.1,0.5,0.2c0.1,0.1,0.2,0.3,0.2,0.6s-0.1,0.5-0.2,0.6
		c-0.1,0.1-0.3,0.2-0.5,0.2c-0.2,0-0.4-0.1-0.5-0.2S405.8,116.2,405.8,116z M407,125.8h-1.2v-7.7h1.2V125.8z"/>
	<path class="st8" d="M413,117.9c0.3,0,0.6,0,0.9,0.1l-0.2,1.1c-0.3-0.1-0.6-0.1-0.9-0.1c-0.6,0-1.2,0.3-1.6,0.8s-0.7,1.1-0.7,1.9
		v4.1h-1.2v-7.7h1l0.1,1.4h0.1c0.3-0.5,0.6-0.9,1-1.2C412.1,118.1,412.5,117.9,413,117.9z"/>
	<path class="st8" d="M417.9,125c0.2,0,0.4,0,0.6-0.1s0.4-0.1,0.5-0.1v0.9c-0.1,0.1-0.3,0.1-0.6,0.2s-0.5,0.1-0.7,0.1
		c-1.5,0-2.2-0.8-2.2-2.4V119h-1.1v-0.6l1.1-0.5l0.5-1.7h0.7v1.8h2.2v0.9h-2.2v4.6c0,0.5,0.1,0.8,0.3,1.1S417.5,125,417.9,125z"/>
	<path class="st8" d="M425.5,123.7c0,0.7-0.3,1.3-0.8,1.7c-0.5,0.4-1.3,0.6-2.3,0.6c-1,0-1.8-0.2-2.4-0.5v-1.1
		c0.4,0.2,0.8,0.3,1.2,0.4c0.4,0.1,0.8,0.2,1.2,0.2c0.6,0,1.1-0.1,1.4-0.3c0.3-0.2,0.5-0.5,0.5-0.9c0-0.3-0.1-0.6-0.4-0.8
		s-0.8-0.5-1.5-0.8c-0.7-0.3-1.2-0.5-1.5-0.7s-0.5-0.4-0.7-0.7s-0.2-0.6-0.2-0.9c0-0.6,0.3-1.1,0.8-1.5c0.5-0.4,1.2-0.6,2.1-0.6
		c0.8,0,1.6,0.2,2.4,0.5l-0.4,0.9c-0.8-0.3-1.5-0.5-2.1-0.5c-0.5,0-1,0.1-1.3,0.3c-0.3,0.2-0.4,0.4-0.4,0.7c0,0.2,0,0.4,0.2,0.5
		c0.1,0.2,0.3,0.3,0.5,0.4c0.2,0.1,0.7,0.3,1.4,0.6c0.9,0.3,1.5,0.7,1.9,1C425.3,122.8,425.5,123.2,425.5,123.7z"/>
	<path class="st8" d="M434.6,119h-2v6.8h-1.2V119h-1.4v-0.5l1.4-0.4v-0.4c0-1.9,0.8-2.8,2.5-2.8c0.4,0,0.9,0.1,1.4,0.3l-0.3,0.9
		c-0.5-0.2-0.8-0.2-1.2-0.2c-0.4,0-0.8,0.2-1,0.4c-0.2,0.3-0.3,0.8-0.3,1.4v0.5h2L434.6,119L434.6,119z"/>
	<path class="st8" d="M442.7,121.9c0,1.3-0.3,2.2-1,2.9s-1.5,1.1-2.6,1.1c-0.7,0-1.3-0.2-1.8-0.5c-0.5-0.3-1-0.8-1.2-1.4
		c-0.3-0.6-0.4-1.3-0.4-2.1c0-1.3,0.3-2.2,0.9-2.9s1.5-1.1,2.6-1.1c1.1,0,1.9,0.4,2.6,1.1C442.4,119.7,442.7,120.7,442.7,121.9z
		 M436.8,121.9c0,1,0.2,1.7,0.6,2.3c0.4,0.5,1,0.8,1.7,0.8s1.4-0.3,1.7-0.8c0.4-0.5,0.6-1.3,0.6-2.3c0-1-0.2-1.7-0.6-2.2
		c-0.4-0.5-1-0.8-1.8-0.8c-0.8,0-1.3,0.3-1.7,0.8C437,120.2,436.8,120.9,436.8,121.9z"/>
	<path class="st8" d="M448.3,117.9c0.3,0,0.6,0,0.9,0.1l-0.2,1.1c-0.3-0.1-0.6-0.1-0.9-0.1c-0.6,0-1.2,0.3-1.6,0.8s-0.7,1.1-0.7,1.9
		v4.1h-1.2v-7.7h1l0.1,1.4h0.1c0.3-0.5,0.6-0.9,1-1.2C447.3,118.1,447.8,117.9,448.3,117.9z"/>
	<path class="st8" d="M295.8,143.1h-1.2l-2.1-6.9c-0.1-0.3-0.2-0.7-0.3-1.2c-0.1-0.5-0.2-0.7-0.2-0.8c-0.1,0.6-0.3,1.3-0.5,2l-2,6.9
		h-1.2l-2.7-10.3h1.3l1.6,6.4c0.2,0.9,0.4,1.7,0.5,2.4c0.1-0.9,0.3-1.7,0.6-2.5l1.9-6.3h1.3l1.9,6.3c0.2,0.7,0.4,1.6,0.6,2.5
		c0.1-0.7,0.3-1.5,0.5-2.4l1.6-6.4h1.3L295.8,143.1z"/>
	<path class="st8" d="M306.6,139.2c0,1.3-0.3,2.2-1,2.9c-0.6,0.7-1.5,1.1-2.6,1.1c-0.7,0-1.3-0.2-1.8-0.5s-1-0.8-1.2-1.4
		c-0.3-0.6-0.4-1.3-0.4-2.1c0-1.3,0.3-2.2,0.9-2.9s1.5-1.1,2.6-1.1c1.1,0,1.9,0.4,2.6,1.1C306.3,137.1,306.6,138,306.6,139.2z
		 M300.7,139.2c0,1,0.2,1.7,0.6,2.3c0.4,0.5,1,0.8,1.7,0.8s1.4-0.3,1.7-0.8s0.6-1.3,0.6-2.3c0-1-0.2-1.7-0.6-2.2s-1-0.8-1.8-0.8
		c-0.8,0-1.3,0.3-1.7,0.8C300.9,137.5,300.7,138.3,300.7,139.2z"/>
	<path class="st8" d="M318.5,143.1v-5c0-0.6-0.1-1.1-0.4-1.4c-0.3-0.3-0.7-0.5-1.2-0.5c-0.7,0-1.3,0.2-1.6,0.6
		c-0.4,0.4-0.5,1.1-0.5,1.9v4.3h-1.2v-5c0-0.6-0.1-1.1-0.4-1.4c-0.3-0.3-0.7-0.5-1.2-0.5c-0.7,0-1.3,0.2-1.6,0.7s-0.5,1.2-0.5,2.2
		v4.1h-1.2v-7.7h1l0.2,1.1h0.1c0.2-0.4,0.5-0.7,0.9-0.9s0.9-0.3,1.4-0.3c1.2,0,2,0.4,2.4,1.3h0.1c0.2-0.4,0.6-0.7,1-1
		c0.4-0.2,0.9-0.4,1.5-0.4c0.9,0,1.5,0.2,2,0.7s0.6,1.2,0.6,2.1v5L318.5,143.1L318.5,143.1L318.5,143.1z"/>
	<path class="st8" d="M325.4,143.3c-1.1,0-2-0.4-2.7-1c-0.7-0.7-1-1.7-1-2.9c0-1.3,0.3-2.2,0.9-3c0.6-0.7,1.4-1.1,2.5-1.1
		c1,0,1.7,0.3,2.3,1s0.9,1.5,0.9,2.5v0.7h-5.3c0,0.9,0.3,1.6,0.7,2.1c0.4,0.5,1,0.7,1.8,0.7c0.8,0,1.6-0.2,2.5-0.5v1
		c-0.4,0.2-0.8,0.3-1.2,0.4C326.3,143.2,325.9,143.3,325.4,143.3z M325,136.2c-0.6,0-1.1,0.2-1.5,0.6c-0.4,0.4-0.6,1-0.6,1.7h4
		c0-0.7-0.2-1.3-0.5-1.7C326.1,136.4,325.6,136.2,325,136.2z"/>
	<path class="st8" d="M335.5,143.1v-5c0-0.6-0.1-1.1-0.4-1.4s-0.7-0.5-1.4-0.5c-0.8,0-1.4,0.2-1.8,0.7s-0.6,1.2-0.6,2.2v4.1h-1.2
		v-7.7h1l0.2,1.1h0.1c0.2-0.4,0.6-0.7,1-0.9c0.4-0.2,0.9-0.3,1.4-0.3c0.9,0,1.6,0.2,2.1,0.7s0.7,1.2,0.7,2.1v5L335.5,143.1
		L335.5,143.1z"/>
</g>
<g>
	<rect x="285.3" y="181.5" class="st0" width="188.7" height="52"/>
	<path class="st2" d="M296.4,194.6h-2.3l-3.9-5.6l-1.2,1v4.6h-2v-12.4h2v5.9c0.5-0.7,1.1-1.3,1.6-1.9l3.3-3.9h2.3
		c-2.2,2.5-3.7,4.3-4.6,5.4L296.4,194.6z"/>
	<path class="st2" d="M297.7,182.8c0-0.4,0.1-0.6,0.3-0.8s0.5-0.3,0.8-0.3c0.4,0,0.6,0.1,0.8,0.3c0.2,0.2,0.3,0.5,0.3,0.8
		c0,0.3-0.1,0.6-0.3,0.8c-0.2,0.2-0.5,0.3-0.8,0.3c-0.4,0-0.6-0.1-0.8-0.3C297.8,183.4,297.7,183.1,297.7,182.8z M299.8,194.6h-2
		v-9.4h2V194.6z"/>
	<path class="st2" d="M305.8,194.8c-1.2,0-2.1-0.4-2.7-1.3c-0.6-0.9-1-2-1-3.6s0.3-2.7,1-3.6s1.6-1.3,2.8-1.3c1.2,0,2.2,0.4,2.8,1.4
		h0.1c-0.1-0.7-0.1-1.2-0.1-1.6v-3.4h2v13.2h-1.6l-0.4-1.2h-0.1C308,194.3,307,194.8,305.8,194.8z M306.4,193.2
		c0.8,0,1.4-0.2,1.8-0.7s0.6-1.2,0.6-2.2V190c0-1.2-0.2-2-0.6-2.5s-1-0.7-1.8-0.7c-0.7,0-1.2,0.3-1.6,0.9s-0.6,1.4-0.6,2.4
		c0,1,0.2,1.8,0.5,2.4C305.1,192.9,305.6,193.2,306.4,193.2z"/>
	<path class="st2" d="M319.7,192c0,0.9-0.3,1.6-1,2.1s-1.6,0.7-2.9,0.7c-1.3,0-2.3-0.2-3-0.6v-1.7c1.1,0.5,2.1,0.8,3.1,0.8
		c1.2,0,1.8-0.4,1.8-1.1c0-0.2-0.1-0.4-0.2-0.6c-0.1-0.2-0.4-0.3-0.7-0.5c-0.3-0.2-0.7-0.4-1.3-0.6c-1.1-0.4-1.8-0.8-2.2-1.3
		s-0.6-1-0.6-1.6c0-0.8,0.3-1.4,1-1.9s1.5-0.7,2.6-0.7c1.1,0,2.1,0.2,3.1,0.7l-0.6,1.5c-1-0.4-1.9-0.6-2.5-0.6c-1,0-1.6,0.3-1.6,0.9
		c0,0.3,0.1,0.5,0.4,0.7c0.3,0.2,0.9,0.5,1.8,0.8c0.8,0.3,1.3,0.6,1.7,0.8s0.6,0.5,0.8,0.9C319.6,191.1,319.7,191.5,319.7,192z"/>
	<path class="st7" d="M289.9,211.9h-1.2v-9.2h-3.3v-1.1h7.7v1.1h-3.3L289.9,211.9L289.9,211.9z"/>
	<path class="st7" d="M293.9,208.6v-1.1h3.5v1.1H293.9z"/>
	<path class="st7" d="M305.2,209.2c0,0.9-0.3,1.6-1,2.1s-1.5,0.8-2.7,0.8c-1.2,0-2.2-0.2-2.8-0.5v-1.2c0.4,0.2,0.9,0.3,1.4,0.4
		c0.5,0.1,1,0.1,1.5,0.1c0.8,0,1.4-0.1,1.8-0.4s0.6-0.7,0.6-1.3c0-0.4-0.1-0.6-0.2-0.9c-0.1-0.2-0.4-0.4-0.7-0.6s-0.9-0.4-1.5-0.7
		c-1-0.3-1.6-0.8-2-1.2s-0.6-1.1-0.6-1.8c0-0.8,0.3-1.4,0.9-1.9s1.4-0.7,2.4-0.7c1,0,2,0.2,2.8,0.6l-0.4,1c-0.9-0.4-1.7-0.5-2.5-0.5
		c-0.6,0-1.1,0.1-1.5,0.4s-0.5,0.6-0.5,1.1c0,0.4,0.1,0.6,0.2,0.9c0.1,0.2,0.4,0.4,0.7,0.6c0.3,0.2,0.8,0.4,1.4,0.6
		c1.1,0.4,1.8,0.8,2.2,1.2C305,207.9,305.2,208.5,305.2,209.2z"/>
	<path class="st7" d="M312.4,211.9v-5c0-0.6-0.1-1.1-0.4-1.4s-0.7-0.5-1.4-0.5c-0.8,0-1.4,0.2-1.8,0.7s-0.6,1.2-0.6,2.2v4h-1.2v-11
		h1.2v3.3c0,0.4,0,0.7-0.1,1h0.1c0.2-0.4,0.6-0.7,1-0.9c0.4-0.2,0.9-0.3,1.5-0.3c0.9,0,1.6,0.2,2.1,0.7s0.7,1.2,0.7,2.1v5
		L312.4,211.9L312.4,211.9z"/>
	<path class="st7" d="M315.9,202.1c0-0.3,0.1-0.5,0.2-0.6c0.1-0.1,0.3-0.2,0.5-0.2s0.4,0.1,0.5,0.2s0.2,0.3,0.2,0.6
		s-0.1,0.5-0.2,0.6s-0.3,0.2-0.5,0.2c-0.2,0-0.4-0.1-0.5-0.2C316,202.6,315.9,202.4,315.9,202.1z M317.2,211.9H316v-7.7h1.2V211.9z"
		/>
	<path class="st7" d="M323.2,204.1c0.3,0,0.6,0,0.9,0.1l-0.2,1.1c-0.3-0.1-0.6-0.1-0.9-0.1c-0.6,0-1.2,0.3-1.6,0.8s-0.7,1.1-0.7,1.9
		v4.1h-1.2v-7.7h1l0.1,1.4h0.1c0.3-0.5,0.6-0.9,1-1.2C322.2,204.2,322.7,204.1,323.2,204.1z"/>
	<path class="st7" d="M328,211.1c0.2,0,0.4,0,0.6-0.1s0.4-0.1,0.5-0.1v0.9c-0.1,0.1-0.3,0.1-0.6,0.1s-0.5,0.1-0.7,0.1
		c-1.5,0-2.2-0.8-2.2-2.4v-4.6h-1.1v-0.6l1.1-0.5l0.5-1.6h0.7v1.8h2.2v0.9h-2.2v4.5c0,0.5,0.1,0.8,0.3,1.1S327.6,211.1,328,211.1z"
		/>
	<path class="st7" d="M335.6,209.8c0,0.7-0.3,1.3-0.8,1.7c-0.5,0.4-1.3,0.6-2.3,0.6c-1,0-1.8-0.2-2.4-0.5v-1.1
		c0.4,0.2,0.8,0.3,1.2,0.4s0.8,0.2,1.2,0.2c0.6,0,1.1-0.1,1.4-0.3c0.3-0.2,0.5-0.5,0.5-0.9c0-0.3-0.1-0.6-0.4-0.8s-0.8-0.5-1.5-0.8
		c-0.7-0.3-1.2-0.5-1.5-0.7s-0.5-0.4-0.7-0.7s-0.2-0.6-0.2-0.9c0-0.6,0.3-1.1,0.8-1.5c0.5-0.4,1.2-0.6,2.1-0.6
		c0.8,0,1.6,0.2,2.4,0.5l-0.4,0.9c-0.8-0.3-1.5-0.5-2.1-0.5c-0.5,0-1,0.1-1.3,0.3s-0.4,0.4-0.4,0.7c0,0.2,0,0.4,0.2,0.5
		c0.1,0.1,0.3,0.3,0.5,0.4c0.2,0.1,0.7,0.3,1.4,0.6c0.9,0.3,1.5,0.7,1.9,1C335.5,208.9,335.6,209.3,335.6,209.8z"/>
	<path class="st7" d="M340.8,209.3c0-0.6,0.2-1.1,0.5-1.6s0.9-0.9,1.8-1.4c-0.4-0.4-0.7-0.8-0.8-1c-0.1-0.2-0.3-0.5-0.3-0.7
		s-0.1-0.5-0.1-0.8c0-0.7,0.2-1.3,0.7-1.6c0.5-0.4,1.1-0.6,1.9-0.6c0.8,0,1.4,0.2,1.8,0.6s0.7,0.9,0.7,1.6c0,0.5-0.2,1-0.5,1.4
		c-0.3,0.4-0.9,0.9-1.6,1.3l2.9,2.8c0.3-0.3,0.5-0.6,0.6-1c0.2-0.4,0.3-0.8,0.4-1.3h1.2c-0.3,1.3-0.8,2.4-1.4,3.1l2.1,2.1h-1.6
		l-1.3-1.3c-0.5,0.5-1.1,0.9-1.7,1.1s-1.2,0.3-1.9,0.3c-1,0-1.8-0.3-2.4-0.8C341.1,210.9,340.8,210.2,340.8,209.3z M344,211
		c1.1,0,2.1-0.4,2.8-1.1l-3.1-3c-0.5,0.3-0.9,0.6-1.1,0.8c-0.2,0.2-0.4,0.4-0.5,0.7s-0.1,0.5-0.1,0.8c0,0.6,0.2,1,0.5,1.3
		S343.4,211,344,211z M342.9,203.7c0,0.3,0.1,0.6,0.3,0.9c0.2,0.3,0.5,0.6,0.9,1.1c0.6-0.4,1-0.7,1.3-1c0.2-0.3,0.4-0.6,0.4-1
		c0-0.4-0.1-0.7-0.4-0.9c-0.2-0.2-0.6-0.3-1-0.3c-0.4,0-0.8,0.1-1,0.3S342.9,203.3,342.9,203.7z"/>
	<path class="st7" d="M362.3,204.6c0,1-0.4,1.9-1.1,2.4c-0.7,0.6-1.7,0.8-3,0.8h-1.2v4.1h-1.2v-10.3h2.7
		C361,201.6,362.3,202.6,362.3,204.6z M356.9,206.9h1.1c1.1,0,1.8-0.2,2.3-0.5s0.7-0.9,0.7-1.6c0-0.7-0.2-1.2-0.7-1.5
		s-1.1-0.5-2.1-0.5h-1.3L356.9,206.9L356.9,206.9z"/>
	<path class="st7" d="M370.9,208.1c0,1.3-0.3,2.2-1,2.9c-0.6,0.7-1.5,1.1-2.6,1.1c-0.7,0-1.3-0.2-1.8-0.5c-0.5-0.3-1-0.8-1.2-1.4
		c-0.3-0.6-0.4-1.3-0.4-2.1c0-1.3,0.3-2.2,0.9-2.9s1.5-1.1,2.6-1.1c1.1,0,1.9,0.4,2.6,1.1C370.6,205.9,370.9,206.9,370.9,208.1z
		 M365,208.1c0,1,0.2,1.7,0.6,2.3c0.4,0.5,1,0.8,1.7,0.8s1.4-0.3,1.7-0.8c0.4-0.5,0.6-1.3,0.6-2.3c0-1-0.2-1.7-0.6-2.2
		c-0.4-0.5-1-0.8-1.8-0.8c-0.8,0-1.3,0.3-1.7,0.8C365.2,206.3,365,207.1,365,208.1z"/>
	<path class="st7" d="M374.1,211.9H373v-11h1.2V211.9z"/>
	<path class="st7" d="M383.3,208.1c0,1.3-0.3,2.2-1,2.9c-0.6,0.7-1.5,1.1-2.6,1.1c-0.7,0-1.3-0.2-1.8-0.5c-0.5-0.3-1-0.8-1.2-1.4
		c-0.3-0.6-0.4-1.3-0.4-2.1c0-1.3,0.3-2.2,0.9-2.9s1.5-1.1,2.6-1.1c1.1,0,1.9,0.4,2.6,1.1C383,205.9,383.3,206.9,383.3,208.1z
		 M377.4,208.1c0,1,0.2,1.7,0.6,2.3c0.4,0.5,1,0.8,1.7,0.8s1.4-0.3,1.7-0.8c0.4-0.5,0.6-1.3,0.6-2.3c0-1-0.2-1.7-0.6-2.2
		c-0.4-0.5-1-0.8-1.8-0.8c-0.8,0-1.3,0.3-1.7,0.8C377.6,206.3,377.4,207.1,377.4,208.1z"/>
	<path class="st7" d="M395.1,209.2c0,0.9-0.3,1.6-1,2.1s-1.5,0.8-2.7,0.8c-1.2,0-2.2-0.2-2.8-0.5v-1.2c0.4,0.2,0.9,0.3,1.4,0.4
		c0.5,0.1,1,0.1,1.5,0.1c0.8,0,1.4-0.1,1.8-0.4s0.6-0.7,0.6-1.3c0-0.4-0.1-0.6-0.2-0.9s-0.4-0.4-0.7-0.6s-0.9-0.4-1.5-0.7
		c-1-0.3-1.6-0.8-2-1.2s-0.6-1.1-0.6-1.8c0-0.8,0.3-1.4,0.9-1.9s1.4-0.7,2.4-0.7c1,0,2,0.2,2.8,0.6l-0.4,1c-0.9-0.4-1.7-0.5-2.5-0.5
		c-0.6,0-1.1,0.1-1.5,0.4s-0.5,0.6-0.5,1.1c0,0.4,0.1,0.6,0.2,0.9c0.1,0.2,0.4,0.4,0.7,0.6c0.3,0.2,0.8,0.4,1.4,0.6
		c1.1,0.4,1.8,0.8,2.2,1.2S395.1,208.5,395.1,209.2z"/>
	<path class="st7" d="M402.3,211.9v-5c0-0.6-0.1-1.1-0.4-1.4c-0.3-0.3-0.7-0.5-1.4-0.5c-0.8,0-1.4,0.2-1.8,0.7s-0.6,1.2-0.6,2.2v4
		H397v-11h1.2v3.3c0,0.4,0,0.7-0.1,1h0.1c0.2-0.4,0.6-0.7,1-0.9c0.4-0.2,0.9-0.3,1.5-0.3c0.9,0,1.6,0.2,2.1,0.7
		c0.5,0.4,0.7,1.2,0.7,2.1v5L402.3,211.9L402.3,211.9z"/>
	<path class="st7" d="M405.8,202.1c0-0.3,0.1-0.5,0.2-0.6s0.3-0.2,0.5-0.2s0.4,0.1,0.5,0.2c0.1,0.1,0.2,0.3,0.2,0.6
		s-0.1,0.5-0.2,0.6c-0.1,0.1-0.3,0.2-0.5,0.2c-0.2,0-0.4-0.1-0.5-0.2S405.8,202.4,405.8,202.1z M407,211.9h-1.2v-7.7h1.2V211.9z"/>
	<path class="st7" d="M413,204.1c0.3,0,0.6,0,0.9,0.1l-0.2,1.1c-0.3-0.1-0.6-0.1-0.9-0.1c-0.6,0-1.2,0.3-1.6,0.8s-0.7,1.1-0.7,1.9
		v4.1h-1.2v-7.7h1l0.1,1.4h0.1c0.3-0.5,0.6-0.9,1-1.2C412.1,204.2,412.5,204.1,413,204.1z"/>
	<path class="st7" d="M417.9,211.1c0.2,0,0.4,0,0.6-0.1s0.4-0.1,0.5-0.1v0.9c-0.1,0.1-0.3,0.1-0.6,0.1s-0.5,0.1-0.7,0.1
		c-1.5,0-2.2-0.8-2.2-2.4v-4.6h-1.1v-0.6l1.1-0.5l0.5-1.6h0.7v1.8h2.2v0.9h-2.2v4.5c0,0.5,0.1,0.8,0.3,1.1S417.5,211.1,417.9,211.1z
		"/>
	<path class="st7" d="M425.5,209.8c0,0.7-0.3,1.3-0.8,1.7c-0.5,0.4-1.3,0.6-2.3,0.6c-1,0-1.8-0.2-2.4-0.5v-1.1
		c0.4,0.2,0.8,0.3,1.2,0.4c0.4,0.1,0.8,0.2,1.2,0.2c0.6,0,1.1-0.1,1.4-0.3c0.3-0.2,0.5-0.5,0.5-0.9c0-0.3-0.1-0.6-0.4-0.8
		s-0.8-0.5-1.5-0.8c-0.7-0.3-1.2-0.5-1.5-0.7s-0.5-0.4-0.7-0.7s-0.2-0.6-0.2-0.9c0-0.6,0.3-1.1,0.8-1.5c0.5-0.4,1.2-0.6,2.1-0.6
		c0.8,0,1.6,0.2,2.4,0.5l-0.4,0.9c-0.8-0.3-1.5-0.5-2.1-0.5c-0.5,0-1,0.1-1.3,0.3s-0.4,0.4-0.4,0.7c0,0.2,0,0.4,0.2,0.5
		c0.1,0.1,0.3,0.3,0.5,0.4c0.2,0.1,0.7,0.3,1.4,0.6c0.9,0.3,1.5,0.7,1.9,1C425.3,208.9,425.5,209.3,425.5,209.8z"/>
	<path class="st7" d="M434.6,205.1h-2v6.8h-1.2v-6.8h-1.4v-0.5l1.4-0.4v-0.4c0-1.9,0.8-2.9,2.5-2.9c0.4,0,0.9,0.1,1.4,0.3l-0.3,0.9
		c-0.5-0.1-0.8-0.2-1.2-0.2c-0.4,0-0.8,0.1-1,0.4c-0.2,0.3-0.3,0.8-0.3,1.4v0.5h2L434.6,205.1L434.6,205.1z"/>
	<path class="st7" d="M442.7,208.1c0,1.3-0.3,2.2-1,2.9c-0.6,0.7-1.5,1.1-2.6,1.1c-0.7,0-1.3-0.2-1.8-0.5c-0.5-0.3-1-0.8-1.2-1.4
		c-0.3-0.6-0.4-1.3-0.4-2.1c0-1.3,0.3-2.2,0.9-2.9s1.5-1.1,2.6-1.1c1.1,0,1.9,0.4,2.6,1.1C442.4,205.9,442.7,206.9,442.7,208.1z
		 M436.8,208.1c0,1,0.2,1.7,0.6,2.3c0.4,0.5,1,0.8,1.7,0.8s1.4-0.3,1.7-0.8c0.4-0.5,0.6-1.3,0.6-2.3c0-1-0.2-1.7-0.6-2.2
		c-0.4-0.5-1-0.8-1.8-0.8c-0.8,0-1.3,0.3-1.7,0.8C437,206.3,436.8,207.1,436.8,208.1z"/>
	<path class="st7" d="M448.3,204.1c0.3,0,0.6,0,0.9,0.1l-0.2,1.1c-0.3-0.1-0.6-0.1-0.9-0.1c-0.6,0-1.2,0.3-1.6,0.8s-0.7,1.1-0.7,1.9
		v4.1h-1.2v-7.7h1l0.1,1.4h0.1c0.3-0.5,0.6-0.9,1-1.2C447.3,204.2,447.8,204.1,448.3,204.1z"/>
	<path class="st7" d="M294.2,229.3h-1.4l-3.8-5l-1.1,1v4h-1.2V219h1.2v5.1l4.7-5.1h1.4l-4.1,4.5L294.2,229.3z"/>
	<path class="st7" d="M295.3,219.4c0-0.3,0.1-0.5,0.2-0.6c0.1-0.1,0.3-0.2,0.5-0.2s0.4,0.1,0.5,0.2s0.2,0.3,0.2,0.6
		s-0.1,0.5-0.2,0.6c-0.1,0.1-0.3,0.2-0.5,0.2c-0.2,0-0.4-0.1-0.5-0.2C295.4,219.9,295.3,219.7,295.3,219.4z M296.6,229.3h-1.2v-7.7
		h1.2V229.3z"/>
	<path class="st7" d="M304.4,228.2L304.4,228.2c-0.6,0.8-1.4,1.2-2.5,1.2c-1,0-1.8-0.3-2.4-1c-0.6-0.7-0.8-1.7-0.8-2.9
		s0.3-2.3,0.9-3c0.6-0.7,1.4-1.1,2.4-1.1c1,0,1.9,0.4,2.4,1.1h0.1l0-0.6l0-0.5v-3.1h1.2v11h-1L304.4,228.2z M302,228.4
		c0.8,0,1.4-0.2,1.7-0.6s0.5-1.1,0.5-2.1v-0.3c0-1.1-0.2-1.9-0.5-2.3c-0.4-0.5-1-0.7-1.7-0.7c-0.7,0-1.2,0.3-1.6,0.8
		s-0.5,1.3-0.5,2.3c0,1,0.2,1.7,0.5,2.2S301.3,228.4,302,228.4z"/>
	<path class="st7" d="M312.9,227.2c0,0.7-0.3,1.3-0.8,1.7c-0.5,0.4-1.3,0.6-2.3,0.6c-1,0-1.8-0.2-2.4-0.5v-1.1
		c0.4,0.2,0.8,0.3,1.2,0.4c0.4,0.1,0.8,0.2,1.2,0.2c0.6,0,1.1-0.1,1.4-0.3c0.3-0.2,0.5-0.5,0.5-0.9c0-0.3-0.1-0.6-0.4-0.8
		s-0.8-0.5-1.5-0.8c-0.7-0.3-1.2-0.5-1.5-0.7s-0.5-0.4-0.7-0.7s-0.2-0.6-0.2-0.9c0-0.6,0.3-1.1,0.8-1.5s1.2-0.6,2.1-0.6
		c0.8,0,1.6,0.2,2.4,0.5l-0.4,0.9c-0.8-0.3-1.5-0.5-2.1-0.5c-0.5,0-1,0.1-1.3,0.3s-0.4,0.4-0.4,0.7c0,0.2,0,0.4,0.2,0.5
		c0.1,0.1,0.3,0.3,0.5,0.4c0.2,0.1,0.7,0.3,1.4,0.6c0.9,0.3,1.5,0.7,1.9,1C312.8,226.2,312.9,226.6,312.9,227.2z"/>
</g>
<g>
	<rect x="285.3" y="257.6" class="st0" width="165.1" height="50.4"/>
	<path class="st2" d="M292.3,270.8l-3.6-10.3h-0.1c0.1,1.5,0.1,3,0.1,4.3v6H287v-12.4h2.9l3.4,9.8h0l3.5-9.8h2.9v12.4h-2v-6.1
		c0-0.6,0-1.4,0-2.4c0-1,0.1-1.6,0.1-1.8h-0.1l-3.7,10.3L292.3,270.8L292.3,270.8z"/>
	<path class="st2" d="M306.8,271c-1.5,0-2.6-0.4-3.4-1.3s-1.2-2-1.2-3.5c0-1.5,0.4-2.7,1.1-3.6s1.8-1.3,3.1-1.3
		c1.2,0,2.2,0.4,2.9,1.1c0.7,0.8,1.1,1.8,1.1,3.1v1.1h-6.2c0,0.9,0.3,1.6,0.7,2.1c0.5,0.5,1.1,0.7,2,0.7c0.5,0,1.1,0,1.5-0.2
		s1-0.3,1.5-0.5v1.6c-0.5,0.2-1,0.4-1.5,0.5S307.5,271,306.8,271z M306.5,262.8c-0.6,0-1.1,0.2-1.5,0.6c-0.4,0.4-0.6,1-0.7,1.8h4.3
		c0-0.8-0.2-1.4-0.6-1.8S307.1,262.8,306.5,262.8z"/>
	<path class="st2" d="M321,270.8h-2V265c0-0.7-0.1-1.3-0.4-1.6s-0.8-0.5-1.4-0.5c-0.8,0-1.5,0.3-1.8,0.7c-0.4,0.5-0.6,1.3-0.6,2.5
		v4.7h-2v-9.4h1.6l0.3,1.2h0.1c0.3-0.5,0.7-0.8,1.2-1c0.5-0.2,1.1-0.4,1.7-0.4c2.2,0,3.4,1.1,3.4,3.4L321,270.8L321,270.8L321,270.8
		z"/>
	<path class="st2" d="M325.3,258.4l0.1,0.2c-0.3,1.2-0.8,2.5-1.5,4h-1.4c0.4-1.6,0.7-3,0.9-4.2H325.3z"/>
	<path class="st2" d="M333.4,268.1c0,0.9-0.3,1.6-1,2.1c-0.7,0.5-1.6,0.7-2.9,0.7c-1.3,0-2.3-0.2-3-0.6v-1.7
		c1.1,0.5,2.1,0.8,3.1,0.8c1.2,0,1.8-0.4,1.8-1.1c0-0.2-0.1-0.4-0.2-0.6c-0.1-0.2-0.4-0.3-0.7-0.5c-0.3-0.2-0.7-0.4-1.3-0.6
		c-1.1-0.4-1.8-0.8-2.2-1.3s-0.6-1-0.6-1.6c0-0.8,0.3-1.4,1-1.9c0.6-0.4,1.5-0.7,2.6-0.7c1.1,0,2.1,0.2,3.1,0.7l-0.6,1.5
		c-1-0.4-1.9-0.6-2.5-0.6c-1,0-1.6,0.3-1.6,0.9c0,0.3,0.1,0.5,0.4,0.7s0.9,0.5,1.8,0.8c0.8,0.3,1.3,0.6,1.7,0.8s0.6,0.5,0.8,0.9
		C333.3,267.3,333.4,267.7,333.4,268.1z"/>
	<path class="st8" d="M289.9,288.1h-1.2v-9.2h-3.3v-1.1h7.7v1.1h-3.3L289.9,288.1L289.9,288.1z"/>
	<path class="st8" d="M293.9,284.8v-1.1h3.5v1.1H293.9z"/>
	<path class="st8" d="M305.2,285.4c0,0.9-0.3,1.6-1,2.1s-1.5,0.8-2.7,0.8c-1.2,0-2.2-0.2-2.8-0.5v-1.2c0.4,0.2,0.9,0.3,1.4,0.4
		s1,0.2,1.5,0.2c0.8,0,1.4-0.1,1.8-0.5c0.4-0.3,0.6-0.7,0.6-1.3c0-0.4-0.1-0.6-0.2-0.9c-0.1-0.2-0.4-0.4-0.7-0.6s-0.9-0.4-1.5-0.7
		c-1-0.3-1.6-0.8-2-1.2s-0.6-1.1-0.6-1.8c0-0.8,0.3-1.4,0.9-1.9s1.4-0.7,2.4-0.7c1,0,2,0.2,2.8,0.6l-0.4,1c-0.9-0.4-1.7-0.5-2.5-0.5
		c-0.6,0-1.1,0.1-1.5,0.4s-0.5,0.6-0.5,1.1c0,0.4,0.1,0.6,0.2,0.9s0.4,0.4,0.7,0.6c0.3,0.2,0.8,0.4,1.4,0.6c1.1,0.4,1.8,0.8,2.2,1.2
		C305,284.1,305.2,284.7,305.2,285.4z"/>
	<path class="st8" d="M312.4,288.1v-5c0-0.6-0.1-1.1-0.4-1.4c-0.3-0.3-0.7-0.5-1.4-0.5c-0.8,0-1.4,0.2-1.8,0.7s-0.6,1.2-0.6,2.2v4
		h-1.2v-11h1.2v3.3c0,0.4,0,0.7-0.1,1h0.1c0.2-0.4,0.6-0.7,1-0.9c0.4-0.2,0.9-0.3,1.5-0.3c0.9,0,1.6,0.2,2.1,0.7
		c0.5,0.5,0.7,1.2,0.7,2.1v5L312.4,288.1L312.4,288.1z"/>
	<path class="st8" d="M315.9,278.3c0-0.3,0.1-0.5,0.2-0.6c0.1-0.1,0.3-0.2,0.5-0.2s0.4,0.1,0.5,0.2s0.2,0.3,0.2,0.6
		s-0.1,0.5-0.2,0.6c-0.1,0.1-0.3,0.2-0.5,0.2c-0.2,0-0.4-0.1-0.5-0.2C316,278.8,315.9,278.6,315.9,278.3z M317.2,288.1H316v-7.7h1.2
		V288.1z"/>
	<path class="st8" d="M323.2,280.3c0.3,0,0.6,0,0.9,0.1l-0.2,1.1c-0.3-0.1-0.6-0.1-0.9-0.1c-0.6,0-1.2,0.3-1.6,0.8s-0.7,1.1-0.7,1.9
		v4.1h-1.2v-7.7h1l0.1,1.4h0.1c0.3-0.5,0.6-0.9,1-1.2C322.2,280.4,322.7,280.3,323.2,280.3z"/>
	<path class="st8" d="M328,287.3c0.2,0,0.4,0,0.6,0s0.4-0.1,0.5-0.1v0.9c-0.1,0.1-0.3,0.1-0.6,0.1s-0.5,0.1-0.7,0.1
		c-1.5,0-2.2-0.8-2.2-2.4v-4.6h-1.1v-0.6l1.1-0.5l0.5-1.6h0.7v1.8h2.2v0.9h-2.2v4.5c0,0.5,0.1,0.8,0.3,1.1S327.6,287.3,328,287.3z"
		/>
	<path class="st8" d="M335.6,286c0,0.7-0.3,1.3-0.8,1.7c-0.5,0.4-1.3,0.6-2.3,0.6c-1,0-1.8-0.2-2.4-0.5v-1.1
		c0.4,0.2,0.8,0.3,1.2,0.4c0.4,0.1,0.8,0.2,1.2,0.2c0.6,0,1.1-0.1,1.4-0.3c0.3-0.2,0.5-0.5,0.5-0.9c0-0.3-0.1-0.6-0.4-0.8
		s-0.8-0.5-1.5-0.8c-0.7-0.3-1.2-0.5-1.5-0.7s-0.5-0.4-0.7-0.7s-0.2-0.6-0.2-0.9c0-0.6,0.3-1.1,0.8-1.5s1.2-0.5,2.1-0.5
		c0.8,0,1.6,0.2,2.4,0.5l-0.4,1c-0.8-0.3-1.5-0.5-2.1-0.5c-0.5,0-1,0.1-1.3,0.3s-0.4,0.4-0.4,0.7c0,0.2,0,0.4,0.2,0.5
		c0.1,0.1,0.3,0.3,0.5,0.4c0.2,0.1,0.7,0.3,1.4,0.6c0.9,0.3,1.5,0.7,1.9,1C335.5,285.1,335.6,285.5,335.6,286z"/>
	<path class="st8" d="M340.8,285.4c0-0.6,0.2-1.1,0.5-1.6s0.9-0.9,1.8-1.4c-0.4-0.5-0.7-0.8-0.8-1c-0.1-0.2-0.3-0.5-0.3-0.7
		s-0.1-0.5-0.1-0.8c0-0.7,0.2-1.3,0.7-1.6s1.1-0.6,1.9-0.6c0.8,0,1.4,0.2,1.8,0.6c0.4,0.4,0.7,0.9,0.7,1.6c0,0.5-0.2,1-0.5,1.4
		s-0.9,0.9-1.6,1.3l2.9,2.8c0.3-0.3,0.5-0.6,0.6-1c0.2-0.4,0.3-0.8,0.4-1.3h1.2c-0.3,1.3-0.8,2.4-1.4,3.1l2.1,2h-1.6l-1.3-1.3
		c-0.5,0.5-1.1,0.9-1.7,1.1c-0.6,0.2-1.2,0.3-1.9,0.3c-1,0-1.8-0.3-2.4-0.8C341.1,287,340.8,286.3,340.8,285.4z M344,287.2
		c1.1,0,2.1-0.4,2.8-1.1l-3.1-3c-0.5,0.3-0.9,0.6-1.1,0.8c-0.2,0.2-0.4,0.4-0.5,0.7c-0.1,0.2-0.1,0.5-0.1,0.8c0,0.5,0.2,1,0.5,1.3
		C343,287,343.4,287.2,344,287.2z M342.9,279.9c0,0.3,0.1,0.6,0.3,0.9s0.5,0.6,0.9,1.1c0.6-0.4,1-0.7,1.3-1c0.2-0.3,0.4-0.6,0.4-1
		c0-0.4-0.1-0.7-0.4-0.9c-0.2-0.2-0.6-0.3-1-0.3c-0.4,0-0.8,0.1-1,0.3S342.9,279.5,342.9,279.9z"/>
	<path class="st8" d="M362.3,280.8c0,1-0.4,1.9-1.1,2.4s-1.7,0.8-3,0.8h-1.2v4h-1.2v-10.3h2.7C361,277.8,362.3,278.8,362.3,280.8z
		 M356.9,283h1.1c1.1,0,1.8-0.2,2.3-0.5s0.7-0.9,0.7-1.6c0-0.7-0.2-1.2-0.7-1.5s-1.1-0.5-2.1-0.5h-1.3L356.9,283L356.9,283z"/>
	<path class="st8" d="M370.9,284.3c0,1.3-0.3,2.2-1,3c-0.6,0.7-1.5,1.1-2.6,1.1c-0.7,0-1.3-0.2-1.8-0.5c-0.5-0.3-1-0.8-1.2-1.4
		c-0.3-0.6-0.4-1.3-0.4-2.1c0-1.3,0.3-2.2,0.9-2.9s1.5-1,2.6-1c1.1,0,1.9,0.4,2.6,1.1S370.9,283,370.9,284.3z M365,284.3
		c0,1,0.2,1.7,0.6,2.3c0.4,0.5,1,0.8,1.7,0.8s1.4-0.3,1.7-0.8c0.4-0.5,0.6-1.3,0.6-2.3c0-1-0.2-1.7-0.6-2.2c-0.4-0.5-1-0.8-1.8-0.8
		c-0.8,0-1.3,0.3-1.7,0.8C365.2,282.5,365,283.3,365,284.3z"/>
	<path class="st8" d="M374.1,288.1H373v-11h1.2V288.1z"/>
	<path class="st8" d="M383.3,284.3c0,1.3-0.3,2.2-1,3c-0.6,0.7-1.5,1.1-2.6,1.1c-0.7,0-1.3-0.2-1.8-0.5c-0.5-0.3-1-0.8-1.2-1.4
		c-0.3-0.6-0.4-1.3-0.4-2.1c0-1.3,0.3-2.2,0.9-2.9s1.5-1,2.6-1c1.1,0,1.9,0.4,2.6,1.1S383.3,283,383.3,284.3z M377.4,284.3
		c0,1,0.2,1.7,0.6,2.3c0.4,0.5,1,0.8,1.7,0.8s1.4-0.3,1.7-0.8c0.4-0.5,0.6-1.3,0.6-2.3c0-1-0.2-1.7-0.6-2.2c-0.4-0.5-1-0.8-1.8-0.8
		c-0.8,0-1.3,0.3-1.7,0.8C377.6,282.5,377.4,283.3,377.4,284.3z"/>
	<path class="st8" d="M395.1,285.4c0,0.9-0.3,1.6-1,2.1s-1.5,0.8-2.7,0.8c-1.2,0-2.2-0.2-2.8-0.5v-1.2c0.4,0.2,0.9,0.3,1.4,0.4
		s1,0.2,1.5,0.2c0.8,0,1.4-0.1,1.8-0.5c0.4-0.3,0.6-0.7,0.6-1.3c0-0.4-0.1-0.6-0.2-0.9c-0.1-0.2-0.4-0.4-0.7-0.6s-0.9-0.4-1.5-0.7
		c-1-0.3-1.6-0.8-2-1.2s-0.6-1.1-0.6-1.8c0-0.8,0.3-1.4,0.9-1.9s1.4-0.7,2.4-0.7c1,0,2,0.2,2.8,0.6l-0.4,1c-0.9-0.4-1.7-0.5-2.5-0.5
		c-0.6,0-1.1,0.1-1.5,0.4s-0.5,0.6-0.5,1.1c0,0.4,0.1,0.6,0.2,0.9s0.4,0.4,0.7,0.6c0.3,0.2,0.8,0.4,1.4,0.6c1.1,0.4,1.8,0.8,2.2,1.2
		S395.1,284.7,395.1,285.4z"/>
	<path class="st8" d="M402.3,288.1v-5c0-0.6-0.1-1.1-0.4-1.4c-0.3-0.3-0.7-0.5-1.4-0.5c-0.8,0-1.4,0.2-1.8,0.7s-0.6,1.2-0.6,2.2v4
		H397v-11h1.2v3.3c0,0.4,0,0.7-0.1,1h0.1c0.2-0.4,0.6-0.7,1-0.9c0.4-0.2,0.9-0.3,1.5-0.3c0.9,0,1.6,0.2,2.1,0.7
		c0.5,0.5,0.7,1.2,0.7,2.1v5L402.3,288.1L402.3,288.1z"/>
	<path class="st8" d="M405.8,278.3c0-0.3,0.1-0.5,0.2-0.6c0.1-0.1,0.3-0.2,0.5-0.2s0.4,0.1,0.5,0.2c0.1,0.1,0.2,0.3,0.2,0.6
		s-0.1,0.5-0.2,0.6c-0.1,0.1-0.3,0.2-0.5,0.2c-0.2,0-0.4-0.1-0.5-0.2C405.8,278.8,405.8,278.6,405.8,278.3z M407,288.1h-1.2v-7.7
		h1.2V288.1z"/>
	<path class="st8" d="M413,280.3c0.3,0,0.6,0,0.9,0.1l-0.2,1.1c-0.3-0.1-0.6-0.1-0.9-0.1c-0.6,0-1.2,0.3-1.6,0.8s-0.7,1.1-0.7,1.9
		v4.1h-1.2v-7.7h1l0.1,1.4h0.1c0.3-0.5,0.6-0.9,1-1.2C412.1,280.4,412.5,280.3,413,280.3z"/>
	<path class="st8" d="M417.9,287.3c0.2,0,0.4,0,0.6,0s0.4-0.1,0.5-0.1v0.9c-0.1,0.1-0.3,0.1-0.6,0.1s-0.5,0.1-0.7,0.1
		c-1.5,0-2.2-0.8-2.2-2.4v-4.6h-1.1v-0.6l1.1-0.5l0.5-1.6h0.7v1.8h2.2v0.9h-2.2v4.5c0,0.5,0.1,0.8,0.3,1.1S417.5,287.3,417.9,287.3z
		"/>
	<path class="st8" d="M425.5,286c0,0.7-0.3,1.3-0.8,1.7c-0.5,0.4-1.3,0.6-2.3,0.6c-1,0-1.8-0.2-2.4-0.5v-1.1
		c0.4,0.2,0.8,0.3,1.2,0.4c0.4,0.1,0.8,0.2,1.2,0.2c0.6,0,1.1-0.1,1.4-0.3c0.3-0.2,0.5-0.5,0.5-0.9c0-0.3-0.1-0.6-0.4-0.8
		s-0.8-0.5-1.5-0.8c-0.7-0.3-1.2-0.5-1.5-0.7s-0.5-0.4-0.7-0.7s-0.2-0.6-0.2-0.9c0-0.6,0.3-1.1,0.8-1.5c0.5-0.4,1.2-0.5,2.1-0.5
		c0.8,0,1.6,0.2,2.4,0.5l-0.4,1c-0.8-0.3-1.5-0.5-2.1-0.5c-0.5,0-1,0.1-1.3,0.3s-0.4,0.4-0.4,0.7c0,0.2,0,0.4,0.2,0.5
		c0.1,0.1,0.3,0.3,0.5,0.4c0.2,0.1,0.7,0.3,1.4,0.6c0.9,0.3,1.5,0.7,1.9,1C425.3,285.1,425.5,285.5,425.5,286z"/>
	<path class="st8" d="M434.6,281.3h-2v6.8h-1.2v-6.8h-1.4v-0.5l1.4-0.4v-0.4c0-1.9,0.8-2.9,2.5-2.9c0.4,0,0.9,0.1,1.4,0.3l-0.3,0.9
		c-0.5-0.1-0.8-0.2-1.2-0.2c-0.4,0-0.8,0.1-1,0.4c-0.2,0.3-0.3,0.8-0.3,1.4v0.5h2L434.6,281.3L434.6,281.3z"/>
	<path class="st8" d="M442.7,284.3c0,1.3-0.3,2.2-1,3c-0.6,0.7-1.5,1.1-2.6,1.1c-0.7,0-1.3-0.2-1.8-0.5c-0.5-0.3-1-0.8-1.2-1.4
		c-0.3-0.6-0.4-1.3-0.4-2.1c0-1.3,0.3-2.2,0.9-2.9s1.5-1,2.6-1c1.1,0,1.9,0.4,2.6,1.1S442.7,283,442.7,284.3z M436.8,284.3
		c0,1,0.2,1.7,0.6,2.3c0.4,0.5,1,0.8,1.7,0.8s1.4-0.3,1.7-0.8c0.4-0.5,0.6-1.3,0.6-2.3c0-1-0.2-1.7-0.6-2.2c-0.4-0.5-1-0.8-1.8-0.8
		c-0.8,0-1.3,0.3-1.7,0.8C437,282.5,436.8,283.3,436.8,284.3z"/>
	<path class="st8" d="M448.3,280.3c0.3,0,0.6,0,0.9,0.1l-0.2,1.1c-0.3-0.1-0.6-0.1-0.9-0.1c-0.6,0-1.2,0.3-1.6,0.8s-0.7,1.1-0.7,1.9
		v4.1h-1.2v-7.7h1l0.1,1.4h0.1c0.3-0.5,0.6-0.9,1-1.2C447.3,280.4,447.8,280.3,448.3,280.3z"/>
	<path class="st8" d="M291.3,305.4l-3.5-9.1h-0.1c0.1,0.7,0.1,1.6,0.1,2.6v6.5h-1.1v-10.3h1.8l3.3,8.5h0.1l3.3-8.5h1.8v10.3h-1.2
		v-6.6c0-0.8,0-1.6,0.1-2.5h-0.1l-3.5,9.1L291.3,305.4L291.3,305.4z"/>
	<path class="st8" d="M302.9,305.6c-1.1,0-2-0.4-2.7-1s-1-1.7-1-2.9c0-1.3,0.3-2.2,0.9-3c0.6-0.7,1.4-1.1,2.5-1.1c1,0,1.7,0.3,2.3,1
		s0.9,1.5,0.9,2.5v0.7h-5.3c0,0.9,0.3,1.6,0.7,2.1s1,0.7,1.8,0.7c0.8,0,1.6-0.2,2.5-0.5v1c-0.4,0.2-0.8,0.3-1.2,0.4
		C303.8,305.5,303.4,305.6,302.9,305.6z M302.6,298.5c-0.6,0-1.1,0.2-1.5,0.6c-0.4,0.4-0.6,1-0.6,1.7h4c0-0.7-0.2-1.3-0.5-1.7
		C303.6,298.8,303.2,298.5,302.6,298.5z"/>
	<path class="st8" d="M313,305.4v-5c0-0.6-0.1-1.1-0.4-1.4c-0.3-0.3-0.7-0.5-1.4-0.5c-0.8,0-1.4,0.2-1.8,0.7s-0.6,1.2-0.6,2.2v4
		h-1.2v-7.7h1l0.2,1.1h0.1c0.2-0.4,0.6-0.7,1-0.9s0.9-0.3,1.4-0.3c0.9,0,1.6,0.2,2.1,0.7s0.7,1.2,0.7,2.1v5L313,305.4L313,305.4z"/>
</g>
<g>
	<rect x="285.3" y="333.5" class="st0" width="192" height="62.9"/>
	<path class="st2" d="M291.3,346.6h-2V336h-3.6v-1.7h9.3v1.7h-3.6L291.3,346.6L291.3,346.6z"/>
	<path class="st2" d="M295.8,342.8v-1.7h4.4v1.7H295.8z"/>
	<path class="st2" d="M309.5,343.3c0,1.1-0.4,2-1.2,2.6s-1.9,0.9-3.3,0.9s-2.5-0.2-3.4-0.6v-1.9c0.6,0.3,1.2,0.5,1.8,0.6
		s1.2,0.2,1.8,0.2c0.8,0,1.4-0.1,1.8-0.5s0.6-0.7,0.6-1.2c0-0.5-0.2-0.9-0.5-1.2s-1.1-0.7-2.2-1.1c-1.1-0.5-1.9-1-2.4-1.6
		s-0.7-1.3-0.7-2.1c0-1,0.4-1.8,1.1-2.4s1.7-0.9,3-0.9c1.2,0,2.4,0.3,3.5,0.8l-0.6,1.6c-1.1-0.5-2.1-0.7-2.9-0.7
		c-0.6,0-1.1,0.1-1.5,0.4c-0.3,0.3-0.5,0.7-0.5,1.1c0,0.3,0.1,0.6,0.2,0.8s0.4,0.4,0.7,0.6c0.3,0.2,0.9,0.5,1.7,0.8
		c0.9,0.4,1.6,0.7,2,1.1s0.7,0.7,0.9,1.1C309.4,342.2,309.5,342.7,309.5,343.3z"/>
	<path class="st2" d="M319.9,346.6h-2v-5.8c0-0.7-0.1-1.3-0.4-1.6s-0.8-0.5-1.4-0.5c-0.8,0-1.5,0.3-1.8,0.8
		c-0.4,0.5-0.6,1.3-0.6,2.5v4.6h-2v-13.2h2v3.3c0,0.5,0,1.1-0.1,1.7h0.1c0.3-0.5,0.6-0.8,1.1-1s1-0.4,1.7-0.4c2.3,0,3.4,1.1,3.4,3.4
		V346.6z"/>
	<path class="st2" d="M322.5,334.8c0-0.4,0.1-0.6,0.3-0.8s0.5-0.3,0.8-0.3c0.4,0,0.6,0.1,0.8,0.3c0.2,0.2,0.3,0.5,0.3,0.8
		c0,0.3-0.1,0.6-0.3,0.8s-0.5,0.3-0.8,0.3c-0.4,0-0.6-0.1-0.8-0.3S322.5,335.1,322.5,334.8z M324.6,346.6h-2v-9.4h2V346.6z"/>
	<path class="st2" d="M332.2,337.1c0.4,0,0.7,0,1,0.1L333,339c-0.3-0.1-0.6-0.1-0.9-0.1c-0.8,0-1.4,0.3-1.9,0.8s-0.7,1.2-0.7,2v4.9
		h-2v-9.4h1.6l0.3,1.6h0.1c0.3-0.6,0.7-1,1.2-1.3S331.6,337.1,332.2,337.1z"/>
	<path class="st2" d="M338.4,345.2c0.5,0,1-0.1,1.5-0.2v1.5c-0.2,0.1-0.5,0.2-0.9,0.2s-0.7,0.1-1.1,0.1c-1.9,0-2.8-1-2.8-3v-5h-1.3
		v-0.9l1.4-0.7l0.7-2h1.2v2.1h2.7v1.5h-2.7v5c0,0.5,0.1,0.8,0.4,1.1C337.7,345.1,338,345.2,338.4,345.2z"/>
	<path class="st2" d="M348,344c0,0.9-0.3,1.6-1,2.1c-0.7,0.5-1.6,0.7-2.9,0.7c-1.3,0-2.3-0.2-3-0.6v-1.7c1.1,0.5,2.1,0.8,3.1,0.8
		c1.2,0,1.8-0.4,1.8-1.1c0-0.2-0.1-0.4-0.2-0.6s-0.4-0.3-0.7-0.5c-0.3-0.2-0.7-0.4-1.3-0.6c-1.1-0.4-1.8-0.8-2.2-1.3s-0.6-1-0.6-1.6
		c0-0.8,0.3-1.4,1-1.9c0.6-0.4,1.5-0.7,2.6-0.7c1.1,0,2.1,0.2,3.1,0.7l-0.6,1.5c-1-0.4-1.9-0.6-2.5-0.6c-1,0-1.6,0.3-1.6,0.9
		c0,0.3,0.1,0.5,0.4,0.7s0.9,0.5,1.8,0.8c0.8,0.3,1.3,0.6,1.7,0.8s0.6,0.5,0.8,0.9S348,343.5,348,344z"/>
	<path class="st2" d="M354.1,343.4c0-0.7,0.2-1.4,0.5-1.9c0.4-0.5,1-1.1,2-1.6c-0.5-0.6-0.9-1.1-1.1-1.6c-0.2-0.4-0.3-0.9-0.3-1.3
		c0-0.9,0.3-1.5,0.9-2c0.6-0.5,1.4-0.7,2.5-0.7c1,0,1.8,0.2,2.4,0.7s0.9,1.1,0.9,2c0,0.6-0.2,1.2-0.6,1.8s-1,1-1.9,1.6l2.9,2.8
		c0.5-0.6,0.8-1.5,1.1-2.7h2c-0.4,1.6-1,2.9-1.9,3.9l2.5,2.5h-2.6l-1.3-1.2c-0.6,0.5-1.2,0.8-1.8,1s-1.4,0.4-2.2,0.4
		c-1.3,0-2.3-0.3-3-0.9C354.5,345.3,354.1,344.4,354.1,343.4z M358.4,345.1c1,0,1.9-0.3,2.6-0.9l-3.2-3.2c-0.6,0.4-1,0.7-1.2,1.1
		c-0.2,0.3-0.3,0.7-0.3,1.1c0,0.5,0.2,1,0.6,1.4S357.7,345.1,358.4,345.1z M357.1,336.9c0,0.4,0.1,0.7,0.3,1s0.5,0.6,0.8,1
		c0.6-0.4,1.1-0.7,1.3-1s0.4-0.7,0.4-1c0-0.4-0.1-0.7-0.4-0.9s-0.6-0.3-1-0.3c-0.5,0-0.8,0.1-1.1,0.3
		C357.2,336.2,357.1,336.5,357.1,336.9z"/>
	<path class="st2" d="M380.4,338c0,1.3-0.4,2.3-1.3,3c-0.9,0.7-2,1-3.6,1h-1.3v4.6h-2v-12.4h3.6c1.5,0,2.7,0.3,3.5,1
		C380,335.8,380.4,336.8,380.4,338z M374.3,340.3h1.1c1,0,1.8-0.2,2.3-0.5c0.5-0.4,0.7-0.9,0.7-1.7c0-0.7-0.2-1.2-0.6-1.6
		s-1.1-0.5-2-0.5h-1.4L374.3,340.3L374.3,340.3z"/>
	<path class="st2" d="M391,341.9c0,1.5-0.4,2.7-1.2,3.6c-0.8,0.9-1.9,1.3-3.3,1.3c-0.9,0-1.6-0.2-2.3-0.6s-1.2-1-1.5-1.7
		c-0.4-0.7-0.5-1.6-0.5-2.6c0-1.5,0.4-2.7,1.2-3.5c0.8-0.9,1.9-1.3,3.3-1.3c1.4,0,2.4,0.4,3.2,1.3S391,340.5,391,341.9z
		 M384.2,341.9c0,2.2,0.8,3.2,2.4,3.2c1.6,0,2.4-1.1,2.4-3.2c0-2.1-0.8-3.2-2.4-3.2c-0.8,0-1.4,0.3-1.8,0.8S384.2,340.9,384.2,341.9
		z"/>
	<path class="st2" d="M395.2,346.6h-2v-13.2h2V346.6z"/>
	<path class="st2" d="M406.4,341.9c0,1.5-0.4,2.7-1.2,3.6c-0.8,0.9-1.9,1.3-3.3,1.3c-0.9,0-1.6-0.2-2.3-0.6s-1.2-1-1.5-1.7
		c-0.4-0.7-0.5-1.6-0.5-2.6c0-1.5,0.4-2.7,1.2-3.5c0.8-0.9,1.9-1.3,3.3-1.3c1.4,0,2.4,0.4,3.2,1.3S406.4,340.5,406.4,341.9z
		 M399.6,341.9c0,2.2,0.8,3.2,2.4,3.2c1.6,0,2.4-1.1,2.4-3.2c0-2.1-0.8-3.2-2.4-3.2c-0.8,0-1.4,0.3-1.8,0.8S399.6,340.9,399.6,341.9
		z"/>
	<path class="st2" d="M420.5,343.3c0,1.1-0.4,2-1.2,2.6s-1.9,0.9-3.3,0.9s-2.5-0.2-3.4-0.6v-1.9c0.6,0.3,1.2,0.5,1.8,0.6
		c0.6,0.1,1.2,0.2,1.8,0.2c0.8,0,1.4-0.1,1.8-0.5s0.6-0.7,0.6-1.2c0-0.5-0.2-0.9-0.5-1.2s-1.1-0.7-2.2-1.1c-1.1-0.5-1.9-1-2.4-1.6
		c-0.5-0.6-0.7-1.3-0.7-2.1c0-1,0.4-1.8,1.1-2.4s1.7-0.9,3-0.9c1.2,0,2.4,0.3,3.5,0.8l-0.6,1.6c-1.1-0.5-2.1-0.7-2.9-0.7
		c-0.6,0-1.1,0.1-1.5,0.4c-0.3,0.3-0.5,0.7-0.5,1.1c0,0.3,0.1,0.6,0.2,0.8c0.1,0.2,0.4,0.4,0.7,0.6c0.3,0.2,0.9,0.5,1.7,0.8
		c0.9,0.4,1.6,0.7,2,1.1s0.7,0.7,0.9,1.1C420.4,342.2,420.5,342.7,420.5,343.3z"/>
	<path class="st2" d="M430.9,346.6h-2v-5.8c0-0.7-0.1-1.3-0.4-1.6s-0.8-0.5-1.4-0.5c-0.8,0-1.5,0.3-1.8,0.8s-0.6,1.3-0.6,2.5v4.6h-2
		v-13.2h2v3.3c0,0.5,0,1.1-0.1,1.7h0.1c0.3-0.5,0.6-0.8,1.1-1s1-0.4,1.7-0.4c2.3,0,3.4,1.1,3.4,3.4V346.6z"/>
	<path class="st2" d="M433.6,334.8c0-0.4,0.1-0.6,0.3-0.8c0.2-0.2,0.5-0.3,0.8-0.3c0.4,0,0.6,0.1,0.8,0.3c0.2,0.2,0.3,0.5,0.3,0.8
		c0,0.3-0.1,0.6-0.3,0.8s-0.5,0.3-0.8,0.3c-0.4,0-0.6-0.1-0.8-0.3C433.6,335.4,433.6,335.1,433.6,334.8z M435.7,346.6h-2v-9.4h2
		V346.6z"/>
	<path class="st2" d="M443.3,337.1c0.4,0,0.7,0,1,0.1L444,339c-0.3-0.1-0.6-0.1-0.9-0.1c-0.8,0-1.4,0.3-1.9,0.8s-0.7,1.2-0.7,2v4.9
		h-2v-9.4h1.6l0.3,1.6h0.1c0.3-0.6,0.7-1,1.2-1.3S442.7,337.1,443.3,337.1z"/>
	<path class="st2" d="M449.5,345.2c0.5,0,1-0.1,1.5-0.2v1.5c-0.2,0.1-0.5,0.2-0.9,0.2s-0.7,0.1-1.1,0.1c-1.9,0-2.8-1-2.8-3v-5h-1.3
		v-0.9l1.4-0.7l0.7-2h1.2v2.1h2.7v1.5h-2.7v5c0,0.5,0.1,0.8,0.4,1.1C448.8,345.1,449.1,345.2,449.5,345.2z"/>
	<path class="st2" d="M459.1,344c0,0.9-0.3,1.6-1,2.1c-0.7,0.5-1.6,0.7-2.9,0.7c-1.3,0-2.3-0.2-3-0.6v-1.7c1.1,0.5,2.1,0.8,3.1,0.8
		c1.2,0,1.8-0.4,1.8-1.1c0-0.2-0.1-0.4-0.2-0.6s-0.4-0.3-0.7-0.5c-0.3-0.2-0.7-0.4-1.3-0.6c-1.1-0.4-1.8-0.8-2.2-1.3s-0.6-1-0.6-1.6
		c0-0.8,0.3-1.4,1-1.9c0.6-0.4,1.5-0.7,2.6-0.7c1.1,0,2.1,0.2,3.1,0.7l-0.6,1.5c-1-0.4-1.9-0.6-2.5-0.6c-1,0-1.6,0.3-1.6,0.9
		c0,0.3,0.1,0.5,0.4,0.7s0.9,0.5,1.8,0.8c0.8,0.3,1.3,0.6,1.7,0.8s0.6,0.5,0.8,0.9C459,343.1,459.1,343.5,459.1,344z"/>
	<path class="st8" d="M295.8,363.9h-1.2l-2.1-6.9c-0.1-0.3-0.2-0.7-0.3-1.2c-0.1-0.5-0.2-0.7-0.2-0.8c-0.1,0.6-0.3,1.3-0.5,2l-2,6.9
		h-1.2l-2.7-10.3h1.3l1.6,6.4c0.2,0.9,0.4,1.7,0.5,2.4c0.1-0.9,0.3-1.7,0.6-2.5l1.9-6.3h1.3l1.9,6.3c0.2,0.7,0.4,1.5,0.6,2.5
		c0.1-0.7,0.3-1.5,0.5-2.4l1.6-6.4h1.3L295.8,363.9z"/>
	<path class="st8" d="M303.2,364.1c-1.1,0-2-0.4-2.7-1s-1-1.7-1-2.9c0-1.3,0.3-2.2,0.9-3c0.6-0.7,1.4-1.1,2.5-1.1c1,0,1.7,0.3,2.3,1
		s0.9,1.5,0.9,2.5v0.7h-5.3c0,0.9,0.3,1.6,0.7,2.1s1,0.7,1.8,0.7c0.8,0,1.6-0.2,2.5-0.5v1c-0.4,0.2-0.8,0.3-1.2,0.4
		C304.2,364,303.7,364.1,303.2,364.1z M302.9,357.1c-0.6,0-1.1,0.2-1.5,0.6c-0.4,0.4-0.6,1-0.6,1.7h4c0-0.7-0.2-1.3-0.5-1.7
		C304,357.3,303.5,357.1,302.9,357.1z"/>
	<path class="st8" d="M318.5,360.1c0,1.3-0.3,2.2-1,3s-1.5,1.1-2.6,1.1c-0.7,0-1.3-0.2-1.8-0.5s-1-0.8-1.2-1.4
		c-0.3-0.6-0.4-1.3-0.4-2.1c0-1.3,0.3-2.2,0.9-2.9s1.5-1,2.6-1c1.1,0,1.9,0.4,2.6,1.1S318.5,358.9,318.5,360.1z M312.6,360.1
		c0,1,0.2,1.7,0.6,2.3c0.4,0.5,1,0.8,1.7,0.8s1.4-0.3,1.7-0.8s0.6-1.3,0.6-2.3c0-1-0.2-1.7-0.6-2.2s-1-0.8-1.8-0.8
		c-0.8,0-1.3,0.3-1.7,0.8C312.8,358.3,312.6,359.1,312.6,360.1z"/>
	<path class="st8" d="M324,357.1h-2v6.8h-1.2v-6.8h-1.4v-0.5l1.4-0.4v-0.4c0-1.9,0.8-2.9,2.5-2.9c0.4,0,0.9,0.1,1.4,0.3l-0.3,0.9
		c-0.5-0.1-0.8-0.2-1.2-0.2c-0.4,0-0.8,0.1-1,0.4s-0.3,0.8-0.3,1.4v0.5h2L324,357.1L324,357.1z M328.9,357.1h-2v6.8h-1.2v-6.8h-1.4
		v-0.5l1.4-0.4v-0.4c0-1.9,0.8-2.9,2.5-2.9c0.4,0,0.9,0.1,1.4,0.3l-0.3,0.9c-0.5-0.1-0.8-0.2-1.2-0.2c-0.4,0-0.8,0.1-1,0.4
		s-0.3,0.8-0.3,1.4v0.5h2L328.9,357.1L328.9,357.1z"/>
	<path class="st8" d="M333.6,364.1c-1.1,0-2-0.4-2.7-1s-1-1.7-1-2.9c0-1.3,0.3-2.2,0.9-3c0.6-0.7,1.4-1.1,2.5-1.1c1,0,1.7,0.3,2.3,1
		s0.9,1.5,0.9,2.5v0.7h-5.3c0,0.9,0.3,1.6,0.7,2.1s1,0.7,1.8,0.7c0.8,0,1.6-0.2,2.5-0.5v1c-0.4,0.2-0.8,0.3-1.2,0.4
		C334.5,364,334.1,364.1,333.6,364.1z M333.3,357.1c-0.6,0-1.1,0.2-1.5,0.6c-0.4,0.4-0.6,1-0.6,1.7h4c0-0.7-0.2-1.3-0.5-1.7
		C334.3,357.3,333.9,357.1,333.3,357.1z"/>
	<path class="st8" d="M341.9,356.1c0.3,0,0.6,0,0.9,0.1l-0.2,1.1c-0.3-0.1-0.6-0.1-0.9-0.1c-0.6,0-1.2,0.3-1.6,0.8s-0.7,1.1-0.7,1.9
		v4.1h-1.2v-7.7h1l0.1,1.4h0.1c0.3-0.5,0.6-0.9,1-1.2C341,356.2,341.4,356.1,341.9,356.1z"/>
	<path class="st8" d="M352.8,363.9l-0.2-1.1h-0.1c-0.4,0.5-0.8,0.8-1.1,1s-0.9,0.3-1.4,0.3c-0.8,0-1.4-0.2-1.8-0.6s-0.6-1-0.6-1.7
		c0-1.6,1.3-2.4,3.7-2.5l1.3,0v-0.5c0-0.6-0.1-1-0.4-1.3s-0.7-0.4-1.3-0.4c-0.6,0-1.4,0.2-2.2,0.6l-0.4-0.9c0.4-0.2,0.8-0.4,1.3-0.5
		s0.9-0.2,1.4-0.2c0.9,0,1.6,0.2,2,0.6c0.4,0.4,0.7,1.1,0.7,2v5.3L352.8,363.9L352.8,363.9z M350.1,363.1c0.7,0,1.3-0.2,1.7-0.6
		s0.6-1,0.6-1.7v-0.7l-1.2,0c-0.9,0-1.6,0.2-2,0.4c-0.4,0.3-0.6,0.7-0.6,1.2c0,0.4,0.1,0.7,0.4,1C349.3,363,349.7,363.1,350.1,363.1
		z"/>
	<path class="st8" d="M361,363.9h-1.2v-11h1.2V363.9z"/>
	<path class="st8" d="M368.2,363.9l-0.2-1.1h-0.1c-0.4,0.5-0.8,0.8-1.1,1s-0.9,0.3-1.4,0.3c-0.8,0-1.4-0.2-1.8-0.6s-0.6-1-0.6-1.7
		c0-1.6,1.3-2.4,3.7-2.5l1.3,0v-0.5c0-0.6-0.1-1-0.4-1.3s-0.7-0.4-1.3-0.4c-0.6,0-1.4,0.2-2.2,0.6l-0.4-0.9c0.4-0.2,0.8-0.4,1.3-0.5
		s0.9-0.2,1.4-0.2c0.9,0,1.6,0.2,2,0.6c0.4,0.4,0.7,1.1,0.7,2v5.3L368.2,363.9L368.2,363.9z M365.6,363.1c0.7,0,1.3-0.2,1.7-0.6
		s0.6-1,0.6-1.7v-0.7l-1.2,0c-0.9,0-1.6,0.2-2,0.4c-0.4,0.3-0.6,0.7-0.6,1.2c0,0.4,0.1,0.7,0.4,1C364.8,363,365.1,363.1,365.6,363.1
		z"/>
	<path class="st8" d="M375,356.1c0.3,0,0.6,0,0.9,0.1l-0.2,1.1c-0.3-0.1-0.6-0.1-0.9-0.1c-0.6,0-1.2,0.3-1.6,0.8s-0.7,1.1-0.7,1.9
		v4.1h-1.2v-7.7h1l0.1,1.4h0.1c0.3-0.5,0.6-0.9,1-1.2C374.1,356.2,374.5,356.1,375,356.1z"/>
	<path class="st8" d="M383.7,356.2v0.7l-1.4,0.2c0.1,0.2,0.3,0.4,0.4,0.6s0.1,0.6,0.1,0.9c0,0.8-0.3,1.4-0.8,1.8s-1.2,0.7-2.1,0.7
		c-0.2,0-0.5,0-0.6-0.1c-0.5,0.3-0.8,0.6-0.8,1c0,0.2,0.1,0.4,0.3,0.5s0.5,0.1,0.9,0.1h1.4c0.8,0,1.5,0.2,1.9,0.5
		c0.5,0.4,0.7,0.9,0.7,1.5c0,0.9-0.3,1.5-1,2c-0.7,0.5-1.7,0.7-3,0.7c-1,0-1.8-0.2-2.3-0.6c-0.5-0.4-0.8-0.9-0.8-1.6
		c0-0.5,0.1-0.9,0.5-1.2s0.7-0.6,1.3-0.7c-0.2-0.1-0.4-0.2-0.5-0.4c-0.1-0.2-0.2-0.4-0.2-0.7c0-0.3,0.1-0.5,0.2-0.7
		c0.1-0.2,0.4-0.4,0.7-0.6c-0.4-0.2-0.7-0.4-1-0.8c-0.3-0.4-0.4-0.9-0.4-1.4c0-0.9,0.3-1.5,0.8-2s1.2-0.7,2.2-0.7
		c0.4,0,0.8,0,1.1,0.1H383.7z M377.5,365.2c0,0.4,0.2,0.7,0.5,1c0.4,0.2,0.9,0.3,1.5,0.3c1,0,1.7-0.1,2.2-0.4s0.7-0.7,0.7-1.2
		c0-0.4-0.1-0.7-0.4-0.9s-0.8-0.2-1.5-0.2h-1.4c-0.5,0-0.9,0.1-1.2,0.4S377.5,364.8,377.5,365.2z M378.2,358.7c0,0.5,0.1,1,0.5,1.2
		c0.3,0.3,0.7,0.4,1.3,0.4c1.1,0,1.7-0.5,1.7-1.7c0-1.2-0.6-1.7-1.7-1.7c-0.5,0-1,0.1-1.3,0.4S378.2,358.1,378.2,358.7z"/>
	<path class="st8" d="M388.6,364.1c-1.1,0-2-0.4-2.7-1s-1-1.7-1-2.9c0-1.3,0.3-2.2,0.9-3c0.6-0.7,1.4-1.1,2.5-1.1c1,0,1.7,0.3,2.3,1
		s0.9,1.5,0.9,2.5v0.7h-5.3c0,0.9,0.3,1.6,0.7,2.1s1,0.7,1.8,0.7c0.8,0,1.6-0.2,2.5-0.5v1c-0.4,0.2-0.8,0.3-1.2,0.4
		C389.5,364,389.1,364.1,388.6,364.1z M388.2,357.1c-0.6,0-1.1,0.2-1.5,0.6c-0.4,0.4-0.6,1-0.6,1.7h4c0-0.7-0.2-1.3-0.5-1.7
		S388.9,357.1,388.2,357.1z"/>
	<path class="st8" d="M398.8,363.9l-2.9-7.7h1.3l1.7,4.6c0.4,1.1,0.6,1.8,0.7,2.1h0.1c0-0.3,0.2-0.8,0.5-1.5
		c0.3-0.8,0.9-2.5,1.9-5.1h1.3l-2.9,7.7H398.8z"/>
	<path class="st8" d="M409.1,363.9l-0.2-1.1h-0.1c-0.4,0.5-0.8,0.8-1.1,1s-0.9,0.3-1.4,0.3c-0.8,0-1.4-0.2-1.8-0.6s-0.6-1-0.6-1.7
		c0-1.6,1.3-2.4,3.7-2.5l1.3,0v-0.5c0-0.6-0.1-1-0.4-1.3s-0.7-0.4-1.3-0.4c-0.6,0-1.4,0.2-2.2,0.6l-0.4-0.9c0.4-0.2,0.8-0.4,1.3-0.5
		s0.9-0.2,1.4-0.2c0.9,0,1.6,0.2,2,0.6c0.4,0.4,0.7,1.1,0.7,2v5.3L409.1,363.9L409.1,363.9z M406.5,363.1c0.7,0,1.3-0.2,1.7-0.6
		s0.6-1,0.6-1.7v-0.7l-1.2,0c-0.9,0-1.6,0.2-2,0.4c-0.4,0.3-0.6,0.7-0.6,1.2c0,0.4,0.1,0.7,0.4,1C405.7,363,406,363.1,406.5,363.1z"
		/>
	<path class="st8" d="M415.9,356.1c0.3,0,0.6,0,0.9,0.1l-0.2,1.1c-0.3-0.1-0.6-0.1-0.9-0.1c-0.6,0-1.2,0.3-1.6,0.8s-0.7,1.1-0.7,1.9
		v4.1h-1.2v-7.7h1l0.1,1.4h0.1c0.3-0.5,0.6-0.9,1-1.2C415,356.2,415.4,356.1,415.9,356.1z"/>
	<path class="st8" d="M418.2,354.1c0-0.3,0.1-0.5,0.2-0.6c0.1-0.1,0.3-0.2,0.5-0.2s0.4,0.1,0.5,0.2c0.1,0.1,0.2,0.3,0.2,0.6
		s-0.1,0.5-0.2,0.6c-0.1,0.1-0.3,0.2-0.5,0.2c-0.2,0-0.4-0.1-0.5-0.2C418.3,354.6,418.2,354.4,418.2,354.1z M419.5,363.9h-1.2v-7.7
		h1.2V363.9z"/>
	<path class="st8" d="M425.2,364.1c-1.1,0-2-0.4-2.7-1s-1-1.7-1-2.9c0-1.3,0.3-2.2,0.9-3c0.6-0.7,1.4-1.1,2.5-1.1c1,0,1.7,0.3,2.3,1
		s0.9,1.5,0.9,2.5v0.7h-5.3c0,0.9,0.3,1.6,0.7,2.1s1,0.7,1.8,0.7c0.8,0,1.6-0.2,2.5-0.5v1c-0.4,0.2-0.8,0.3-1.2,0.4
		C426.2,364,425.7,364.1,425.2,364.1z M424.9,357.1c-0.6,0-1.1,0.2-1.5,0.6c-0.4,0.4-0.6,1-0.6,1.7h4c0-0.7-0.2-1.3-0.5-1.7
		S425.5,357.1,424.9,357.1z"/>
	<path class="st8" d="M432.5,363.1c0.2,0,0.4,0,0.6,0s0.4-0.1,0.5-0.1v0.9c-0.1,0.1-0.3,0.1-0.6,0.1s-0.5,0.1-0.7,0.1
		c-1.5,0-2.2-0.8-2.2-2.4v-4.6H429v-0.6l1.1-0.5l0.5-1.6h0.7v1.8h2.2v0.9h-2.2v4.5c0,0.5,0.1,0.8,0.3,1.1S432.1,363.1,432.5,363.1z"
		/>
	<path class="st8" d="M433.9,356.2h1.3l1.7,4.4c0.4,1,0.6,1.7,0.7,2.2h0.1c0.1-0.2,0.2-0.6,0.4-1.2c0.2-0.6,0.8-2.4,1.9-5.4h1.3
		l-3.3,8.8c-0.3,0.9-0.7,1.5-1.1,1.9s-1,0.5-1.6,0.5c-0.4,0-0.7,0-1.1-0.1v-0.9c0.3,0.1,0.5,0.1,0.9,0.1c0.8,0,1.4-0.5,1.7-1.4
		l0.4-1.1L433.9,356.2z"/>
	<path class="st8" d="M452.8,360.1c0,1.3-0.3,2.2-1,3c-0.6,0.7-1.5,1.1-2.6,1.1c-0.7,0-1.3-0.2-1.8-0.5c-0.5-0.3-1-0.8-1.2-1.4
		c-0.3-0.6-0.4-1.3-0.4-2.1c0-1.3,0.3-2.2,0.9-2.9s1.5-1,2.6-1c1.1,0,1.9,0.4,2.6,1.1S452.8,358.9,452.8,360.1z M446.9,360.1
		c0,1,0.2,1.7,0.6,2.3c0.4,0.5,1,0.8,1.7,0.8s1.4-0.3,1.7-0.8c0.4-0.5,0.6-1.3,0.6-2.3c0-1-0.2-1.7-0.6-2.2c-0.4-0.5-1-0.8-1.8-0.8
		c-0.8,0-1.3,0.3-1.7,0.8C447.1,358.3,446.9,359.1,446.9,360.1z"/>
	<path class="st8" d="M458.4,357.1h-2v6.8h-1.2v-6.8h-1.4v-0.5l1.4-0.4v-0.4c0-1.9,0.8-2.9,2.5-2.9c0.4,0,0.9,0.1,1.4,0.3l-0.3,0.9
		c-0.5-0.1-0.8-0.2-1.2-0.2c-0.4,0-0.8,0.1-1,0.4c-0.2,0.3-0.3,0.8-0.3,1.4v0.5h2L458.4,357.1L458.4,357.1z"/>
	<path class="st8" d="M289.9,381.3h-1.2V372h-3.3V371h7.7v1.1h-3.3L289.9,381.3L289.9,381.3z"/>
	<path class="st8" d="M293.9,377.9v-1.1h3.5v1.1H293.9z"/>
	<path class="st8" d="M305.2,378.5c0,0.9-0.3,1.6-1,2.1s-1.5,0.8-2.7,0.8c-1.2,0-2.2-0.2-2.8-0.5v-1.2c0.4,0.2,0.9,0.3,1.4,0.4
		s1,0.2,1.5,0.2c0.8,0,1.4-0.1,1.8-0.5c0.4-0.3,0.6-0.7,0.6-1.3c0-0.4-0.1-0.6-0.2-0.9c-0.1-0.2-0.4-0.4-0.7-0.6s-0.9-0.4-1.5-0.7
		c-1-0.3-1.6-0.8-2-1.2s-0.6-1.1-0.6-1.8c0-0.8,0.3-1.4,0.9-1.9s1.4-0.7,2.4-0.7c1,0,2,0.2,2.8,0.6l-0.4,1c-0.9-0.4-1.7-0.5-2.5-0.5
		c-0.6,0-1.1,0.1-1.5,0.4s-0.5,0.6-0.5,1.1c0,0.4,0.1,0.6,0.2,0.9s0.4,0.4,0.7,0.6c0.3,0.2,0.8,0.4,1.4,0.6c1.1,0.4,1.8,0.8,2.2,1.2
		C305,377.3,305.2,377.8,305.2,378.5z"/>
	<path class="st8" d="M312.4,381.3v-5c0-0.6-0.1-1.1-0.4-1.4c-0.3-0.3-0.7-0.5-1.4-0.5c-0.8,0-1.4,0.2-1.8,0.7s-0.6,1.2-0.6,2.2v4
		h-1.2v-11h1.2v3.3c0,0.4,0,0.7-0.1,1h0.1c0.2-0.4,0.6-0.7,1-0.9c0.4-0.2,0.9-0.3,1.5-0.3c0.9,0,1.6,0.2,2.1,0.7
		c0.5,0.5,0.7,1.2,0.7,2.1v5H312.4z"/>
	<path class="st8" d="M315.9,371.5c0-0.3,0.1-0.5,0.2-0.6c0.1-0.1,0.3-0.2,0.5-0.2s0.4,0.1,0.5,0.2s0.2,0.3,0.2,0.6
		s-0.1,0.5-0.2,0.6c-0.1,0.1-0.3,0.2-0.5,0.2c-0.2,0-0.4-0.1-0.5-0.2C316,371.9,315.9,371.7,315.9,371.5z M317.2,381.3H316v-7.7h1.2
		V381.3z"/>
	<path class="st8" d="M323.2,373.4c0.3,0,0.6,0,0.9,0.1l-0.2,1.1c-0.3-0.1-0.6-0.1-0.9-0.1c-0.6,0-1.2,0.3-1.6,0.8s-0.7,1.1-0.7,1.9
		v4.1h-1.2v-7.7h1l0.1,1.4h0.1c0.3-0.5,0.6-0.9,1-1.2C322.2,373.5,322.7,373.4,323.2,373.4z"/>
	<path class="st8" d="M328,380.4c0.2,0,0.4,0,0.6,0s0.4-0.1,0.5-0.1v0.9c-0.1,0.1-0.3,0.1-0.6,0.1s-0.5,0.1-0.7,0.1
		c-1.5,0-2.2-0.8-2.2-2.4v-4.6h-1.1v-0.6l1.1-0.5l0.5-1.6h0.7v1.8h2.2v0.9h-2.2v4.6c0,0.5,0.1,0.8,0.3,1.1S327.6,380.4,328,380.4z"
		/>
	<path class="st8" d="M335.6,379.2c0,0.7-0.3,1.3-0.8,1.7c-0.5,0.4-1.3,0.6-2.3,0.6c-1,0-1.8-0.2-2.4-0.5v-1.1
		c0.4,0.2,0.8,0.3,1.2,0.4c0.4,0.1,0.8,0.2,1.2,0.2c0.6,0,1.1-0.1,1.4-0.3c0.3-0.2,0.5-0.5,0.5-0.9c0-0.3-0.1-0.6-0.4-0.8
		s-0.8-0.5-1.5-0.8c-0.7-0.3-1.2-0.5-1.5-0.7s-0.5-0.4-0.7-0.7s-0.2-0.6-0.2-0.9c0-0.6,0.3-1.1,0.8-1.5s1.2-0.5,2.1-0.5
		c0.8,0,1.6,0.2,2.4,0.5l-0.4,1c-0.8-0.3-1.5-0.5-2.1-0.5c-0.5,0-1,0.1-1.3,0.3s-0.4,0.4-0.4,0.7c0,0.2,0,0.4,0.2,0.5
		c0.1,0.1,0.3,0.3,0.5,0.4c0.2,0.1,0.7,0.3,1.4,0.6c0.9,0.3,1.5,0.7,1.9,1C335.5,378.2,335.6,378.6,335.6,379.2z"/>
	<path class="st8" d="M340.8,378.6c0-0.6,0.2-1.1,0.5-1.6s0.9-0.9,1.8-1.4c-0.4-0.5-0.7-0.8-0.8-1c-0.1-0.2-0.3-0.5-0.3-0.7
		s-0.1-0.5-0.1-0.8c0-0.7,0.2-1.3,0.7-1.6s1.1-0.6,1.9-0.6c0.8,0,1.4,0.2,1.8,0.6c0.4,0.4,0.7,0.9,0.7,1.6c0,0.5-0.2,1-0.5,1.4
		s-0.9,0.9-1.6,1.3l2.9,2.8c0.3-0.3,0.5-0.6,0.6-1c0.2-0.4,0.3-0.8,0.4-1.3h1.2c-0.3,1.3-0.8,2.4-1.4,3.1l2.1,2h-1.6l-1.3-1.3
		c-0.5,0.5-1.1,0.9-1.7,1.1c-0.6,0.2-1.2,0.3-1.9,0.3c-1,0-1.8-0.3-2.4-0.8C341.1,380.2,340.8,379.5,340.8,378.6z M344,380.4
		c1.1,0,2.1-0.4,2.8-1.1l-3.1-3c-0.5,0.3-0.9,0.6-1.1,0.8c-0.2,0.2-0.4,0.4-0.5,0.7c-0.1,0.2-0.1,0.5-0.1,0.8c0,0.5,0.2,1,0.5,1.3
		C343,380.2,343.4,380.4,344,380.4z M342.9,373c0,0.3,0.1,0.6,0.3,0.9s0.5,0.6,0.9,1.1c0.6-0.4,1-0.7,1.3-1c0.2-0.3,0.4-0.6,0.4-1
		c0-0.4-0.1-0.7-0.4-0.9c-0.2-0.2-0.6-0.3-1-0.3c-0.4,0-0.8,0.1-1,0.3S342.9,372.6,342.9,373z"/>
	<path class="st8" d="M362.3,374c0,1-0.4,1.9-1.1,2.4s-1.7,0.8-3,0.8h-1.2v4h-1.2V371h2.7C361,371,362.3,372,362.3,374z
		 M356.9,376.2h1.1c1.1,0,1.8-0.2,2.3-0.5s0.7-0.9,0.7-1.6c0-0.7-0.2-1.2-0.7-1.5s-1.1-0.5-2.1-0.5h-1.3L356.9,376.2L356.9,376.2z"
		/>
	<path class="st8" d="M370.9,377.4c0,1.3-0.3,2.2-1,3c-0.6,0.7-1.5,1.1-2.6,1.1c-0.7,0-1.3-0.2-1.8-0.5c-0.5-0.3-1-0.8-1.2-1.4
		c-0.3-0.6-0.4-1.3-0.4-2.1c0-1.3,0.3-2.2,0.9-2.9s1.5-1,2.6-1c1.1,0,1.9,0.4,2.6,1.1S370.9,376.2,370.9,377.4z M365,377.4
		c0,1,0.2,1.7,0.6,2.3c0.4,0.5,1,0.8,1.7,0.8s1.4-0.3,1.7-0.8c0.4-0.5,0.6-1.3,0.6-2.3c0-1-0.2-1.7-0.6-2.2c-0.4-0.5-1-0.8-1.8-0.8
		c-0.8,0-1.3,0.3-1.7,0.8C365.2,375.6,365,376.4,365,377.4z"/>
	<path class="st8" d="M374.1,381.3H373v-11h1.2V381.3z"/>
	<path class="st8" d="M383.3,377.4c0,1.3-0.3,2.2-1,3c-0.6,0.7-1.5,1.1-2.6,1.1c-0.7,0-1.3-0.2-1.8-0.5c-0.5-0.3-1-0.8-1.2-1.4
		c-0.3-0.6-0.4-1.3-0.4-2.1c0-1.3,0.3-2.2,0.9-2.9s1.5-1,2.6-1c1.1,0,1.9,0.4,2.6,1.1S383.3,376.2,383.3,377.4z M377.4,377.4
		c0,1,0.2,1.7,0.6,2.3c0.4,0.5,1,0.8,1.7,0.8s1.4-0.3,1.7-0.8c0.4-0.5,0.6-1.3,0.6-2.3c0-1-0.2-1.7-0.6-2.2c-0.4-0.5-1-0.8-1.8-0.8
		c-0.8,0-1.3,0.3-1.7,0.8C377.6,375.6,377.4,376.4,377.4,377.4z"/>
	<path class="st8" d="M395.1,378.5c0,0.9-0.3,1.6-1,2.1s-1.5,0.8-2.7,0.8c-1.2,0-2.2-0.2-2.8-0.5v-1.2c0.4,0.2,0.9,0.3,1.4,0.4
		s1,0.2,1.5,0.2c0.8,0,1.4-0.1,1.8-0.5c0.4-0.3,0.6-0.7,0.6-1.3c0-0.4-0.1-0.6-0.2-0.9c-0.1-0.2-0.4-0.4-0.7-0.6s-0.9-0.4-1.5-0.7
		c-1-0.3-1.6-0.8-2-1.2s-0.6-1.1-0.6-1.8c0-0.8,0.3-1.4,0.9-1.9s1.4-0.7,2.4-0.7c1,0,2,0.2,2.8,0.6l-0.4,1c-0.9-0.4-1.7-0.5-2.5-0.5
		c-0.6,0-1.1,0.1-1.5,0.4s-0.5,0.6-0.5,1.1c0,0.4,0.1,0.6,0.2,0.9s0.4,0.4,0.7,0.6c0.3,0.2,0.8,0.4,1.4,0.6c1.1,0.4,1.8,0.8,2.2,1.2
		S395.1,377.8,395.1,378.5z"/>
	<path class="st8" d="M402.3,381.3v-5c0-0.6-0.1-1.1-0.4-1.4c-0.3-0.3-0.7-0.5-1.4-0.5c-0.8,0-1.4,0.2-1.8,0.7s-0.6,1.2-0.6,2.2v4
		H397v-11h1.2v3.3c0,0.4,0,0.7-0.1,1h0.1c0.2-0.4,0.6-0.7,1-0.9c0.4-0.2,0.9-0.3,1.5-0.3c0.9,0,1.6,0.2,2.1,0.7
		c0.5,0.5,0.7,1.2,0.7,2.1v5H402.3z"/>
	<path class="st8" d="M405.8,371.5c0-0.3,0.1-0.5,0.2-0.6c0.1-0.1,0.3-0.2,0.5-0.2s0.4,0.1,0.5,0.2c0.1,0.1,0.2,0.3,0.2,0.6
		s-0.1,0.5-0.2,0.6c-0.1,0.1-0.3,0.2-0.5,0.2c-0.2,0-0.4-0.1-0.5-0.2C405.8,371.9,405.8,371.7,405.8,371.5z M407,381.3h-1.2v-7.7
		h1.2V381.3z"/>
	<path class="st8" d="M413,373.4c0.3,0,0.6,0,0.9,0.1l-0.2,1.1c-0.3-0.1-0.6-0.1-0.9-0.1c-0.6,0-1.2,0.3-1.6,0.8s-0.7,1.1-0.7,1.9
		v4.1h-1.2v-7.7h1l0.1,1.4h0.1c0.3-0.5,0.6-0.9,1-1.2C412.1,373.5,412.5,373.4,413,373.4z"/>
	<path class="st8" d="M417.9,380.4c0.2,0,0.4,0,0.6,0s0.4-0.1,0.5-0.1v0.9c-0.1,0.1-0.3,0.1-0.6,0.1s-0.5,0.1-0.7,0.1
		c-1.5,0-2.2-0.8-2.2-2.4v-4.6h-1.1v-0.6l1.1-0.5l0.5-1.6h0.7v1.8h2.2v0.9h-2.2v4.6c0,0.5,0.1,0.8,0.3,1.1S417.5,380.4,417.9,380.4z
		"/>
	<path class="st8" d="M425.5,379.2c0,0.7-0.3,1.3-0.8,1.7c-0.5,0.4-1.3,0.6-2.3,0.6c-1,0-1.8-0.2-2.4-0.5v-1.1
		c0.4,0.2,0.8,0.3,1.2,0.4c0.4,0.1,0.8,0.2,1.2,0.2c0.6,0,1.1-0.1,1.4-0.3c0.3-0.2,0.5-0.5,0.5-0.9c0-0.3-0.1-0.6-0.4-0.8
		s-0.8-0.5-1.5-0.8c-0.7-0.3-1.2-0.5-1.5-0.7s-0.5-0.4-0.7-0.7s-0.2-0.6-0.2-0.9c0-0.6,0.3-1.1,0.8-1.5c0.5-0.4,1.2-0.5,2.1-0.5
		c0.8,0,1.6,0.2,2.4,0.5l-0.4,1c-0.8-0.3-1.5-0.5-2.1-0.5c-0.5,0-1,0.1-1.3,0.3s-0.4,0.4-0.4,0.7c0,0.2,0,0.4,0.2,0.5
		c0.1,0.1,0.3,0.3,0.5,0.4c0.2,0.1,0.7,0.3,1.4,0.6c0.9,0.3,1.5,0.7,1.9,1C425.3,378.2,425.5,378.6,425.5,379.2z"/>
</g>
<g>
	<g>
		<g>
			<circle class="st1" cx="231.5" cy="108.4" r="1.5"/>
		</g>
	</g>
	<g>
		<g>
			<path class="st1" d="M226.5,111l1.1-2.3l-1.4-0.7l-1.5,3c-0.1,0.2-0.1,0.4,0,0.6c0.1,0.2,0.3,0.4,0.5,0.4l2.3,0.8l0.5-1.4
				L226.5,111z"/>
		</g>
	</g>
	<g>
		<g>
			<path class="st1" d="M222.4,119.8v3.9c0,0.4-0.3,0.7-0.7,0.8l-6.8,0.8c-2.7,0.3-4.7,2.6-4.6,5.3v8.9h1.5l0,0v-8.9
				c0-1.9,1.4-3.6,3.3-3.8l6.8-0.8c1.1-0.1,2-1.1,2-2.3v-3.9C223.9,119.8,222.4,119.8,222.4,119.8z"/>
		</g>
	</g>
	<g>
		<g>
			<path class="st1" d="M239,125.4l-6.8-0.8c-0.4-0.1-0.7-0.4-0.7-0.8v-4H230v4c0,1.2,0.9,2.1,2,2.3l6.8,0.8
				c1.9,0.2,3.3,1.9,3.3,3.8v8.8h1.5v-8.8C243.6,128,241.6,125.7,239,125.4z"/>
		</g>
	</g>
	<g>
		<g>
			<path class="st1" d="M236,106.2h-0.8v1.5h0.8c0.8,0,1.5,0.7,1.5,1.5s-0.7,1.5-1.5,1.5h-0.8v1.5h0.8c1.7,0,3-1.4,3-3
				C239.1,107.5,237.7,106.2,236,106.2z"/>
		</g>
	</g>
	<g>
		<g>
			<path class="st1" d="M234.5,106.1l-0.4,6.8c-0.2,3.8-3.3,6.8-7.2,6.8c-3.9,0-7-3-7.2-6.9l-0.4-6.8l-1.5,0.1l0.4,6.8
				c0.2,4.7,4,8.3,8.7,8.3s8.5-3.7,8.7-8.3l0.4-6.8L234.5,106.1z"/>
		</g>
	</g>
	<g>
		<g>
			<path class="st1" d="M228.9,113.8c-0.9,0.4-1.9,0.7-2.9,0.7l0,0h-0.6v1.5h0.6l0,0c1.2,0,2.4-0.3,3.6-0.8L228.9,113.8z"/>
		</g>
	</g>
	<g>
		<g>
			<circle class="st1" cx="222.4" cy="108.4" r="1.5"/>
		</g>
	</g>
	<g>
		<g>
			<path class="st1" d="M227.4,99.5c-0.3-0.2-0.7-0.2-1,0l-8.3,6.8l1,1.2l7.9-6.4l7.9,6.4l1-1.2L227.4,99.5z"/>
		</g>
	</g>
	<g>
		<g>
			<path class="st1" d="M217.8,107.7h0.8v-1.5h-0.8c-1.7,0-3,1.4-3,3s1.4,3,3,3h0.8v-1.5h-0.8c-0.8,0-1.5-0.7-1.5-1.5
				C216.3,108.3,217,107.7,217.8,107.7z"/>
		</g>
	</g>
	<g>
		<g>
			<path class="st1" d="M226.9,94c-6.3,0-11.4,5.1-11.4,11.4v2.3h1.5v-2.3c0-5.4,4.4-9.8,9.9-9.8s9.9,4.4,9.9,9.8v2.3h1.5v-2.3
				C238.3,99.1,233.2,94,226.9,94z"/>
		</g>
	</g>
	<g>
		<g>
			<rect x="226.2" y="94.8" class="st1" width="1.5" height="5.3"/>
		</g>
	</g>
	<g>
		<g>
			<rect x="215.6" y="110.7" class="st1" width="1.5" height="15.2"/>
		</g>
	</g>
	<g>
		<g>
			<rect x="236.8" y="110.7" class="st1" width="1.5" height="15.2"/>
		</g>
	</g>
	<g>
		<g>
			<rect x="220.1" y="125.1" class="st1" width="1.5" height="14.4"/>
		</g>
	</g>
	<g>
		<g>
			<rect x="232.2" y="125.1" class="st1" width="1.5" height="14.4"/>
		</g>
	</g>
	<g>
		<g>
			<path class="st1" d="M232.4,132.9c-0.2,0.2-0.4,0.4-0.6,0.6c-3,2.7-7.7,2.4-10.4-0.6l-1.1,1c1.8,2,4.2,3,6.6,3
				c2.1,0,4.2-0.7,5.9-2.2c0.3-0.2,0.5-0.5,0.7-0.7L232.4,132.9z"/>
		</g>
	</g>
</g>
<g>
	<path class="st2" d="M233.1,203.2h-3.6v-1.1c0.6-0.2,1.1-0.4,1.6-0.8c0.3-0.2,0.4-0.6,0.2-0.9s-0.6-0.4-0.9-0.2c-1,0.7-2.2,1-3.5,1
		c-3.2,0-5.9-2.4-6.4-5.6l-0.8-6.7c1.3-0.1,3-0.4,4.6-1.5c0.7,0.4,2.3,1.3,4.4,1.8c1.1,0.3,2.2,0.4,3.3,0.4c0.7,0,1.4-0.1,2-0.2
		l-0.8,6.1c-0.1,1-0.5,1.9-1,2.8c-0.2,0.3-0.1,0.7,0.2,0.9c0.1,0.1,0.2,0.1,0.4,0.1c0.2,0,0.4-0.1,0.6-0.3c0.6-0.9,1-1.9,1.2-2.9
		c0.4,0.1,0.8,0.2,1.2,0.2c1.8,0,3.3-1.5,3.3-3.3c0-0.9-0.3-1.7-0.9-2.3l0.3-1.3c0.1-0.6,0.2-1.2,0.2-1.8c0.2-0.1,0.4-0.3,0.6-0.4
		c0.4-0.3,0.6-0.7,0.6-1.1s-0.2-0.8-0.6-1.1l-0.8-0.5c-0.6-2.5-1.9-4.9-4-6.5c-2.1-1.8-4.8-2.7-7.5-2.7c-2.3,0-4.6,0.7-6.5,1.9
		c-0.3,0.2-0.4,0.6-0.2,0.9c0.2,0.3,0.6,0.4,0.9,0.2c1.7-1.1,3.7-1.7,5.7-1.7c2.5,0,4.8,0.8,6.7,2.4c1.4,1.2,2.5,2.7,3.1,4.4l-2-1.3
		c-0.3-0.2-0.7-0.1-0.9,0.2s-0.1,0.7,0.2,0.9l4.4,2.8c-2.8,1.9-5.9,2.5-9.3,1.7c-2.6-0.6-4.4-1.9-4.4-1.9c-0.2-0.2-0.6-0.2-0.8,0
		c-2.4,1.7-4.9,1.5-5.9,1.4c-0.4-0.1-0.7,0.2-0.8,0.6c-0.1,0.4,0.2,0.7,0.6,0.8c0.2,0,0.4,0.1,0.6,0.1l0.1,1c-0.1,0-0.3,0-0.4,0
		c-0.4,0-0.8,0.1-1.2,0.2l-0.2-0.8c-0.7-3.2,0.2-6.5,2.4-9c0.2-0.3,0.2-0.7-0.1-0.9s-0.7-0.2-0.9,0.1c-2.5,2.8-3.4,6.5-2.7,10.1
		l0.3,1.3c-0.6,0.6-0.9,1.4-0.9,2.3c0,1.8,1.5,3.3,3.3,3.3c0.4,0,0.8-0.1,1.2-0.2c0.5,2.8,2.4,5,5,5.9v1.1h-3.9
		c-1.3,0-2.5,0.4-3.6,1.1c-0.3,0.2-0.4,0.6-0.2,0.9c0.1,0.2,0.3,0.3,0.6,0.3c0.1,0,0.3,0,0.4-0.1c0.8-0.6,1.8-0.9,2.9-0.9h3.9v0.6
		c0,1.4,1.2,2.6,2.6,2.6s2.6-1.2,2.6-2.6v-0.6h3.6c2.8,0,5.1,2.3,5.1,5.1v10.6c0,0.4,0.3,0.7,0.7,0.7s0.7-0.3,0.7-0.7v-10.6
		C239.5,206.1,236.6,203.2,233.1,203.2z M235.8,195c-0.4,0-0.7-0.1-1-0.3l0.4-3.5c0.2-0.1,0.4-0.1,0.6-0.1c1.1,0,2,0.9,2,2
		S236.9,195,235.8,195z M237.1,189.3L237,190c-0.4-0.1-0.8-0.2-1.2-0.2c-0.1,0-0.3,0-0.4,0l0.1-0.6c0.6-0.2,1.2-0.4,1.8-0.7
		C237.2,188.7,237.2,189,237.1,189.3z M216.1,193.1c0-1.1,0.9-2,2-2c0.2,0,0.4,0,0.6,0.1l0.4,3.5c-0.3,0.2-0.7,0.3-1,0.3
		C217,195,216.1,194.2,216.1,193.1z M226.9,206.4c-0.7,0-1.3-0.6-1.3-1.3v-2.7c0.4,0.1,0.9,0.1,1.3,0.1s0.9,0,1.3-0.1v2.7
		C228.2,205.8,227.6,206.4,226.9,206.4z"/>
	<path class="st2" d="M215.5,206.6c-0.3-0.1-0.7,0-0.9,0.3c-0.4,0.8-0.6,1.7-0.6,2.6v10.6c0,0.4,0.3,0.7,0.7,0.7s0.7-0.3,0.7-0.7
		v-10.6c0-0.7,0.1-1.4,0.4-2.1C216,207.2,215.9,206.8,215.5,206.6z"/>
	<path class="st2" d="M222.9,191.9c-0.4,0-0.7,0.3-0.6,0.7l0,0.4c0,0.4,0.3,0.6,0.7,0.6c0,0,0,0,0,0c0.4,0,0.7-0.3,0.6-0.7l0-0.4
		C223.6,192.1,223.3,191.8,222.9,191.9z"/>
	<path class="st2" d="M230.6,191.9c-0.4,0-0.7,0.3-0.6,0.7l0,0.4c0,0.4,0.3,0.6,0.7,0.6c0,0,0,0,0,0c0.4,0,0.7-0.3,0.6-0.7l0-0.4
		C231.3,192.1,231,191.8,230.6,191.9z"/>
	<path class="st2" d="M228.6,195c-0.4,0.6-1.1,0.9-1.8,0.9s-1.4-0.3-1.8-0.9c-0.2-0.3-0.6-0.4-0.9-0.1c-0.3,0.2-0.4,0.6-0.1,0.9
		c0.7,0.9,1.7,1.5,2.9,1.5c1.1,0,2.2-0.6,2.9-1.5c0.2-0.3,0.1-0.7-0.1-0.9S228.8,194.7,228.6,195z"/>
	<path class="st2" d="M234.2,210.6c-0.4,0-0.7,0.3-0.7,0.7v2.9h-13.5v-2.9c0-0.4-0.3-0.7-0.7-0.7s-0.7,0.3-0.7,0.7v8.9
		c0,0.4,0.3,0.7,0.7,0.7s0.7-0.3,0.7-0.7v-4.7h13.5v4.7c0,0.4,0.3,0.7,0.7,0.7s0.7-0.3,0.7-0.7v-8.9
		C234.9,210.9,234.6,210.6,234.2,210.6z"/>
</g>
<g>
	<g>
		<g>
			<path class="st1" d="M234.6,268.2h-0.8v1.5h0.8c0.8,0,1.5,0.7,1.5,1.5c0,0.8-0.7,1.5-1.5,1.5h-0.8v1.5h0.8c1.7,0,3-1.4,3-3
				S236.3,268.2,234.6,268.2z"/>
		</g>
	</g>
	<g>
		<g>
			<path class="st1" d="M218,270.5h0.8v-1.5H218c-1.7,0-3,1.4-3,3s1.4,3,3,3h0.8v-1.5H218c-0.8,0-1.5-0.7-1.5-1.5
				C216.4,271.1,217.1,270.5,218,270.5z"/>
		</g>
	</g>
	<g>
		<g>
			<path class="st1" d="M225.6,273.5l0.6-5.2l-1.5-0.2l-0.8,6.1c0,0.2,0,0.4,0.2,0.6c0.1,0.2,0.4,0.3,0.6,0.3h2.3v-1.5L225.6,273.5
				L225.6,273.5z"/>
		</g>
	</g>
	<g>
		<g>
			<rect x="224" y="276.5" class="st1" width="4.5" height="1.5"/>
		</g>
	</g>
	<g>
		<g>
			<path class="st1" d="M235.3,267.8l-3-6.1c-0.1-0.2-0.3-0.3-0.4-0.4c-0.2-0.1-0.4,0-0.6,0.1l-13.6,7.6c-0.2,0.1-0.4,0.4-0.4,0.7
				v6.6c0,1.3,0.4,2.6,1.3,3.5l3.3,3.7c0.7,0.8,1.8,1.3,2.8,1.3h3.3c1.1,0,2.1-0.5,2.8-1.3l3.3-3.7c0.9-1,1.3-2.2,1.3-3.5v-8.2
				C235.4,268.1,235.4,268,235.3,267.8z M233.9,276.4C233.9,276.4,233.9,276.4,233.9,276.4c0,0.9-0.3,1.8-0.9,2.5l-3.3,3.7
				c-0.4,0.5-1.1,0.8-1.7,0.8h-3.3c-0.6,0-1.3-0.3-1.7-0.8l-3.3-3.7c-0.6-0.7-0.9-1.6-0.9-2.5v-6.2l12.5-7l2.6,5.2L233.9,276.4
				L233.9,276.4z"/>
		</g>
	</g>
	<g>
		<g>
			<circle class="st1" cx="221.8" cy="269.7" r="1.5"/>
		</g>
	</g>
	<g>
		<g>
			<circle class="st1" cx="230.1" cy="269.7" r="1.5"/>
		</g>
	</g>
	<g>
		<g>
			<path class="st1" d="M232.8,259.2c-2.5-2.8-6.5-3.8-10-2.6l-1.1,0.4c-4,1.4-6.5,5.3-6.1,9.5l0.2,4.1l1.5-0.1l-0.2-4.1
				c-0.3-3.5,1.8-6.8,5.1-8l1.1-0.4c3-1.1,6.5-0.1,8.5,2.4c0.1,0.1,0.3,0.2,0.5,0.3c2.2,0.4,3.7,2.4,3.5,4.5l-0.3,4.5l1.5,0.1
				l0.3-4.5C237.5,262.4,235.6,259.8,232.8,259.2z"/>
		</g>
	</g>
	<g>
		<g>
			<rect x="224" y="281.1" class="st1" width="1.5" height="3"/>
		</g>
	</g>
	<g>
		<g>
			<rect x="227.1" y="281.1" class="st1" width="1.5" height="2.3"/>
		</g>
	</g>
	<g>
		<g>
			
				<rect x="221.3" y="280.3" transform="matrix(0.4472 -0.8944 0.8944 0.4472 -128.6367 354.0315)" class="st1" width="1.7" height="1.5"/>
		</g>
	</g>
	<g>
		<g>
			
				<rect x="229.7" y="280.3" transform="matrix(0.9487 -0.3162 0.3162 0.9487 -77.177 87.3112)" class="st1" width="1.5" height="2.4"/>
		</g>
	</g>
	<g>
		<g>
			<path class="st1" d="M221,282.6v2.5c0,0.4-0.3,0.7-0.7,0.8l-4.8,0.6c-3.4,0.5-5.9,3.4-5.9,6.8v8.3h1.5v-8.3c0-2.6,2-4.9,4.6-5.3
				l4.8-0.6c1.1-0.1,2-1.1,2-2.3v-2.5L221,282.6L221,282.6z"/>
		</g>
	</g>
	<g>
		<g>
			<path class="st1" d="M237,286.4l-4.8-0.6c-0.4,0-0.7-0.4-0.7-0.8v-2.5h-1.5v2.5c0,1.1,0.8,2.1,2,2.3l4.8,0.6
				c2.6,0.4,4.6,2.6,4.6,5.2v8.3h1.5l0,0v-8.3C242.9,289.8,240.4,286.9,237,286.4z"/>
		</g>
	</g>
	<g>
		<g>
			<path class="st1" d="M232.4,286.1l-0.5,1.1c-1,2.3-3.2,3.7-5.6,3.7l0,0c-2.5,0-4.7-1.5-5.6-3.7l-0.5-1.1l-1.4,0.6l0.5,1.1
				c1.2,2.8,4,4.6,7,4.6l0,0c3.1,0,5.8-1.8,7-4.6l0.5-1.1L232.4,286.1z"/>
		</g>
	</g>
	<g>
		<g>
			<rect x="215.7" y="295.5" class="st1" width="1.5" height="6.1"/>
		</g>
	</g>
	<g>
		<g>
			<rect x="210.4" y="297" class="st1" width="6.1" height="1.5"/>
		</g>
	</g>
	<g>
		<g>
			<rect x="235.4" y="295.5" class="st1" width="1.5" height="6.1"/>
		</g>
	</g>
	<g>
		<g>
			<rect x="236.1" y="297" class="st1" width="6.1" height="1.5"/>
		</g>
	</g>
</g>
<g>
	<path class="st2" d="M240.5,349.3l-5.3-1.9l-7.8-3.1v-1.3c1.4-0.4,2.4-1.7,2.4-3.2c0-1.8-1.5-3.3-3.3-3.3s-3.3,1.5-3.3,3.3
		c0,0.5,0.4,0.9,0.9,0.9s0.9-0.4,0.9-0.9c0-0.8,0.7-1.5,1.5-1.5s1.5,0.7,1.5,1.5s-0.7,1.5-1.5,1.5c-0.5,0-0.9,0.4-0.9,0.9v2
		l-7.8,3.1l-5.3,1.9c-2.4,0.8-4,3.1-4,5.6v4.5c0,0.5,0.4,0.9,0.9,0.9h4.8v5.9c0,0.5,0.4,0.9,0.9,0.9s0.9-0.4,0.9-0.9v-6.8
		c0-0.5-0.4-0.9-0.9-0.9h-4.8v-3.6c0-1.8,1.1-3.4,2.8-3.9l4.3-1.5c0.6,3,3.2,5.3,6.4,5.3h0.6l-1.2,1.2c-0.4,0.4-0.4,0.9,0,1.3
		c0.2,0.2,0.4,0.3,0.6,0.3c0.2,0,0.4-0.1,0.6-0.3l2.1-2.1l2.5,2.5c0.2,0.2,0.4,0.3,0.6,0.3c0.2,0,0.4-0.1,0.6-0.3
		c0.4-0.4,0.4-0.9,0-1.3l-1.6-1.6h0.6c3.2,0,5.8-2.3,6.4-5.3l4.3,1.5c1.7,0.6,2.8,2.2,2.8,3.9v3.6H238c-0.5,0-0.9,0.4-0.9,0.9v21
		h-21v-7.3c0-0.5-0.4-0.9-0.9-0.9s-0.9,0.4-0.9,0.9v8.2c0,0.5,0.4,0.9,0.9,0.9H238c0.5,0,0.9-0.4,0.9-0.9v-21h4.8
		c0.5,0,0.9-0.4,0.9-0.9v-4.5C244.5,352.4,242.9,350.2,240.5,349.3z M229.3,353h-5.5c-2.4,0-4.4-1.8-4.7-4.1l7.4-3l7.4,3
		C233.7,351.2,231.7,353,229.3,353z"/>
	<path class="st2" d="M216.6,369.3c0.2,0,0.4-0.1,0.6-0.2c0.1-0.1,0.2-0.4,0.2-0.5s-0.1-0.4-0.2-0.5c-0.1-0.1-0.4-0.2-0.6-0.2
		s-0.4,0.1-0.6,0.2c-0.1,0.1-0.2,0.4-0.2,0.5s0.1,0.4,0.2,0.5C216.1,369.2,216.4,369.3,216.6,369.3z"/>
	<path class="st2" d="M226.6,360.2c0.2,0,0.4-0.1,0.6-0.2c0.1-0.1,0.2-0.4,0.2-0.5c0-0.2-0.1-0.4-0.2-0.5c-0.1-0.1-0.4-0.2-0.6-0.2
		c-0.2,0-0.4,0.1-0.6,0.2c-0.1,0.1-0.2,0.4-0.2,0.5s0.1,0.4,0.2,0.5C226.2,360.1,226.4,360.2,226.6,360.2z"/>
	<path class="st2" d="M226,365.3c0.1,0.1,0.4,0.2,0.6,0.2c0.2,0,0.4-0.1,0.6-0.2c0.1-0.1,0.2-0.4,0.2-0.5c0-0.2-0.1-0.4-0.2-0.5
		c-0.1-0.1-0.4-0.2-0.6-0.2c-0.2,0-0.4,0.1-0.6,0.2c-0.1,0.1-0.2,0.4-0.2,0.5C225.8,365,225.9,365.2,226,365.3z"/>
	<path class="st2" d="M226,370.7c0.1,0.1,0.4,0.2,0.6,0.2c0.2,0,0.4-0.1,0.6-0.2c0.1-0.1,0.2-0.4,0.2-0.5c0-0.2-0.1-0.4-0.2-0.5
		c-0.1-0.1-0.4-0.2-0.6-0.2c-0.2,0-0.4,0.1-0.6,0.2c-0.1,0.1-0.2,0.4-0.2,0.5C225.8,370.3,225.9,370.5,226,370.7z"/>
	<path class="st2" d="M226,376c0.1,0.1,0.4,0.2,0.6,0.2c0.2,0,0.4-0.1,0.6-0.2c0.1-0.1,0.2-0.4,0.2-0.5c0-0.2-0.1-0.4-0.2-0.5
		c-0.1-0.1-0.4-0.2-0.6-0.2c-0.2,0-0.4,0.1-0.6,0.2c-0.1,0.1-0.2,0.4-0.2,0.5C225.8,375.7,225.9,375.9,226,376z"/>
	<path class="st2" d="M234.1,370.5v-4.6c0-0.4-0.4-0.8-0.8-0.8s-0.8,0.4-0.8,0.8v4.6c0,0.4,0.4,0.8,0.8,0.8S234.1,370.9,234.1,370.5
		z"/>
	<path class="st2" d="M232.8,373.7c0.1,0.1,0.4,0.2,0.6,0.2s0.4-0.1,0.6-0.2c0.1-0.1,0.2-0.4,0.2-0.5s-0.1-0.4-0.2-0.5
		c-0.1-0.1-0.4-0.2-0.6-0.2s-0.4,0.1-0.6,0.2c-0.1,0.1-0.2,0.4-0.2,0.5S232.7,373.6,232.8,373.7z"/>
</g>
<rect x="60.5" y="4" class="st9" width="563" height="405"/>
</svg>
