<?xml version="1.0" encoding="utf-8"?>
<!-- Generator: Adobe Illustrator 23.0.5, SVG Export Plug-In . SVG Version: 6.00 Build 0)  -->
<svg version="1.1" id="Layer_1" xmlns="http://www.w3.org/2000/svg" xmlns:xlink="http://www.w3.org/1999/xlink" x="0px" y="0px"
	 viewBox="0 0 684 413" style="enable-background:new 0 0 684 413;" xml:space="preserve">
<style type="text/css">
	.st0{fill:none;}
	.st1{fill:#FBB040;}
	.st2{fill:#2C3E4F;}
	.st3{opacity:0.2;}
	.st4{fill:#FFFFFF;}
	.st5{fill:#F2F2F2;}
	.st6{fill:#FDD08D;}
	.st7{fill:#5C6A77;}
	.st8{fill:#374D63;}
	.st9{fill:none;stroke:#5C6A77;stroke-width:0.75;stroke-miterlimit:10;}
</style>
<g>
	<rect x="236.1" y="6.6" class="st0" width="211.8" height="88.7"/>
	<path class="st1" d="M279.1,24.3h-3.5V10.6h-4.5V7.7h12.5v2.9h-4.5L279.1,24.3L279.1,24.3z"/>
	<path class="st1" d="M296,19.7c0,1.5-0.5,2.7-1.6,3.5s-2.6,1.3-4.5,1.3c-1.8,0-3.3-0.3-4.7-1v-3.3c1.1,0.5,2.1,0.9,2.9,1.1
		c0.8,0.2,1.5,0.3,2.1,0.3c0.8,0,1.4-0.1,1.8-0.4c0.4-0.3,0.6-0.7,0.6-1.3c0-0.3-0.1-0.6-0.3-0.9s-0.5-0.5-0.8-0.7
		c-0.4-0.2-1.1-0.6-2.1-1.1c-1-0.5-1.8-0.9-2.3-1.4c-0.5-0.4-0.9-0.9-1.2-1.5c-0.3-0.6-0.5-1.3-0.5-2.1c0-1.5,0.5-2.6,1.5-3.5
		s2.4-1.3,4.1-1.3c0.9,0,1.7,0.1,2.5,0.3c0.8,0.2,1.6,0.5,2.5,0.9l-1.1,2.7c-0.9-0.4-1.6-0.6-2.2-0.8s-1.1-0.2-1.7-0.2
		c-0.7,0-1.2,0.2-1.5,0.5c-0.4,0.3-0.5,0.7-0.5,1.2c0,0.3,0.1,0.6,0.2,0.8c0.1,0.2,0.4,0.4,0.7,0.7c0.3,0.2,1.1,0.6,2.2,1.2
		c1.5,0.7,2.6,1.5,3.2,2.2C295.7,17.7,296,18.6,296,19.7z"/>
	<path class="st1" d="M299,7.7h5.2c2.4,0,4.1,0.3,5.1,1s1.6,1.7,1.6,3.2c0,1-0.2,1.8-0.7,2.4c-0.5,0.6-1.1,1-1.9,1.1v0.1
		c1,0.2,1.8,0.7,2.3,1.3c0.5,0.6,0.7,1.5,0.7,2.6c0,1.5-0.5,2.7-1.6,3.5c-1.1,0.9-2.6,1.3-4.5,1.3H299L299,7.7L299,7.7z M302.5,14.3
		h2c1,0,1.6-0.1,2.1-0.4c0.4-0.3,0.6-0.8,0.6-1.5c0-0.6-0.2-1.1-0.7-1.4s-1.2-0.4-2.2-0.4h-1.9V14.3z M302.5,17.1v4.3h2.3
		c1,0,1.7-0.2,2.1-0.6c0.5-0.4,0.7-0.9,0.7-1.7c0-1.4-1-2.1-3-2.1H302.5z"/>
	<path class="st1" d="M330.5,19.7c0,1.5-0.5,2.7-1.6,3.5s-2.6,1.3-4.5,1.3c-1.8,0-3.3-0.3-4.7-1v-3.3c1.1,0.5,2.1,0.9,2.9,1.1
		c0.8,0.2,1.5,0.3,2.1,0.3c0.8,0,1.4-0.1,1.8-0.4c0.4-0.3,0.6-0.7,0.6-1.3c0-0.3-0.1-0.6-0.3-0.9s-0.5-0.5-0.8-0.7
		c-0.4-0.2-1.1-0.6-2.1-1.1c-1-0.5-1.8-0.9-2.3-1.4c-0.5-0.4-0.9-0.9-1.2-1.5c-0.3-0.6-0.5-1.3-0.5-2.1c0-1.5,0.5-2.6,1.5-3.5
		s2.4-1.3,4.1-1.3c0.9,0,1.7,0.1,2.5,0.3c0.8,0.2,1.6,0.5,2.5,0.9l-1.1,2.7c-0.9-0.4-1.6-0.6-2.2-0.8s-1.1-0.2-1.7-0.2
		c-0.7,0-1.2,0.2-1.5,0.5c-0.4,0.3-0.5,0.7-0.5,1.2c0,0.3,0.1,0.6,0.2,0.8c0.1,0.2,0.4,0.4,0.7,0.7c0.3,0.2,1.1,0.6,2.2,1.2
		c1.5,0.7,2.6,1.5,3.2,2.2C330.2,17.7,330.5,18.6,330.5,19.7z"/>
	<path class="st1" d="M339,24.5c-2,0-3.6-0.6-4.8-1.7c-1.1-1.1-1.7-2.7-1.7-4.8c0-2.1,0.5-3.8,1.6-4.9c1.1-1.2,2.5-1.7,4.4-1.7
		c1.8,0,3.2,0.5,4.2,1.5s1.5,2.4,1.5,4.2v1.7H336c0,1,0.3,1.8,0.9,2.3s1.3,0.8,2.3,0.8c0.8,0,1.5-0.1,2.2-0.2s1.4-0.4,2.1-0.8v2.7
		c-0.6,0.3-1.3,0.5-1.9,0.7C340.8,24.5,340,24.5,339,24.5z M338.5,13.8c-0.7,0-1.3,0.2-1.7,0.7s-0.7,1.1-0.7,2h4.9
		c0-0.9-0.2-1.5-0.7-2C339.8,14.1,339.2,13.8,338.5,13.8z"/>
	<path class="st1" d="M354.1,11.4c0.5,0,0.9,0,1.2,0.1l-0.3,3.3c-0.3-0.1-0.6-0.1-1-0.1c-1.1,0-2,0.3-2.6,0.9s-0.9,1.4-0.9,2.4v6.5
		H347V11.6h2.6l0.5,2.1h0.2c0.4-0.7,0.9-1.3,1.6-1.7C352.6,11.6,353.3,11.4,354.1,11.4z"/>
	<path class="st1" d="M360.6,24.3l-4.8-12.7h3.6l2.5,7.2c0.3,0.9,0.4,1.8,0.5,2.6h0.1c0-0.7,0.2-1.6,0.5-2.6l2.4-7.2h3.6l-4.8,12.7
		H360.6z"/>
	<path class="st1" d="M370.6,8.3c0-1.1,0.6-1.7,1.9-1.7s1.9,0.6,1.9,1.7c0,0.5-0.2,1-0.5,1.3s-0.8,0.4-1.4,0.4
		C371.3,10,370.6,9.5,370.6,8.3z M374.3,24.3h-3.5V11.6h3.5V24.3z"/>
	<path class="st1" d="M383.1,24.5c-4,0-5.9-2.2-5.9-6.5c0-2.2,0.5-3.8,1.6-4.9c1.1-1.1,2.6-1.7,4.6-1.7c1.5,0,2.8,0.3,4,0.9l-1,2.7
		c-0.5-0.2-1-0.4-1.5-0.5s-0.9-0.2-1.4-0.2c-1.8,0-2.7,1.3-2.7,3.8c0,2.5,0.9,3.7,2.7,3.7c0.7,0,1.3-0.1,1.9-0.3s1.1-0.5,1.7-0.8v3
		c-0.6,0.4-1.1,0.6-1.7,0.7C384.6,24.5,383.9,24.5,383.1,24.5z"/>
	<path class="st1" d="M395.6,24.5c-2,0-3.6-0.6-4.8-1.7s-1.7-2.7-1.7-4.8c0-2.1,0.5-3.8,1.6-4.9c1.1-1.2,2.5-1.7,4.4-1.7
		c1.8,0,3.2,0.5,4.2,1.5s1.5,2.4,1.5,4.2v1.7h-8.2c0,1,0.3,1.8,0.9,2.3c0.5,0.5,1.3,0.8,2.3,0.8c0.8,0,1.5-0.1,2.2-0.2
		s1.4-0.4,2.1-0.8v2.7c-0.6,0.3-1.3,0.5-1.9,0.7C397.5,24.5,396.6,24.5,395.6,24.5z M395.1,13.8c-0.7,0-1.3,0.2-1.7,0.7
		s-0.7,1.1-0.7,2h4.9c0-0.9-0.2-1.5-0.7-2C396.5,14.1,395.9,13.8,395.1,13.8z"/>
	<path class="st1" d="M412.5,20.5c0,1.3-0.5,2.3-1.4,3s-2.3,1-4.1,1c-0.9,0-1.7-0.1-2.4-0.2s-1.3-0.3-1.8-0.5v-2.9
		c0.6,0.3,1.4,0.6,2.2,0.8s1.5,0.3,2.1,0.3c1.3,0,1.9-0.4,1.9-1.1c0-0.3-0.1-0.5-0.3-0.7c-0.2-0.2-0.5-0.4-0.9-0.6
		c-0.4-0.2-1-0.5-1.6-0.8c-1-0.4-1.7-0.8-2.1-1.1c-0.5-0.4-0.8-0.8-1-1.2s-0.3-1-0.3-1.7c0-1.1,0.4-2,1.3-2.6
		c0.9-0.6,2.1-0.9,3.7-0.9c1.5,0,3,0.3,4.5,1l-1,2.5c-0.6-0.3-1.2-0.5-1.8-0.7s-1.1-0.3-1.7-0.3c-1,0-1.5,0.3-1.5,0.8
		c0,0.3,0.2,0.6,0.5,0.8c0.3,0.2,1,0.6,2.2,1c1,0.4,1.7,0.8,2.2,1.1s0.8,0.8,1,1.2S412.5,19.9,412.5,20.5z"/>
	<path class="st2" d="M248.6,41.1h-1.1l-2-6.7c-0.1-0.3-0.2-0.7-0.3-1.1s-0.2-0.7-0.2-0.8c-0.1,0.6-0.3,1.3-0.5,2l-1.9,6.6h-1.1
		l-2.6-10h1.2l1.6,6.2c0.2,0.9,0.4,1.7,0.5,2.3c0.1-0.8,0.3-1.7,0.6-2.4l1.8-6.1h1.2l1.9,6.1c0.2,0.7,0.4,1.5,0.6,2.4
		c0.1-0.7,0.3-1.4,0.5-2.4l1.6-6.1h1.2L248.6,41.1z"/>
	<path class="st2" d="M255.8,41.2c-1.1,0-2-0.3-2.6-1c-0.6-0.7-1-1.6-1-2.8c0-1.2,0.3-2.2,0.9-2.9s1.4-1.1,2.4-1.1
		c0.9,0,1.7,0.3,2.2,0.9c0.5,0.6,0.8,1.4,0.8,2.4v0.7h-5.1c0,0.9,0.2,1.5,0.7,2c0.4,0.5,1,0.7,1.8,0.7c0.8,0,1.6-0.2,2.4-0.5v1
		c-0.4,0.2-0.8,0.3-1.1,0.4C256.8,41.2,256.3,41.2,255.8,41.2z M255.5,34.4c-0.6,0-1.1,0.2-1.4,0.6s-0.6,0.9-0.6,1.6h3.9
		c0-0.7-0.2-1.3-0.5-1.6C256.6,34.6,256.1,34.4,255.5,34.4z"/>
	<path class="st2" d="M270.6,37.3c0,1.2-0.3,2.2-0.9,2.8c-0.6,0.7-1.5,1-2.5,1c-0.7,0-1.3-0.2-1.8-0.5s-0.9-0.8-1.2-1.3
		s-0.4-1.3-0.4-2.1c0-1.2,0.3-2.2,0.9-2.8c0.6-0.7,1.5-1,2.5-1c1,0,1.9,0.3,2.5,1C270.3,35.2,270.6,36.1,270.6,37.3z M264.9,37.3
		c0,1,0.2,1.7,0.6,2.2s0.9,0.8,1.7,0.8s1.3-0.3,1.7-0.8c0.4-0.5,0.6-1.2,0.6-2.2c0-1-0.2-1.7-0.6-2.2s-1-0.7-1.7-0.7
		c-0.7,0-1.3,0.2-1.7,0.7C265.1,35.6,264.9,36.4,264.9,37.3z"/>
	<path class="st2" d="M275.9,34.5H274v6.6h-1.1v-6.6h-1.3V34l1.3-0.4v-0.4c0-1.8,0.8-2.8,2.4-2.8c0.4,0,0.9,0.1,1.4,0.2l-0.3,0.9
		c-0.4-0.1-0.8-0.2-1.1-0.2c-0.4,0-0.7,0.1-1,0.4c-0.2,0.3-0.3,0.7-0.3,1.4v0.5h1.9V34.5z M280.7,34.5h-1.9v6.6h-1.1v-6.6h-1.3V34
		l1.3-0.4v-0.4c0-1.8,0.8-2.8,2.4-2.8c0.4,0,0.9,0.1,1.4,0.2l-0.3,0.9c-0.4-0.1-0.8-0.2-1.1-0.2c-0.4,0-0.7,0.1-1,0.4
		c-0.2,0.3-0.3,0.7-0.3,1.4v0.5h1.9V34.5z"/>
	<path class="st2" d="M285.2,41.2c-1.1,0-2-0.3-2.6-1c-0.6-0.7-1-1.6-1-2.8c0-1.2,0.3-2.2,0.9-2.9s1.4-1.1,2.4-1.1
		c0.9,0,1.7,0.3,2.2,0.9c0.5,0.6,0.8,1.4,0.8,2.4v0.7h-5.1c0,0.9,0.2,1.5,0.7,2c0.4,0.5,1,0.7,1.8,0.7c0.8,0,1.6-0.2,2.4-0.5v1
		c-0.4,0.2-0.8,0.3-1.1,0.4C286.1,41.2,285.7,41.2,285.2,41.2z M284.9,34.4c-0.6,0-1.1,0.2-1.4,0.6c-0.4,0.4-0.6,0.9-0.6,1.6h3.9
		c0-0.7-0.2-1.3-0.5-1.6C285.9,34.6,285.5,34.4,284.9,34.4z"/>
	<path class="st2" d="M293.3,33.5c0.3,0,0.6,0,0.9,0.1l-0.2,1c-0.3-0.1-0.6-0.1-0.8-0.1c-0.6,0-1.1,0.3-1.5,0.7s-0.6,1.1-0.6,1.8v4
		h-1.1v-7.5h0.9l0.1,1.4h0c0.3-0.5,0.6-0.9,1-1.1S292.8,33.5,293.3,33.5z"/>
	<path class="st2" d="M303.8,41.1l-0.2-1.1h0c-0.4,0.5-0.7,0.8-1.1,1c-0.4,0.2-0.8,0.3-1.4,0.3c-0.7,0-1.3-0.2-1.7-0.6
		s-0.6-0.9-0.6-1.6c0-1.5,1.2-2.3,3.6-2.4l1.3,0v-0.5c0-0.6-0.1-1-0.4-1.3s-0.7-0.4-1.2-0.4c-0.6,0-1.3,0.2-2.1,0.6l-0.4-0.9
		c0.4-0.2,0.8-0.4,1.2-0.5s0.9-0.2,1.3-0.2c0.9,0,1.5,0.2,2,0.6c0.4,0.4,0.6,1,0.6,1.9v5.1C304.6,41.1,303.8,41.1,303.8,41.1z
		 M301.2,40.3c0.7,0,1.3-0.2,1.7-0.6c0.4-0.4,0.6-0.9,0.6-1.6v-0.7l-1.1,0c-0.9,0-1.5,0.2-2,0.4c-0.4,0.3-0.6,0.6-0.6,1.2
		c0,0.4,0.1,0.7,0.4,0.9C300.4,40.2,300.8,40.3,301.2,40.3z"/>
	<path class="st2" d="M314,34.5h-1.9v6.6h-1.1v-6.6h-1.3V34l1.3-0.4v-0.4c0-1.8,0.8-2.8,2.4-2.8c0.4,0,0.9,0.1,1.4,0.2l-0.3,0.9
		c-0.4-0.1-0.8-0.2-1.1-0.2c-0.4,0-0.7,0.1-1,0.4c-0.2,0.3-0.3,0.7-0.3,1.4v0.5h1.9V34.5z"/>
	<path class="st2" d="M319.9,41.1l-0.2-1.1h0c-0.4,0.5-0.7,0.8-1.1,1c-0.4,0.2-0.8,0.3-1.4,0.3c-0.7,0-1.3-0.2-1.7-0.6
		s-0.6-0.9-0.6-1.6c0-1.5,1.2-2.3,3.6-2.4l1.3,0v-0.5c0-0.6-0.1-1-0.4-1.3s-0.7-0.4-1.2-0.4c-0.6,0-1.3,0.2-2.1,0.6l-0.4-0.9
		c0.4-0.2,0.8-0.4,1.2-0.5s0.9-0.2,1.3-0.2c0.9,0,1.5,0.2,2,0.6c0.4,0.4,0.6,1,0.6,1.9v5.1C320.8,41.1,319.9,41.1,319.9,41.1z
		 M317.4,40.3c0.7,0,1.3-0.2,1.7-0.6c0.4-0.4,0.6-0.9,0.6-1.6v-0.7l-1.1,0c-0.9,0-1.5,0.2-2,0.4c-0.4,0.3-0.6,0.6-0.6,1.2
		c0,0.4,0.1,0.7,0.4,0.9C316.6,40.2,316.9,40.3,317.4,40.3z"/>
	<path class="st2" d="M327.9,39c0,0.7-0.3,1.2-0.8,1.6s-1.3,0.6-2.2,0.6c-1,0-1.8-0.2-2.3-0.5v-1c0.4,0.2,0.7,0.3,1.2,0.4
		c0.4,0.1,0.8,0.2,1.2,0.2c0.6,0,1-0.1,1.4-0.3c0.3-0.2,0.5-0.5,0.5-0.9c0-0.3-0.1-0.5-0.4-0.8s-0.7-0.5-1.5-0.7
		c-0.7-0.3-1.2-0.5-1.5-0.7c-0.3-0.2-0.5-0.4-0.6-0.7c-0.1-0.3-0.2-0.5-0.2-0.9c0-0.6,0.3-1.1,0.7-1.4c0.5-0.3,1.2-0.5,2-0.5
		c0.8,0,1.6,0.2,2.4,0.5l-0.4,0.9c-0.8-0.3-1.4-0.5-2-0.5c-0.5,0-0.9,0.1-1.2,0.3s-0.4,0.4-0.4,0.7c0,0.2,0,0.4,0.1,0.5
		s0.3,0.3,0.5,0.4c0.2,0.1,0.7,0.3,1.3,0.5c0.9,0.3,1.5,0.7,1.8,1C327.8,38.1,327.9,38.5,327.9,39z"/>
	<path class="st2" d="M332.7,41.2c-1.1,0-1.9-0.3-2.5-1s-0.9-1.6-0.9-2.8c0-1.3,0.3-2.2,0.9-2.9s1.5-1,2.6-1c0.4,0,0.7,0,1.1,0.1
		c0.4,0.1,0.6,0.2,0.9,0.3l-0.4,1c-0.3-0.1-0.5-0.2-0.8-0.3s-0.6-0.1-0.8-0.1c-1.5,0-2.3,1-2.3,2.9c0,0.9,0.2,1.6,0.6,2.1
		s0.9,0.7,1.6,0.7c0.6,0,1.3-0.1,1.9-0.4v1C334.1,41.1,333.5,41.2,332.7,41.2z"/>
	<path class="st2" d="M336.3,31.6c0-0.3,0.1-0.5,0.2-0.6c0.1-0.1,0.3-0.2,0.5-0.2c0.2,0,0.3,0.1,0.5,0.2s0.2,0.3,0.2,0.6
		c0,0.3-0.1,0.4-0.2,0.6s-0.3,0.2-0.5,0.2c-0.2,0-0.4-0.1-0.5-0.2S336.3,31.8,336.3,31.6z M337.5,41.1h-1.1v-7.5h1.1V41.1z"/>
	<path class="st2" d="M345,41.1v-4.8c0-0.6-0.1-1.1-0.4-1.4s-0.7-0.5-1.3-0.5c-0.8,0-1.4,0.2-1.7,0.6c-0.4,0.4-0.5,1.1-0.5,2.1v3.9
		h-1.1v-7.5h0.9l0.2,1h0c0.2-0.4,0.6-0.7,1-0.9c0.4-0.2,0.9-0.3,1.4-0.3c0.9,0,1.6,0.2,2,0.7s0.7,1.1,0.7,2.1v4.9
		C346.2,41.1,345,41.1,345,41.1z"/>
	<path class="st2" d="M353.1,41.1l-0.2-1.1h0c-0.4,0.5-0.7,0.8-1.1,1c-0.4,0.2-0.8,0.3-1.4,0.3c-0.7,0-1.3-0.2-1.7-0.6
		c-0.4-0.4-0.6-0.9-0.6-1.6c0-1.5,1.2-2.3,3.6-2.4l1.3,0v-0.5c0-0.6-0.1-1-0.4-1.3s-0.7-0.4-1.2-0.4c-0.6,0-1.3,0.2-2.1,0.6
		l-0.4-0.9c0.4-0.2,0.8-0.4,1.2-0.5s0.9-0.2,1.3-0.2c0.9,0,1.5,0.2,2,0.6c0.4,0.4,0.6,1,0.6,1.9v5.1
		C353.9,41.1,353.1,41.1,353.1,41.1z M350.5,40.3c0.7,0,1.3-0.2,1.7-0.6c0.4-0.4,0.6-0.9,0.6-1.6v-0.7l-1.1,0c-0.9,0-1.5,0.2-2,0.4
		c-0.4,0.3-0.6,0.6-0.6,1.2c0,0.4,0.1,0.7,0.4,0.9C349.7,40.2,350.1,40.3,350.5,40.3z"/>
	<path class="st2" d="M358.7,40.3c0.2,0,0.4,0,0.6,0c0.2,0,0.3-0.1,0.4-0.1V41c-0.1,0.1-0.3,0.1-0.5,0.2c-0.2,0-0.5,0.1-0.6,0.1
		c-1.5,0-2.2-0.8-2.2-2.3v-4.5h-1.1v-0.5l1.1-0.5l0.5-1.6h0.6v1.7h2.2v0.9h-2.2v4.4c0,0.5,0.1,0.8,0.3,1
		C358,40.2,358.3,40.3,358.7,40.3z"/>
	<path class="st2" d="M361.1,31.6c0-0.3,0.1-0.5,0.2-0.6c0.1-0.1,0.3-0.2,0.5-0.2c0.2,0,0.3,0.1,0.5,0.2s0.2,0.3,0.2,0.6
		c0,0.3-0.1,0.4-0.2,0.6s-0.3,0.2-0.5,0.2c-0.2,0-0.4-0.1-0.5-0.2C361.2,32,361.1,31.8,361.1,31.6z M362.3,41.1h-1.1v-7.5h1.1V41.1z
		"/>
	<path class="st2" d="M369.8,41.1v-4.8c0-0.6-0.1-1.1-0.4-1.4s-0.7-0.5-1.3-0.5c-0.8,0-1.4,0.2-1.7,0.6c-0.4,0.4-0.5,1.1-0.5,2.1
		v3.9h-1.1v-7.5h0.9l0.2,1h0c0.2-0.4,0.6-0.7,1-0.9c0.4-0.2,0.9-0.3,1.4-0.3c0.9,0,1.6,0.2,2,0.7s0.7,1.1,0.7,2.1v4.9
		C371,41.1,369.8,41.1,369.8,41.1z"/>
	<path class="st2" d="M379.4,33.6v0.7l-1.4,0.2c0.1,0.2,0.2,0.4,0.3,0.6s0.1,0.5,0.1,0.9c0,0.7-0.3,1.3-0.8,1.8s-1.2,0.7-2.1,0.7
		c-0.2,0-0.4,0-0.6,0c-0.5,0.3-0.7,0.6-0.7,1c0,0.2,0.1,0.4,0.3,0.5s0.5,0.2,0.9,0.2h1.3c0.8,0,1.4,0.2,1.9,0.5
		c0.4,0.3,0.6,0.8,0.6,1.5c0,0.8-0.3,1.5-1,1.9c-0.7,0.4-1.6,0.7-2.9,0.7c-1,0-1.7-0.2-2.3-0.5c-0.5-0.4-0.8-0.9-0.8-1.5
		c0-0.5,0.1-0.8,0.4-1.2s0.7-0.6,1.2-0.7c-0.2-0.1-0.4-0.2-0.5-0.4s-0.2-0.4-0.2-0.6c0-0.3,0.1-0.5,0.2-0.7c0.1-0.2,0.4-0.4,0.7-0.6
		c-0.4-0.2-0.7-0.4-0.9-0.8S373,36.5,373,36c0-0.8,0.3-1.5,0.7-1.9s1.2-0.7,2.1-0.7c0.4,0,0.7,0,1.1,0.1
		C376.9,33.6,379.4,33.6,379.4,33.6z M373.5,42.3c0,0.4,0.2,0.7,0.5,0.9s0.8,0.3,1.5,0.3c1,0,1.6-0.1,2.1-0.4s0.7-0.7,0.7-1.2
		c0-0.4-0.1-0.7-0.4-0.8c-0.3-0.2-0.7-0.2-1.4-0.2h-1.4c-0.5,0-0.9,0.1-1.2,0.4S373.5,41.9,373.5,42.3z M374.1,36
		c0,0.5,0.1,0.9,0.4,1.2c0.3,0.3,0.7,0.4,1.2,0.4c1.1,0,1.7-0.5,1.7-1.6c0-1.1-0.6-1.7-1.7-1.7c-0.5,0-0.9,0.1-1.2,0.4
		C374.2,35,374.1,35.4,374.1,36z"/>
	<path class="st2" d="M387.5,41.2c-1.1,0-1.9-0.3-2.5-1s-0.9-1.6-0.9-2.8c0-1.3,0.3-2.2,0.9-2.9s1.5-1,2.6-1c0.4,0,0.7,0,1.1,0.1
		c0.4,0.1,0.6,0.2,0.8,0.3l-0.4,1c-0.3-0.1-0.5-0.2-0.8-0.3c-0.3-0.1-0.6-0.1-0.8-0.1c-1.5,0-2.3,1-2.3,2.9c0,0.9,0.2,1.6,0.6,2.1
		c0.4,0.5,0.9,0.7,1.6,0.7c0.6,0,1.3-0.1,1.9-0.4v1C388.9,41.1,388.3,41.2,387.5,41.2z"/>
	<path class="st2" d="M397.7,37.3c0,1.2-0.3,2.2-0.9,2.8s-1.5,1-2.5,1c-0.7,0-1.3-0.2-1.8-0.5s-0.9-0.8-1.2-1.3s-0.4-1.3-0.4-2.1
		c0-1.2,0.3-2.2,0.9-2.8c0.6-0.7,1.5-1,2.5-1c1,0,1.9,0.3,2.5,1C397.4,35.2,397.7,36.1,397.7,37.3z M392,37.3c0,1,0.2,1.7,0.6,2.2
		s0.9,0.8,1.7,0.8s1.3-0.3,1.7-0.8c0.4-0.5,0.6-1.2,0.6-2.2c0-1-0.2-1.7-0.6-2.2c-0.4-0.5-1-0.7-1.7-0.7c-0.7,0-1.3,0.2-1.7,0.7
		S392,36.4,392,37.3z"/>
	<path class="st2" d="M400.8,41.1h-1.1V30.5h1.1V41.1z"/>
	<path class="st2" d="M404.3,41.1h-1.1V30.5h1.1V41.1z"/>
	<path class="st2" d="M409.9,41.2c-1.1,0-2-0.3-2.6-1c-0.6-0.7-1-1.6-1-2.8c0-1.2,0.3-2.2,0.9-2.9s1.4-1.1,2.4-1.1
		c0.9,0,1.7,0.3,2.2,0.9c0.5,0.6,0.8,1.4,0.8,2.4v0.7h-5.1c0,0.9,0.2,1.5,0.7,2c0.4,0.5,1,0.7,1.8,0.7c0.8,0,1.6-0.2,2.4-0.5v1
		c-0.4,0.2-0.8,0.3-1.1,0.4C410.8,41.2,410.4,41.2,409.9,41.2z M409.6,34.4c-0.6,0-1.1,0.2-1.4,0.6c-0.4,0.4-0.6,0.9-0.6,1.6h3.9
		c0-0.7-0.2-1.3-0.5-1.6C410.6,34.6,410.1,34.4,409.6,34.4z"/>
	<path class="st2" d="M417.5,41.2c-1.1,0-1.9-0.3-2.5-1s-0.9-1.6-0.9-2.8c0-1.3,0.3-2.2,0.9-2.9s1.5-1,2.6-1c0.4,0,0.7,0,1.1,0.1
		c0.4,0.1,0.6,0.2,0.8,0.3l-0.4,1c-0.3-0.1-0.5-0.2-0.8-0.3c-0.3-0.1-0.6-0.1-0.8-0.1c-1.5,0-2.3,1-2.3,2.9c0,0.9,0.2,1.6,0.6,2.1
		c0.4,0.5,0.9,0.7,1.6,0.7c0.6,0,1.3-0.1,1.9-0.4v1C418.9,41.1,418.3,41.2,417.5,41.2z"/>
	<path class="st2" d="M423.6,40.3c0.2,0,0.4,0,0.6,0c0.2,0,0.3-0.1,0.4-0.1V41c-0.1,0.1-0.3,0.1-0.5,0.2c-0.2,0-0.5,0.1-0.6,0.1
		c-1.5,0-2.2-0.8-2.2-2.3v-4.5h-1.1v-0.5l1.1-0.5l0.5-1.6h0.6v1.7h2.2v0.9h-2.2v4.4c0,0.5,0.1,0.8,0.3,1
		C422.9,40.2,423.2,40.3,423.6,40.3z"/>
	<path class="st2" d="M426,31.6c0-0.3,0.1-0.5,0.2-0.6c0.1-0.1,0.3-0.2,0.5-0.2c0.2,0,0.3,0.1,0.5,0.2s0.2,0.3,0.2,0.6
		c0,0.3-0.1,0.4-0.2,0.6s-0.3,0.2-0.5,0.2c-0.2,0-0.4-0.1-0.5-0.2C426.1,32,426,31.8,426,31.6z M427.3,41.1h-1.1v-7.5h1.1V41.1z"/>
	<path class="st2" d="M436.1,37.3c0,1.2-0.3,2.2-0.9,2.8s-1.5,1-2.5,1c-0.7,0-1.3-0.2-1.8-0.5s-0.9-0.8-1.2-1.3s-0.4-1.3-0.4-2.1
		c0-1.2,0.3-2.2,0.9-2.8c0.6-0.7,1.5-1,2.5-1c1,0,1.9,0.3,2.5,1C435.8,35.2,436.1,36.1,436.1,37.3z M430.4,37.3c0,1,0.2,1.7,0.6,2.2
		s0.9,0.8,1.7,0.8s1.3-0.3,1.7-0.8c0.4-0.5,0.6-1.2,0.6-2.2c0-1-0.2-1.7-0.6-2.2c-0.4-0.5-1-0.7-1.7-0.7c-0.7,0-1.3,0.2-1.7,0.7
		S430.4,36.4,430.4,37.3z"/>
	<path class="st2" d="M443.2,41.1v-4.8c0-0.6-0.1-1.1-0.4-1.4s-0.7-0.5-1.3-0.5c-0.8,0-1.4,0.2-1.7,0.6c-0.4,0.4-0.5,1.1-0.5,2.1
		v3.9h-1.1v-7.5h0.9l0.2,1h0c0.2-0.4,0.6-0.7,1-0.9c0.4-0.2,0.9-0.3,1.4-0.3c0.9,0,1.6,0.2,2,0.7s0.7,1.1,0.7,2.1v4.9
		C444.3,41.1,443.2,41.1,443.2,41.1z"/>
	<path class="st2" d="M309,54.1c0,1.2-0.3,2.2-0.9,2.8c-0.6,0.7-1.5,1-2.5,1c-0.7,0-1.3-0.2-1.8-0.5s-0.9-0.8-1.2-1.3
		s-0.4-1.3-0.4-2.1c0-1.2,0.3-2.2,0.9-2.8c0.6-0.7,1.5-1,2.5-1c1,0,1.9,0.3,2.5,1C308.7,52,309,52.9,309,54.1z M303.4,54.1
		c0,1,0.2,1.7,0.6,2.2s0.9,0.8,1.7,0.8s1.3-0.3,1.7-0.8c0.4-0.5,0.6-1.2,0.6-2.2c0-1-0.2-1.7-0.6-2.2s-1-0.7-1.7-0.7
		c-0.7,0-1.3,0.2-1.7,0.7C303.5,52.4,303.4,53.1,303.4,54.1z"/>
	<path class="st2" d="M314.4,51.2h-1.9v6.6h-1.1v-6.6H310v-0.5l1.3-0.4v-0.4c0-1.8,0.8-2.8,2.4-2.8c0.4,0,0.9,0.1,1.4,0.2l-0.3,0.9
		c-0.4-0.1-0.8-0.2-1.1-0.2c-0.4,0-0.7,0.1-1,0.4c-0.2,0.3-0.3,0.7-0.3,1.4v0.5h1.9V51.2z"/>
	<path class="st2" d="M326.8,57.8h-1.4l-3.6-4.8l-1,0.9v3.9h-1.2v-10h1.2v4.9l4.5-4.9h1.4l-4,4.3L326.8,57.8z"/>
	<path class="st2" d="M333.1,57.8V53c0-0.6-0.1-1.1-0.4-1.4s-0.7-0.5-1.3-0.5c-0.8,0-1.4,0.2-1.7,0.6c-0.4,0.4-0.5,1.1-0.5,2.1v3.9
		H328v-7.5h0.9l0.2,1h0c0.2-0.4,0.6-0.7,1-0.9c0.4-0.2,0.9-0.3,1.4-0.3c0.9,0,1.6,0.2,2,0.7s0.7,1.1,0.7,2.1v4.9
		C334.2,57.8,333.1,57.8,333.1,57.8z"/>
	<path class="st2" d="M336.4,48.3c0-0.3,0.1-0.5,0.2-0.6s0.3-0.2,0.5-0.2c0.2,0,0.3,0.1,0.5,0.2s0.2,0.3,0.2,0.6
		c0,0.3-0.1,0.4-0.2,0.6s-0.3,0.2-0.5,0.2c-0.2,0-0.4-0.1-0.5-0.2S336.4,48.6,336.4,48.3z M337.7,57.8h-1.1v-7.5h1.1V57.8z"/>
	<path class="st2" d="M342.5,57c0.2,0,0.4,0,0.6,0c0.2,0,0.3-0.1,0.4-0.1v0.9c-0.1,0.1-0.3,0.1-0.5,0.2c-0.2,0-0.5,0.1-0.6,0.1
		c-1.5,0-2.2-0.8-2.2-2.3v-4.5h-1.1v-0.5l1.1-0.5l0.5-1.6h0.6v1.7h2.2v0.9h-2.2v4.4c0,0.5,0.1,0.8,0.3,1
		C341.8,56.9,342.1,57,342.5,57z"/>
	<path class="st2" d="M351.1,57.8l-1.4-4.4c-0.1-0.3-0.3-0.9-0.5-1.8h0c-0.2,0.8-0.3,1.4-0.5,1.8l-1.4,4.4H346l-2-7.5h1.2
		c0.5,1.9,0.9,3.3,1.1,4.3s0.4,1.6,0.4,2h0c0-0.3,0.1-0.6,0.2-1s0.2-0.7,0.3-1l1.4-4.3h1.2l1.3,4.3c0.3,0.8,0.4,1.4,0.5,2h0
		c0-0.2,0.1-0.4,0.1-0.8s0.5-2.2,1.4-5.5h1.2l-2.1,7.5L351.1,57.8L351.1,57.8z"/>
	<path class="st2" d="M359,58c-1.1,0-2-0.3-2.6-1c-0.6-0.7-1-1.6-1-2.8c0-1.2,0.3-2.2,0.9-2.9s1.4-1.1,2.4-1.1
		c0.9,0,1.7,0.3,2.2,0.9c0.5,0.6,0.8,1.4,0.8,2.4v0.7h-5.1c0,0.9,0.2,1.5,0.7,2c0.4,0.5,1,0.7,1.8,0.7c0.8,0,1.6-0.2,2.4-0.5v1
		c-0.4,0.2-0.8,0.3-1.1,0.4C359.9,57.9,359.5,58,359,58z M358.7,51.2c-0.6,0-1.1,0.2-1.4,0.6c-0.4,0.4-0.6,0.9-0.6,1.6h3.9
		c0-0.7-0.2-1.3-0.5-1.6C359.7,51.4,359.3,51.2,358.7,51.2z"/>
	<path class="st2" d="M368.3,57.8l-0.2-1.1H368c-0.4,0.5-0.7,0.8-1.1,1c-0.4,0.2-0.8,0.3-1.4,0.3c-0.7,0-1.3-0.2-1.7-0.6
		c-0.4-0.4-0.6-0.9-0.6-1.6c0-1.5,1.2-2.3,3.6-2.4l1.3,0v-0.5c0-0.6-0.1-1-0.4-1.3s-0.7-0.4-1.2-0.4c-0.6,0-1.3,0.2-2.1,0.6
		l-0.4-0.9c0.4-0.2,0.8-0.4,1.2-0.5s0.9-0.2,1.3-0.2c0.9,0,1.5,0.2,2,0.6c0.4,0.4,0.6,1,0.6,1.9v5.1
		C369.1,57.8,368.3,57.8,368.3,57.8z M365.7,57c0.7,0,1.3-0.2,1.7-0.6c0.4-0.4,0.6-0.9,0.6-1.6v-0.7l-1.1,0c-0.9,0-1.5,0.2-2,0.4
		c-0.4,0.3-0.6,0.6-0.6,1.2c0,0.4,0.1,0.7,0.4,0.9C364.9,56.9,365.3,57,365.7,57z"/>
	<path class="st2" d="M374.9,50.2c0.3,0,0.6,0,0.9,0.1l-0.2,1c-0.3-0.1-0.6-0.1-0.8-0.1c-0.6,0-1.1,0.3-1.5,0.7s-0.6,1.1-0.6,1.8v4
		h-1.1v-7.5h0.9l0.1,1.4h0c0.3-0.5,0.6-0.9,1-1.1S374.4,50.2,374.9,50.2z"/>
	<path class="st2" d="M382,55.8c0,0.7-0.3,1.2-0.8,1.6S379.9,58,379,58c-1,0-1.8-0.2-2.3-0.5v-1c0.4,0.2,0.7,0.3,1.2,0.4
		c0.4,0.1,0.8,0.2,1.2,0.2c0.6,0,1-0.1,1.4-0.3s0.5-0.5,0.5-0.9c0-0.3-0.1-0.5-0.4-0.8s-0.7-0.5-1.5-0.7c-0.7-0.3-1.2-0.5-1.5-0.7
		c-0.3-0.2-0.5-0.4-0.6-0.7c-0.1-0.3-0.2-0.5-0.2-0.9c0-0.6,0.3-1.1,0.7-1.4c0.5-0.3,1.2-0.5,2-0.5c0.8,0,1.6,0.2,2.4,0.5l-0.4,0.9
		c-0.8-0.3-1.4-0.5-2-0.5c-0.5,0-0.9,0.1-1.2,0.3s-0.4,0.4-0.4,0.7c0,0.2,0,0.4,0.1,0.5s0.3,0.3,0.5,0.4c0.2,0.1,0.7,0.3,1.3,0.5
		c0.9,0.3,1.5,0.7,1.8,1C381.8,54.9,382,55.3,382,55.8z"/>
</g>
<g class="st3">
	
		<image style="overflow:visible;enable-background:new    ;" width="1529" height="1588" xlink:href="5FCAC3B1.png"  transform="matrix(0.2391 0 0 0.2391 172.7733 52.8)">
	</image>
</g>
<path class="st4" d="M502.4,369.7c0,13.8-11.2,25-25,25H233.6c-13.8,0-25-11.2-25-25V112.4c0-13.8,11.2-25,25-25h243.7
	c13.8,0,25,11.2,25,25L502.4,369.7L502.4,369.7z"/>
<rect x="208.6" y="164.2" class="st5" width="293.8" height="76.8"/>
<path class="st5" d="M208.6,369.7c0,13.8,11.2,25,25,25h243.7c13.8,0,25-11.2,25-25v-51.8H208.6V369.7z"/>
<g class="st3">
	
		<image style="overflow:visible;enable-background:new    ;" width="683" height="1692" xlink:href="5FCAC3B7.png"  transform="matrix(0.2386 0 0 0.2386 147.12 38.2691)">
	</image>
</g>
<ellipse class="st6" cx="226.9" cy="117.6" rx="45.3" ry="45.3"/>
<path class="st1" d="M254.2,94.7l-59.3,37.7l18.2,28.3c4.4,1.4,9,2.2,13.9,2.2c23.4,0,42.6-17.7,45-40.4L254.2,94.7z"/>
<ellipse transform="matrix(0.1602 -0.9871 0.9871 0.1602 74.5462 322.7386)" class="st4" cx="226.9" cy="117.6" rx="35.3" ry="35.3"/>
<circle class="st7" cx="226.9" cy="198.2" r="45.3"/>
<path class="st2" d="M254.2,175.4L194.9,213l18.2,28.3c4.4,1.4,9,2.2,13.9,2.2c23.4,0,42.6-17.7,45-40.4L254.2,175.4z"/>
<ellipse transform="matrix(0.3162 -0.9487 0.9487 0.3162 -32.8143 350.7931)" class="st4" cx="226.9" cy="198.2" rx="35.3" ry="35.3"/>
<ellipse class="st6" cx="226.9" cy="278.8" rx="45.3" ry="45.3"/>
<path class="st1" d="M254.2,256l-59.3,37.7l18.2,28.3c4.4,1.4,9,2.2,13.9,2.2c23.4,0,42.6-17.7,45-40.4L254.2,256z"/>
<ellipse class="st4" cx="226.9" cy="278.8" rx="35.3" ry="35.3"/>
<ellipse class="st7" cx="226.9" cy="359.4" rx="45.3" ry="45.3"/>
<path class="st2" d="M254.2,336.6l-59.3,37.7l18.2,28.3c4.4,1.4,9,2.2,13.9,2.2c23.4,0,42.6-17.7,45-40.4L254.2,336.6z"/>
<ellipse class="st4" cx="226.9" cy="359.4" rx="35.3" ry="35.3"/>
<g>
	<rect x="285.3" y="95.3" class="st0" width="165.1" height="52.6"/>
	<path class="st2" d="M296.4,108.5h-2.3l-3.9-5.6l-1.2,1v4.6h-2V96.1h2v5.9c0.5-0.7,1.1-1.3,1.6-1.9l3.3-3.9h2.3
		c-2.2,2.5-3.7,4.3-4.6,5.4L296.4,108.5z"/>
	<path class="st2" d="M306.1,108.5h-2v-5.8c0-0.7-0.1-1.3-0.4-1.6s-0.8-0.5-1.4-0.5c-0.8,0-1.5,0.3-1.8,0.7
		c-0.4,0.5-0.6,1.3-0.6,2.5v4.7h-2v-9.3h1.6l0.3,1.2h0.1c0.3-0.4,0.7-0.8,1.2-1c0.5-0.2,1.1-0.4,1.7-0.4c2.2,0,3.4,1.1,3.4,3.4
		L306.1,108.5L306.1,108.5z"/>
	<path class="st2" d="M308.7,96.6c0-0.4,0.1-0.6,0.3-0.8s0.5-0.3,0.8-0.3c0.4,0,0.6,0.1,0.8,0.3c0.2,0.2,0.3,0.5,0.3,0.8
		c0,0.3-0.1,0.6-0.3,0.8c-0.2,0.2-0.5,0.3-0.8,0.3c-0.4,0-0.6-0.1-0.8-0.3C308.8,97.3,308.7,97,308.7,96.6z M310.8,108.5h-2v-9.3h2
		V108.5z"/>
	<path class="st2" d="M317.1,107c0.5,0,1-0.1,1.5-0.2v1.5c-0.2,0.1-0.5,0.2-0.9,0.2s-0.7,0.1-1.1,0.1c-1.9,0-2.8-1-2.8-3v-5h-1.3
		v-0.9l1.4-0.7l0.7-2h1.2v2.1h2.7v1.5h-2.7v5c0,0.5,0.1,0.8,0.4,1.1C316.4,106.9,316.8,107,317.1,107z"/>
	<path class="st2" d="M328.1,108.5l-1.2-4.4c-0.1-0.5-0.4-1.5-0.8-3.2h-0.1c-0.3,1.5-0.6,2.6-0.8,3.2l-1.2,4.3h-2.2l-2.6-9.3h2
		l1.2,4.6c0.3,1.1,0.5,2.1,0.6,2.9h0c0.1-0.4,0.1-0.9,0.3-1.4c0.1-0.5,0.2-0.9,0.3-1.2l1.4-4.9h2.2l1.4,4.9c0.1,0.3,0.2,0.7,0.3,1.3
		s0.2,1,0.2,1.3h0.1c0.1-0.7,0.3-1.7,0.6-2.9l1.2-4.6h2l-2.6,9.3L328.1,108.5L328.1,108.5z"/>
	<path class="st2" d="M338.7,108.6c-1.5,0-2.6-0.4-3.4-1.3s-1.2-2-1.2-3.5c0-1.5,0.4-2.7,1.1-3.6s1.8-1.3,3.1-1.3
		c1.2,0,2.2,0.4,2.9,1.1s1.1,1.8,1.1,3.1v1.1h-6.2c0,0.9,0.3,1.6,0.7,2.1c0.5,0.5,1.1,0.7,2,0.7c0.5,0,1.1-0.1,1.5-0.2
		c0.5-0.1,1-0.3,1.5-0.5v1.6c-0.5,0.2-1,0.4-1.5,0.5S339.3,108.6,338.7,108.6z M338.3,100.4c-0.6,0-1.1,0.2-1.5,0.6
		c-0.4,0.4-0.6,1-0.7,1.8h4.3c0-0.8-0.2-1.4-0.6-1.8S339,100.4,338.3,100.4z"/>
	<path class="st2" d="M350.5,108.5l-0.4-1.3H350c-0.5,0.6-0.9,1-1.4,1.2c-0.5,0.2-1,0.3-1.8,0.3c-0.9,0-1.6-0.3-2.1-0.7
		s-0.8-1.2-0.8-2.1c0-1,0.4-1.7,1.1-2.2c0.7-0.5,1.8-0.8,3.3-0.8l1.6-0.1v-0.5c0-0.6-0.1-1-0.4-1.3s-0.7-0.4-1.3-0.4
		c-0.5,0-0.9,0.1-1.4,0.2s-0.9,0.3-1.3,0.5l-0.6-1.4c0.5-0.3,1.1-0.5,1.7-0.6c0.6-0.1,1.2-0.2,1.7-0.2c1.2,0,2.1,0.3,2.7,0.8
		c0.6,0.5,0.9,1.3,0.9,2.4v6.3L350.5,108.5L350.5,108.5z M347.5,107.1c0.7,0,1.3-0.2,1.7-0.6s0.7-1,0.7-1.7V104l-1.2,0.1
		c-0.9,0-1.6,0.2-2,0.5c-0.4,0.3-0.6,0.7-0.6,1.3c0,0.4,0.1,0.7,0.4,1C346.6,107,347,107.1,347.5,107.1z"/>
	<path class="st2" d="M359.4,98.9c0.4,0,0.7,0,1,0.1l-0.2,1.8c-0.3-0.1-0.6-0.1-0.9-0.1c-0.8,0-1.4,0.3-1.9,0.8s-0.7,1.2-0.7,2v4.9
		h-2v-9.3h1.6l0.3,1.7h0.1c0.3-0.6,0.7-1,1.2-1.3C358.3,99.1,358.8,98.9,359.4,98.9z"/>
	<path class="st2" d="M368.4,105.8c0,0.9-0.3,1.6-1,2.1s-1.6,0.7-2.9,0.7c-1.3,0-2.3-0.2-3-0.6v-1.7c1.1,0.5,2.1,0.8,3.1,0.8
		c1.2,0,1.8-0.4,1.8-1.1c0-0.2-0.1-0.4-0.2-0.6c-0.1-0.2-0.4-0.3-0.7-0.5c-0.3-0.2-0.7-0.4-1.3-0.6c-1.1-0.4-1.8-0.8-2.2-1.3
		s-0.6-1-0.6-1.6c0-0.8,0.3-1.4,1-1.9s1.5-0.7,2.6-0.7c1.1,0,2.1,0.2,3.1,0.7l-0.6,1.5c-1-0.4-1.9-0.6-2.5-0.6c-1,0-1.6,0.3-1.6,0.9
		c0,0.3,0.1,0.5,0.4,0.7s0.9,0.5,1.8,0.8c0.8,0.3,1.3,0.6,1.7,0.8s0.6,0.5,0.8,0.9C368.3,105,368.4,105.4,368.4,105.8z"/>
	<path class="st2" d="M377.3,108.5h-2V96.1h7v1.7h-5v3.9h4.7v1.7h-4.7L377.3,108.5L377.3,108.5z"/>
	<path class="st2" d="M392.6,103.8c0,1.5-0.4,2.7-1.2,3.6c-0.8,0.9-1.9,1.3-3.3,1.3c-0.9,0-1.6-0.2-2.3-0.6s-1.2-1-1.5-1.7
		s-0.5-1.6-0.5-2.6c0-1.5,0.4-2.7,1.2-3.6c0.8-0.8,1.9-1.3,3.3-1.3c1.4,0,2.4,0.4,3.2,1.3S392.6,102.3,392.6,103.8z M385.8,103.8
		c0,2.2,0.8,3.2,2.4,3.2c1.6,0,2.4-1.1,2.4-3.2c0-2.1-0.8-3.2-2.4-3.2c-0.8,0-1.4,0.3-1.8,0.8C385.9,101.9,385.8,102.8,385.8,103.8z
		"/>
	<path class="st2" d="M399.6,98.9c0.4,0,0.7,0,1,0.1l-0.2,1.8c-0.3-0.1-0.6-0.1-0.9-0.1c-0.8,0-1.4,0.3-1.9,0.8s-0.7,1.2-0.7,2v4.9
		h-2v-9.3h1.6l0.3,1.7h0.1c0.3-0.6,0.7-1,1.2-1.3C398.5,99.1,399,98.9,399.6,98.9z"/>
	<path class="st2" d="M414.7,108.5l-1.2-3.4h-4.7l-1.2,3.4h-2.1l4.6-12.4h2.2l4.6,12.4H414.7z M412.9,103.3l-1.2-3.4
		c-0.1-0.2-0.2-0.6-0.4-1.1s-0.3-0.8-0.3-1.1c-0.1,0.7-0.4,1.4-0.7,2.3l-1.1,3.2L412.9,103.3L412.9,103.3L412.9,103.3z"/>
	<path class="st2" d="M420.2,108.5h-2V95.3h2V108.5z"/>
	<path class="st2" d="M425.1,108.5h-2V95.3h2V108.5z"/>
	<path class="st8" d="M289.9,125.8h-1.2v-9.2h-3.3v-1.1h7.7v1.1h-3.3L289.9,125.8L289.9,125.8z"/>
	<path class="st8" d="M293.9,122.5v-1.1h3.5v1.1H293.9z"/>
	<path class="st8" d="M305.2,123.1c0,0.9-0.3,1.6-1,2.1s-1.5,0.8-2.7,0.8c-1.2,0-2.2-0.2-2.8-0.5v-1.2c0.4,0.2,0.9,0.3,1.4,0.4
		s1,0.2,1.5,0.2c0.8,0,1.4-0.2,1.8-0.4s0.6-0.7,0.6-1.3c0-0.4-0.1-0.7-0.2-0.9c-0.1-0.2-0.4-0.4-0.7-0.6s-0.9-0.4-1.5-0.7
		c-1-0.3-1.6-0.8-2-1.2s-0.6-1.1-0.6-1.8c0-0.8,0.3-1.4,0.9-1.9s1.4-0.7,2.4-0.7c1,0,2,0.2,2.8,0.6l-0.4,1c-0.9-0.4-1.7-0.5-2.5-0.5
		c-0.6,0-1.1,0.1-1.5,0.4c-0.4,0.3-0.5,0.7-0.5,1.1c0,0.4,0.1,0.7,0.2,0.9c0.1,0.2,0.4,0.4,0.7,0.6c0.3,0.2,0.8,0.4,1.4,0.6
		c1.1,0.4,1.8,0.8,2.2,1.2C305,121.8,305.2,122.3,305.2,123.1z"/>
	<path class="st8" d="M312.4,125.8v-5c0-0.6-0.1-1.1-0.4-1.4s-0.7-0.5-1.4-0.5c-0.8,0-1.4,0.2-1.8,0.7s-0.6,1.2-0.6,2.2v4h-1.2v-11
		h1.2v3.3c0,0.4,0,0.7-0.1,1h0.1c0.2-0.4,0.6-0.7,1-0.9c0.4-0.2,0.9-0.3,1.5-0.3c0.9,0,1.6,0.2,2.1,0.7s0.7,1.2,0.7,2.1v5
		L312.4,125.8L312.4,125.8z"/>
	<path class="st8" d="M315.9,116c0-0.3,0.1-0.5,0.2-0.6c0.1-0.1,0.3-0.2,0.5-0.2s0.4,0.1,0.5,0.2s0.2,0.3,0.2,0.6s-0.1,0.5-0.2,0.6
		s-0.3,0.2-0.5,0.2c-0.2,0-0.4-0.1-0.5-0.2C316,116.4,315.9,116.2,315.9,116z M317.2,125.8H316v-7.7h1.2V125.8z"/>
	<path class="st8" d="M323.2,117.9c0.3,0,0.6,0,0.9,0.1l-0.2,1.1c-0.3-0.1-0.6-0.1-0.9-0.1c-0.6,0-1.2,0.3-1.6,0.8s-0.7,1.1-0.7,1.9
		v4.1h-1.2v-7.7h1l0.1,1.4h0.1c0.3-0.5,0.6-0.9,1-1.2C322.2,118.1,322.7,117.9,323.2,117.9z"/>
	<path class="st8" d="M328,125c0.2,0,0.4,0,0.6-0.1s0.4-0.1,0.5-0.1v0.9c-0.1,0.1-0.3,0.1-0.6,0.2s-0.5,0.1-0.7,0.1
		c-1.5,0-2.2-0.8-2.2-2.4V119h-1.1v-0.6l1.1-0.5l0.5-1.7h0.7v1.8h2.2v0.9h-2.2v4.6c0,0.5,0.1,0.8,0.3,1.1S327.6,125,328,125z"/>
	<path class="st8" d="M335.6,123.7c0,0.7-0.3,1.3-0.8,1.7c-0.5,0.4-1.3,0.6-2.3,0.6c-1,0-1.8-0.2-2.4-0.5v-1.1
		c0.4,0.2,0.8,0.3,1.2,0.4c0.4,0.1,0.8,0.2,1.2,0.2c0.6,0,1.1-0.1,1.4-0.3c0.3-0.2,0.5-0.5,0.5-0.9c0-0.3-0.1-0.6-0.4-0.8
		s-0.8-0.5-1.5-0.8c-0.7-0.3-1.2-0.5-1.5-0.7s-0.5-0.4-0.7-0.7s-0.2-0.6-0.2-0.9c0-0.6,0.3-1.1,0.8-1.5c0.5-0.4,1.2-0.6,2.1-0.6
		c0.8,0,1.6,0.2,2.4,0.5l-0.4,0.9c-0.8-0.3-1.5-0.5-2.1-0.5c-0.5,0-1,0.1-1.3,0.3c-0.3,0.2-0.4,0.4-0.4,0.7c0,0.2,0,0.4,0.2,0.5
		c0.1,0.2,0.3,0.3,0.5,0.4c0.2,0.1,0.7,0.3,1.4,0.6c0.9,0.3,1.5,0.7,1.9,1S335.6,123.2,335.6,123.7z"/>
	<path class="st8" d="M340.8,123.1c0-0.6,0.2-1.2,0.5-1.6s0.9-0.9,1.8-1.4c-0.4-0.4-0.7-0.8-0.8-1c-0.1-0.2-0.3-0.5-0.3-0.7
		s-0.1-0.5-0.1-0.8c0-0.7,0.2-1.3,0.7-1.7c0.5-0.4,1.1-0.6,1.9-0.6c0.8,0,1.4,0.2,1.8,0.6s0.7,0.9,0.7,1.6c0,0.5-0.2,1-0.5,1.4
		c-0.3,0.4-0.9,0.9-1.6,1.3l2.9,2.8c0.3-0.3,0.5-0.6,0.6-1c0.2-0.4,0.3-0.8,0.4-1.3h1.2c-0.3,1.3-0.8,2.4-1.4,3.1l2.1,2.1h-1.6
		l-1.3-1.3c-0.5,0.5-1.1,0.8-1.7,1.1s-1.2,0.3-1.9,0.3c-1,0-1.8-0.3-2.4-0.8C341.1,124.7,340.8,124,340.8,123.1z M344,124.9
		c1.1,0,2.1-0.4,2.8-1.1l-3.1-3c-0.5,0.3-0.9,0.6-1.1,0.8c-0.2,0.2-0.4,0.4-0.5,0.7s-0.1,0.5-0.1,0.8c0,0.6,0.2,1,0.5,1.3
		C343,124.7,343.4,124.9,344,124.9z M342.9,117.5c0,0.3,0.1,0.6,0.3,0.9c0.2,0.3,0.5,0.7,0.9,1.1c0.6-0.3,1-0.7,1.3-1
		c0.2-0.3,0.4-0.6,0.4-1c0-0.4-0.1-0.7-0.4-0.9c-0.2-0.2-0.6-0.3-1-0.3c-0.4,0-0.8,0.1-1,0.3S342.9,117.2,342.9,117.5z"/>
	<path class="st8" d="M362.3,118.5c0,1-0.4,1.8-1.1,2.4s-1.7,0.8-3,0.8h-1.2v4.1h-1.2v-10.3h2.7C361,115.5,362.3,116.5,362.3,118.5z
		 M356.9,120.7h1.1c1.1,0,1.8-0.2,2.3-0.5s0.7-0.9,0.7-1.7c0-0.7-0.2-1.2-0.7-1.5c-0.5-0.3-1.1-0.5-2.1-0.5h-1.3L356.9,120.7
		L356.9,120.7z"/>
	<path class="st8" d="M370.9,121.9c0,1.3-0.3,2.2-1,2.9s-1.5,1.1-2.6,1.1c-0.7,0-1.3-0.2-1.8-0.5c-0.5-0.3-1-0.8-1.2-1.4
		c-0.3-0.6-0.4-1.3-0.4-2.1c0-1.3,0.3-2.2,0.9-2.9s1.5-1.1,2.6-1.1c1.1,0,1.9,0.4,2.6,1.1C370.6,119.7,370.9,120.7,370.9,121.9z
		 M365,121.9c0,1,0.2,1.7,0.6,2.3c0.4,0.5,1,0.8,1.7,0.8s1.4-0.3,1.7-0.8c0.4-0.5,0.6-1.3,0.6-2.3c0-1-0.2-1.7-0.6-2.2
		c-0.4-0.5-1-0.8-1.8-0.8c-0.8,0-1.3,0.3-1.7,0.8C365.2,120.2,365,120.9,365,121.9z"/>
	<path class="st8" d="M374.1,125.8H373v-11h1.2V125.8z"/>
	<path class="st8" d="M383.3,121.9c0,1.3-0.3,2.2-1,2.9s-1.5,1.1-2.6,1.1c-0.7,0-1.3-0.2-1.8-0.5c-0.5-0.3-1-0.8-1.2-1.4
		c-0.3-0.6-0.4-1.3-0.4-2.1c0-1.3,0.3-2.2,0.9-2.9s1.5-1.1,2.6-1.1c1.1,0,1.9,0.4,2.6,1.1C383,119.7,383.3,120.7,383.3,121.9z
		 M377.4,121.9c0,1,0.2,1.7,0.6,2.3c0.4,0.5,1,0.8,1.7,0.8s1.4-0.3,1.7-0.8c0.4-0.5,0.6-1.3,0.6-2.3c0-1-0.2-1.7-0.6-2.2
		c-0.4-0.5-1-0.8-1.8-0.8c-0.8,0-1.3,0.3-1.7,0.8C377.6,120.2,377.4,120.9,377.4,121.9z"/>
	<path class="st8" d="M395.1,123.1c0,0.9-0.3,1.6-1,2.1s-1.5,0.8-2.7,0.8c-1.2,0-2.2-0.2-2.8-0.5v-1.2c0.4,0.2,0.9,0.3,1.4,0.4
		s1,0.2,1.5,0.2c0.8,0,1.4-0.2,1.8-0.4s0.6-0.7,0.6-1.3c0-0.4-0.1-0.7-0.2-0.9c-0.1-0.2-0.4-0.4-0.7-0.6s-0.9-0.4-1.5-0.7
		c-1-0.3-1.6-0.8-2-1.2s-0.6-1.1-0.6-1.8c0-0.8,0.3-1.4,0.9-1.9s1.4-0.7,2.4-0.7c1,0,2,0.2,2.8,0.6l-0.4,1c-0.9-0.4-1.7-0.5-2.5-0.5
		c-0.6,0-1.1,0.1-1.5,0.4c-0.4,0.3-0.5,0.7-0.5,1.1c0,0.4,0.1,0.7,0.2,0.9c0.1,0.2,0.4,0.4,0.7,0.6c0.3,0.2,0.8,0.4,1.4,0.6
		c1.1,0.4,1.8,0.8,2.2,1.2C394.9,121.8,395.1,122.3,395.1,123.1z"/>
	<path class="st8" d="M402.3,125.8v-5c0-0.6-0.1-1.1-0.4-1.4c-0.3-0.3-0.7-0.5-1.4-0.5c-0.8,0-1.4,0.2-1.8,0.7s-0.6,1.2-0.6,2.2v4
		H397v-11h1.2v3.3c0,0.4,0,0.7-0.1,1h0.1c0.2-0.4,0.6-0.7,1-0.9c0.4-0.2,0.9-0.3,1.5-0.3c0.9,0,1.6,0.2,2.1,0.7
		c0.5,0.4,0.7,1.2,0.7,2.1v5L402.3,125.8L402.3,125.8z"/>
	<path class="st8" d="M405.8,116c0-0.3,0.1-0.5,0.2-0.6s0.3-0.2,0.5-0.2s0.4,0.1,0.5,0.2c0.1,0.1,0.2,0.3,0.2,0.6s-0.1,0.5-0.2,0.6
		c-0.1,0.1-0.3,0.2-0.5,0.2c-0.2,0-0.4-0.1-0.5-0.2S405.8,116.2,405.8,116z M407,125.8h-1.2v-7.7h1.2V125.8z"/>
	<path class="st8" d="M413,117.9c0.3,0,0.6,0,0.9,0.1l-0.2,1.1c-0.3-0.1-0.6-0.1-0.9-0.1c-0.6,0-1.2,0.3-1.6,0.8s-0.7,1.1-0.7,1.9
		v4.1h-1.2v-7.7h1l0.1,1.4h0.1c0.3-0.5,0.6-0.9,1-1.2C412.1,118.1,412.5,117.9,413,117.9z"/>
	<path class="st8" d="M417.9,125c0.2,0,0.4,0,0.6-0.1s0.4-0.1,0.5-0.1v0.9c-0.1,0.1-0.3,0.1-0.6,0.2s-0.5,0.1-0.7,0.1
		c-1.5,0-2.2-0.8-2.2-2.4V119h-1.1v-0.6l1.1-0.5l0.5-1.7h0.7v1.8h2.2v0.9h-2.2v4.6c0,0.5,0.1,0.8,0.3,1.1S417.5,125,417.9,125z"/>
	<path class="st8" d="M425.5,123.7c0,0.7-0.3,1.3-0.8,1.7c-0.5,0.4-1.3,0.6-2.3,0.6c-1,0-1.8-0.2-2.4-0.5v-1.1
		c0.4,0.2,0.8,0.3,1.2,0.4c0.4,0.1,0.8,0.2,1.2,0.2c0.6,0,1.1-0.1,1.4-0.3c0.3-0.2,0.5-0.5,0.5-0.9c0-0.3-0.1-0.6-0.4-0.8
		s-0.8-0.5-1.5-0.8c-0.7-0.3-1.2-0.5-1.5-0.7s-0.5-0.4-0.7-0.7s-0.2-0.6-0.2-0.9c0-0.6,0.3-1.1,0.8-1.5c0.5-0.4,1.2-0.6,2.1-0.6
		c0.8,0,1.6,0.2,2.4,0.5l-0.4,0.9c-0.8-0.3-1.5-0.5-2.1-0.5c-0.5,0-1,0.1-1.3,0.3c-0.3,0.2-0.4,0.4-0.4,0.7c0,0.2,0,0.4,0.2,0.5
		c0.1,0.2,0.3,0.3,0.5,0.4c0.2,0.1,0.7,0.3,1.4,0.6c0.9,0.3,1.5,0.7,1.9,1C425.3,122.8,425.5,123.2,425.5,123.7z"/>
	<path class="st8" d="M434.6,119h-2v6.8h-1.2V119h-1.4v-0.5l1.4-0.4v-0.4c0-1.9,0.8-2.8,2.5-2.8c0.4,0,0.9,0.1,1.4,0.3l-0.3,0.9
		c-0.5-0.2-0.8-0.2-1.2-0.2c-0.4,0-0.8,0.2-1,0.4c-0.2,0.3-0.3,0.8-0.3,1.4v0.5h2L434.6,119L434.6,119z"/>
	<path class="st8" d="M442.7,121.9c0,1.3-0.3,2.2-1,2.9s-1.5,1.1-2.6,1.1c-0.7,0-1.3-0.2-1.8-0.5c-0.5-0.3-1-0.8-1.2-1.4
		c-0.3-0.6-0.4-1.3-0.4-2.1c0-1.3,0.3-2.2,0.9-2.9s1.5-1.1,2.6-1.1c1.1,0,1.9,0.4,2.6,1.1C442.4,119.7,442.7,120.7,442.7,121.9z
		 M436.8,121.9c0,1,0.2,1.7,0.6,2.3c0.4,0.5,1,0.8,1.7,0.8s1.4-0.3,1.7-0.8c0.4-0.5,0.6-1.3,0.6-2.3c0-1-0.2-1.7-0.6-2.2
		c-0.4-0.5-1-0.8-1.8-0.8c-0.8,0-1.3,0.3-1.7,0.8C437,120.2,436.8,120.9,436.8,121.9z"/>
	<path class="st8" d="M448.3,117.9c0.3,0,0.6,0,0.9,0.1l-0.2,1.1c-0.3-0.1-0.6-0.1-0.9-0.1c-0.6,0-1.2,0.3-1.6,0.8s-0.7,1.1-0.7,1.9
		v4.1h-1.2v-7.7h1l0.1,1.4h0.1c0.3-0.5,0.6-0.9,1-1.2C447.3,118.1,447.8,117.9,448.3,117.9z"/>
	<path class="st8" d="M295.8,143.1h-1.2l-2.1-6.9c-0.1-0.3-0.2-0.7-0.3-1.2c-0.1-0.5-0.2-0.7-0.2-0.8c-0.1,0.6-0.3,1.3-0.5,2l-2,6.9
		h-1.2l-2.7-10.3h1.3l1.6,6.4c0.2,0.9,0.4,1.7,0.5,2.4c0.1-0.9,0.3-1.7,0.6-2.5l1.9-6.3h1.3l1.9,6.3c0.2,0.7,0.4,1.6,0.6,2.5
		c0.1-0.7,0.3-1.5,0.5-2.4l1.6-6.4h1.3L295.8,143.1z"/>
	<path class="st8" d="M306.6,139.2c0,1.3-0.3,2.2-1,2.9c-0.6,0.7-1.5,1.1-2.6,1.1c-0.7,0-1.3-0.2-1.8-0.5s-1-0.8-1.2-1.4
		c-0.3-0.6-0.4-1.3-0.4-2.1c0-1.3,0.3-2.2,0.9-2.9s1.5-1.1,2.6-1.1c1.1,0,1.9,0.4,2.6,1.1C306.3,137.1,306.6,138,306.6,139.2z
		 M300.7,139.2c0,1,0.2,1.7,0.6,2.3c0.4,0.5,1,0.8,1.7,0.8s1.4-0.3,1.7-0.8s0.6-1.3,0.6-2.3c0-1-0.2-1.7-0.6-2.2s-1-0.8-1.8-0.8
		c-0.8,0-1.3,0.3-1.7,0.8C300.9,137.5,300.7,138.3,300.7,139.2z"/>
	<path class="st8" d="M318.5,143.1v-5c0-0.6-0.1-1.1-0.4-1.4c-0.3-0.3-0.7-0.5-1.2-0.5c-0.7,0-1.3,0.2-1.6,0.6
		c-0.4,0.4-0.5,1.1-0.5,1.9v4.3h-1.2v-5c0-0.6-0.1-1.1-0.4-1.4c-0.3-0.3-0.7-0.5-1.2-0.5c-0.7,0-1.3,0.2-1.6,0.7s-0.5,1.2-0.5,2.2
		v4.1h-1.2v-7.7h1l0.2,1.1h0.1c0.2-0.4,0.5-0.7,0.9-0.9s0.9-0.3,1.4-0.3c1.2,0,2,0.4,2.4,1.3h0.1c0.2-0.4,0.6-0.7,1-1
		c0.4-0.2,0.9-0.4,1.5-0.4c0.9,0,1.5,0.2,2,0.7s0.6,1.2,0.6,2.1v5L318.5,143.1L318.5,143.1L318.5,143.1z"/>
	<path class="st8" d="M325.4,143.3c-1.1,0-2-0.4-2.7-1c-0.7-0.7-1-1.7-1-2.9c0-1.3,0.3-2.2,0.9-3c0.6-0.7,1.4-1.1,2.5-1.1
		c1,0,1.7,0.3,2.3,1s0.9,1.5,0.9,2.5v0.7h-5.3c0,0.9,0.3,1.6,0.7,2.1c0.4,0.5,1,0.7,1.8,0.7c0.8,0,1.6-0.2,2.5-0.5v1
		c-0.4,0.2-0.8,0.3-1.2,0.4C326.3,143.2,325.9,143.3,325.4,143.3z M325,136.2c-0.6,0-1.1,0.2-1.5,0.6c-0.4,0.4-0.6,1-0.6,1.7h4
		c0-0.7-0.2-1.3-0.5-1.7C326.1,136.4,325.6,136.2,325,136.2z"/>
	<path class="st8" d="M335.5,143.1v-5c0-0.6-0.1-1.1-0.4-1.4s-0.7-0.5-1.4-0.5c-0.8,0-1.4,0.2-1.8,0.7s-0.6,1.2-0.6,2.2v4.1h-1.2
		v-7.7h1l0.2,1.1h0.1c0.2-0.4,0.6-0.7,1-0.9c0.4-0.2,0.9-0.3,1.4-0.3c0.9,0,1.6,0.2,2.1,0.7s0.7,1.2,0.7,2.1v5L335.5,143.1
		L335.5,143.1z"/>
	<path class="st8" d="M340.3,141.4l0.1,0.2c-0.1,0.5-0.3,1-0.5,1.6s-0.5,1.2-0.7,1.7h-0.9c0.1-0.5,0.3-1.1,0.4-1.8s0.3-1.3,0.3-1.7
		L340.3,141.4L340.3,141.4z"/>
	<path class="st8" d="M351.1,143.1l-3.5-9.1h-0.1c0.1,0.7,0.1,1.6,0.1,2.6v6.6h-1.1v-10.3h1.8l3.3,8.5h0.1l3.3-8.5h1.8v10.3h-1.2
		v-6.6c0-0.8,0-1.6,0.1-2.5h-0.1l-3.5,9.1H351.1z"/>
	<path class="st8" d="M362.6,143.3c-1.1,0-2-0.4-2.7-1c-0.7-0.7-1-1.7-1-2.9c0-1.3,0.3-2.2,0.9-3c0.6-0.7,1.4-1.1,2.5-1.1
		c1,0,1.7,0.3,2.3,1s0.9,1.5,0.9,2.5v0.7h-5.3c0,0.9,0.3,1.6,0.7,2.1c0.4,0.5,1,0.7,1.8,0.7c0.8,0,1.6-0.2,2.5-0.5v1
		c-0.4,0.2-0.8,0.3-1.2,0.4C363.6,143.2,363.1,143.3,362.6,143.3z M362.3,136.2c-0.6,0-1.1,0.2-1.5,0.6c-0.4,0.4-0.6,1-0.6,1.7h4
		c0-0.7-0.2-1.3-0.5-1.7C363.4,136.4,362.9,136.2,362.3,136.2z"/>
	<path class="st8" d="M372.8,143.1v-5c0-0.6-0.1-1.1-0.4-1.4c-0.3-0.3-0.7-0.5-1.4-0.5c-0.8,0-1.4,0.2-1.8,0.7s-0.6,1.2-0.6,2.2v4.1
		h-1.2v-7.7h1l0.2,1.1h0.1c0.2-0.4,0.6-0.7,1-0.9c0.4-0.2,0.9-0.3,1.5-0.3c0.9,0,1.6,0.2,2.1,0.7s0.7,1.2,0.7,2.1v5L372.8,143.1
		L372.8,143.1z"/>
	<path class="st8" d="M379.6,140.4c0-0.6,0.2-1.1,0.5-1.6s0.9-0.9,1.8-1.4c-0.4-0.4-0.7-0.8-0.8-1c-0.1-0.2-0.3-0.5-0.3-0.7
		s-0.1-0.5-0.1-0.8c0-0.7,0.2-1.3,0.7-1.6c0.5-0.4,1.1-0.6,1.9-0.6c0.8,0,1.4,0.2,1.8,0.6s0.7,0.9,0.7,1.6c0,0.5-0.2,1-0.5,1.4
		c-0.3,0.4-0.9,0.9-1.6,1.3l2.9,2.8c0.3-0.3,0.5-0.6,0.6-1c0.2-0.4,0.3-0.8,0.4-1.3h1.2c-0.3,1.3-0.8,2.4-1.4,3.1l2.1,2.1h-1.6
		l-1.3-1.3c-0.5,0.5-1.1,0.9-1.7,1.1s-1.2,0.3-1.9,0.3c-1,0-1.8-0.3-2.4-0.8S379.6,141.3,379.6,140.4z M382.8,142.2
		c1.1,0,2.1-0.4,2.8-1.1l-3.1-3c-0.5,0.3-0.9,0.6-1.1,0.8c-0.2,0.2-0.4,0.4-0.5,0.7s-0.2,0.5-0.2,0.8c0,0.6,0.2,1,0.5,1.3
		C381.8,142,382.2,142.2,382.8,142.2z M381.8,134.9c0,0.3,0.1,0.6,0.3,0.9c0.2,0.3,0.5,0.6,0.9,1.1c0.6-0.4,1-0.7,1.3-1
		s0.4-0.6,0.4-1c0-0.4-0.1-0.7-0.4-0.9c-0.2-0.2-0.6-0.3-1-0.3c-0.4,0-0.8,0.1-1,0.3S381.8,134.5,381.8,134.9z"/>
	<path class="st8" d="M402,143.1h-1.4l-3.8-5l-1.1,1v4h-1.2v-10.3h1.2v5.1l4.7-5.1h1.4l-4.1,4.5L402,143.1z"/>
	<path class="st8" d="M403.1,133.3c0-0.3,0.1-0.5,0.2-0.6s0.3-0.2,0.5-0.2s0.4,0.1,0.5,0.2c0.1,0.1,0.2,0.3,0.2,0.6
		s-0.1,0.5-0.2,0.6c-0.1,0.1-0.3,0.2-0.5,0.2c-0.2,0-0.4-0.1-0.5-0.2S403.1,133.6,403.1,133.3z M404.4,143.1h-1.2v-7.7h1.2V143.1z"
		/>
	<path class="st8" d="M412.1,142.1L412.1,142.1c-0.6,0.8-1.4,1.2-2.5,1.2c-1,0-1.8-0.4-2.4-1c-0.6-0.7-0.8-1.7-0.8-2.9
		c0-1.3,0.3-2.3,0.9-3s1.4-1.1,2.4-1.1c1,0,1.9,0.4,2.4,1.1h0.1l0-0.6l0-0.5v-3.1h1.2v11h-1L412.1,142.1z M409.8,142.3
		c0.8,0,1.4-0.2,1.7-0.6s0.5-1.1,0.5-2.1v-0.3c0-1.1-0.2-1.9-0.5-2.3c-0.4-0.5-1-0.7-1.7-0.7c-0.7,0-1.2,0.3-1.6,0.8
		c-0.4,0.5-0.5,1.3-0.5,2.3c0,1,0.2,1.7,0.5,2.2C408.5,142,409.1,142.3,409.8,142.3z"/>
	<path class="st8" d="M420.7,141c0,0.7-0.3,1.3-0.8,1.7c-0.5,0.4-1.3,0.6-2.3,0.6c-1,0-1.8-0.2-2.4-0.5v-1.1
		c0.4,0.2,0.8,0.3,1.2,0.4c0.4,0.1,0.8,0.2,1.2,0.2c0.6,0,1.1-0.1,1.4-0.3c0.3-0.2,0.5-0.5,0.5-0.9c0-0.3-0.1-0.6-0.4-0.8
		s-0.8-0.5-1.5-0.8c-0.7-0.3-1.2-0.5-1.5-0.7s-0.5-0.4-0.7-0.7s-0.2-0.6-0.2-0.9c0-0.6,0.3-1.1,0.8-1.5c0.5-0.4,1.2-0.6,2.1-0.6
		c0.8,0,1.6,0.2,2.4,0.5l-0.4,0.9c-0.8-0.3-1.5-0.5-2.1-0.5c-0.5,0-1,0.1-1.3,0.3s-0.4,0.4-0.4,0.7c0,0.2,0,0.4,0.2,0.5
		c0.1,0.1,0.3,0.3,0.5,0.4c0.2,0.1,0.7,0.3,1.4,0.6c0.9,0.3,1.5,0.7,1.9,1C420.5,140.1,420.7,140.5,420.7,141z"/>
</g>
<g>
	<rect x="285.3" y="181.5" class="st0" width="188.7" height="52"/>
	<path class="st2" d="M295.2,186c0,1.3-0.4,2.3-1.3,3s-2,1-3.6,1H289v4.6h-2v-12.4h3.6c1.5,0,2.7,0.3,3.5,0.9
		C294.8,183.8,295.2,184.8,295.2,186z M289,188.3h1.1c1,0,1.8-0.2,2.3-0.5s0.7-0.9,0.7-1.7c0-0.7-0.2-1.2-0.6-1.6
		c-0.4-0.4-1.1-0.5-2-0.5H289V188.3z"/>
	<path class="st2" d="M302.2,185.1c0.4,0,0.7,0,1,0.1L303,187c-0.3-0.1-0.6-0.1-0.9-0.1c-0.8,0-1.4,0.3-1.9,0.8s-0.7,1.2-0.7,2v4.9
		h-2v-9.4h1.6l0.3,1.6h0.1c0.3-0.6,0.7-1,1.2-1.3S301.6,185.1,302.2,185.1z"/>
	<path class="st2" d="M313.2,189.9c0,1.5-0.4,2.7-1.2,3.6s-1.9,1.3-3.3,1.3c-0.9,0-1.6-0.2-2.3-0.6s-1.2-1-1.5-1.7
		c-0.4-0.7-0.5-1.6-0.5-2.6c0-1.5,0.4-2.7,1.2-3.6s1.9-1.3,3.3-1.3c1.4,0,2.4,0.4,3.2,1.3C312.8,187.3,313.2,188.5,313.2,189.9z
		 M306.4,189.9c0,2.2,0.8,3.2,2.4,3.2c1.6,0,2.4-1.1,2.4-3.2c0-2.1-0.8-3.2-2.4-3.2c-0.8,0-1.4,0.3-1.8,0.8
		C306.6,188.1,306.4,188.9,306.4,189.9z"/>
	<path class="st2" d="M319,193.2c0.5,0,1-0.1,1.5-0.2v1.5c-0.2,0.1-0.5,0.2-0.9,0.2s-0.7,0.1-1.1,0.1c-1.9,0-2.8-1-2.8-3v-5h-1.3
		v-0.9l1.4-0.7l0.7-2h1.2v2.1h2.7v1.5h-2.7v5c0,0.5,0.1,0.8,0.4,1.1C318.3,193.1,318.6,193.2,319,193.2z"/>
	<path class="st2" d="M330.6,189.9c0,1.5-0.4,2.7-1.2,3.6s-1.9,1.3-3.3,1.3c-0.9,0-1.6-0.2-2.3-0.6s-1.2-1-1.5-1.7
		c-0.4-0.7-0.5-1.6-0.5-2.6c0-1.5,0.4-2.7,1.2-3.6s1.9-1.3,3.3-1.3c1.4,0,2.4,0.4,3.2,1.3C330.2,187.3,330.6,188.5,330.6,189.9z
		 M323.8,189.9c0,2.2,0.8,3.2,2.4,3.2c1.6,0,2.4-1.1,2.4-3.2c0-2.1-0.8-3.2-2.4-3.2c-0.8,0-1.4,0.3-1.8,0.8S323.8,188.9,323.8,189.9
		z"/>
	<path class="st2" d="M336.3,193.2c0.5,0,1-0.1,1.5-0.2v1.5c-0.2,0.1-0.5,0.2-0.9,0.2s-0.7,0.1-1.1,0.1c-1.9,0-2.8-1-2.8-3v-5h-1.3
		v-0.9l1.4-0.7l0.7-2h1.2v2.1h2.7v1.5H335v5c0,0.5,0.1,0.8,0.4,1.1C335.6,193.1,336,193.2,336.3,193.2z"/>
	<path class="st2" d="M338.2,185.3h2.2l1.9,5.3c0.3,0.8,0.5,1.5,0.6,2.1h0.1c0-0.3,0.1-0.7,0.3-1.1c0.1-0.4,0.9-2.5,2.1-6.3h2.1
		l-4,10.6c-0.7,1.9-1.9,2.9-3.6,2.9c-0.4,0-0.9-0.1-1.3-0.1v-1.6c0.3,0.1,0.6,0.1,1,0.1c1,0,1.6-0.6,2-1.7l0.4-0.9L338.2,185.3z"/>
	<path class="st2" d="M353.7,194.8c-1.2,0-2.1-0.4-2.8-1.3h-0.1c0.1,0.8,0.1,1.3,0.1,1.4v3.8h-2v-13.5h1.6c0,0.2,0.1,0.6,0.3,1.3
		h0.1c0.6-0.9,1.5-1.4,2.8-1.4c1.2,0,2.1,0.4,2.7,1.3s1,2,1,3.6s-0.3,2.7-1,3.6C355.8,194.4,354.9,194.8,353.7,194.8z M353.2,186.7
		c-0.8,0-1.4,0.2-1.7,0.7c-0.4,0.5-0.5,1.2-0.5,2.2v0.3c0,1.1,0.2,2,0.5,2.5c0.4,0.5,1,0.8,1.8,0.8c0.7,0,1.2-0.3,1.6-0.9
		c0.4-0.6,0.6-1.4,0.6-2.4c0-1.1-0.2-1.8-0.5-2.4S353.9,186.7,353.2,186.7z"/>
	<path class="st2" d="M363.8,194.8c-1.5,0-2.6-0.4-3.4-1.3s-1.2-2-1.2-3.5c0-1.5,0.4-2.7,1.1-3.6c0.8-0.9,1.8-1.3,3.1-1.3
		c1.2,0,2.2,0.4,2.9,1.1s1.1,1.8,1.1,3.1v1.1h-6.2c0,0.9,0.3,1.6,0.7,2.1c0.5,0.5,1.1,0.7,2,0.7c0.5,0,1.1-0.1,1.5-0.2
		c0.5-0.1,1-0.3,1.5-0.5v1.6c-0.5,0.2-1,0.4-1.5,0.5C365,194.8,364.5,194.8,363.8,194.8z M363.5,186.6c-0.6,0-1.1,0.2-1.5,0.6
		s-0.6,1-0.7,1.8h4.3c0-0.8-0.2-1.4-0.6-1.8C364.6,186.8,364.1,186.6,363.5,186.6z"/>
	<path class="st2" d="M376,192c0,0.9-0.3,1.6-1,2.1s-1.6,0.7-2.9,0.7c-1.3,0-2.3-0.2-3-0.6v-1.7c1.1,0.5,2.1,0.8,3.1,0.8
		c1.2,0,1.8-0.4,1.8-1.1c0-0.2-0.1-0.4-0.2-0.6s-0.4-0.3-0.7-0.5c-0.3-0.2-0.7-0.4-1.3-0.6c-1.1-0.4-1.8-0.8-2.2-1.3s-0.6-1-0.6-1.6
		c0-0.8,0.3-1.4,1-1.9s1.5-0.7,2.6-0.7c1.1,0,2.1,0.2,3.1,0.7l-0.6,1.5c-1-0.4-1.9-0.6-2.5-0.6c-1,0-1.6,0.3-1.6,0.9
		c0,0.3,0.1,0.5,0.4,0.7c0.3,0.2,0.9,0.5,1.8,0.8c0.8,0.3,1.3,0.6,1.7,0.8s0.6,0.5,0.8,0.9C375.9,191.1,376,191.5,376,192z"/>
	<path class="st2" d="M390.5,194.6l-1.2-3.4h-4.7l-1.2,3.4h-2.1l4.6-12.4h2.2l4.6,12.4H390.5z M388.8,189.4l-1.2-3.4
		c-0.1-0.2-0.2-0.6-0.4-1.1s-0.3-0.8-0.3-1.1c-0.1,0.7-0.4,1.4-0.7,2.3l-1.1,3.2L388.8,189.4L388.8,189.4L388.8,189.4z"/>
	<path class="st2" d="M402.3,194.6h-2v-5.8c0-0.7-0.1-1.3-0.4-1.6s-0.8-0.5-1.4-0.5c-0.8,0-1.5,0.3-1.8,0.7
		c-0.4,0.5-0.6,1.3-0.6,2.5v4.7h-2v-9.4h1.6l0.3,1.2h0.1c0.3-0.4,0.7-0.8,1.2-1c0.5-0.2,1.1-0.4,1.7-0.4c2.2,0,3.4,1.1,3.4,3.4
		L402.3,194.6L402.3,194.6z"/>
	<path class="st2" d="M408.3,194.8c-1.2,0-2.1-0.4-2.7-1.3s-1-2-1-3.6s0.3-2.7,1-3.6s1.6-1.3,2.8-1.3c1.2,0,2.2,0.4,2.8,1.4h0.1
		c-0.1-0.7-0.1-1.2-0.1-1.6v-3.4h2v13.2h-1.6l-0.4-1.2H411C410.4,194.3,409.5,194.8,408.3,194.8z M408.8,193.2
		c0.8,0,1.4-0.2,1.8-0.7s0.6-1.2,0.6-2.2V190c0-1.2-0.2-2-0.6-2.5s-1-0.7-1.8-0.7c-0.7,0-1.2,0.3-1.6,0.9s-0.6,1.4-0.6,2.4
		c0,1,0.2,1.8,0.5,2.4C407.5,192.9,408,193.2,408.8,193.2z"/>
	<path class="st2" d="M427.7,191.3c0,1.1-0.4,2-1.2,2.6s-1.9,0.9-3.3,0.9s-2.5-0.2-3.4-0.6v-1.9c0.6,0.3,1.2,0.5,1.8,0.6
		c0.6,0.1,1.2,0.2,1.8,0.2c0.8,0,1.4-0.1,1.8-0.5c0.4-0.3,0.6-0.7,0.6-1.2c0-0.5-0.2-0.9-0.5-1.2c-0.4-0.3-1.1-0.7-2.2-1.1
		c-1.1-0.5-1.9-1-2.4-1.6c-0.5-0.6-0.7-1.3-0.7-2.1c0-1,0.4-1.8,1.1-2.4c0.7-0.6,1.7-0.9,3-0.9c1.2,0,2.4,0.3,3.5,0.8l-0.6,1.6
		c-1.1-0.5-2.1-0.7-2.9-0.7c-0.6,0-1.1,0.1-1.5,0.4c-0.3,0.3-0.5,0.7-0.5,1.1c0,0.3,0.1,0.6,0.2,0.8c0.1,0.2,0.4,0.4,0.7,0.6
		c0.3,0.2,0.9,0.5,1.7,0.8c0.9,0.4,1.6,0.7,2,1.1c0.4,0.3,0.7,0.7,0.9,1.1S427.7,190.7,427.7,191.3z"/>
	<path class="st2" d="M435.8,194.6l-0.4-1.3h-0.1c-0.5,0.6-0.9,1-1.4,1.2c-0.5,0.2-1,0.3-1.8,0.3c-0.9,0-1.6-0.3-2.1-0.7
		s-0.8-1.2-0.8-2.1c0-1,0.4-1.7,1.1-2.2c0.7-0.5,1.8-0.8,3.3-0.8l1.6-0.1v-0.5c0-0.6-0.1-1-0.4-1.3s-0.7-0.4-1.3-0.4
		c-0.5,0-0.9,0.1-1.4,0.2s-0.9,0.3-1.3,0.5l-0.6-1.4c0.5-0.3,1.1-0.5,1.7-0.6c0.6-0.1,1.2-0.2,1.7-0.2c1.2,0,2.1,0.3,2.7,0.8
		c0.6,0.5,0.9,1.3,0.9,2.4v6.3L435.8,194.6L435.8,194.6z M432.8,193.3c0.7,0,1.3-0.2,1.7-0.6c0.4-0.4,0.7-1,0.7-1.7v-0.8l-1.2,0.1
		c-0.9,0-1.6,0.2-2,0.5s-0.6,0.7-0.6,1.3c0,0.4,0.1,0.7,0.4,1C431.9,193.2,432.3,193.3,432.8,193.3z"/>
	<path class="st2" d="M447.8,194.6h-2v-5.8c0-0.7-0.1-1.3-0.4-1.6c-0.3-0.4-0.7-0.5-1.3-0.5c-0.8,0-1.3,0.3-1.7,0.8
		c-0.4,0.5-0.5,1.3-0.5,2.5v4.7h-2v-9.4h1.6l0.3,1.2h0.1c0.3-0.4,0.6-0.8,1.1-1s1-0.4,1.6-0.4c1.4,0,2.4,0.5,2.9,1.5h0.1
		c0.3-0.5,0.7-0.8,1.2-1.1s1.1-0.4,1.7-0.4c1.1,0,1.9,0.3,2.4,0.9c0.5,0.6,0.8,1.4,0.8,2.6v6.1h-2v-5.8c0-0.7-0.1-1.3-0.4-1.6
		s-0.7-0.5-1.3-0.5c-0.8,0-1.3,0.2-1.7,0.7c-0.4,0.5-0.5,1.2-0.5,2.2L447.8,194.6L447.8,194.6z"/>
	<path class="st2" d="M455.7,190.8v-1.7h4.4v1.7H455.7z"/>
	<path class="st2" d="M291.5,215.6c-1.2,0-2.1-0.4-2.8-1.3h-0.1c0.1,0.8,0.1,1.3,0.1,1.4v3.8h-2v-13.5h1.6c0,0.2,0.1,0.6,0.3,1.3
		h0.1c0.6-0.9,1.5-1.4,2.8-1.4c1.2,0,2.1,0.4,2.7,1.3c0.6,0.9,1,2,1,3.6s-0.3,2.7-1,3.6C293.6,215.1,292.7,215.6,291.5,215.6z
		 M291,207.5c-0.8,0-1.4,0.2-1.7,0.7c-0.4,0.5-0.5,1.2-0.5,2.2v0.3c0,1.1,0.2,2,0.5,2.5c0.4,0.5,1,0.8,1.8,0.8
		c0.7,0,1.2-0.3,1.6-0.9c0.4-0.6,0.6-1.4,0.6-2.4c0-1.1-0.2-1.8-0.5-2.4C292.3,207.8,291.7,207.5,291,207.5z"/>
	<path class="st2" d="M299.5,215.4h-2v-13.2h2V215.4z"/>
	<path class="st2" d="M302.3,203.6c0-0.4,0.1-0.6,0.3-0.8s0.5-0.3,0.8-0.3c0.4,0,0.6,0.1,0.8,0.3c0.2,0.2,0.3,0.5,0.3,0.8
		c0,0.3-0.1,0.6-0.3,0.8c-0.2,0.2-0.5,0.3-0.8,0.3c-0.4,0-0.6-0.1-0.8-0.3C302.4,204.2,302.3,203.9,302.3,203.6z M304.4,215.4h-2
		v-9.4h2V215.4z"/>
	<path class="st2" d="M315.4,215.4h-2v-5.8c0-0.7-0.1-1.3-0.4-1.6s-0.8-0.5-1.4-0.5c-0.8,0-1.5,0.3-1.8,0.7
		c-0.4,0.5-0.6,1.3-0.6,2.5v4.7h-2v-9.4h1.6l0.3,1.2h0.1c0.3-0.4,0.7-0.8,1.2-1c0.5-0.2,1.1-0.4,1.7-0.4c2.2,0,3.4,1.1,3.4,3.4
		L315.4,215.4L315.4,215.4L315.4,215.4z"/>
	<path class="st2" d="M326.1,206.1v1.1l-1.6,0.3c0.1,0.2,0.3,0.4,0.4,0.7c0.1,0.3,0.1,0.6,0.1,0.9c0,1-0.3,1.7-1,2.3
		c-0.7,0.6-1.6,0.8-2.8,0.8c-0.3,0-0.6,0-0.8-0.1c-0.4,0.3-0.6,0.6-0.6,0.9c0,0.2,0.1,0.4,0.3,0.5c0.2,0.1,0.6,0.2,1.1,0.2h1.6
		c1,0,1.8,0.2,2.4,0.7c0.5,0.4,0.8,1.1,0.8,1.9c0,1.1-0.4,1.9-1.3,2.4c-0.9,0.6-2.1,0.9-3.8,0.9c-1.3,0-2.3-0.2-2.9-0.7
		s-1-1.1-1-1.9c0-0.6,0.2-1.1,0.5-1.4c0.4-0.4,0.9-0.7,1.5-0.8c-0.3-0.1-0.5-0.3-0.7-0.6c-0.2-0.3-0.3-0.5-0.3-0.8
		c0-0.4,0.1-0.6,0.3-0.9c0.2-0.2,0.5-0.5,0.9-0.7c-0.5-0.2-0.9-0.6-1.2-1s-0.5-1-0.5-1.6c0-1,0.3-1.8,1-2.4c0.6-0.6,1.5-0.8,2.7-0.8
		c0.3,0,0.5,0,0.8,0.1s0.5,0.1,0.7,0.1L326.1,206.1L326.1,206.1L326.1,206.1z M318.8,216.9c0,0.4,0.2,0.8,0.6,1
		c0.4,0.2,0.9,0.4,1.6,0.4c1.1,0,1.9-0.2,2.4-0.5c0.5-0.3,0.8-0.7,0.8-1.2c0-0.4-0.1-0.7-0.4-0.9c-0.3-0.2-0.8-0.3-1.6-0.3h-1.5
		c-0.6,0-1,0.1-1.4,0.4C318.9,216.1,318.8,216.4,318.8,216.9z M319.6,209.1c0,0.6,0.1,1,0.5,1.4c0.3,0.3,0.7,0.5,1.3,0.5
		c1.1,0,1.7-0.6,1.7-1.8c0-0.6-0.1-1.1-0.4-1.4s-0.7-0.5-1.3-0.5c-0.6,0-1,0.2-1.3,0.5C319.8,208,319.6,208.5,319.6,209.1z"/>
</g>
<g>
	<rect x="285.3" y="257.6" class="st0" width="165.1" height="50.4"/>
	<path class="st2" d="M291.3,270.8h-2v-10.6h-3.6v-1.7h9.3v1.7h-3.6L291.3,270.8L291.3,270.8z"/>
	<path class="st2" d="M302.4,270.8l-0.4-1.3H302c-0.5,0.6-0.9,1-1.4,1.2c-0.5,0.2-1,0.3-1.8,0.3c-0.9,0-1.6-0.3-2.1-0.7
		c-0.5-0.5-0.8-1.2-0.8-2.1c0-1,0.4-1.7,1.1-2.2c0.7-0.5,1.8-0.8,3.3-0.8l1.6,0v-0.5c0-0.6-0.1-1-0.4-1.3s-0.7-0.4-1.3-0.4
		c-0.5,0-0.9,0.1-1.4,0.2c-0.4,0.1-0.9,0.3-1.3,0.5l-0.6-1.4c0.5-0.3,1.1-0.5,1.7-0.6c0.6-0.1,1.2-0.2,1.7-0.2
		c1.2,0,2.1,0.3,2.7,0.8c0.6,0.5,0.9,1.3,0.9,2.4v6.3L302.4,270.8L302.4,270.8z M299.5,269.4c0.7,0,1.3-0.2,1.7-0.6s0.7-1,0.7-1.7
		v-0.8l-1.2,0c-0.9,0-1.6,0.2-2,0.5c-0.4,0.3-0.6,0.7-0.6,1.3c0,0.4,0.1,0.7,0.4,1C298.6,269.3,299,269.4,299.5,269.4z"/>
	<path class="st2" d="M306.5,259c0-0.4,0.1-0.6,0.3-0.8s0.5-0.3,0.8-0.3c0.4,0,0.6,0.1,0.8,0.3c0.2,0.2,0.3,0.5,0.3,0.8
		c0,0.3-0.1,0.6-0.3,0.8s-0.5,0.3-0.8,0.3c-0.4,0-0.6-0.1-0.8-0.3S306.5,259.3,306.5,259z M308.6,270.8h-2v-9.4h2V270.8z"/>
	<path class="st2" d="M313.4,270.8h-2v-13.2h2V270.8z"/>
	<path class="st2" d="M324.6,266.1c0,1.5-0.4,2.7-1.2,3.6s-1.9,1.3-3.3,1.3c-0.9,0-1.6-0.2-2.3-0.6s-1.2-1-1.5-1.7
		c-0.4-0.7-0.5-1.6-0.5-2.6c0-1.5,0.4-2.7,1.2-3.5c0.8-0.9,1.9-1.3,3.3-1.3c1.4,0,2.4,0.4,3.2,1.3
		C324.2,263.5,324.6,264.6,324.6,266.1z M317.8,266.1c0,2.2,0.8,3.2,2.4,3.2c1.6,0,2.4-1.1,2.4-3.2c0-2.1-0.8-3.2-2.4-3.2
		c-0.8,0-1.4,0.3-1.8,0.8S317.8,265.1,317.8,266.1z"/>
	<path class="st2" d="M331.6,261.3c0.4,0,0.7,0,1,0.1l-0.2,1.9c-0.3-0.1-0.6-0.1-0.9-0.1c-0.8,0-1.4,0.3-1.9,0.8s-0.7,1.2-0.7,2v4.9
		h-2v-9.4h1.6l0.3,1.6h0.1c0.3-0.6,0.7-1,1.2-1.3S331,261.3,331.6,261.3z"/>
	<path class="st2" d="M334.2,259c0-0.4,0.1-0.6,0.3-0.8s0.5-0.3,0.8-0.3c0.4,0,0.6,0.1,0.8,0.3c0.2,0.2,0.3,0.5,0.3,0.8
		c0,0.3-0.1,0.6-0.3,0.8s-0.5,0.3-0.8,0.3c-0.4,0-0.6-0.1-0.8-0.3S334.2,259.3,334.2,259z M336.3,270.8h-2v-9.4h2V270.8z"/>
	<path class="st2" d="M347.4,270.8h-2V265c0-0.7-0.1-1.3-0.4-1.6s-0.8-0.5-1.4-0.5c-0.8,0-1.5,0.3-1.8,0.7c-0.4,0.5-0.6,1.3-0.6,2.5
		v4.7h-2v-9.4h1.6l0.3,1.2h0.1c0.3-0.5,0.7-0.8,1.2-1c0.5-0.2,1.1-0.4,1.7-0.4c2.2,0,3.4,1.1,3.4,3.4L347.4,270.8L347.4,270.8
		L347.4,270.8z"/>
	<path class="st2" d="M358,261.4v1.1l-1.6,0.3c0.1,0.2,0.3,0.4,0.4,0.7c0.1,0.3,0.1,0.6,0.1,0.9c0,1-0.3,1.7-1,2.3
		c-0.7,0.5-1.6,0.8-2.8,0.8c-0.3,0-0.6,0-0.8-0.1c-0.4,0.3-0.6,0.6-0.6,0.9c0,0.2,0.1,0.4,0.3,0.5c0.2,0.1,0.6,0.2,1.1,0.2h1.6
		c1,0,1.8,0.2,2.4,0.7c0.5,0.4,0.8,1.1,0.8,1.9c0,1.1-0.4,1.9-1.3,2.5c-0.9,0.6-2.1,0.9-3.8,0.9c-1.3,0-2.3-0.2-2.9-0.7
		s-1-1.1-1-1.9c0-0.6,0.2-1.1,0.5-1.5c0.4-0.4,0.9-0.7,1.5-0.8c-0.3-0.1-0.5-0.3-0.7-0.5s-0.3-0.5-0.3-0.8c0-0.4,0.1-0.6,0.3-0.9
		s0.5-0.5,0.9-0.7c-0.5-0.2-0.9-0.5-1.2-1s-0.5-1-0.5-1.6c0-1,0.3-1.8,1-2.4s1.5-0.8,2.7-0.8c0.3,0,0.5,0,0.8,0
		c0.3,0,0.5,0.1,0.7,0.1L358,261.4L358,261.4L358,261.4z M350.7,272.3c0,0.4,0.2,0.8,0.6,1c0.4,0.2,0.9,0.4,1.6,0.4
		c1.1,0,1.9-0.2,2.4-0.5c0.5-0.3,0.8-0.7,0.8-1.2c0-0.4-0.1-0.7-0.4-0.9c-0.3-0.2-0.8-0.3-1.6-0.3h-1.5c-0.6,0-1,0.1-1.4,0.4
		C350.9,271.4,350.7,271.8,350.7,272.3z M351.5,264.5c0,0.6,0.1,1,0.5,1.4s0.7,0.5,1.3,0.5c1.1,0,1.7-0.6,1.7-1.8
		c0-0.6-0.1-1.1-0.4-1.4c-0.3-0.3-0.7-0.5-1.3-0.5s-1,0.2-1.3,0.5C351.7,263.4,351.5,263.8,351.5,264.5z"/>
	<path class="st2" d="M372.2,270.8l-1.2-3.4h-4.7l-1.2,3.4h-2.1l4.6-12.4h2.2l4.6,12.4H372.2z M370.4,265.6l-1.2-3.4
		c-0.1-0.2-0.2-0.6-0.4-1.1s-0.3-0.8-0.3-1.1c-0.1,0.7-0.4,1.5-0.7,2.3l-1.1,3.2L370.4,265.6L370.4,265.6L370.4,265.6z"/>
	<path class="st2" d="M384,270.8h-2V265c0-0.7-0.1-1.3-0.4-1.6s-0.8-0.5-1.4-0.5c-0.8,0-1.5,0.3-1.8,0.7c-0.4,0.5-0.6,1.3-0.6,2.5
		v4.7h-2v-9.4h1.6l0.3,1.2h0.1c0.3-0.5,0.7-0.8,1.2-1s1.1-0.4,1.7-0.4c2.2,0,3.4,1.1,3.4,3.4L384,270.8L384,270.8L384,270.8z"/>
	<path class="st2" d="M389.9,271c-1.2,0-2.1-0.4-2.7-1.3s-1-2-1-3.6s0.3-2.7,1-3.6c0.7-0.9,1.6-1.3,2.8-1.3c1.2,0,2.2,0.5,2.8,1.4
		h0.1c-0.1-0.7-0.1-1.2-0.1-1.6v-3.4h2v13.2h-1.6l-0.4-1.2h-0.1C392,270.5,391.1,271,389.9,271z M390.4,269.4c0.8,0,1.4-0.2,1.8-0.7
		s0.6-1.2,0.6-2.2v-0.3c0-1.2-0.2-2-0.6-2.5c-0.4-0.5-1-0.7-1.8-0.7c-0.7,0-1.2,0.3-1.6,0.9s-0.6,1.4-0.6,2.4c0,1,0.2,1.8,0.5,2.4
		S389.7,269.4,390.4,269.4z"/>
	<path class="st2" d="M413.2,264.6c0,1.5-0.3,2.8-0.9,3.8s-1.4,1.8-2.5,2.2l3,3.2h-2.7l-2.3-2.8h-0.3c-1.9,0-3.3-0.5-4.3-1.7
		c-1-1.1-1.5-2.7-1.5-4.7s0.5-3.6,1.5-4.7c1-1.1,2.4-1.6,4.3-1.6c1.8,0,3.3,0.5,4.3,1.7C412.7,261,413.2,262.6,413.2,264.6z
		 M403.8,264.6c0,1.5,0.3,2.7,0.9,3.5c0.6,0.8,1.5,1.2,2.7,1.2c1.2,0,2.1-0.4,2.7-1.2c0.6-0.8,0.9-1.9,0.9-3.5
		c0-1.5-0.3-2.7-0.9-3.5c-0.6-0.8-1.5-1.2-2.7-1.2c-1.2,0-2.1,0.4-2.7,1.2C404.1,261.9,403.8,263.1,403.8,264.6z"/>
	<path class="st2" d="M422.2,270.8l-0.3-1.2h-0.1c-0.3,0.4-0.7,0.8-1.2,1c-0.5,0.3-1.1,0.4-1.8,0.4c-1.1,0-2-0.3-2.5-0.9
		c-0.6-0.6-0.8-1.4-0.8-2.6v-6.1h2v5.8c0,0.7,0.1,1.3,0.4,1.6s0.8,0.5,1.4,0.5c0.8,0,1.5-0.3,1.8-0.8c0.4-0.5,0.6-1.3,0.6-2.5v-4.7
		h2v9.4L422.2,270.8L422.2,270.8z"/>
	<path class="st2" d="M432.5,270.8l-0.4-1.3H432c-0.5,0.6-0.9,1-1.4,1.2c-0.5,0.2-1,0.3-1.8,0.3c-0.9,0-1.6-0.3-2.1-0.7
		s-0.8-1.2-0.8-2.1c0-1,0.4-1.7,1.1-2.2c0.7-0.5,1.8-0.8,3.3-0.8l1.6,0v-0.5c0-0.6-0.1-1-0.4-1.3s-0.7-0.4-1.3-0.4
		c-0.5,0-0.9,0.1-1.4,0.2c-0.4,0.1-0.9,0.3-1.3,0.5l-0.6-1.4c0.5-0.3,1.1-0.5,1.7-0.6c0.6-0.1,1.2-0.2,1.7-0.2
		c1.2,0,2.1,0.3,2.7,0.8c0.6,0.5,0.9,1.3,0.9,2.4v6.3L432.5,270.8L432.5,270.8z M429.5,269.4c0.7,0,1.3-0.2,1.7-0.6s0.7-1,0.7-1.7
		v-0.8l-1.2,0c-0.9,0-1.6,0.2-2,0.5s-0.6,0.7-0.6,1.3c0,0.4,0.1,0.7,0.4,1C428.7,269.3,429,269.4,429.5,269.4z"/>
	<path class="st2" d="M435.9,267v-1.7h4.4v1.7H435.9z"/>
	<path class="st2" d="M288.8,291.6h-2v-13.2h2V291.6z"/>
	<path class="st2" d="M291.5,279.8c0-0.4,0.1-0.6,0.3-0.8s0.5-0.3,0.8-0.3c0.4,0,0.6,0.1,0.8,0.3c0.2,0.2,0.3,0.5,0.3,0.8
		c0,0.3-0.1,0.6-0.3,0.8s-0.5,0.3-0.8,0.3c-0.4,0-0.6-0.1-0.8-0.3S291.5,280.1,291.5,279.8z M293.6,291.6h-2v-9.4h2V291.6z"/>
	<path class="st2" d="M299.9,290.1c0.5,0,1-0.1,1.5-0.2v1.5c-0.2,0.1-0.5,0.2-0.9,0.2s-0.7,0.1-1.1,0.1c-1.9,0-2.8-1-2.8-3v-5h-1.3
		v-0.9l1.4-0.7l0.7-2h1.2v2.1h2.7v1.5h-2.7v5c0,0.5,0.1,0.8,0.4,1.1C299.2,290,299.5,290.1,299.9,290.1z"/>
	<path class="st2" d="M301.8,282.2h2.2l1.9,5.3c0.3,0.8,0.5,1.5,0.6,2.1h0.1c0-0.3,0.1-0.7,0.3-1.1s0.9-2.5,2.1-6.3h2.1l-4,10.6
		c-0.7,2-1.9,2.9-3.6,2.9c-0.4,0-0.9,0-1.3-0.1V294c0.3,0.1,0.6,0.1,1,0.1c1,0,1.6-0.6,2-1.7l0.4-0.9L301.8,282.2z"/>
	<path class="st2" d="M324.9,291.6l-1.2-3.4h-4.7l-1.2,3.4h-2.1l4.6-12.4h2.2l4.6,12.4H324.9z M323.1,286.4L322,283
		c-0.1-0.2-0.2-0.6-0.4-1.1s-0.3-0.8-0.3-1.1c-0.1,0.7-0.4,1.5-0.7,2.3l-1.1,3.2L323.1,286.4L323.1,286.4L323.1,286.4z"/>
	<path class="st2" d="M334.8,288.9c0,0.9-0.3,1.6-1,2.1c-0.7,0.5-1.6,0.7-2.9,0.7c-1.3,0-2.3-0.2-3-0.6v-1.7
		c1.1,0.5,2.1,0.8,3.1,0.8c1.2,0,1.8-0.4,1.8-1.1c0-0.2-0.1-0.4-0.2-0.6c-0.1-0.2-0.4-0.3-0.7-0.5c-0.3-0.2-0.7-0.4-1.3-0.6
		c-1.1-0.4-1.8-0.8-2.2-1.3s-0.6-1-0.6-1.6c0-0.8,0.3-1.4,1-1.9c0.6-0.4,1.5-0.7,2.6-0.7c1.1,0,2.1,0.2,3.1,0.7l-0.6,1.5
		c-1-0.4-1.9-0.6-2.5-0.6c-1,0-1.6,0.3-1.6,0.9c0,0.3,0.1,0.5,0.4,0.7s0.9,0.5,1.8,0.8c0.8,0.3,1.3,0.6,1.7,0.8s0.6,0.5,0.8,0.9
		C334.7,288.1,334.8,288.5,334.8,288.9z"/>
	<path class="st2" d="M343.2,288.9c0,0.9-0.3,1.6-1,2.1c-0.7,0.5-1.6,0.7-2.9,0.7c-1.3,0-2.3-0.2-3-0.6v-1.7
		c1.1,0.5,2.1,0.8,3.1,0.8c1.2,0,1.8-0.4,1.8-1.1c0-0.2-0.1-0.4-0.2-0.6c-0.1-0.2-0.4-0.3-0.7-0.5c-0.3-0.2-0.7-0.4-1.3-0.6
		c-1.1-0.4-1.8-0.8-2.2-1.3s-0.6-1-0.6-1.6c0-0.8,0.3-1.4,1-1.9c0.6-0.4,1.5-0.7,2.6-0.7c1.1,0,2.1,0.2,3.1,0.7l-0.6,1.5
		c-1-0.4-1.9-0.6-2.5-0.6c-1,0-1.6,0.3-1.6,0.9c0,0.3,0.1,0.5,0.4,0.7s0.9,0.5,1.8,0.8c0.8,0.3,1.3,0.6,1.7,0.8s0.6,0.5,0.8,0.9
		C343.1,288.1,343.2,288.5,343.2,288.9z"/>
	<path class="st2" d="M351.9,291.6l-0.3-1.2h-0.1c-0.3,0.4-0.7,0.8-1.2,1c-0.5,0.3-1.1,0.4-1.8,0.4c-1.1,0-2-0.3-2.5-0.9
		c-0.6-0.6-0.8-1.4-0.8-2.6v-6.1h2v5.8c0,0.7,0.1,1.3,0.4,1.6s0.8,0.5,1.4,0.5c0.8,0,1.5-0.3,1.8-0.8c0.4-0.5,0.6-1.3,0.6-2.5v-4.7
		h2v9.4L351.9,291.6L351.9,291.6z"/>
	<path class="st2" d="M361.1,282.1c0.4,0,0.7,0,1,0.1l-0.2,1.9c-0.3-0.1-0.6-0.1-0.9-0.1c-0.8,0-1.4,0.3-1.9,0.8s-0.7,1.2-0.7,2v4.9
		h-2v-9.4h1.6l0.3,1.6h0.1c0.3-0.6,0.7-1,1.2-1.3C360,282.2,360.5,282.1,361.1,282.1z"/>
	<path class="st2" d="M369.6,291.6l-0.4-1.3h-0.1c-0.5,0.6-0.9,1-1.4,1.2c-0.5,0.2-1,0.3-1.8,0.3c-0.9,0-1.6-0.3-2.1-0.7
		s-0.8-1.2-0.8-2.1c0-1,0.4-1.7,1.1-2.2c0.7-0.5,1.8-0.8,3.3-0.8l1.6,0v-0.5c0-0.6-0.1-1-0.4-1.3s-0.7-0.4-1.3-0.4
		c-0.5,0-0.9,0.1-1.4,0.2c-0.4,0.1-0.9,0.3-1.3,0.5l-0.6-1.4c0.5-0.3,1.1-0.5,1.7-0.6c0.6-0.1,1.2-0.2,1.7-0.2
		c1.2,0,2.1,0.3,2.7,0.8c0.6,0.5,0.9,1.3,0.9,2.4v6.3L369.6,291.6L369.6,291.6z M366.7,290.2c0.7,0,1.3-0.2,1.7-0.6s0.7-1,0.7-1.7
		v-0.8l-1.2,0c-0.9,0-1.6,0.2-2,0.5s-0.6,0.7-0.6,1.3c0,0.4,0.1,0.7,0.4,1C365.8,290.1,366.2,290.2,366.7,290.2z"/>
	<path class="st2" d="M382.1,291.6h-2v-5.8c0-0.7-0.1-1.3-0.4-1.6s-0.8-0.5-1.4-0.5c-0.8,0-1.5,0.3-1.8,0.7
		c-0.4,0.5-0.6,1.3-0.6,2.5v4.7h-2v-9.4h1.6l0.3,1.2h0.1c0.3-0.5,0.7-0.8,1.2-1s1.1-0.4,1.7-0.4c2.2,0,3.4,1.1,3.4,3.4L382.1,291.6
		L382.1,291.6L382.1,291.6z"/>
	<path class="st2" d="M388.6,291.8c-1.4,0-2.5-0.4-3.2-1.2c-0.7-0.8-1.1-2-1.1-3.6c0-1.6,0.4-2.8,1.1-3.6s1.9-1.3,3.3-1.3
		c1,0,1.9,0.2,2.7,0.5l-0.6,1.6c-0.8-0.3-1.5-0.5-2.1-0.5c-1.6,0-2.4,1.1-2.4,3.2c0,1,0.2,1.8,0.6,2.4s1,0.8,1.8,0.8
		c0.9,0,1.7-0.2,2.5-0.7v1.7c-0.4,0.2-0.7,0.4-1.1,0.5C389.7,291.7,389.2,291.8,388.6,291.8z"/>
	<path class="st2" d="M397.5,291.8c-1.5,0-2.6-0.4-3.4-1.3s-1.2-2-1.2-3.5c0-1.5,0.4-2.7,1.1-3.6s1.8-1.3,3.1-1.3
		c1.2,0,2.2,0.4,2.9,1.1c0.7,0.8,1.1,1.8,1.1,3.1v1.1h-6.2c0,0.9,0.3,1.6,0.7,2.1c0.5,0.5,1.1,0.7,2,0.7c0.5,0,1.1,0,1.5-0.2
		c0.5-0.1,1-0.3,1.5-0.5v1.6c-0.5,0.2-1,0.4-1.5,0.5C398.7,291.7,398.1,291.8,397.5,291.8z M397.1,283.6c-0.6,0-1.1,0.2-1.5,0.6
		s-0.6,1-0.7,1.8h4.3c0-0.8-0.2-1.4-0.6-1.8C398.3,283.8,397.8,283.6,397.1,283.6z"/>
</g>
<g>
	<rect x="285.3" y="333.5" class="st0" width="192" height="62.9"/>
	<path class="st2" d="M287,334.3h3.7c1.7,0,2.9,0.3,3.7,0.7s1.1,1.3,1.1,2.4c0,0.7-0.2,1.3-0.6,1.8s-0.9,0.8-1.6,0.9v0.1
		c0.9,0.2,1.5,0.5,1.9,1s0.6,1.1,0.6,2c0,1.1-0.4,2-1.2,2.6c-0.8,0.6-1.9,0.9-3.2,0.9H287L287,334.3L287,334.3z M289,339.4h2
		c0.9,0,1.5-0.1,1.9-0.4s0.6-0.7,0.6-1.4c0-0.6-0.2-1-0.6-1.3s-1.1-0.4-2-0.4H289V339.4z M289,341v3.9h2.1c0.9,0,1.5-0.2,1.9-0.5
		s0.6-0.8,0.6-1.5c0-0.6-0.2-1.1-0.7-1.4s-1.1-0.5-2-0.5L289,341L289,341z"/>
	<path class="st2" d="M304.8,346.6l-0.3-1.2h-0.1c-0.3,0.4-0.7,0.8-1.2,1s-1.1,0.4-1.8,0.4c-1.1,0-2-0.3-2.5-0.9
		c-0.6-0.6-0.8-1.4-0.8-2.6v-6.1h2v5.8c0,0.7,0.1,1.3,0.4,1.6s0.8,0.5,1.4,0.5c0.8,0,1.5-0.3,1.8-0.8c0.4-0.5,0.6-1.3,0.6-2.5v-4.7
		h2v9.4L304.8,346.6L304.8,346.6z"/>
	<path class="st2" d="M311.2,346.6h-2v-13.2h2V346.6z"/>
	<path class="st2" d="M315.9,341.7l1.1-1.4l2.8-3h2.3l-3.8,4l4,5.3h-2.3l-3-4.1l-1.1,0.9v3.2h-2v-13.2h2v6.4L315.9,341.7
		L315.9,341.7L315.9,341.7z"/>
	<path class="st2" d="M334,346.6l-3.6-10.3h-0.1c0.1,1.5,0.1,3,0.1,4.3v6h-1.8v-12.4h2.9l3.4,9.8h0l3.5-9.8h2.9v12.4h-2v-6.1
		c0-0.6,0-1.4,0-2.4c0-1,0.1-1.6,0.1-1.8h-0.1l-3.7,10.3L334,346.6L334,346.6z"/>
	<path class="st2" d="M350.3,346.6l-0.4-1.3h-0.1c-0.5,0.6-0.9,1-1.4,1.2s-1,0.3-1.8,0.3c-0.9,0-1.6-0.3-2.1-0.7
		c-0.5-0.5-0.8-1.2-0.8-2.1c0-1,0.4-1.7,1.1-2.2c0.7-0.5,1.8-0.8,3.3-0.8l1.6,0v-0.5c0-0.6-0.1-1-0.4-1.3s-0.7-0.4-1.3-0.4
		c-0.5,0-0.9,0.1-1.4,0.2s-0.9,0.3-1.3,0.5l-0.6-1.4c0.5-0.3,1.1-0.5,1.7-0.6c0.6-0.1,1.2-0.2,1.7-0.2c1.2,0,2.1,0.3,2.7,0.8
		c0.6,0.5,0.9,1.3,0.9,2.4v6.3L350.3,346.6L350.3,346.6z M347.3,345.3c0.7,0,1.3-0.2,1.7-0.6s0.7-1,0.7-1.7v-0.8l-1.2,0
		c-0.9,0-1.6,0.2-2,0.5s-0.6,0.7-0.6,1.3c0,0.4,0.1,0.7,0.4,1C346.4,345.2,346.8,345.3,347.3,345.3z"/>
	<path class="st2" d="M362.7,346.6h-2v-5.8c0-0.7-0.1-1.3-0.4-1.6s-0.8-0.5-1.4-0.5c-0.8,0-1.5,0.3-1.8,0.7
		c-0.4,0.5-0.6,1.3-0.6,2.5v4.7h-2v-9.4h1.6l0.3,1.2h0.1c0.3-0.5,0.7-0.8,1.2-1s1.1-0.4,1.7-0.4c2.2,0,3.4,1.1,3.4,3.4L362.7,346.6
		L362.7,346.6L362.7,346.6z"/>
	<path class="st2" d="M372,346.6l-0.3-1.2h-0.1c-0.3,0.4-0.7,0.8-1.2,1c-0.5,0.3-1.1,0.4-1.8,0.4c-1.1,0-2-0.3-2.5-0.9
		c-0.6-0.6-0.8-1.4-0.8-2.6v-6.1h2v5.8c0,0.7,0.1,1.3,0.4,1.6s0.8,0.5,1.4,0.5c0.8,0,1.5-0.3,1.8-0.8c0.4-0.5,0.6-1.3,0.6-2.5v-4.7
		h2v9.4L372,346.6L372,346.6z"/>
	<path class="st2" d="M381.1,338.8h-2.3v7.9h-2v-7.9h-1.5v-0.9l1.5-0.6v-0.6c0-1.1,0.3-1.9,0.8-2.5c0.5-0.5,1.3-0.8,2.4-0.8
		c0.7,0,1.4,0.1,2.1,0.4l-0.5,1.5c-0.5-0.2-1-0.2-1.4-0.2c-0.5,0-0.8,0.1-1,0.4s-0.3,0.7-0.3,1.3v0.6h2.3L381.1,338.8L381.1,338.8z"
		/>
	<path class="st2" d="M388.6,346.6l-0.4-1.3h-0.1c-0.5,0.6-0.9,1-1.4,1.2c-0.5,0.2-1,0.3-1.8,0.3c-0.9,0-1.6-0.3-2.1-0.7
		s-0.8-1.2-0.8-2.1c0-1,0.4-1.7,1.1-2.2c0.7-0.5,1.8-0.8,3.3-0.8l1.6,0v-0.5c0-0.6-0.1-1-0.4-1.3s-0.7-0.4-1.3-0.4
		c-0.5,0-0.9,0.1-1.4,0.2c-0.4,0.1-0.9,0.3-1.3,0.5l-0.6-1.4c0.5-0.3,1.1-0.5,1.7-0.6c0.6-0.1,1.2-0.2,1.7-0.2
		c1.2,0,2.1,0.3,2.7,0.8c0.6,0.5,0.9,1.3,0.9,2.4v6.3L388.6,346.6L388.6,346.6z M385.6,345.3c0.7,0,1.3-0.2,1.7-0.6s0.7-1,0.7-1.7
		v-0.8l-1.2,0c-0.9,0-1.6,0.2-2,0.5s-0.6,0.7-0.6,1.3c0,0.4,0.1,0.7,0.4,1C384.8,345.2,385.1,345.3,385.6,345.3z"/>
	<path class="st2" d="M396.5,346.8c-1.4,0-2.5-0.4-3.2-1.2c-0.7-0.8-1.1-2-1.1-3.6c0-1.6,0.4-2.8,1.1-3.6s1.9-1.3,3.3-1.3
		c1,0,1.9,0.2,2.7,0.5l-0.6,1.6c-0.8-0.3-1.5-0.5-2.1-0.5c-1.6,0-2.4,1.1-2.4,3.2c0,1,0.2,1.8,0.6,2.4s1,0.8,1.8,0.8
		c0.9,0,1.7-0.2,2.5-0.7v1.7c-0.4,0.2-0.7,0.4-1.1,0.5C397.6,346.8,397.1,346.8,396.5,346.8z"/>
	<path class="st2" d="M404.8,345.2c0.5,0,1-0.1,1.5-0.2v1.5c-0.2,0.1-0.5,0.2-0.9,0.2s-0.7,0.1-1.1,0.1c-1.9,0-2.8-1-2.8-3v-5h-1.3
		v-0.9l1.4-0.7l0.7-2h1.2v2.1h2.7v1.5h-2.7v5c0,0.5,0.1,0.8,0.4,1.1C404.1,345.1,404.5,345.2,404.8,345.2z"/>
	<path class="st2" d="M414.8,346.6l-0.3-1.2h-0.1c-0.3,0.4-0.7,0.8-1.2,1c-0.5,0.3-1.1,0.4-1.8,0.4c-1.1,0-2-0.3-2.5-0.9
		c-0.6-0.6-0.8-1.4-0.8-2.6v-6.1h2v5.8c0,0.7,0.1,1.3,0.4,1.6s0.8,0.5,1.4,0.5c0.8,0,1.5-0.3,1.8-0.8c0.4-0.5,0.6-1.3,0.6-2.5v-4.7
		h2v9.4L414.8,346.6L414.8,346.6z"/>
	<path class="st2" d="M423.9,337.1c0.4,0,0.7,0,1,0.1l-0.2,1.9c-0.3-0.1-0.6-0.1-0.9-0.1c-0.8,0-1.4,0.3-1.9,0.8s-0.7,1.2-0.7,2v4.9
		h-2v-9.4h1.6l0.3,1.6h0.1c0.3-0.6,0.7-1,1.2-1.3S423.3,337.1,423.9,337.1z"/>
	<path class="st2" d="M430.7,346.8c-1.5,0-2.6-0.4-3.4-1.3s-1.2-2-1.2-3.5c0-1.5,0.4-2.7,1.1-3.6s1.8-1.3,3.1-1.3
		c1.2,0,2.2,0.4,2.9,1.1c0.7,0.8,1.1,1.8,1.1,3.1v1.1h-6.2c0,0.9,0.3,1.6,0.7,2.1c0.5,0.5,1.1,0.7,2,0.7c0.5,0,1.1,0,1.5-0.2
		c0.5-0.1,1-0.3,1.5-0.5v1.6c-0.5,0.2-1,0.4-1.5,0.5C431.9,346.7,431.3,346.8,430.7,346.8z M430.3,338.6c-0.6,0-1.1,0.2-1.5,0.6
		s-0.6,1-0.7,1.8h4.3c0-0.8-0.2-1.4-0.6-1.8C431.5,338.8,431,338.6,430.3,338.6z"/>
	<path class="st8" d="M291.2,354.6c-1.1,0-2,0.4-2.7,1.1c-0.7,0.8-1,1.8-1,3.1c0,1.4,0.3,2.4,1,3.1s1.5,1.1,2.7,1.1
		c0.7,0,1.5-0.1,2.5-0.4v1c-0.7,0.3-1.6,0.4-2.6,0.4c-1.5,0-2.7-0.5-3.5-1.4s-1.2-2.2-1.2-3.9c0-1.1,0.2-2,0.6-2.8s1-1.4,1.7-1.9
		c0.8-0.4,1.6-0.6,2.6-0.6c1.1,0,2,0.2,2.8,0.6l-0.5,1C292.7,354.8,292,354.6,291.2,354.6z"/>
	<path class="st8" d="M300.4,363.9l-0.2-1.1h-0.1c-0.4,0.5-0.8,0.8-1.1,1s-0.9,0.3-1.4,0.3c-0.8,0-1.4-0.2-1.8-0.6s-0.6-1-0.6-1.7
		c0-1.6,1.3-2.4,3.7-2.5l1.3,0v-0.5c0-0.6-0.1-1-0.4-1.3s-0.7-0.4-1.3-0.4c-0.6,0-1.4,0.2-2.2,0.6l-0.4-0.9c0.4-0.2,0.8-0.4,1.3-0.5
		s0.9-0.2,1.4-0.2c0.9,0,1.6,0.2,2,0.6c0.4,0.4,0.7,1.1,0.7,2v5.3L300.4,363.9L300.4,363.9z M297.8,363.1c0.7,0,1.3-0.2,1.7-0.6
		s0.6-1,0.6-1.7v-0.7l-1.2,0c-0.9,0-1.6,0.2-2,0.4c-0.4,0.3-0.6,0.7-0.6,1.2c0,0.4,0.1,0.7,0.4,1C297,363,297.3,363.1,297.8,363.1z"
		/>
	<path class="st8" d="M307.3,364.1c-0.5,0-1-0.1-1.4-0.3s-0.8-0.5-1-0.9h-0.1c0.1,0.5,0.1,0.9,0.1,1.3v3.2h-1.2v-11.2h1l0.2,1.1h0.1
		c0.3-0.4,0.6-0.7,1-0.9s0.9-0.3,1.4-0.3c1,0,1.8,0.4,2.4,1c0.6,0.7,0.8,1.7,0.8,3c0,1.3-0.3,2.3-0.9,3
		C309.1,363.7,308.3,364.1,307.3,364.1z M307.1,357.1c-0.8,0-1.4,0.2-1.7,0.7s-0.5,1.1-0.5,2.1v0.3c0,1.1,0.2,1.9,0.5,2.3
		s0.9,0.7,1.7,0.7c0.7,0,1.2-0.3,1.6-0.8s0.6-1.3,0.6-2.2c0-1-0.2-1.7-0.6-2.2C308.4,357.3,307.8,357.1,307.1,357.1z"/>
	<path class="st8" d="M317.3,363.9l-0.2-1.1H317c-0.4,0.5-0.8,0.8-1.1,1s-0.9,0.3-1.4,0.3c-0.8,0-1.4-0.2-1.8-0.6s-0.6-1-0.6-1.7
		c0-1.6,1.3-2.4,3.7-2.5l1.3,0v-0.5c0-0.6-0.1-1-0.4-1.3s-0.7-0.4-1.3-0.4c-0.6,0-1.4,0.2-2.2,0.6l-0.4-0.9c0.4-0.2,0.8-0.4,1.3-0.5
		s0.9-0.2,1.4-0.2c0.9,0,1.6,0.2,2,0.6c0.4,0.4,0.7,1.1,0.7,2v5.3L317.3,363.9L317.3,363.9z M314.7,363.1c0.7,0,1.3-0.2,1.7-0.6
		s0.6-1,0.6-1.7v-0.7l-1.2,0c-0.9,0-1.6,0.2-2,0.4c-0.4,0.3-0.6,0.7-0.6,1.2c0,0.4,0.1,0.7,0.4,1C313.9,363,314.2,363.1,314.7,363.1
		z"/>
	<path class="st8" d="M324.2,356.1c1,0,1.8,0.4,2.4,1s0.8,1.7,0.8,2.9s-0.3,2.3-0.9,3c-0.6,0.7-1.4,1-2.4,1c-0.5,0-1-0.1-1.4-0.3
		s-0.8-0.5-1-0.9h-0.1l-0.3,1h-0.8v-11h1.2v2.7c0,0.6,0,1.1-0.1,1.6h0.1C322.3,356.5,323.1,356.1,324.2,356.1z M324,357.1
		c-0.8,0-1.4,0.2-1.7,0.7s-0.5,1.2-0.5,2.3s0.2,1.9,0.5,2.3s0.9,0.7,1.7,0.7c0.7,0,1.3-0.3,1.6-0.8c0.4-0.5,0.5-1.3,0.5-2.3
		c0-1-0.2-1.8-0.5-2.3C325.3,357.3,324.8,357.1,324,357.1z"/>
	<path class="st8" d="M329.3,354.1c0-0.3,0.1-0.5,0.2-0.6c0.1-0.1,0.3-0.2,0.5-0.2s0.4,0.1,0.5,0.2s0.2,0.3,0.2,0.6
		s-0.1,0.5-0.2,0.6c-0.1,0.1-0.3,0.2-0.5,0.2c-0.2,0-0.4-0.1-0.5-0.2C329.4,354.6,329.3,354.4,329.3,354.1z M330.6,363.9h-1.2v-7.7
		h1.2V363.9z"/>
	<path class="st8" d="M334.3,363.9h-1.2v-11h1.2V363.9z"/>
	<path class="st8" d="M336.6,354.1c0-0.3,0.1-0.5,0.2-0.6c0.1-0.1,0.3-0.2,0.5-0.2s0.4,0.1,0.5,0.2s0.2,0.3,0.2,0.6
		s-0.1,0.5-0.2,0.6c-0.1,0.1-0.3,0.2-0.5,0.2c-0.2,0-0.4-0.1-0.5-0.2C336.7,354.6,336.6,354.4,336.6,354.1z M337.9,363.9h-1.2v-7.7
		h1.2V363.9z"/>
	<path class="st8" d="M342.9,363.1c0.2,0,0.4,0,0.6,0s0.3-0.1,0.5-0.1v0.9c-0.1,0.1-0.3,0.1-0.6,0.1s-0.5,0.1-0.7,0.1
		c-1.5,0-2.2-0.8-2.2-2.4v-4.6h-1.1v-0.6l1.1-0.5l0.5-1.6h0.7v1.8h2.2v0.9h-2.2v4.5c0,0.5,0.1,0.8,0.3,1.1S342.5,363.1,342.9,363.1z
		"/>
	<path class="st8" d="M344.3,356.2h1.3l1.7,4.4c0.4,1,0.6,1.7,0.7,2.2h0.1c0.1-0.2,0.2-0.6,0.4-1.2c0.2-0.6,0.8-2.4,1.9-5.4h1.3
		l-3.3,8.8c-0.3,0.9-0.7,1.5-1.1,1.9c-0.4,0.4-1,0.5-1.6,0.5c-0.4,0-0.7,0-1.1-0.1v-0.9c0.3,0.1,0.5,0.1,0.9,0.1
		c0.8,0,1.4-0.5,1.7-1.4l0.4-1.1L344.3,356.2z"/>
	<path class="st8" d="M359,363.1c0.2,0,0.4,0,0.6,0s0.4-0.1,0.5-0.1v0.9c-0.1,0.1-0.3,0.1-0.6,0.1s-0.5,0.1-0.7,0.1
		c-1.5,0-2.2-0.8-2.2-2.4v-4.6h-1.1v-0.6l1.1-0.5l0.5-1.6h0.7v1.8h2.2v0.9h-2.2v4.5c0,0.5,0.1,0.8,0.3,1.1S358.6,363.1,359,363.1z"
		/>
	<path class="st8" d="M368.3,360.1c0,1.3-0.3,2.2-1,3c-0.6,0.7-1.5,1.1-2.6,1.1c-0.7,0-1.3-0.2-1.8-0.5c-0.5-0.3-1-0.8-1.2-1.4
		c-0.3-0.6-0.4-1.3-0.4-2.1c0-1.3,0.3-2.2,0.9-2.9s1.5-1,2.6-1c1.1,0,1.9,0.4,2.6,1.1S368.3,358.9,368.3,360.1z M362.4,360.1
		c0,1,0.2,1.7,0.6,2.3c0.4,0.5,1,0.8,1.7,0.8s1.4-0.3,1.7-0.8c0.4-0.5,0.6-1.3,0.6-2.3c0-1-0.2-1.7-0.6-2.2c-0.4-0.5-1-0.8-1.8-0.8
		c-0.8,0-1.3,0.3-1.7,0.8C362.6,358.3,362.4,359.1,362.4,360.1z"/>
	<path class="st8" d="M374.2,353.6h2.9c1.4,0,2.4,0.2,3,0.6c0.6,0.4,0.9,1,0.9,1.9c0,0.6-0.2,1.1-0.5,1.5c-0.3,0.4-0.8,0.7-1.5,0.8
		v0.1c1.6,0.3,2.4,1.1,2.4,2.5c0,0.9-0.3,1.6-0.9,2.2s-1.5,0.8-2.6,0.8h-3.6L374.2,353.6L374.2,353.6z M375.4,358h2
		c0.9,0,1.5-0.1,1.8-0.4s0.6-0.7,0.6-1.3c0-0.6-0.2-1-0.6-1.3c-0.4-0.3-1.1-0.4-2-0.4h-1.8L375.4,358L375.4,358z M375.4,359.1v3.9
		h2.1c0.8,0,1.5-0.2,1.9-0.5s0.6-0.8,0.6-1.5c0-0.6-0.2-1.1-0.6-1.4c-0.4-0.3-1.1-0.5-2-0.5L375.4,359.1L375.4,359.1z"/>
	<path class="st8" d="M384.5,356.2v5c0,0.6,0.1,1.1,0.4,1.4c0.3,0.3,0.7,0.5,1.4,0.5c0.8,0,1.4-0.2,1.8-0.7s0.6-1.2,0.6-2.2v-4.1
		h1.2v7.7h-1l-0.2-1h-0.1c-0.2,0.4-0.6,0.7-1,0.9c-0.4,0.2-0.9,0.3-1.5,0.3c-0.9,0-1.6-0.2-2.1-0.7c-0.5-0.5-0.7-1.2-0.7-2.1v-5
		L384.5,356.2L384.5,356.2z"/>
	<path class="st8" d="M393.5,363.9h-1.2v-11h1.2V363.9z"/>
	<path class="st8" d="M397.1,360c0.2-0.3,0.5-0.7,0.9-1.1l2.5-2.6h1.4l-3.1,3.3l3.4,4.4h-1.4l-2.7-3.6l-0.9,0.8v2.9h-1.2v-11h1.2
		v5.8C397.1,359,397.1,359.4,397.1,360L397.1,360L397.1,360z"/>
	<path class="st8" d="M412,363.9l-3.5-9.1h-0.1c0.1,0.7,0.1,1.6,0.1,2.6v6.5h-1.1v-10.3h1.8l3.3,8.5h0.1l3.3-8.5h1.8v10.3h-1.2v-6.6
		c0-0.8,0-1.6,0.1-2.5h-0.1l-3.5,9.1L412,363.9L412,363.9z"/>
	<path class="st8" d="M425,363.9l-0.2-1.1h-0.1c-0.4,0.5-0.8,0.8-1.1,1s-0.9,0.3-1.4,0.3c-0.8,0-1.4-0.2-1.8-0.6s-0.6-1-0.6-1.7
		c0-1.6,1.3-2.4,3.7-2.5l1.3,0v-0.5c0-0.6-0.1-1-0.4-1.3s-0.7-0.4-1.3-0.4c-0.6,0-1.4,0.2-2.2,0.6l-0.4-0.9c0.4-0.2,0.8-0.4,1.3-0.5
		s0.9-0.2,1.4-0.2c0.9,0,1.6,0.2,2,0.6c0.4,0.4,0.7,1.1,0.7,2v5.3L425,363.9L425,363.9z M422.4,363.1c0.7,0,1.3-0.2,1.7-0.6
		s0.6-1,0.6-1.7v-0.7l-1.2,0c-0.9,0-1.6,0.2-2,0.4c-0.4,0.3-0.6,0.7-0.6,1.2c0,0.4,0.1,0.7,0.4,1C421.6,363,421.9,363.1,422.4,363.1
		z"/>
	<path class="st8" d="M433.6,363.9v-5c0-0.6-0.1-1.1-0.4-1.4c-0.3-0.3-0.7-0.5-1.4-0.5c-0.8,0-1.4,0.2-1.8,0.7s-0.6,1.2-0.6,2.2v4
		h-1.2v-7.7h1l0.2,1.1h0.1c0.2-0.4,0.6-0.7,1-0.9s0.9-0.3,1.5-0.3c0.9,0,1.6,0.2,2.1,0.7s0.7,1.2,0.7,2.1v5L433.6,363.9L433.6,363.9
		L433.6,363.9z"/>
	<path class="st8" d="M438.3,356.2v5c0,0.6,0.1,1.1,0.4,1.4c0.3,0.3,0.7,0.5,1.4,0.5c0.8,0,1.4-0.2,1.8-0.7s0.6-1.2,0.6-2.2v-4.1
		h1.2v7.7h-1l-0.2-1h-0.1c-0.2,0.4-0.6,0.7-1,0.9c-0.4,0.2-0.9,0.3-1.5,0.3c-0.9,0-1.6-0.2-2.1-0.7c-0.5-0.5-0.7-1.2-0.7-2.1v-5
		L438.3,356.2L438.3,356.2z"/>
	<path class="st8" d="M449.5,357.1h-2v6.8h-1.2v-6.8H445v-0.5l1.4-0.4v-0.4c0-1.9,0.8-2.9,2.5-2.9c0.4,0,0.9,0.1,1.4,0.3l-0.3,0.9
		c-0.5-0.1-0.8-0.2-1.2-0.2c-0.4,0-0.8,0.1-1,0.4c-0.2,0.3-0.3,0.8-0.3,1.4v0.5h2L449.5,357.1L449.5,357.1z"/>
	<path class="st8" d="M455.7,363.9l-0.2-1.1h-0.1c-0.4,0.5-0.8,0.8-1.1,1s-0.9,0.3-1.4,0.3c-0.8,0-1.4-0.2-1.8-0.6s-0.6-1-0.6-1.7
		c0-1.6,1.3-2.4,3.7-2.5l1.3,0v-0.5c0-0.6-0.1-1-0.4-1.3s-0.7-0.4-1.3-0.4c-0.6,0-1.4,0.2-2.2,0.6l-0.4-0.9c0.4-0.2,0.8-0.4,1.3-0.5
		s0.9-0.2,1.4-0.2c0.9,0,1.6,0.2,2,0.6c0.4,0.4,0.7,1.1,0.7,2v5.3L455.7,363.9L455.7,363.9z M453,363.1c0.7,0,1.3-0.2,1.7-0.6
		s0.6-1,0.6-1.7v-0.7l-1.2,0c-0.9,0-1.6,0.2-2,0.4c-0.4,0.3-0.6,0.7-0.6,1.2c0,0.4,0.1,0.7,0.4,1C452.2,363,452.6,363.1,453,363.1z"
		/>
	<path class="st8" d="M462,364.1c-1.1,0-2-0.3-2.6-1s-0.9-1.7-0.9-2.9c0-1.3,0.3-2.3,0.9-3c0.6-0.7,1.5-1.1,2.7-1.1
		c0.4,0,0.7,0,1.1,0.1s0.7,0.2,0.9,0.3l-0.4,1c-0.3-0.1-0.5-0.2-0.9-0.3s-0.6-0.1-0.8-0.1c-1.6,0-2.4,1-2.4,3c0,1,0.2,1.7,0.6,2.2
		c0.4,0.5,1,0.8,1.7,0.8c0.6,0,1.3-0.1,2-0.4v1C463.5,364,462.8,364.1,462,364.1z"/>
	<path class="st8" d="M465.2,360.6v-1.1h3.5v1.1H465.2z"/>
	<path class="st8" d="M289.1,380.4c0.2,0,0.4,0,0.6,0s0.4-0.1,0.5-0.1v0.9c-0.1,0.1-0.3,0.1-0.6,0.1s-0.5,0.1-0.7,0.1
		c-1.5,0-2.2-0.8-2.2-2.4v-4.6h-1.1v-0.6l1.1-0.5l0.5-1.6h0.7v1.8h2.2v0.9h-2.2v4.6c0,0.5,0.1,0.8,0.3,1.1S288.7,380.4,289.1,380.4z
		"/>
	<path class="st8" d="M292.8,373.5v5c0,0.6,0.1,1.1,0.4,1.4c0.3,0.3,0.7,0.5,1.4,0.5c0.8,0,1.4-0.2,1.8-0.7s0.6-1.2,0.6-2.2v-4.1
		h1.2v7.7h-1l-0.2-1h-0.1c-0.2,0.4-0.6,0.7-1,0.9s-0.9,0.3-1.5,0.3c-0.9,0-1.6-0.2-2.1-0.7c-0.5-0.5-0.7-1.2-0.7-2.1v-5L292.8,373.5
		L292.8,373.5z"/>
	<path class="st8" d="M304.1,373.4c0.3,0,0.6,0,0.9,0.1l-0.2,1.1c-0.3-0.1-0.6-0.1-0.9-0.1c-0.6,0-1.2,0.3-1.6,0.8s-0.7,1.1-0.7,1.9
		v4.1h-1.2v-7.7h1l0.1,1.4h0.1c0.3-0.5,0.6-0.9,1-1.2C303.1,373.5,303.6,373.4,304.1,373.4z"/>
	<path class="st8" d="M309.7,381.4c-1.1,0-2-0.4-2.7-1s-1-1.7-1-2.9c0-1.3,0.3-2.2,0.9-3c0.6-0.7,1.4-1.1,2.5-1.1c1,0,1.7,0.3,2.3,1
		s0.9,1.5,0.9,2.5v0.7h-5.3c0,0.9,0.3,1.6,0.7,2.1s1,0.7,1.8,0.7c0.8,0,1.6-0.2,2.5-0.5v1c-0.4,0.2-0.8,0.3-1.2,0.4
		C310.7,381.4,310.2,381.4,309.7,381.4z M309.4,374.4c-0.6,0-1.1,0.2-1.5,0.6c-0.4,0.4-0.6,1-0.6,1.7h4c0-0.7-0.2-1.3-0.5-1.7
		C310.5,374.6,310,374.4,309.4,374.4z"/>
</g>
<g>
	<path class="st1" d="M240.4,107.1l-5.3-1.9l-7.8-3.1v-1.3c1.4-0.4,2.4-1.7,2.4-3.2c0-1.8-1.5-3.3-3.3-3.3c-1.8,0-3.3,1.5-3.3,3.3
		c0,0.5,0.4,0.9,0.9,0.9s0.9-0.4,0.9-0.9c0-0.8,0.7-1.5,1.5-1.5c0.8,0,1.5,0.7,1.5,1.5s-0.7,1.5-1.5,1.5c-0.5,0-0.9,0.4-0.9,0.9v2
		l-7.8,3.1l-5.3,1.9c-2.4,0.8-4,3.1-4,5.6v4.5c0,0.5,0.4,0.9,0.9,0.9h4.8v5.9c0,0.5,0.4,0.9,0.9,0.9s0.9-0.4,0.9-0.9v-6.8
		c0-0.5-0.4-0.9-0.9-0.9h-4.8v-3.6c0-1.8,1.1-3.3,2.8-3.9l4.3-1.5c0.6,3,3.2,5.3,6.4,5.3h0.6l-1.2,1.2c-0.4,0.3-0.4,0.9,0,1.3
		c0.2,0.2,0.4,0.3,0.6,0.3s0.4-0.1,0.6-0.3l2.1-2.1l2.5,2.5c0.2,0.2,0.4,0.3,0.6,0.3c0.2,0,0.4-0.1,0.6-0.3c0.4-0.3,0.4-0.9,0-1.3
		l-1.6-1.6h0.6c3.2,0,5.8-2.3,6.4-5.3l4.3,1.5c1.7,0.6,2.8,2.2,2.8,3.9v3.6h-4.8c-0.5,0-0.9,0.4-0.9,0.9v20.9h-21v-7.3
		c0-0.5-0.4-0.9-0.9-0.9s-0.9,0.4-0.9,0.9v8.2c0,0.5,0.4,0.9,0.9,0.9h22.7c0.5,0,0.9-0.4,0.9-0.9v-20.9h4.8c0.5,0,0.9-0.4,0.9-0.9
		v-4.5C244.4,110.2,242.8,107.9,240.4,107.1z M229.2,110.8h-5.5c-2.4,0-4.4-1.8-4.7-4.1l7.4-2.9l7.4,2.9
		C233.6,109,231.6,110.8,229.2,110.8z"/>
	<path class="st1" d="M216.4,127.1c0.2,0,0.4-0.1,0.6-0.2s0.2-0.3,0.2-0.6s-0.1-0.4-0.2-0.6s-0.4-0.2-0.6-0.2s-0.4,0.1-0.6,0.2
		s-0.2,0.3-0.2,0.6s0.1,0.4,0.2,0.6S216.2,127.1,216.4,127.1z"/>
	<path class="st1" d="M226.5,117.9c0.2,0,0.4-0.1,0.6-0.2s0.2-0.3,0.2-0.6c0-0.2-0.1-0.4-0.2-0.6s-0.4-0.2-0.6-0.2
		c-0.2,0-0.4,0.1-0.6,0.2c-0.1,0.2-0.2,0.3-0.2,0.6c0,0.2,0.1,0.4,0.2,0.6C226.1,117.9,226.3,117.9,226.5,117.9z"/>
	<path class="st1" d="M225.9,123.1c0.1,0.2,0.4,0.2,0.6,0.2c0.2,0,0.4-0.1,0.6-0.2c0.1-0.2,0.2-0.3,0.2-0.6c0-0.2-0.1-0.4-0.2-0.6
		c-0.1-0.2-0.4-0.2-0.6-0.2c-0.2,0-0.4,0.1-0.6,0.2c-0.1,0.2-0.2,0.3-0.2,0.6C225.7,122.8,225.8,122.9,225.9,123.1z"/>
	<path class="st1" d="M225.9,128.5c0.1,0.1,0.4,0.2,0.6,0.2c0.2,0,0.4-0.1,0.6-0.2c0.1-0.1,0.2-0.4,0.2-0.6c0-0.2-0.1-0.4-0.2-0.6
		s-0.4-0.2-0.6-0.2c-0.2,0-0.4,0.1-0.6,0.2c-0.1,0.2-0.2,0.3-0.2,0.6C225.7,128.1,225.8,128.3,225.9,128.5z"/>
	<path class="st1" d="M225.9,133.8c0.1,0.1,0.4,0.2,0.6,0.2c0.2,0,0.4-0.1,0.6-0.2c0.1-0.1,0.2-0.4,0.2-0.6c0-0.2-0.1-0.4-0.2-0.6
		c-0.1-0.1-0.4-0.2-0.6-0.2c-0.2,0-0.4,0.1-0.6,0.2c-0.1,0.1-0.2,0.4-0.2,0.6C225.7,133.5,225.8,133.7,225.9,133.8z"/>
	<path class="st1" d="M234,128.3v-4.7c0-0.4-0.4-0.8-0.8-0.8s-0.8,0.3-0.8,0.8v4.7c0,0.4,0.4,0.8,0.8,0.8S234,128.7,234,128.3z"/>
	<path class="st1" d="M232.7,131.5c0.1,0.1,0.4,0.2,0.6,0.2s0.4-0.1,0.6-0.2s0.2-0.4,0.2-0.6c0-0.2-0.1-0.4-0.2-0.6
		s-0.4-0.2-0.6-0.2s-0.4,0.1-0.6,0.2s-0.2,0.4-0.2,0.6S232.6,131.4,232.7,131.5z"/>
</g>
<path class="st2" d="M246.7,198.5c0-1.4-0.7-2.7-1.8-3.5l-15.4-10.5v-2.7c0-0.9-0.7-1.6-1.6-1.6h-0.8v-3.1c0-2.1-1.7-3.7-3.7-3.7
	s-3.7,1.7-3.7,3.7v0.5c0,0.4,0.3,0.7,0.7,0.7c0.4,0,0.7-0.3,0.7-0.7v-0.5c0-1.3,1.1-2.4,2.4-2.4s2.4,1.1,2.4,2.4v3.1H225
	c-0.9,0-1.6,0.7-1.6,1.6v2.7L208,195c-1.1,0.8-1.8,2.1-1.8,3.5l0,3c0,0.9,0.7,1.6,1.6,1.6h7.8c0.4,0,0.7-0.3,0.7-0.7v-1.4
	c0-0.1,0.1-0.2,0.2-0.2h20c0.1,0,0.2,0.1,0.2,0.2v7.5c0,0.9,0.7,1.6,1.6,1.6h2.6v7.6h-9.5V217c0-2.7-2.2-4.9-4.9-4.9
	s-4.9,2.2-4.9,4.9v0.5h-9.5v-7.6h2.6c0.9,0,1.6-0.7,1.6-1.6v-2.9c0-0.4-0.3-0.7-0.7-0.7c-0.4,0-0.7,0.3-0.7,0.7v2.9
	c0,0.1-0.1,0.2-0.2,0.2h-5.1c-0.9,0-1.6,0.7-1.6,1.6v7.2c0,0.9,0.7,1.6,1.6,1.6h12.6c0,0,0.1,0,0.1,0c0,0,0,0,0,0c0,0,0.1,0,0.1,0
	l0,0c0,0,0.1,0,0.1,0c0,0,0,0,0,0c0,0,0.1,0,0.1,0c0,0,0,0,0,0c0.9-0.7,2.3-1,3.8-1s2.9,0.4,3.8,1c0,0,0,0,0,0c0,0,0,0,0.1,0
	c0,0,0,0,0,0c0,0,0,0,0.1,0c0,0,0,0,0,0c0,0,0.1,0,0.1,0l0,0c0,0,0.1,0,0.1,0c0,0,0,0,0,0c0,0,0,0,0,0h12.6c0.9,0,1.6-0.7,1.6-1.6
	v-7.2c0-0.9-0.7-1.6-1.6-1.6h-5.1c-0.1,0-0.2-0.1-0.2-0.2v-7.5c0-0.9-0.7-1.6-1.6-1.6h-20c-0.9,0-1.6,0.7-1.6,1.6v0.8h-7.1
	c-0.1,0-0.2-0.1-0.2-0.2v-1.1h0.2c0.9,0,1.7-0.3,2.4-0.7l13.4-9.2c0.5-0.3,1-0.5,1.6-0.5h2.6l0,0c0.6,0,1.1,0.2,1.6,0.5l13.4,9.2
	c0.7,0.5,1.5,0.7,2.4,0.7h0.2v1.1c0,0.1-0.1,0.2-0.2,0.2h-4.7c-0.4,0-0.7,0.3-0.7,0.7s0.3,0.7,0.7,0.7h4.7c0.9,0,1.6-0.7,1.6-1.6
	L246.7,198.5L246.7,198.5z M243.5,214.5h-1.3v-1.6h1.3V214.5z M209.4,212.9h1.3v1.6h-1.3V212.9z M209.6,209.9h1.1v1.7h-1.3v-1.5
	C209.4,210,209.5,209.9,209.6,209.9z M209.4,217.3v-1.5h1.3v1.7h-1.1C209.5,217.6,209.4,217.5,209.4,217.3z M230,217.1
	c-1.1-0.4-2.3-0.7-3.6-0.7s-2.5,0.2-3.6,0.7V217c0-2,1.6-3.6,3.6-3.6S230,215.1,230,217.1L230,217.1z M243.3,217.6h-1.1v-1.7h1.3
	v1.5C243.5,217.5,243.4,217.6,243.3,217.6z M243.5,210.1v1.5h-1.3v-1.7h1.1C243.4,209.9,243.5,210,243.5,210.1z M224.8,181.8
	c0-0.1,0.1-0.2,0.2-0.2h2.9c0.1,0,0.2,0.1,0.2,0.2v2.4h-3.4V181.8z M243.6,198.5l-13.4-9.2c-0.7-0.5-1.5-0.7-2.4-0.7l0,0h-2.6
	c-0.9,0-1.7,0.3-2.4,0.7l-13.4,9.2c-0.5,0.3-1.1,0.5-1.6,0.5h-0.2v-0.5c0-1,0.5-1.9,1.3-2.4l15.5-10.6h4.3l15.5,10.6
	c0.8,0.5,1.3,1.4,1.3,2.4v0.5h-0.2C244.6,199,244,198.8,243.6,198.5L243.6,198.5z"/>
<g>
	<path class="st2" d="M245.5,370.5v-11.1h1.8v0.5c0,0.5,0.4,0.9,0.9,0.9s0.9-0.4,0.9-0.9v-13.4c0-0.5-0.4-0.9-0.9-0.9
		s-0.9,0.4-0.9,0.9v1.3h-1.8c-0.5-4-3.9-7.1-7.9-7.1h-4.3v-3.9c0-0.5-0.4-0.9-0.9-0.9h-1.5v-1.4c0-0.5-0.4-0.9-0.9-0.9
		s-0.9,0.4-0.9,0.9v1.4h-1.5c-0.5,0-0.9,0.4-0.9,0.9v3.9h-4v-3.9c0-0.5-0.4-0.9-0.9-0.9h-1.5v-1.4c0-0.5-0.4-0.9-0.9-0.9
		s-0.9,0.4-0.9,0.9v1.4H217c-0.5,0-0.9,0.4-0.9,0.9v3.9h-3.3c0,0-0.1,0-0.1,0c0,0,0,0,0,0s0,0,0,0c-1.4,0-2.8,0.4-3.9,1.1
		c0,0-0.1,0-0.1,0.1c-2.3,1.4-3.8,3.9-3.8,6.8v12.3c0,0.5,0.4,0.9,0.9,0.9h1.8v2.7c0,0.5,0.4,0.9,0.9,0.9h1.9v2.2
		c0,0.5,0.4,0.9,0.9,0.9s0.9-0.4,0.9-0.9v-2.2h1.9c0.5,0,0.9-0.4,0.9-0.9V362h1.2c0.5,0,0.9-0.4,0.9-0.9v-2.6c0-3.3,2.7-6,6-6h3.4
		c3.3,0,6,2.7,6,6v11.7h-4.9c-0.5,0-0.9,0.4-0.9,0.9s0.4,0.9,0.9,0.9h16.6c1.4,0,2.6,1.2,2.6,2.6v2.7h-40.1v-2.7
		c0-1.5,1.2-2.6,2.6-2.6h10.7c0.5,0,0.9-0.4,0.9-0.9s-0.4-0.9-0.9-0.9h-10.7c-2.4,0-4.4,2-4.4,4.4v3.6c0,0.5,0.4,0.9,0.9,0.9h41.9
		c0.5,0,0.9-0.4,0.9-0.9v-3.6C248.5,372.7,247.2,371,245.5,370.5z M247.3,357.6h-1.8v-8h1.8V357.6z M228.4,337.7h3v3h-3V337.7z
		 M217.9,337.7h3v3h-3V337.7z M210.1,343.2c0.6-0.3,1.1-0.5,1.8-0.6v8.6c0,0.5-0.4,0.9-0.9,0.9s-0.9-0.4-0.9-0.9V343.2z
		 M213.2,363.8h-3.9V362h3.9V363.8z M234.2,370.2v-11.7c0-4.3-3.5-7.7-7.7-7.7H223c-4.3,0-7.7,3.5-7.7,7.7v1.7h-8.7v-11.5
		c0-1.6,0.6-3.1,1.7-4.3v6.7c0,1.5,1.2,2.7,2.7,2.7c1.5,0,2.7-1.2,2.7-2.7v-8.6h23.9c3.4,0,6.2,2.8,6.2,6.2v21.5H234.2z"/>
	<path class="st2" d="M224.6,371.8c0.2-0.2,0.3-0.4,0.3-0.6c0-0.2-0.1-0.5-0.3-0.6c-0.2-0.2-0.4-0.3-0.6-0.3c-0.2,0-0.5,0.1-0.6,0.3
		c-0.2,0.2-0.3,0.4-0.3,0.6c0,0.2,0.1,0.5,0.3,0.6c0.2,0.2,0.4,0.3,0.6,0.3C224.2,372,224.5,371.9,224.6,371.8z"/>
	<path class="st2" d="M248.8,362.4c-0.2-0.2-0.4-0.3-0.6-0.3c-0.2,0-0.5,0.1-0.6,0.3c-0.2,0.2-0.3,0.4-0.3,0.6
		c0,0.2,0.1,0.5,0.3,0.6c0.2,0.2,0.4,0.3,0.6,0.3c0.2,0,0.5-0.1,0.6-0.3c0.2-0.2,0.3-0.4,0.3-0.6
		C249.1,362.8,248.9,362.5,248.8,362.4z"/>
	<path class="st2" d="M238.1,345.3c-1.9,0-3.4,1.5-3.4,3.4c0,1.9,1.5,3.4,3.4,3.4c1.9,0,3.4-1.5,3.4-3.4
		C241.5,346.8,239.9,345.3,238.1,345.3z M238.1,350.3c-0.9,0-1.6-0.7-1.6-1.6s0.7-1.6,1.6-1.6s1.6,0.7,1.6,1.6
		S239,350.3,238.1,350.3z"/>
	<path class="st2" d="M240.6,357.6h-2.5c-0.5,0-0.9,0.4-0.9,0.9s0.4,0.9,0.9,0.9h2.5c0.5,0,0.9-0.4,0.9-0.9S241.1,357.6,240.6,357.6
		z"/>
	<path class="st2" d="M240.6,361.5h-2.5c-0.5,0-0.9,0.4-0.9,0.9c0,0.5,0.4,0.9,0.9,0.9h2.5c0.5,0,0.9-0.4,0.9-0.9
		C241.5,361.8,241.1,361.5,240.6,361.5z"/>
	<path class="st2" d="M229.9,347.8c-0.2,0-0.5,0.1-0.6,0.3c-0.2,0.2-0.3,0.4-0.3,0.6s0.1,0.5,0.3,0.6c0.2,0.2,0.4,0.3,0.6,0.3
		c0.2,0,0.5-0.1,0.6-0.3s0.3-0.4,0.3-0.6c0-0.2-0.1-0.5-0.3-0.6C230.4,347.9,230.2,347.8,229.9,347.8z"/>
	<path class="st2" d="M229.9,344.8c-0.2,0-0.5,0.1-0.6,0.3c-0.2,0.2-0.3,0.4-0.3,0.6c0,0.2,0.1,0.5,0.3,0.6c0.2,0.2,0.4,0.3,0.6,0.3
		c0.2,0,0.5-0.1,0.6-0.3c0.2-0.2,0.3-0.4,0.3-0.6c0-0.2-0.1-0.5-0.3-0.6C230.4,344.9,230.2,344.8,229.9,344.8z"/>
</g>
<path class="st1" d="M247.1,270.9v-14.3c0-0.5-0.4-1-1-1H236c-0.6,0-1,0.4-1,1c0,0.5,0.4,1,1,1h9.1v12.5h-3.7v-2.9c0-0.5-0.4-1-1-1
	c-0.6,0-1,0.5-1,1v2.9h-3.5v-5.5c0-0.5-0.4-1-1-1c-0.6,0-1,0.5-1,1v5.5h-3.5v-2.9c0-0.5-0.4-1-1-1s-1,0.5-1,1v2.9h-3.5v-5.5
	c0-0.5-0.4-1-1-1s-1,0.5-1,1v5.5h-3.5v-2.9c0-0.5-0.4-1-1-1c-0.6,0-1,0.5-1,1v2.9h-3.5v-5.5c0-0.5-0.4-1-1-1c-0.6,0-1,0.5-1,1v5.5
	h-2.6c-0.3,0-0.6,0-0.9-0.1v-2.9c0-0.5-0.4-1-1-1s-1,0.5-1,1v2.2c-2-1-3.4-3.1-3.4-5.5c0-3.4,2.8-6.3,6.3-6.3h18.1c0.6,0,1-0.5,1-1
	c0-0.5-0.4-1-1-1h-18.1c-4.6,0-8.2,3.7-8.2,8.3v14.5c0,3.3,2,6.2,4.8,7.5v14.3c0,0.5,0.4,1,1,1h36.8c4.6,0,8.2-3.7,8.2-8.2v-14.5
	C251.9,275.1,249.9,272.2,247.1,270.9z M203,278.4v-9.1c1.5,1.8,3.8,2.9,6.3,2.9h34.3c3.4,0,6.3,2.8,6.3,6.3s-2.8,6.3-6.3,6.3h-34.3
	C205.8,284.6,203,281.8,203,278.4z M249.9,292.9c0,2.5-1.4,4.6-3.5,5.6v-2.3c0-0.5-0.4-1-1-1s-1,0.5-1,1v2.9c-0.3,0-0.5,0-0.7,0
	h-2.8v-5.5c0-0.5-0.4-1-1-1c-0.6,0-1,0.5-1,1v5.5h-3.5v-2.9c0-0.5-0.4-1-1-1c-0.6,0-1,0.5-1,1v2.9h-3.5v-5.5c0-0.5-0.4-1-1-1
	c-0.6,0-1,0.5-1,1v5.5h-3.5v-2.9c0-0.5-0.4-1-1-1s-1,0.5-1,1v2.9h-3.5v-5.5c0-0.5-0.4-1-1-1s-1,0.5-1,1v5.5h-3.5v-2.9
	c0-0.5-0.4-1-1-1s-1,0.5-1,1v2.9h-3.5v-12.5h35.8c2.5,0,4.7-1.1,6.3-2.9L249.9,292.9L249.9,292.9z"/>
<path class="st1" d="M229.8,263.4c0.3,0,0.5-0.1,0.7-0.3c0.2-0.2,0.3-0.4,0.3-0.7s-0.1-0.5-0.3-0.7c-0.2-0.2-0.4-0.3-0.7-0.3
	s-0.5,0.1-0.7,0.3c-0.2,0.2-0.3,0.4-0.3,0.7s0.1,0.5,0.3,0.7S229.6,263.4,229.8,263.4z"/>
<path class="st1" d="M215.4,295c-0.3,0-0.5,0.1-0.7,0.3c-0.2,0.2-0.3,0.4-0.3,0.7s0.1,0.5,0.3,0.7c0.2,0.2,0.4,0.3,0.7,0.3
	s0.5-0.1,0.7-0.3c0.2-0.2,0.3-0.4,0.3-0.7s-0.1-0.5-0.3-0.7C215.9,295,215.7,295,215.4,295z"/>
<rect x="60.5" y="4" class="st9" width="563" height="405"/>
</svg>
