<?xml version="1.0" encoding="utf-8"?>
<!-- Generator: Adobe Illustrator 23.0.5, SVG Export Plug-In . SVG Version: 6.00 Build 0)  -->
<svg version="1.1" id="Layer_1" xmlns="http://www.w3.org/2000/svg" xmlns:xlink="http://www.w3.org/1999/xlink" x="0px" y="0px"
	 viewBox="0 0 318.9 318.9" style="enable-background:new 0 0 318.9 318.9;" xml:space="preserve">
<style type="text/css">
	.st0{fill:#10263E;}
	.st1{fill:#FFFFFF;}
	.st2{fill:#FBB040;}
	.st3{opacity:0.3;fill:#FFFFFF;enable-background:new    ;}
</style>
<g>
	<g>
		<rect x="22.3" y="22.3" class="st0" width="274.4" height="274.4"/>
		<rect class="st0" width="318.9" height="318.9"/>
		<g>
			<g>
				<polygon class="st1" points="152.9,123.7 66.8,161 152.9,149.2 200.3,161 				"/>
				<g>
					<polygon class="st2" points="99.9,247.3 157,232.9 219.7,296.6 260.5,277.6 256.2,230.9 229.6,253.1 160.1,217.4 					"/>
					<polygon class="st2" points="296.6,197.3 253.3,154.8 251.8,121.5 183.8,57.1 210.1,152.7 243.7,162.1 268.7,188.6 
						261.7,219.7 					"/>
					<polygon class="st1" points="241.1,129.9 242.6,148.3 219.7,137.1 211.1,102.4 					"/>
					<polygon class="st1" points="152.9,167.8 85.9,209.3 157.7,185.8 197.1,177.4 					"/>
				</g>
				<polygon class="st2" points="104.2,48 156.8,57.1 107.1,22.3 22.3,22.3 72.1,85 145.9,102.4 104.2,67.6 				"/>
				<polygon class="st2" points="51.8,217.4 99.9,172.3 22.3,192.4 22.3,296.6 120.6,296.6 				"/>
			</g>
		</g>
	</g>
	<path class="st3" d="M144.4,296.6H28.9L296.6,28.9v115.5L144.4,296.6z M22.3,84.8v149.4l212-212H84.8L22.3,84.8z"/>
</g>
</svg>
