<?xml version="1.0" encoding="utf-8"?>
<!-- Generator: Adobe Illustrator 23.0.5, SVG Export Plug-In . SVG Version: 6.00 Build 0)  -->
<svg version="1.1" id="Capa_1" xmlns="http://www.w3.org/2000/svg" xmlns:xlink="http://www.w3.org/1999/xlink" x="0px" y="0px"
	 viewBox="0 0 480 480" style="enable-background:new 0 0 480 480;" xml:space="preserve">
<style type="text/css">
	.st0{fill:#FBB040;}
</style>
<g>
	<g>
		<path class="st0" d="M480,256v-32c0-4.4-3.6-8-8-8H352V56c0-4.4-3.6-8-8-8h-64.9C289.9,37.5,296,23.1,296,8c0-4.4-3.6-8-8-8
			c-19.7,0-37.9,10.4-48,27.3C229.9,10.4,211.7,0,192,0c-4.4,0-8,3.6-8,8c0,15.1,6.1,29.5,16.9,40H136c-4.4,0-8,3.6-8,8v160H8
			c-4.4,0-8,3.6-8,8v32c0,4.4,3.6,8,8,8h262.7l-48,16H104c-2.1,0-4.2,0.8-5.7,2.3L64,316.7l-10.3-10.3c-3.1-3.1-8.2-3.1-11.3,0
			l-40,40c-3.1,3.1-3.1,8.2,0,11.3l120,120c3.1,3.1,8.2,3.1,11.3,0l40-40c3.1-3.1,3.1-8.2,0-11.3l-1.3-1.3l46.2-33H376
			c2,0,3.9-0.8,5.4-2.1l87-79.7c13.1-12,15.4-31.8,5.4-46.5C477.4,262.9,480,259.7,480,256z M279,17c-3.5,14.9-15.1,26.5-30,30
			C252.5,32.1,264.1,20.5,279,17z M231,47c-14.9-3.5-26.5-15.1-30-30C215.9,20.5,227.5,32.1,231,47z M144,64h192v152h-86l68.4-91.2
			c2.1-2.8,2.1-6.8,0-9.6l-24-32c-1.5-2-3.9-3.2-6.4-3.2h-96c-2.5,0-4.9,1.2-6.4,3.2l-24,32c-2.1,2.8-2.1,6.8,0,9.6L230,216h-86V64z
			 M202.4,128l17.3,47.6L184,128H202.4z M184,112l12-16h24.7l-16,16H184z M219.4,128h41.2L240,184.6L219.4,128z M227.3,112L240,99.3
			l12.7,12.7H227.3z M275.3,112l-16-16H284l12,16H275.3z M296,128l-35.7,47.6l17.3-47.6L296,128L296,128z M16,248v-16h448v16H16z
			 M341.9,268.6c-0.9-1.6-1.8-3.2-3-4.6h72l-54,48h-28.4C344.2,303.7,350.2,284.3,341.9,268.6z M128,460.7L19.3,352L48,323.3
			L156.7,432L128,460.7z M457.6,298.4L372.9,376H216c-1.7,0-3.3,0.5-4.6,1.5l-50.5,36.1L75.3,328l32-32H224c0.9,0,1.7-0.1,2.5-0.4
			l81.8-27.3c8.5-2.8,17.6,1.7,20.5,10.2s-1.7,17.6-10.2,20.5c-0.3,0.1-0.6,0.2-0.9,0.3L270.9,312H248v16h112c2,0,3.8-0.7,5.3-2
			l64.1-57c3.6-3.2,8.3-5,13.1-5h1.7c10.9,0,19.8,8.8,19.8,19.7C464.1,289.3,461.7,294.6,457.6,298.4z"/>
	</g>
</g>
<g>
	<g>
		
			<rect x="44" y="339" transform="matrix(0.7071 -0.7071 0.7071 0.7071 -236.5042 141.0463)" class="st0" width="16" height="33.9"/>
	</g>
</g>
<g>
	<g>
		<rect x="376" y="32" class="st0" width="16" height="16"/>
	</g>
</g>
<g>
	<g>
		<rect x="392" y="16" class="st0" width="16" height="16"/>
	</g>
</g>
<g>
	<g>
		<rect x="408" y="32" class="st0" width="16" height="16"/>
	</g>
</g>
<g>
	<g>
		<rect x="392" y="48" class="st0" width="16" height="16"/>
	</g>
</g>
<g>
	<g>
		<rect x="464" y="8" class="st0" width="16" height="16"/>
	</g>
</g>
<g>
	<g>
		<rect x="400" y="96" class="st0" width="16" height="16"/>
	</g>
</g>
<g>
	<g>
		<rect x="72" y="88" class="st0" width="16" height="16"/>
	</g>
</g>
<g>
	<g>
		<rect x="72" y="120" class="st0" width="16" height="16"/>
	</g>
</g>
<g>
	<g>
		<rect x="88" y="104" class="st0" width="16" height="16"/>
	</g>
</g>
<g>
	<g>
		<rect x="56" y="104" class="st0" width="16" height="16"/>
	</g>
</g>
<g>
	<g>
		<rect y="48" class="st0" width="16" height="16"/>
	</g>
</g>
<g>
	<g>
		<rect x="72" y="8" class="st0" width="16" height="16"/>
	</g>
</g>
</svg>
