<?xml version="1.0" encoding="utf-8"?>
<!-- Generator: Adobe Illustrator 23.0.5, SVG Export Plug-In . SVG Version: 6.00 Build 0)  -->
<svg version="1.1" id="Layer_1" xmlns="http://www.w3.org/2000/svg" xmlns:xlink="http://www.w3.org/1999/xlink" x="0px" y="0px"
	 viewBox="0 0 340.04 340.04" style="enable-background:new 0 0 340.04 340.04;" xml:space="preserve">
<style type="text/css">
	.st0{fill:#FBB040;}
	.st1{fill:#2C3E4F;}
	.st2{fill:#FDD08D;}
</style>
<rect class="st0" width="340.04" height="340.04"/>
<path class="st1" d="M135.32,195.01c0,0-9.22,12.47-12.11,14.82c-2.89,2.35-68.75,23.19-79.21,37.23
	c-13.46,18.06-18.71,58.91-21.41,92.98h294.86c-2.71-34.07-7.96-74.91-21.42-92.98c-10.46-14.04-76.32-34.88-79.21-37.23
	c-2.89-2.35-12.11-14.82-12.11-14.82h-0.63v-13.66c3.96-4.97,7.01-10.03,8.97-14.08c1.31-2.72,2.44-8.52,3.4-15.91
	c10.85-4.98,12.17-22.33,12.62-32.05c0.24-5.07-2.37-5.22-5.11-4.03c0.12-1.04,0.19-2.1,0.28-3.16c2.87-10.06,5.47-20.19,7.74-30.4
	c1.74-7.83,3.13-16.63-1.22-23.36c1.52,0.2,3.04,0.4,4.56,0.6c-6.11-14.05-20.17-23.56-35.07-27.16
	c-14.9-3.59-30.59-1.94-45.55,1.39c-7.6,1.69-15.58,4.19-20.79,9.83c-6.7,0.19-13.37,1.29-19.75,3.34c2.36,1,4.71,2,7.07,3.01
	c-10.49,11.2-15.69,27.14-13.84,42.36c0.82,6.72,3.07,13.21,6.37,19.12c0.48,1.35,0.98,2.7,1.5,4.04c-2.32-0.68-4.27-0.01-4.06,4.41
	c0.46,9.73,1.77,27.09,12.63,32.06c0.96,7.39,2.09,13.19,3.4,15.91c1.92,3.97,4.88,8.9,8.71,13.76v13.98H135.32z"/>
<path class="st2" d="M231.18,51.83c1.59,2.24,3.04,4.59,4.14,7.13c-1.52-0.2-3.04-0.4-4.56-0.6c4.35,6.73,2.95,15.53,1.22,23.36
	c-2.26,10.21-4.87,20.34-7.74,30.4c-0.08,1.06-0.16,2.12-0.28,3.16c2.74-1.19,5.35-1.04,5.11,4.03
	c-0.46,9.72-1.77,27.07-12.62,32.05c-0.96,7.39-2.09,13.19-3.4,15.91c-1.96,4.05-5.01,9.11-8.97,14.08v13.66h0.63
	c0,0,9.22,12.47,12.11,14.82c2.89,2.35,68.75,23.19,79.21,37.23c13.46,18.06,18.71,58.91,21.42,92.98h22.59V160.69L231.18,51.83z"/>
<g>
</g>
<g>
</g>
<g>
</g>
<g>
</g>
<g>
</g>
</svg>
